<?xml version="1.0" encoding="UTF-8"?>
<svg id="Calque_2" data-name="Calque 2" xmlns="http://www.w3.org/2000/svg" viewBox="0 0 325.76 105.46">
  <defs>
    <style>
      .cls-1 {
        fill: none;
        stroke: #000;
        stroke-miterlimit: 10;
        stroke-width: 5.38px;
      }
    </style>
  </defs>
  <g id="Calque_1-2" data-name="Calque 1">
    <g>
      <g>
        <path d="m37.49,50.3h2.72l6.59,13.96,7.09-13.96h1.61l-8.53,16.77h-1.28l-8.2-16.77Z"/>
        <path d="m58.3,50.3h2.46v16.54h-2.46v-16.54Z"/>
        <path d="m67.11,65.68c-1.37-.93-2.13-2.25-2.27-3.97h2.13c.11,1.45.63,2.52,1.57,3.2.94.68,2.32,1.03,4.15,1.03,1.62,0,2.86-.28,3.72-.85.86-.57,1.29-1.38,1.29-2.43,0-.63-.17-1.16-.5-1.58-.33-.42-.89-.8-1.69-1.13-.8-.33-1.91-.64-3.34-.92-2.28-.44-4-1.01-5.16-1.71-1.16-.7-1.74-1.69-1.74-2.96,0-1.42.66-2.48,1.98-3.2,1.32-.72,3.06-1.08,5.22-1.08s3.89.39,5.11,1.17c1.22.78,1.93,1.86,2.11,3.25h-2.1c-.24-1.15-.79-1.98-1.67-2.5-.87-.52-2.08-.78-3.63-.78s-2.63.25-3.41.73c-.78.49-1.17,1.17-1.17,2.03,0,.52.15.96.45,1.32.3.36.82.69,1.57.99.75.3,1.81.59,3.2.87,1.7.35,3.07.72,4.1,1.13,1.03.41,1.81.94,2.33,1.59.52.65.78,1.48.78,2.49,0,1.48-.67,2.63-2,3.46-1.33.83-3.14,1.24-5.42,1.24s-4.25-.46-5.62-1.39Z"/>
        <path d="m84.23,50.3h2.46v16.54h-2.46v-16.54Z"/>
        <path d="m91.15,50.3h7.7c1.98,0,3.56.35,4.72,1.04,1.17.69,1.75,1.64,1.75,2.83,0,1.02-.42,1.9-1.25,2.63-.83.73-1.93,1.2-3.28,1.41,1.8.17,3.17.59,4.11,1.24.94.65,1.42,1.63,1.42,2.94,0,1.43-.59,2.53-1.77,3.29-1.18.76-2.89,1.15-5.13,1.15h-8.27v-16.54Zm6.8,7.39c1.59,0,2.81-.29,3.66-.86.85-.57,1.28-1.41,1.28-2.52,0-.98-.4-1.7-1.2-2.17-.8-.47-2.02-.71-3.66-.71h-4.42v6.26h4.35Zm1.7,8.01c1.32,0,2.35-.3,3.09-.9.74-.6,1.11-1.44,1.11-2.53,0-1.15-.51-2.01-1.52-2.59-1.02-.57-2.52-.86-4.52-.86h-4.2v6.87h6.05Z"/>
        <path d="m108.87,50.3h2.46v15.4h10.39v1.13h-12.85v-16.54Z"/>
        <path d="m123.89,50.3h14.01v1.13h-11.55v5.98h10.2v1.11h-10.2v7.18h11.55v1.13h-14.01v-16.54Z"/>
        <path d="m164.99,50.3v16.54h-2.46v-13.89l-6.43,13.89h-1.16l-6.9-14.08v14.08h-1.46v-16.54h2.81l6.59,13.61,6.31-13.61h2.69Z"/>
        <path d="m168.51,50.3h14.01v1.13h-11.55v5.98h10.2v1.11h-10.2v7.18h11.55v1.13h-14.01v-16.54Z"/>
        <path d="m184.93,50.3h2.48l10.06,12.83v-12.83h2.08v16.54h-1.23l-11.31-14.39v14.39h-2.08v-16.54Z"/>
        <path d="m203.07,50.3h6.43c3.09,0,5.43.68,7.04,2.03,1.61,1.35,2.41,3.34,2.41,5.95s-.81,4.83-2.42,6.32c-1.61,1.49-3.91,2.23-6.89,2.23h-6.57v-16.54Zm6.9,15.4c2.09,0,3.7-.64,4.83-1.91,1.13-1.28,1.69-3.11,1.69-5.5,0-2.25-.55-3.96-1.65-5.11s-2.72-1.74-4.87-1.74h-4.44v14.27h4.44Z"/>
        <path d="m222.98,50.3h2.46v16.54h-2.46v-16.54Z"/>
        <path d="m229.9,50.3h2.48l10.06,12.83v-12.83h2.08v16.54h-1.23l-11.31-14.39v14.39h-2.08v-16.54Z"/>
        <path d="m251.8,66.07c-1.37-.67-2.42-1.64-3.14-2.92-.72-1.28-1.09-2.8-1.09-4.56s.35-3.28,1.06-4.56c.71-1.28,1.73-2.26,3.07-2.94,1.34-.69,2.93-1.03,4.77-1.03,2.24,0,4.07.48,5.52,1.45s2.31,2.3,2.61,4h-2.13c-.28-1.39-.94-2.45-1.96-3.2-1.02-.75-2.35-1.12-3.97-1.12-2.03,0-3.62.65-4.77,1.95-1.15,1.3-1.72,3.11-1.72,5.42s.59,4.16,1.76,5.45c1.17,1.28,2.82,1.92,4.95,1.92.99,0,1.9-.11,2.72-.32.82-.21,1.6-.55,2.34-1v-5.36h-5.79v-1.06h8.24v6.59c-.93.74-2.04,1.31-3.32,1.7-1.28.39-2.69.59-4.22.59-1.92,0-3.57-.33-4.94-1Z"/>
        <path d="m272.96,62.69h5.34v.63h-5.34v-.63Z"/>
        <path d="m4.37,83.52c-.96-.94-1.44-2.28-1.44-4.02s.48-3.02,1.43-3.95c.95-.93,2.31-1.39,4.09-1.39,1.45,0,2.62.3,3.53.91.91.61,1.45,1.46,1.61,2.54h-1.35c-.17-.86-.58-1.53-1.24-2.01-.66-.48-1.49-.73-2.48-.73-1.3,0-2.29.4-2.98,1.2-.69.8-1.04,1.94-1.04,3.42s.35,2.68,1.05,3.49c.7.81,1.7,1.22,3.01,1.22,1,0,1.82-.24,2.47-.72.65-.48,1.06-1.15,1.23-2.02h1.35c-.17,1.09-.71,1.93-1.61,2.54-.91.61-2.07.91-3.5.91-1.78,0-3.15-.47-4.11-1.41Z"/>
        <path d="m16.91,84.45c-.64-.31-1.13-.76-1.48-1.34-.35-.58-.52-1.25-.52-2s.17-1.42.52-2c.35-.58.84-1.02,1.48-1.34.64-.31,1.38-.47,2.23-.47s1.59.16,2.24.47c.64.31,1.14.76,1.49,1.34s.52,1.25.52,2-.17,1.43-.52,2-.84,1.02-1.49,1.34c-.64.31-1.39.47-2.24.47s-1.59-.16-2.23-.47Zm4.32-.99c.51-.57.76-1.35.76-2.35s-.25-1.78-.76-2.35-1.21-.85-2.09-.85-1.58.28-2.09.85c-.5.57-.75,1.35-.75,2.35s.25,1.78.75,2.35c.5.57,1.2.85,2.09.85s1.58-.28,2.09-.85Z"/>
        <path d="m25.17,77.45h1.38v1.29c.24-.44.61-.79,1.11-1.05.5-.26,1.07-.39,1.7-.39.97,0,1.73.25,2.29.75.56.5.84,1.18.84,2.04v4.68h-1.38v-4.83c0-.65-.18-1.15-.54-1.5-.36-.35-.87-.53-1.52-.53-.76,0-1.36.25-1.82.74s-.68,1.14-.68,1.95v4.17h-1.38v-7.33Z"/>
        <path d="m36.07,84.46c-.63-.31-1.12-.75-1.46-1.32-.34-.57-.51-1.25-.51-2.03s.17-1.45.51-2.03c.34-.57.82-1.01,1.45-1.32.63-.31,1.37-.46,2.21-.46,1.04,0,1.89.22,2.56.65.67.43,1.09,1.03,1.25,1.8h-1.12c-.14-.57-.45-1.02-.92-1.35-.47-.33-1.04-.49-1.71-.49-.88,0-1.57.29-2.09.86-.51.57-.77,1.35-.77,2.34s.26,1.77.77,2.34c.51.57,1.21.86,2.09.86.66,0,1.23-.16,1.7-.49.48-.33.79-.78.93-1.35h1.12c-.16.77-.58,1.37-1.26,1.8-.68.43-1.52.65-2.54.65-.85,0-1.59-.15-2.22-.46Z"/>
        <path d="m49.41,83.82c.46-.33.76-.78.89-1.35h1.12c-.19.77-.62,1.37-1.3,1.8-.68.43-1.51.65-2.48.65-.82,0-1.53-.15-2.15-.46-.61-.31-1.09-.75-1.42-1.32-.33-.57-.5-1.24-.5-2s.16-1.46.49-2.03c.33-.58.8-1.02,1.41-1.34.61-.31,1.32-.47,2.13-.47,1.22,0,2.17.33,2.85.99.68.66,1.04,1.58,1.07,2.78h-6.58v.08c0,.99.24,1.76.72,2.32.48.56,1.16.84,2.03.84.68,0,1.25-.16,1.71-.49Zm-3.58-5.24c-.46.44-.74,1.07-.84,1.88h5.23c-.11-.82-.39-1.45-.83-1.88-.44-.44-1.03-.66-1.76-.66s-1.35.22-1.81.67Z"/>
        <path d="m53.27,77.45h1.38v1.36c.28-.47.68-.84,1.2-1.11.52-.27,1.11-.4,1.77-.4,1.17,0,2.08.34,2.74,1.01.66.67.99,1.6.99,2.77s-.33,2.13-1,2.82c-.67.68-1.58,1.02-2.74,1.02-.68,0-1.27-.13-1.78-.4-.51-.27-.91-.66-1.2-1.17v4.26h-1.38v-10.17Zm5.44,6.47c.41-.27.72-.66.94-1.15s.33-1.06.33-1.71c0-.98-.24-1.75-.71-2.31-.47-.56-1.11-.84-1.92-.84-.53,0-1,.13-1.41.4-.41.27-.73.65-.96,1.14-.22.49-.34,1.05-.34,1.69,0,.98.24,1.75.72,2.33.48.58,1.13.87,1.94.87.53,0,1-.14,1.41-.41Z"/>
        <path d="m64.08,84.38c-.32-.36-.48-.91-.48-1.66v-4.67h-1.32l.21-.61h1.12l.54-2.06h.82v2.06h2.05l-.19.61h-1.85v4.87c0,.91.34,1.36,1.02,1.36.36,0,.71-.09,1.05-.28v.64c-.42.18-.92.27-1.51.27-.65,0-1.13-.18-1.45-.54Z"/>
        <path d="m68.76,76.28c-.19-.17-.28-.39-.28-.67s.09-.5.28-.67c.19-.17.43-.25.73-.25s.54.08.73.25c.19.17.28.39.28.67s-.09.5-.28.67c-.19.17-.43.25-.73.25s-.54-.08-.73-.25Zm.04,1.17h1.38v7.33h-1.38v-7.33Z"/>
        <path d="m74.29,84.45c-.64-.31-1.13-.76-1.48-1.34-.35-.58-.52-1.25-.52-2s.17-1.42.52-2c.35-.58.84-1.02,1.48-1.34.64-.31,1.38-.47,2.23-.47s1.59.16,2.24.47c.64.31,1.14.76,1.49,1.34s.52,1.25.52,2-.17,1.43-.52,2-.84,1.02-1.49,1.34c-.64.31-1.39.47-2.24.47s-1.59-.16-2.23-.47Zm4.32-.99c.51-.57.76-1.35.76-2.35s-.25-1.78-.76-2.35-1.21-.85-2.09-.85-1.58.28-2.09.85c-.5.57-.75,1.35-.75,2.35s.25,1.78.75,2.35c.5.57,1.2.85,2.09.85s1.58-.28,2.09-.85Z"/>
        <path d="m82.54,77.45h1.38v1.29c.24-.44.61-.79,1.11-1.05.5-.26,1.07-.39,1.7-.39.97,0,1.73.25,2.29.75.56.5.84,1.18.84,2.04v4.68h-1.38v-4.83c0-.65-.18-1.15-.54-1.5-.36-.35-.87-.53-1.52-.53-.76,0-1.36.25-1.82.74s-.68,1.14-.68,1.95v4.17h-1.38v-7.33Z"/>
        <path d="m97.31,84.44c-.58-.32-1.04-.78-1.36-1.35-.32-.58-.49-1.24-.49-1.97s.15-1.42.46-2c.31-.57.74-1.02,1.31-1.34.56-.32,1.21-.48,1.95-.48.67,0,1.26.13,1.78.4.52.26.92.64,1.21,1.11v-4.25h1.38v10.21h-1.38v-1.33c-.28.48-.67.84-1.16,1.1-.49.25-1.06.38-1.71.38-.75,0-1.41-.16-2-.49Zm3.59-.51c.4-.26.72-.64.94-1.12.22-.48.34-1.04.34-1.67s-.11-1.22-.34-1.71c-.22-.49-.54-.87-.96-1.14-.41-.26-.89-.4-1.43-.4-.8,0-1.43.29-1.91.86-.47.57-.71,1.35-.71,2.33,0,.65.11,1.22.33,1.7s.53.87.93,1.14c.4.27.87.4,1.4.4s.99-.13,1.4-.4Z"/>
        <path d="m105.43,77.52c.26-.21.47-.49.64-.84.16-.35.24-.71.23-1.08-.1.06-.21.09-.33.09-.22,0-.4-.07-.54-.21s-.21-.32-.21-.54c0-.23.07-.42.22-.56.14-.14.34-.22.59-.22.28,0,.5.1.66.31.16.21.24.49.24.86,0,.47-.12.93-.36,1.38-.24.45-.54.78-.91,1l-.22-.18Z"/>
        <path d="m109.27,84.17c-.55-.5-.83-1.2-.83-2.09v-4.63h1.38v4.78c0,.67.18,1.18.53,1.54.35.36.86.54,1.52.54.76,0,1.37-.25,1.83-.74.46-.49.7-1.14.7-1.95v-4.17h1.38v7.33h-1.38v-1.29c-.24.45-.61.8-1.11,1.05-.5.25-1.07.38-1.72.38-.98,0-1.74-.25-2.29-.75Z"/>
        <path d="m117.84,77.45h1.38v1.29c.24-.44.61-.79,1.11-1.05.5-.26,1.07-.39,1.7-.39.97,0,1.73.25,2.29.75.56.5.84,1.18.84,2.04v4.68h-1.38v-4.83c0-.65-.18-1.15-.54-1.5-.36-.35-.87-.53-1.52-.53-.76,0-1.36.25-1.82.74s-.68,1.14-.68,1.95v4.17h-1.38v-7.33Z"/>
        <path d="m132.62,83.82c.46-.33.76-.78.89-1.35h1.12c-.19.77-.62,1.37-1.3,1.8-.68.43-1.51.65-2.48.65-.82,0-1.53-.15-2.15-.46-.61-.31-1.09-.75-1.42-1.32-.33-.57-.5-1.24-.5-2s.16-1.46.49-2.03c.33-.58.8-1.02,1.41-1.34.61-.31,1.32-.47,2.13-.47,1.22,0,2.17.33,2.85.99.68.66,1.04,1.58,1.07,2.78h-6.58v.08c0,.99.24,1.76.72,2.32.48.56,1.16.84,2.03.84.68,0,1.25-.16,1.71-.49Zm-3.58-5.24c-.46.44-.74,1.07-.84,1.88h5.23c-.11-.82-.39-1.45-.83-1.88-.44-.44-1.03-.66-1.76-.66s-1.35.22-1.81.67Z"/>
        <path d="m140.76,76.28c-.19-.17-.28-.39-.28-.67s.09-.5.28-.67c.19-.17.43-.25.73-.25s.54.08.73.25c.19.17.28.39.28.67s-.09.5-.28.67c-.19.17-.43.25-.73.25s-.54-.08-.73-.25Zm.04,1.17h1.38v7.33h-1.38v-7.33Z"/>
        <path d="m146.13,84.44c-.58-.32-1.04-.78-1.36-1.35-.32-.58-.49-1.24-.49-1.97s.15-1.42.46-2c.31-.57.74-1.02,1.31-1.34.56-.32,1.21-.48,1.95-.48.67,0,1.26.13,1.78.4.52.26.92.64,1.21,1.11v-4.25h1.38v10.21h-1.38v-1.33c-.28.48-.67.84-1.16,1.1-.49.25-1.06.38-1.71.38-.75,0-1.41-.16-2-.49Zm3.59-.51c.4-.26.72-.64.94-1.12.22-.48.34-1.04.34-1.67s-.11-1.22-.34-1.71c-.22-.49-.54-.87-.96-1.14-.41-.26-.89-.4-1.43-.4-.8,0-1.43.29-1.91.86-.47.57-.71,1.35-.71,2.33,0,.65.11,1.22.33,1.7s.53.87.93,1.14c.4.27.87.4,1.4.4s.99-.13,1.4-.4Z"/>
        <path d="m159.98,83.82c.46-.33.76-.78.89-1.35h1.12c-.19.77-.62,1.37-1.3,1.8-.68.43-1.51.65-2.48.65-.82,0-1.53-.15-2.15-.46-.61-.31-1.09-.75-1.42-1.32-.33-.57-.5-1.24-.5-2s.16-1.46.49-2.03c.33-.58.8-1.02,1.41-1.34.61-.31,1.32-.47,2.13-.47,1.22,0,2.17.33,2.85.99.68.66,1.04,1.58,1.07,2.78h-6.58v.08c0,.99.24,1.76.72,2.32.48.56,1.16.84,2.03.84.68,0,1.25-.16,1.71-.49Zm-3.58-5.24c-.46.44-.74,1.07-.84,1.88h5.23c-.11-.82-.39-1.45-.83-1.88-.44-.44-1.03-.66-1.76-.66s-1.35.22-1.81.67Z"/>
        <path d="m163.86,77.45h1.38v1.29c.24-.44.61-.79,1.11-1.05.5-.26,1.07-.39,1.7-.39.97,0,1.73.25,2.29.75.56.5.84,1.18.84,2.04v4.68h-1.38v-4.83c0-.65-.18-1.15-.54-1.5-.36-.35-.87-.53-1.52-.53-.76,0-1.36.25-1.82.74s-.68,1.14-.68,1.95v4.17h-1.38v-7.33Z"/>
        <path d="m174.05,84.38c-.32-.36-.48-.91-.48-1.66v-4.67h-1.32l.21-.61h1.12l.54-2.06h.82v2.06h2.05l-.19.61h-1.85v4.87c0,.91.34,1.36,1.02,1.36.36,0,.71-.09,1.05-.28v.64c-.42.18-.92.27-1.51.27-.65,0-1.13-.18-1.45-.54Z"/>
        <path d="m178.73,76.28c-.19-.17-.28-.39-.28-.67s.09-.5.28-.67c.19-.17.43-.25.73-.25s.54.08.73.25c.19.17.28.39.28.67s-.09.5-.28.67c-.19.17-.43.25-.73.25s-.54-.08-.73-.25Zm.04,1.17h1.38v7.33h-1.38v-7.33Z"/>
        <path d="m183.51,84.38c-.32-.36-.48-.91-.48-1.66v-4.67h-1.32l.21-.61h1.12l.54-2.06h.82v2.06h2.05l-.19.61h-1.85v4.87c0,.91.34,1.36,1.02,1.36.36,0,.71-.09,1.05-.28v.64c-.42.18-.92.27-1.51.27-.65,0-1.13-.18-1.45-.54Z"/>
        <path d="m193.43,83.82c.46-.33.76-.78.89-1.35h1.12c-.19.77-.62,1.37-1.3,1.8-.68.43-1.51.65-2.48.65-.82,0-1.53-.15-2.15-.46-.61-.31-1.09-.75-1.42-1.32-.33-.57-.5-1.24-.5-2s.16-1.46.49-2.03c.33-.58.8-1.02,1.41-1.34.61-.31,1.32-.47,2.13-.47,1.22,0,2.17.33,2.85.99.68.66,1.04,1.58,1.07,2.78h-6.58v.08c0,.99.24,1.76.72,2.32.48.56,1.16.84,2.03.84.68,0,1.25-.16,1.71-.49Zm-3.58-5.24c-.46.44-.74,1.07-.84,1.88h5.23c-.11-.82-.39-1.45-.83-1.88-.44-.44-1.03-.66-1.76-.66s-1.35.22-1.81.67Zm3.59-4.48c.23-.26.49-.39.79-.39.15,0,.27.04.35.11.08.08.13.17.13.28,0,.21-.19.44-.57.7l-2.29,1.6h-.52l2.11-2.3Z"/>
        <path d="m200.36,77.45h1.49l3.05,5.91,2.99-5.91h.81l-3.74,7.47h-.64l-3.96-7.47Z"/>
        <path d="m210.17,76.28c-.19-.17-.28-.39-.28-.67s.09-.5.28-.67c.19-.17.43-.25.73-.25s.54.08.73.25c.19.17.28.39.28.67s-.09.5-.28.67c-.19.17-.43.25-.73.25s-.54-.08-.73-.25Zm.04,1.17h1.38v7.33h-1.38v-7.33Z"/>
        <path d="m214.86,84.32c-.63-.4-1.01-.96-1.14-1.67h1.14c.08.52.34.92.78,1.22.44.29,1.03.44,1.76.44.69,0,1.24-.14,1.65-.42s.62-.65.62-1.11c0-.37-.18-.66-.54-.88-.36-.21-.96-.39-1.79-.53s-1.5-.3-2-.47c-.49-.17-.85-.39-1.07-.64-.22-.25-.33-.57-.33-.95,0-.62.3-1.11.89-1.47.59-.36,1.42-.54,2.49-.54s1.88.2,2.52.59c.64.39,1.01.94,1.11,1.65h-1.14c-.09-.51-.35-.91-.78-1.2-.43-.29-.97-.43-1.63-.43s-1.13.11-1.52.34c-.38.22-.58.53-.58.9,0,.23.06.41.19.55.13.14.37.26.71.37.34.11.85.22,1.53.34,1.16.2,1.99.48,2.51.83.52.35.78.83.78,1.44,0,.7-.33,1.24-.98,1.64-.65.39-1.56.59-2.71.59-1.03,0-1.86-.2-2.49-.6Z"/>
        <path d="m223.48,84.17c-.55-.5-.83-1.2-.83-2.09v-4.63h1.38v4.78c0,.67.18,1.18.53,1.54.35.36.86.54,1.52.54.76,0,1.37-.25,1.83-.74.46-.49.7-1.14.7-1.95v-4.17h1.38v7.33h-1.38v-1.29c-.24.45-.61.8-1.11,1.05-.5.25-1.07.38-1.72.38-.98,0-1.74-.25-2.29-.75Z"/>
        <path d="m237.58,83.82c.46-.33.76-.78.89-1.35h1.12c-.19.77-.62,1.37-1.3,1.8-.68.43-1.51.65-2.48.65-.82,0-1.53-.15-2.15-.46-.61-.31-1.09-.75-1.42-1.32-.33-.57-.5-1.24-.5-2s.16-1.46.49-2.03c.33-.58.8-1.02,1.41-1.34.61-.31,1.32-.47,2.13-.47,1.22,0,2.17.33,2.85.99.68.66,1.04,1.58,1.07,2.78h-6.58v.08c0,.99.24,1.76.72,2.32.48.56,1.16.84,2.03.84.68,0,1.25-.16,1.71-.49Zm-3.58-5.24c-.46.44-.74,1.07-.84,1.88h5.23c-.11-.82-.39-1.45-.83-1.88-.44-.44-1.03-.66-1.76-.66s-1.35.22-1.81.67Z"/>
        <path d="m241.85,74.56h1.38v10.21h-1.38v-10.21Z"/>
        <path d="m246.1,74.56h1.38v10.21h-1.38v-10.21Z"/>
        <path d="m255.48,83.82c.46-.33.76-.78.89-1.35h1.12c-.19.77-.62,1.37-1.3,1.8-.68.43-1.51.65-2.48.65-.82,0-1.53-.15-2.15-.46-.61-.31-1.09-.75-1.42-1.32-.33-.57-.5-1.24-.5-2s.16-1.46.49-2.03c.33-.58.8-1.02,1.41-1.34.61-.31,1.32-.47,2.13-.47,1.22,0,2.17.33,2.85.99.68.66,1.04,1.58,1.07,2.78h-6.58v.08c0,.99.24,1.76.72,2.32.48.56,1.16.84,2.03.84.68,0,1.25-.16,1.71-.49Zm-3.58-5.24c-.46.44-.74,1.07-.84,1.88h5.23c-.11-.82-.39-1.45-.83-1.88-.44-.44-1.03-.66-1.76-.66s-1.35.22-1.81.67Z"/>
        <path d="m263.32,77.45h1.38v1.36c.28-.47.68-.84,1.2-1.11.52-.27,1.11-.4,1.77-.4,1.17,0,2.08.34,2.74,1.01.66.67.99,1.6.99,2.77s-.33,2.13-1,2.82c-.67.68-1.58,1.02-2.74,1.02-.68,0-1.27-.13-1.78-.4-.51-.27-.91-.66-1.2-1.17v4.26h-1.38v-10.17Zm5.44,6.47c.41-.27.72-.66.94-1.15s.33-1.06.33-1.71c0-.98-.24-1.75-.71-2.31-.47-.56-1.11-.84-1.92-.84-.53,0-1,.13-1.41.4-.41.27-.73.65-.96,1.14-.22.49-.34,1.05-.34,1.69,0,.98.24,1.75.72,2.33.48.58,1.13.87,1.94.87.53,0,1-.14,1.41-.41Z"/>
        <path d="m274.87,84.45c-.64-.31-1.13-.76-1.48-1.34-.35-.58-.52-1.25-.52-2s.17-1.42.52-2c.35-.58.84-1.02,1.48-1.34.64-.31,1.38-.47,2.23-.47s1.59.16,2.24.47c.64.31,1.14.76,1.49,1.34s.52,1.25.52,2-.17,1.43-.52,2-.84,1.02-1.49,1.34c-.64.31-1.39.47-2.24.47s-1.59-.16-2.23-.47Zm4.32-.99c.51-.57.76-1.35.76-2.35s-.25-1.78-.76-2.35-1.21-.85-2.09-.85-1.58.28-2.09.85c-.5.57-.75,1.35-.75,2.35s.25,1.78.75,2.35c.5.57,1.2.85,2.09.85s1.58-.28,2.09-.85Z"/>
        <path d="m283.78,84.17c-.55-.5-.83-1.2-.83-2.09v-4.63h1.38v4.78c0,.67.18,1.18.53,1.54.35.36.86.54,1.52.54.76,0,1.37-.25,1.83-.74.46-.49.7-1.14.7-1.95v-4.17h1.38v7.33h-1.38v-1.29c-.24.45-.61.8-1.11,1.05-.5.25-1.07.38-1.72.38-.98,0-1.74-.25-2.29-.75Z"/>
        <path d="m292.31,77.45h1.38v1.57c.19-.55.49-.97.9-1.27s.91-.45,1.5-.45c.23,0,.4.02.51.06l-.13.96c-.15-.08-.36-.12-.63-.12-.68,0-1.21.28-1.58.85-.38.57-.57,1.29-.57,2.15v3.57h-1.38v-7.33Z"/>
        <path d="m302.14,74.56h1.38v10.21h-1.38v-10.21Z"/>
        <path d="m311.52,83.82c.46-.33.76-.78.89-1.35h1.12c-.19.77-.62,1.37-1.3,1.8-.68.43-1.51.65-2.48.65-.82,0-1.53-.15-2.15-.46-.61-.31-1.09-.75-1.42-1.32-.33-.57-.5-1.24-.5-2s.16-1.46.49-2.03c.33-.58.8-1.02,1.41-1.34.61-.31,1.32-.47,2.13-.47,1.22,0,2.17.33,2.85.99.68.66,1.04,1.58,1.07,2.78h-6.58v.08c0,.99.24,1.76.72,2.32.48.56,1.16.84,2.03.84.68,0,1.25-.16,1.71-.49Zm-3.58-5.24c-.46.44-.74,1.07-.84,1.88h5.23c-.11-.82-.39-1.45-.83-1.88-.44-.44-1.03-.66-1.76-.66s-1.35.22-1.81.67Z"/>
        <path d="m61.77,102.4c-.63-.31-1.12-.75-1.46-1.32-.34-.57-.51-1.25-.51-2.03s.17-1.45.51-2.03c.34-.57.82-1.01,1.45-1.32.63-.31,1.37-.46,2.21-.46,1.04,0,1.89.22,2.56.65.67.43,1.09,1.03,1.25,1.8h-1.12c-.14-.57-.45-1.02-.92-1.35-.47-.33-1.04-.49-1.71-.49-.88,0-1.57.29-2.09.86-.51.57-.77,1.35-.77,2.34s.26,1.77.77,2.34c.51.57,1.21.86,2.09.86.66,0,1.23-.16,1.7-.49.48-.33.79-.78.93-1.35h1.12c-.16.77-.58,1.37-1.26,1.8-.68.43-1.52.65-2.54.65-.85,0-1.59-.15-2.22-.46Z"/>
        <path d="m69.54,95.39h1.38v1.57c.19-.55.49-.97.9-1.27s.91-.45,1.5-.45c.23,0,.4.02.51.06l-.13.96c-.15-.08-.36-.12-.63-.12-.68,0-1.21.28-1.58.85-.38.57-.57,1.29-.57,2.15v3.57h-1.38v-7.33Z"/>
        <path d="m80.53,101.76c.46-.33.76-.78.89-1.35h1.12c-.19.77-.62,1.37-1.3,1.8-.68.43-1.51.65-2.48.65-.82,0-1.53-.15-2.15-.46-.61-.31-1.09-.75-1.42-1.32-.33-.57-.5-1.24-.5-2s.16-1.46.49-2.03c.33-.58.8-1.02,1.41-1.34.61-.31,1.32-.47,2.13-.47,1.22,0,2.17.33,2.85.99.68.66,1.04,1.58,1.07,2.78h-6.58v.08c0,.99.24,1.76.72,2.32.48.56,1.16.84,2.03.84.68,0,1.25-.16,1.71-.49Zm-3.58-5.24c-.46.44-.74,1.07-.84,1.88h5.23c-.11-.82-.39-1.45-.83-1.88-.44-.44-1.03-.66-1.76-.66s-1.35.22-1.81.67Zm3.59-4.48c.23-.26.49-.39.79-.39.15,0,.27.04.35.11.08.08.13.17.13.28,0,.21-.19.44-.57.7l-2.29,1.6h-.52l2.11-2.3Z"/>
        <path d="m84.97,102.28c-.5-.39-.76-.94-.76-1.66,0-.77.3-1.35.91-1.76.61-.4,1.49-.61,2.66-.61h2.18v-.54c0-.61-.18-1.07-.55-1.39-.37-.32-.9-.48-1.6-.48-.66,0-1.19.15-1.58.46-.4.3-.63.74-.7,1.29h-1.08c.1-.76.45-1.34,1.05-1.75.6-.41,1.4-.61,2.39-.61,1.12,0,1.97.23,2.56.68.59.45.88,1.11.88,1.97v2.42c0,.86.07,1.66.22,2.41h-1.29c-.11-.45-.18-.88-.21-1.29-.6.96-1.56,1.44-2.89,1.44-.97,0-1.7-.19-2.21-.58Zm3.8-.32c.37-.21.67-.5.88-.86.21-.36.32-.76.32-1.2v-1.03h-1.81c-.88,0-1.53.14-1.95.43s-.64.72-.64,1.31c0,.55.16.96.49,1.25s.81.43,1.45.43c.46,0,.87-.11,1.25-.32Z"/>
        <path d="m94.49,102.32c-.32-.36-.48-.91-.48-1.66v-4.67h-1.32l.21-.61h1.12l.54-2.06h.82v2.06h2.05l-.19.61h-1.85v4.87c0,.91.34,1.36,1.02,1.36.36,0,.71-.09,1.05-.28v.64c-.42.18-.92.27-1.51.27-.65,0-1.13-.18-1.45-.54Z"/>
        <path d="m104.41,101.76c.46-.33.76-.78.89-1.35h1.12c-.19.77-.62,1.37-1.3,1.8-.68.43-1.51.65-2.48.65-.82,0-1.53-.15-2.15-.46-.61-.31-1.09-.75-1.42-1.32-.33-.57-.5-1.24-.5-2s.16-1.46.49-2.03c.33-.58.8-1.02,1.41-1.34.61-.31,1.32-.47,2.13-.47,1.22,0,2.17.33,2.85.99.68.66,1.04,1.58,1.07,2.78h-6.58v.08c0,.99.24,1.76.72,2.32.48.56,1.16.84,2.03.84.68,0,1.25-.16,1.71-.49Zm-3.58-5.24c-.46.44-.74,1.07-.84,1.88h5.23c-.11-.82-.39-1.45-.83-1.88-.44-.44-1.03-.66-1.76-.66s-1.35.22-1.81.67Z"/>
        <path d="m108.94,102.11c-.55-.5-.83-1.2-.83-2.09v-4.63h1.38v4.78c0,.67.18,1.18.53,1.54.35.36.86.54,1.52.54.76,0,1.37-.25,1.83-.74.46-.49.7-1.14.7-1.95v-4.17h1.38v7.33h-1.38v-1.29c-.24.45-.61.8-1.11,1.05-.5.25-1.07.38-1.72.38-.98,0-1.74-.25-2.29-.75Z"/>
        <path d="m117.47,95.39h1.38v1.57c.19-.55.49-.97.9-1.27s.91-.45,1.5-.45c.23,0,.4.02.51.06l-.13.96c-.15-.08-.36-.12-.63-.12-.68,0-1.21.28-1.58.85-.38.57-.57,1.29-.57,2.15v3.57h-1.38v-7.33Z"/>
        <path d="m130.43,92.97h-4.43v-.72h10.39v.72h-4.41v9.75h-1.55v-9.75Z"/>
        <path d="m138.37,102.39c-.64-.31-1.13-.76-1.48-1.34-.35-.58-.52-1.25-.52-2s.17-1.42.52-2c.35-.58.84-1.02,1.48-1.34.64-.31,1.38-.47,2.23-.47s1.59.16,2.24.47c.64.31,1.14.76,1.49,1.34s.52,1.25.52,2-.17,1.43-.52,2-.84,1.02-1.49,1.34c-.64.31-1.39.47-2.24.47s-1.59-.16-2.23-.47Zm4.32-.99c.51-.57.76-1.35.76-2.35s-.25-1.78-.76-2.35-1.21-.85-2.09-.85-1.58.28-2.09.85c-.5.57-.75,1.35-.75,2.35s.25,1.78.75,2.35c.5.57,1.2.85,2.09.85s1.58-.28,2.09-.85Z"/>
        <path d="m146.62,95.39h1.35v1.24c.22-.44.56-.78,1.01-1.02.45-.24.97-.37,1.56-.37.71,0,1.29.15,1.76.45.46.3.79.73.98,1.3.23-.59.58-1.03,1.04-1.32.46-.29,1.02-.43,1.67-.43.96,0,1.69.24,2.2.71s.76,1.15.76,2.03v4.74h-1.38v-4.87c0-.61-.17-1.09-.52-1.45-.34-.36-.81-.54-1.38-.54-.68,0-1.22.28-1.61.84-.4.56-.6,1.34-.6,2.33v3.69h-1.35v-4.23c0-.85-.17-1.5-.52-1.95-.34-.45-.83-.68-1.47-.68s-1.16.24-1.55.73c-.38.48-.58,1.14-.58,1.97v4.17h-1.38v-7.33Z"/>
        <path d="m163.87,92.25h1.72l4.17,8.83,4.49-8.83h1.02l-5.4,10.61h-.81l-5.19-10.61Z"/>
        <path d="m175.73,102.28c-.5-.39-.76-.94-.76-1.66,0-.77.3-1.35.91-1.76.61-.4,1.49-.61,2.66-.61h2.18v-.54c0-.61-.18-1.07-.55-1.39-.37-.32-.9-.48-1.6-.48-.66,0-1.19.15-1.58.46-.4.3-.63.74-.7,1.29h-1.08c.1-.76.45-1.34,1.05-1.75.6-.41,1.4-.61,2.39-.61,1.12,0,1.97.23,2.56.68.59.45.88,1.11.88,1.97v2.42c0,.86.07,1.66.22,2.41h-1.29c-.11-.45-.18-.88-.21-1.29-.6.96-1.56,1.44-2.89,1.44-.97,0-1.7-.19-2.21-.58Zm3.8-.32c.37-.21.67-.5.88-.86.21-.36.32-.76.32-1.2v-1.03h-1.81c-.88,0-1.53.14-1.95.43s-.64.72-.64,1.31c0,.55.16.96.49,1.25s.81.43,1.45.43c.46,0,.87-.11,1.25-.32Z"/>
        <path d="m184.31,95.39h1.38v1.29c.24-.44.61-.79,1.11-1.05.5-.26,1.07-.39,1.7-.39.97,0,1.73.25,2.29.75.56.5.84,1.18.84,2.04v4.68h-1.38v-4.83c0-.65-.18-1.15-.54-1.5-.36-.35-.87-.53-1.52-.53-.76,0-1.36.25-1.82.74s-.68,1.14-.68,1.95v4.17h-1.38v-7.33Z"/>
        <path d="m197.61,92.25h4.07c1.95,0,3.44.43,4.46,1.29,1.02.86,1.52,2.11,1.52,3.77s-.51,3.06-1.53,4c-1.02.94-2.47,1.41-4.36,1.41h-4.16v-10.46Zm4.37,9.75c1.33,0,2.34-.4,3.06-1.21s1.07-1.97,1.07-3.48c0-1.42-.35-2.5-1.05-3.24-.7-.73-1.72-1.1-3.08-1.1h-2.81v9.03h2.81Z"/>
        <path d="m215.07,101.76c.46-.33.76-.78.89-1.35h1.12c-.19.77-.62,1.37-1.3,1.8-.68.43-1.51.65-2.48.65-.82,0-1.53-.15-2.15-.46-.61-.31-1.09-.75-1.42-1.32-.33-.57-.5-1.24-.5-2s.16-1.46.49-2.03c.33-.58.8-1.02,1.41-1.34.61-.31,1.32-.47,2.13-.47,1.22,0,2.17.33,2.85.99.68.66,1.04,1.58,1.07,2.78h-6.58v.08c0,.99.24,1.76.72,2.32.48.56,1.16.84,2.03.84.68,0,1.25-.16,1.71-.49Zm-3.58-5.24c-.46.44-.74,1.07-.84,1.88h5.23c-.11-.82-.39-1.45-.83-1.88-.44-.44-1.03-.66-1.76-.66s-1.35.22-1.81.67Z"/>
        <path d="m219.23,94.22c-.19-.17-.28-.39-.28-.67s.09-.5.28-.67c.19-.17.43-.25.73-.25s.54.08.73.25c.19.17.28.39.28.67s-.09.5-.28.67c-.19.17-.43.25-.73.25s-.54-.08-.73-.25Zm.04,1.17h1.38v7.33h-1.38v-7.33Z"/>
        <path d="m220.97,104.94l.42-.73c.26.41.6.61,1.03.61s.73-.2.92-.61c.19-.4.29-1.03.29-1.89v-6.94h1.38v6.64c0,1.13-.21,1.98-.62,2.56-.41.58-1.01.88-1.8.88-.67,0-1.21-.17-1.61-.52Zm2.63-10.72c-.19-.17-.28-.39-.28-.67s.09-.5.28-.67c.19-.17.43-.25.73-.25s.54.08.73.25c.19.17.28.39.28.67s-.09.5-.28.67c-.19.17-.43.25-.73.25s-.54-.08-.73-.25Z"/>
        <path d="m227.44,95.39h1.38v1.29c.24-.44.61-.79,1.11-1.05.5-.26,1.07-.39,1.7-.39.97,0,1.73.25,2.29.75.56.5.84,1.18.84,2.04v4.68h-1.38v-4.83c0-.65-.18-1.15-.54-1.5-.36-.35-.87-.53-1.52-.53-.76,0-1.36.25-1.82.74s-.68,1.14-.68,1.95v4.17h-1.38v-7.33Z"/>
        <path d="m242.22,101.76c.46-.33.76-.78.89-1.35h1.12c-.19.77-.62,1.37-1.3,1.8-.68.43-1.51.65-2.48.65-.82,0-1.53-.15-2.15-.46-.61-.31-1.09-.75-1.42-1.32-.33-.57-.5-1.24-.5-2s.16-1.46.49-2.03c.33-.58.8-1.02,1.41-1.34.61-.31,1.32-.47,2.13-.47,1.22,0,2.17.33,2.85.99.68.66,1.04,1.58,1.07,2.78h-6.58v.08c0,.99.24,1.76.72,2.32.48.56,1.16.84,2.03.84.68,0,1.25-.16,1.71-.49Zm-3.58-5.24c-.46.44-.74,1.07-.84,1.88h5.23c-.11-.82-.39-1.45-.83-1.88-.44-.44-1.03-.66-1.76-.66s-1.35.22-1.81.67Z"/>
        <path d="m246.1,95.39h1.38v1.29c.24-.44.61-.79,1.11-1.05.5-.26,1.07-.39,1.7-.39.97,0,1.73.25,2.29.75.56.5.84,1.18.84,2.04v4.68h-1.38v-4.83c0-.65-.18-1.15-.54-1.5-.36-.35-.87-.53-1.52-.53-.76,0-1.36.25-1.82.74s-.68,1.14-.68,1.95v4.17h-1.38v-7.33Z"/>
        <path d="m255.24,102.63c-.15-.15-.23-.35-.23-.59s.08-.42.24-.58c.16-.15.36-.23.6-.23s.45.08.61.23c.16.15.24.35.24.58s-.08.44-.24.59c-.16.15-.36.23-.61.23s-.45-.08-.61-.23Z"/>
      </g>
      <g>
        <path class="cls-1" d="m33.16,4.17c-11.15,0-24.84,6.06-30.7,19.33"/>
        <line class="cls-1" x1="17.81" y1="7.37" x2="17.81" y2="42.48"/>
      </g>
      <g>
        <path class="cls-1" d="m30.51,21.76c0-5.25,4.25-9.5,9.5-9.5s9.5,4.25,9.5,9.5"/>
        <path class="cls-1" d="m49.51,31.14c0,5.25-4.25,9.5-9.5,9.5s-9.5-4.25-9.5-9.5"/>
        <line class="cls-1" x1="30.51" y1="21.76" x2="30.51" y2="31.14"/>
        <line class="cls-1" x1="49.51" y1="21.76" x2="49.51" y2="31.14"/>
      </g>
      <polygon points="80.83 42.56 75.45 42.56 75.45 15.66 71.16 27.18 66.12 27.18 61.83 15.66 61.83 42.56 56.45 42.56 56.45 .77 62.01 .77 68.64 18.53 75.27 .77 80.83 .77 80.83 42.56"/>
      <g>
        <polyline class="cls-1" points="122.25 42.37 122.25 3.41 140.03 3.42"/>
        <line class="cls-1" x1="122.25" y1="24.42" x2="138.26" y2="24.42"/>
      </g>
      <g>
        <path class="cls-1" d="m181.63,12.19c0-5.25,4.25-9.5,9.5-9.5s9.5,4.25,9.5,9.5"/>
        <path class="cls-1" d="m200.63,31.25c0,5.25-4.25,9.5-9.5,9.5s-9.5-4.25-9.5-9.5"/>
        <line class="cls-1" x1="181.63" y1="12.19" x2="181.63" y2="31.25"/>
        <line class="cls-1" x1="200.63" y1="12.19" x2="200.63" y2="31.25"/>
      </g>
      <g>
        <path class="cls-1" d="m94.38,12.19c0-5.25,4.25-9.5,9.5-9.5s9.5,4.25,9.5,9.5"/>
        <path class="cls-1" d="m113.38,31.25c0,5.25-4.25,9.5-9.5,9.5s-9.5-4.25-9.5-9.5"/>
        <line class="cls-1" x1="94.38" y1="12.19" x2="94.38" y2="31.25"/>
        <line class="cls-1" x1="113.38" y1="12.19" x2="113.38" y2="31.25"/>
      </g>
      <g>
        <line class="cls-1" x1="156.17" y1="24.58" x2="172.18" y2="24.58"/>
        <line class="cls-1" x1="153.91" y1="42.61" x2="153.9" y2=".83"/>
        <line class="cls-1" x1="173.03" y1="42.61" x2="173.01" y2=".83"/>
      </g>
      <polyline class="cls-1" points="209.64 .83 209.64 39.9 223.81 39.89"/>
      <polyline class="cls-1" points="230.13 .83 230.13 39.9 244.31 39.89"/>
      <polygon points="264.44 42.77 258.91 42.77 254.45 26.27 250.38 11.26 246.32 26.27 244.81 31.81 244.58 32.68 239.28 32.69 239.03 32.69 239.28 31.82 247.94 .94 253.5 .94 264.44 42.77"/>
      <line class="cls-1" x1="244.11" y1="26.27" x2="257.84" y2="26.27"/>
      <polygon points="284.12 42.56 272.62 14.8 272.62 42.56 267.23 42.56 267.23 .82 272.42 .77 283.93 28.59 283.93 .94 289.31 .94 289.31 42.56 284.12 42.56"/>
      <path class="cls-1" d="m295.82,40.03l27.25.02c0-18.38-8-32.46-27.29-35.38l.04,35.35Z"/>
    </g>
  </g>
</svg>