<?xml version="1.0" encoding="UTF-8"?>
<svg id="Calque_2" data-name="Calque 2" xmlns="http://www.w3.org/2000/svg" viewBox="0 0 588 508.25">
  <defs>
    <style>
      .cls-1 {
        fill: #fff;
      }
    </style>
  </defs>
  <g id="Calque_1-2" data-name="Calque 1">
    <rect width="588" height="508.25"/>
    <g>
      <path class="cls-1" d="m242.92,148.51c-11.82,31.55-55.13,25.59-43.19-11.55,10.97,13.24,42.7,13.44,54.11.72-3.3-29.55-46.93-38.72-61.17-11.45-17.46,30.11,21.35,63.44,48.71,42,.01,0,.01-.01.03-.01.53-.45,1.09-.86,1.61-1.32h.01c5.49-4.73,9.26-11.31,10.67-18.39h-10.79Zm-40.69-16.94c.4-.72.83-1.4,1.28-2.08,0,.03.01.06.01.08,11.22-19.53,41.63-19.64,41.59,6.77-10.1,11.84-35.81,9.63-43.58-3.48.23-.44.45-.86.69-1.29Z"/>
      <path class="cls-1" d="m313.19,157.37c.14,5.79-3.24,17.75-23.09,18.25-20.62.51-29.29-11-31.61-19.45h9.99c2.57,6.15,8,15.86,21.77,15.52,10.45-.26,14.56-4.05,14.42-10.19-.17-6.82-4.97-10.79-18.98-16.24-.76-.26-1.52-.59-2.33-.85-11.01-3.93-22.28-8.25-22.52-18.25-.14-5.74,3.16-17.95,22.29-17.95,21.37,0,29.49,12.1,30.97,20.85h-9.26c-.57-1.95-4.43-16.46-22.41-16.46-7.66,0-13.58,4.37-13.58,9.34,0,6.36,4.61,10.61,16.24,15.27t.1.05c12.63,4.52,27.72,8.58,28,20.11Z"/>
      <path class="cls-1" d="m498,108.43v67h-8.8v-11.53c-6,6.86-14.81,11.15-24.6,11.15-4.9,0-9.58-1.1-13.76-3.07-.66-.27-1.38-.66-2.04-.99-.5-.27-.94-.55-1.43-.88-.61-.33-1.21-.77-1.76-1.21-8.31-5.88-13.7-15.6-13.7-26.47,0-18.07,14.7-32.67,32.69-32.67,5.95,0,11.45,1.59,16.24,4.34.06,0,.11,0,.17.05.11.05.28.16.33.27,2.97,1.76,5.61,3.95,7.87,6.48v-12.47h8.8Zm-18.11,9.61c-.17-.11-.28-.16-.44-.27-.17-.05-.28-.17-.44-.22l-1.65-.82c-2.15-.88-4.99-1.32-7.41-1.32-2.75,0-5.62.55-8.48,1.7-6.44,2.58-12.11,7.63-15.91,14.33-7.82,13.35-5.78,29.05,4.35,35.31.17.11.33.22.44.27.72.44,1.38.77,2.09,1.1,4.57,1.87,10.49,1.76,15.89-.44,6.38-2.53,12.05-7.63,15.91-14.28,7.76-13.4,5.78-29.05-4.35-35.37Z"/>
      <path class="cls-1" d="m415.11,149.64c-.03.06-.04.11-.07.17-.17.38-.34.76-.52,1.14-.18.41-.38.8-.59,1.19-.2.38-.39.76-.61,1.14-.01.01-.01.03-.03.04-3.91,6.64-9.57,11.74-15.97,14.27-5.34,2.19-10.73,2.3-15.31.44-.76-.32-1.42-.66-2.08-1.1-.17-.06-.34-.17-.49-.27-1.93-1.21-3.58-2.77-4.9-4.59,1.28-2.53,1.99-5.31,1.99-8.23v-12.92c0-1.29.8-2.37,1.91-2.71.23-.07.46-.11.72-.11.63,0,1.21.25,1.68.65.08.07.15.15.23.22,1.2,1.15,2.58,2.21,4.1,3.13,4.38,2.64,10.14,4.86,16.28,4.86s11.77-1.18,17.11-3.61c6.66-3.05,8.01-5.79,8.01-5.79-.23-1.52-.56-3.01-1.01-4.45-.54-1.85-1.24-3.65-2.11-5.35-.32-.63-.65-1.26-1-1.87h-.01c-2.53-4.33-6-7.98-10.15-10.72-.01-.01-.04-.03-.06-.03-.42-.28-.84-.55-1.28-.81-.11-.11-.28-.21-.39-.27-.06-.06-.11-.06-.17-.06-.21-.13-.44-.25-.66-.37-3.62-2.01-7.7-3.33-12.05-3.78-1.15-.14-2.32-.2-3.52-.2-15.43,0-28.43,10.73-31.82,25.19-.25,1.04-.45,2.09-.58,3.17-.2,1.4-.3,2.85-.3,4.31,0,8.18,3.06,15.71,8.1,21.42-.35.44-.72.87-1.11,1.28-.03.03-.04.04-.07.07-3.8,3.95-9.57,6.48-16.04,6.48-.52,0-1.03-.03-1.52-.06-11.52-.97-16.54-12.74-18.33-22.97-.04-.29-.1-.59-.14-.89-.07-.39-.13-.79-.17-1.18-.06-.35-.1-.7-.13-1.05-.07-.49-.11-.97-.15-1.43v-.07c-.03-.25-.04-.51-.06-.74-.11-1.31-.15-2.54-.15-3.67,0-3.68,0-17.57.06-24.99h.03v-.1h19.63v-3.41h-19.66v-28.6h-9.38v28.49h-.03v.11h-7.08v3.41h7.11v21.82c0,10,3.13,22.84,11.07,30.86.25.27.51.52.77.76.2.2.41.38.62.56.2.18.41.37.63.53.21.18.42.35.65.52.27.2.54.39.82.59,3.35,2.33,7.45,3.92,11.94,4.47.31.03.62.06.94.08.75.06,1.51.1,2.27.1h.15c.93,0,1.83-.06,2.72-.14.06,0,.11,0,.17-.01,2.08-.2,4.07-.63,5.94-1.26.17-.06.32-.11.49-.18,4.15-1.48,7.72-3.92,10.34-7,1.03.96,2.14,1.85,3.29,2.67.61.44,1.15.87,1.82,1.21.44.32.93.6,1.37.87.72.34,1.38.72,2.04,1,4.18,1.98,8.86,3.08,13.76,3.08,15.97,0,29.29-11.37,32.2-26.42h-10.79c-.14.37-.28.74-.44,1.11Zm-42.03-9.34c-.11.94,0,13.54,0,13.54,0,1.56-.24,3.06-.68,4.5-1.69-3.82-2.34-8.32-1.89-13.04.14-1.46.31-3.01.68-4.5.45-1.87,1.08-3.76,1.89-5.63.49-1.15,1.07-2.3,1.7-3.44.42-.76.87-1.49,1.35-2.21,0,.03.01.06.01.08.13-.2.25-.38.38-.58.92-1.36,1.91-2.64,3-3.82.18-.21.35-.41.56-.6h.01c1.04-1.15,2.17-2.19,3.35-3.15.46-.38.94-.74,1.42-1.08.3-.21.59-.41.89-.6.06-.04.13-.08.2-.13.2-.14.39-.27.61-.38.27-.17.53-.34.82-.48.27-.17.54-.32.8-.45.92-.51,1.84-.94,2.8-1.32,2.93-1.15,5.73-1.7,8.48-1.7,2.44,0,4.75.38,6.89,1.31l1.65.83c.17.06.28.17.45.22.15.1.32.21.49.27,4.46,2.84,8.87,9.51,8.87,18.34-3.22,4.05-9.72,7.59-16.46,7.59-7.43,0-14.25-3.53-18.12-7.52,0,0-.01,0-.01-.01-.39-.35-.84-.65-1.32-.89-.82-.42-1.75-.65-2.73-.65-.24,0-.49.01-.72.04-.17.03-.34.04-.51.08-.49.1-.97.25-1.41.48-1.01.46-1.86,1.22-2.46,2.14-.54.8-.89,1.94-.99,2.74Z"/>
      <path class="cls-1" d="m183.31,121.23v25.61c-.58,20.61-11.6,26.5-18.95,28.15-16.11,3.51-27.67-12.56-32.01-45.03,0-.03-.01-.07-.01-.1-.04-.2-.07-.38-.1-.58-2.55-15.77-6.18-36.68-23.29-37.09-9.7-.23-14.76,6.28-15.14,19.29v24.82c0,18.67,15.74,25.29,21.74,27.58v11.11c-12.56-3.53-25.56-15.19-25.56-37.68v-25.61c.58-20.61,11.6-26.5,18.95-28.15,16.11-3.51,27.67,12.56,32.01,45.03,0,.03.01.07.01.1.04.2.07.38.1.58,2.55,15.77,6.18,36.68,23.29,37.09,9.7.23,14.76-6.28,15.14-19.29v-24.82c0-18.67-15.74-25.29-21.74-27.58v-11.11c12.56,3.53,25.56,15.19,25.56,37.68Z"/>
      <g>
        <path class="cls-1" d="m397.13,96.16c-6.66,8.51-18.63,10.4-27.54,4.65.52-.96,1.13-1.87,1.81-2.75,6.66-8.51,18.63-10.4,27.54-4.64-.52.96-1.13,1.87-1.81,2.75Z"/>
        <path class="cls-1" d="m379.73,62.78c1.31,10.72-5.82,20.53-16.19,22.76-.31-1.04-.53-2.12-.66-3.22-1.31-10.72,5.82-20.53,16.19-22.76.31,1.04.53,2.12.66,3.22Z"/>
        <path class="cls-1" d="m342.55,58.99c8.51,6.66,10.4,18.63,4.65,27.54-.96-.52-1.87-1.13-2.75-1.81-8.51-6.66-10.4-18.63-4.64-27.54.96.52,1.87,1.13,2.75,1.81Z"/>
      </g>
    </g>
    <g>
      <path class="cls-1" d="m271.4,301.35c-5.23,13.96-24.39,11.32-19.11-5.11,4.85,5.86,18.89,5.95,23.94.32-1.46-13.07-20.76-17.13-27.06-5.07-7.73,13.32,9.44,28.07,21.55,18.58,0,0,0,0,.01,0,.23-.2.48-.38.71-.58h0c2.43-2.09,4.1-5,4.72-8.14h-4.77Zm-18.01-7.5c.18-.32.37-.62.57-.92,0,.01,0,.02,0,.04,4.97-8.64,18.42-8.69,18.4,3-4.47,5.24-15.84,4.26-19.28-1.54.1-.19.2-.38.31-.57Z"/>
      <path class="cls-1" d="m302.49,305.27c.06,2.56-1.43,7.86-10.22,8.07-9.12.23-12.96-4.87-13.98-8.61h4.42c1.14,2.72,3.54,7.02,9.63,6.87,4.62-.11,6.44-1.79,6.38-4.51-.07-3.02-2.2-4.77-8.4-7.19-.34-.12-.67-.26-1.03-.38-4.87-1.74-9.86-3.65-9.96-8.08-.06-2.54,1.4-7.94,9.86-7.94,9.45,0,13.05,5.35,13.7,9.22h-4.1c-.25-.86-1.96-7.28-9.91-7.28-3.39,0-6.01,1.93-6.01,4.13,0,2.82,2.04,4.69,7.19,6.75t.04.02c5.59,2,12.27,3.8,12.39,8.9Z"/>
      <path class="cls-1" d="m384.26,283.62v29.64h-3.89v-5.1c-2.65,3.04-6.55,4.93-10.89,4.93-2.17,0-4.24-.49-6.09-1.36-.29-.12-.61-.29-.9-.44-.22-.12-.41-.24-.63-.39-.27-.15-.54-.34-.78-.53-3.68-2.6-6.06-6.9-6.06-11.71,0-7.99,6.5-14.46,14.47-14.46,2.63,0,5.07.7,7.18,1.92.02,0,.05,0,.07.02.05.02.12.07.15.12,1.31.78,2.48,1.75,3.48,2.87v-5.52h3.89Zm-8.01,4.25c-.07-.05-.12-.07-.2-.12-.07-.02-.12-.07-.19-.1l-.73-.36c-.95-.39-2.21-.58-3.28-.58-1.22,0-2.48.24-3.75.75-2.85,1.14-5.36,3.38-7.04,6.34-3.46,5.91-2.56,12.85,1.92,15.62.07.05.15.1.19.12.32.19.61.34.93.49,2.02.83,4.64.78,7.03-.19,2.82-1.12,5.33-3.38,7.04-6.32,3.43-5.93,2.56-12.85-1.92-15.65Z"/>
      <path class="cls-1" d="m347.59,301.85s-.02.05-.03.07c-.07.17-.15.34-.23.5-.08.18-.17.35-.26.53-.09.17-.17.34-.27.5,0,0,0,.01-.01.02-1.73,2.94-4.24,5.2-7.07,6.32-2.36.97-4.75,1.02-6.77.19-.34-.14-.63-.29-.92-.48-.07-.02-.15-.07-.22-.12-.85-.53-1.58-1.22-2.17-2.03.57-1.12.88-2.35.88-3.64v-5.72c0-.57.36-1.05.85-1.2.1-.03.21-.05.32-.05.28,0,.54.11.74.29.04.03.07.07.1.1.53.51,1.14.98,1.81,1.39,1.94,1.17,4.49,2.15,7.2,2.15s5.21-.52,7.57-1.6c2.95-1.35,3.55-2.56,3.55-2.56-.1-.67-.25-1.33-.45-1.97-.24-.82-.55-1.62-.93-2.37-.14-.28-.29-.56-.44-.83h0c-1.12-1.91-2.65-3.53-4.49-4.74,0,0-.02-.01-.02-.01-.19-.12-.37-.24-.57-.36-.05-.05-.12-.09-.17-.12-.02-.02-.05-.02-.07-.02-.09-.06-.19-.11-.29-.16-1.6-.89-3.41-1.47-5.33-1.67-.51-.06-1.03-.09-1.56-.09-6.83,0-12.58,4.75-14.08,11.15-.11.46-.2.93-.26,1.4-.09.62-.13,1.26-.13,1.91,0,3.62,1.35,6.95,3.58,9.48-.16.19-.32.39-.49.57-.01.01-.02.02-.03.03-1.68,1.75-4.24,2.87-7.1,2.87-.23,0-.45-.01-.67-.02-5.1-.43-7.32-5.64-8.11-10.16-.02-.13-.04-.26-.06-.39-.03-.17-.06-.35-.07-.52-.02-.16-.04-.31-.06-.47-.03-.22-.05-.43-.07-.63v-.03c-.01-.11-.02-.22-.02-.33-.05-.58-.07-1.13-.07-1.62,0-1.63,0-7.78.02-11.06h.01v-.04h8.68v-1.51h-8.7v-12.66h-4.15v12.61h-.01v.05h-3.13v1.51h3.15v9.65c0,4.43,1.38,10.11,4.9,13.66.11.12.22.23.34.34.09.09.18.17.27.25.09.08.18.16.28.24.09.08.19.16.29.23.12.09.24.17.36.26,1.48,1.03,3.3,1.73,5.28,1.98.14.01.27.02.42.04.33.02.67.04,1,.04h.07c.41,0,.81-.02,1.2-.06.02,0,.05,0,.07,0,.92-.09,1.8-.28,2.63-.56.07-.02.14-.05.22-.08,1.84-.65,3.41-1.73,4.57-3.1.45.42.95.82,1.46,1.18.27.19.51.39.8.53.19.14.41.27.6.39.32.15.61.32.9.44,1.85.88,3.92,1.36,6.09,1.36,7.07,0,12.96-5.03,14.25-11.69h-4.77c-.06.16-.12.33-.19.49Zm-18.6-4.13c-.05.42,0,5.99,0,5.99,0,.69-.11,1.36-.3,1.99-.75-1.69-1.03-3.68-.83-5.77.06-.65.14-1.33.3-1.99.2-.83.48-1.67.83-2.49.22-.51.47-1.02.75-1.52.19-.34.39-.66.6-.98,0,.01,0,.02,0,.04.06-.09.11-.17.17-.25.4-.6.85-1.17,1.33-1.69.08-.09.16-.18.25-.27h0c.46-.51.96-.97,1.48-1.39.21-.17.42-.33.63-.48.13-.09.26-.18.39-.27.02-.02.06-.04.09-.06.09-.06.17-.12.27-.17.12-.07.24-.15.36-.21.12-.07.24-.14.36-.2.4-.22.82-.42,1.24-.58,1.3-.51,2.54-.75,3.75-.75,1.08,0,2.1.17,3.05.58l.73.37c.07.02.12.07.2.1.07.04.14.09.22.12,1.98,1.26,3.93,4.21,3.93,8.11-1.42,1.79-4.3,3.36-7.28,3.36-3.29,0-6.31-1.56-8.02-3.33,0,0,0,0,0,0-.17-.16-.37-.29-.59-.39-.36-.19-.77-.29-1.21-.29-.11,0-.22,0-.32.02-.07.01-.15.02-.22.04-.22.04-.43.11-.62.21-.45.21-.82.54-1.09.94-.24.35-.4.86-.44,1.21Z"/>
      <path class="cls-1" d="m245.02,289.28v11.33c-.26,9.12-5.13,11.73-8.39,12.45-7.13,1.55-12.24-5.56-14.16-19.92,0-.01,0-.03,0-.04-.02-.09-.03-.17-.04-.26-1.13-6.98-2.74-16.23-10.3-16.41-4.29-.1-6.53,2.78-6.7,8.54v10.98c0,8.26,6.97,11.19,9.62,12.21v4.92c-5.56-1.56-11.31-6.72-11.31-16.67v-11.33c.26-9.12,5.13-11.73,8.39-12.45,7.13-1.55,12.24,5.56,14.16,19.92,0,.01,0,.03,0,.04.02.09.03.17.04.26,1.13,6.98,2.74,16.23,10.3,16.41,4.29.1,6.53-2.78,6.7-8.54v-10.98c0-8.26-6.97-11.19-9.62-12.21v-4.92c5.56,1.56,11.31,6.72,11.31,16.67Z"/>
      <g>
        <path class="cls-1" d="m339.63,278.19c-2.94,3.76-8.24,4.6-12.18,2.06.23-.42.5-.83.8-1.22,2.94-3.76,8.24-4.6,12.18-2.06-.23.42-.5.83-.8,1.22Z"/>
        <path class="cls-1" d="m331.93,263.42c.58,4.74-2.58,9.08-7.16,10.07-.14-.46-.23-.94-.29-1.43-.58-4.74,2.58-9.08,7.16-10.07.14.46.23.94.29,1.43Z"/>
        <path class="cls-1" d="m315.48,261.74c3.76,2.94,4.6,8.24,2.06,12.18-.42-.23-.83-.5-1.22-.8-3.76-2.94-4.6-8.24-2.06-12.18.42.23.83.5,1.22.8Z"/>
      </g>
    </g>
    <g>
      <path class="cls-1" d="m283.86,430.87c-2.35,6.26-10.95,5.08-8.57-2.29,2.18,2.63,8.48,2.67,10.74.14-.66-5.87-9.32-7.69-12.14-2.27-3.47,5.98,4.24,12.59,9.67,8.34,0,0,0,0,0,0,.1-.09.22-.17.32-.26h0c1.09-.94,1.84-2.24,2.12-3.65h-2.14Zm-8.08-3.36c.08-.14.16-.28.25-.41,0,0,0,.01,0,.02,2.23-3.88,8.27-3.9,8.26,1.34-2,2.35-7.11,1.91-8.65-.69.04-.09.09-.17.14-.26Z"/>
      <path class="cls-1" d="m297.81,432.62c.03,1.15-.64,3.52-4.58,3.62-4.09.1-5.81-2.18-6.27-3.86h1.98c.51,1.22,1.59,3.15,4.32,3.08,2.08-.05,2.89-.8,2.86-2.02-.03-1.35-.99-2.14-3.77-3.23-.15-.05-.3-.12-.46-.17-2.19-.78-4.42-1.64-4.47-3.62-.03-1.14.63-3.56,4.43-3.56,4.24,0,5.85,2.4,6.15,4.14h-1.84c-.11-.39-.88-3.27-4.45-3.27-1.52,0-2.7.87-2.7,1.85,0,1.26.92,2.11,3.22,3.03t.02.01c2.51.9,5.5,1.7,5.56,3.99Z"/>
      <path class="cls-1" d="m334.5,422.91v13.3h-1.75v-2.29c-1.19,1.36-2.94,2.21-4.88,2.21-.97,0-1.9-.22-2.73-.61-.13-.05-.27-.13-.4-.2-.1-.05-.19-.11-.28-.17-.12-.07-.24-.15-.35-.24-1.65-1.17-2.72-3.1-2.72-5.25,0-3.59,2.92-6.49,6.49-6.49,1.18,0,2.27.32,3.22.86.01,0,.02,0,.03.01.02.01.05.03.07.05.59.35,1.11.78,1.56,1.29v-2.47h1.75Zm-3.6,1.91s-.05-.03-.09-.05c-.03-.01-.05-.03-.09-.04l-.33-.16c-.43-.17-.99-.26-1.47-.26-.55,0-1.11.11-1.68.34-1.28.51-2.4,1.52-3.16,2.85-1.55,2.65-1.15,5.77.86,7.01.03.02.07.04.09.05.14.09.27.15.42.22.91.37,2.08.35,3.15-.09,1.27-.5,2.39-1.52,3.16-2.83,1.54-2.66,1.15-5.77-.86-7.02Z"/>
      <path class="cls-1" d="m318.04,431.09s0,.02-.01.03c-.03.08-.07.15-.1.23-.04.08-.08.16-.12.24-.04.08-.08.15-.12.23,0,0,0,0,0,0-.78,1.32-1.9,2.33-3.17,2.83-1.06.44-2.13.46-3.04.09-.15-.06-.28-.13-.41-.22-.03-.01-.07-.03-.1-.05-.38-.24-.71-.55-.97-.91.25-.5.39-1.05.39-1.63v-2.57c0-.26.16-.47.38-.54.04-.01.09-.02.14-.02.13,0,.24.05.33.13.02.01.03.03.04.04.24.23.51.44.81.62.87.52,2.01.96,3.23.96s2.34-.23,3.4-.72c1.32-.61,1.59-1.15,1.59-1.15-.04-.3-.11-.6-.2-.88-.11-.37-.25-.73-.42-1.06-.06-.13-.13-.25-.2-.37h0c-.5-.86-1.19-1.58-2.02-2.13,0,0,0,0-.01,0-.08-.06-.17-.11-.25-.16-.02-.02-.06-.04-.08-.05-.01-.01-.02-.01-.03-.01-.04-.03-.09-.05-.13-.07-.72-.4-1.53-.66-2.39-.75-.23-.03-.46-.04-.7-.04-3.06,0-5.64,2.13-6.32,5-.05.21-.09.42-.11.63-.04.28-.06.57-.06.86,0,1.62.61,3.12,1.61,4.25-.07.09-.14.17-.22.25,0,0,0,0-.01.01-.75.78-1.9,1.29-3.18,1.29-.1,0-.2,0-.3-.01-2.29-.19-3.28-2.53-3.64-4.56,0-.06-.02-.12-.03-.18-.01-.08-.03-.16-.03-.23-.01-.07-.02-.14-.03-.21-.01-.1-.02-.19-.03-.28h0c0-.06,0-.11-.01-.16-.02-.26-.03-.5-.03-.73,0-.73,0-3.49.01-4.96h0v-.02h3.9v-.68h-3.9v-5.68h-1.86v5.66h0v.02h-1.41v.68h1.41v4.33c0,1.99.62,4.53,2.2,6.13.05.05.1.1.15.15.04.04.08.08.12.11.04.04.08.07.13.11.04.04.08.07.13.1.05.04.11.08.16.12.67.46,1.48.78,2.37.89.06,0,.12.01.19.02.15.01.3.02.45.02h.03c.18,0,.36-.01.54-.03.01,0,.02,0,.03,0,.41-.04.81-.13,1.18-.25.03-.01.06-.02.1-.04.82-.29,1.53-.78,2.05-1.39.2.19.42.37.65.53.12.09.23.17.36.24.09.06.18.12.27.17.14.07.27.14.41.2.83.39,1.76.61,2.73.61,3.17,0,5.81-2.26,6.39-5.25h-2.14c-.03.07-.06.15-.09.22Zm-8.34-1.85c-.02.19,0,2.69,0,2.69,0,.31-.05.61-.13.89-.34-.76-.46-1.65-.37-2.59.03-.29.06-.6.13-.89.09-.37.22-.75.37-1.12.1-.23.21-.46.34-.68.08-.15.17-.3.27-.44,0,0,0,.01,0,.02.03-.04.05-.08.08-.11.18-.27.38-.52.6-.76.04-.04.07-.08.11-.12h0c.21-.23.43-.44.67-.62.09-.08.19-.15.28-.21.06-.04.12-.08.18-.12.01,0,.03-.02.04-.03.04-.03.08-.05.12-.08.05-.03.11-.07.16-.09.05-.03.11-.06.16-.09.18-.1.37-.19.56-.26.58-.23,1.14-.34,1.68-.34.48,0,.94.08,1.37.26l.33.16s.06.03.09.04c.03.02.06.04.1.05.89.56,1.76,1.89,1.76,3.64-.64.8-1.93,1.51-3.27,1.51-1.48,0-2.83-.7-3.6-1.49,0,0,0,0,0,0-.08-.07-.17-.13-.26-.18-.16-.08-.35-.13-.54-.13-.05,0-.1,0-.14,0-.03,0-.07,0-.1.02-.1.02-.19.05-.28.09-.2.09-.37.24-.49.42-.11.16-.18.38-.2.54Z"/>
      <path class="cls-1" d="m272.03,425.45v5.08c-.11,4.09-2.3,5.26-3.76,5.59-3.2.7-5.49-2.49-6.35-8.94,0,0,0-.01,0-.02,0-.04-.01-.08-.02-.11-.51-3.13-1.23-7.28-4.62-7.36-1.93-.04-2.93,1.25-3.01,3.83v4.93c0,3.71,3.13,5.02,4.32,5.48v2.21c-2.49-.7-5.07-3.02-5.07-7.48v-5.08c.11-4.09,2.3-5.26,3.76-5.59,3.2-.7,5.49,2.49,6.35,8.94,0,0,0,.01,0,.02,0,.04.01.08.02.11.51,3.13,1.23,7.28,4.62,7.36,1.93.04,2.93-1.25,3.01-3.83v-4.93c0-3.71-3.13-5.02-4.32-5.48v-2.21c2.49.7,5.07,3.02,5.07,7.48Z"/>
      <g>
        <path class="cls-1" d="m314.47,420.47c-1.32,1.69-3.7,2.06-5.47.92.1-.19.22-.37.36-.55,1.32-1.69,3.7-2.06,5.47-.92-.1.19-.22.37-.36.55Z"/>
        <path class="cls-1" d="m311.02,413.84c.26,2.13-1.16,4.08-3.21,4.52-.06-.21-.1-.42-.13-.64-.26-2.13,1.16-4.08,3.21-4.52.06.21.1.42.13.64Z"/>
        <path class="cls-1" d="m303.64,413.09c1.69,1.32,2.06,3.7.92,5.47-.19-.1-.37-.22-.55-.36-1.69-1.32-2.06-3.7-.92-5.47.19.1.37.22.55.36Z"/>
      </g>
    </g>
  </g>
</svg>