<?xml version="1.0" encoding="UTF-8"?>
<svg id="Calque_2" data-name="Calque 2" xmlns="http://www.w3.org/2000/svg" xmlns:xlink="http://www.w3.org/1999/xlink" viewBox="0 0 792 132">
  <defs>
    <style>
      .cls-1 {
        fill: none;
      }

      .cls-2 {
        clip-path: url(#clippath);
      }

      .cls-3 {
        fill: #fff;
      }

      .cls-4 {
        fill: #2b509e;
      }
    </style>
    <clipPath id="clippath">
      <rect class="cls-1" width="792" height="132"/>
    </clipPath>
  </defs>
  <g id="Calque_1-2" data-name="Calque 1">
    <g class="cls-2">
      <rect class="cls-4" width="792" height="132"/>
      <path class="cls-3" d="m414.76,56.3c1.11.61,2.26,1.04,3.42,1.29v2.25c-1.31-.27-2.61-.75-3.87-1.44-3.76-2.06-7.91-2.09-11.68-.08l-.84.45c-2,1.07-4.11,1.6-6.21,1.6s-4.17-.52-6.15-1.57l-.99-.52c-3.76-1.98-7.88-1.94-11.62.11l-.03.02c-.96.53-1.96.93-2.95,1.21v-2.27c.84-.25,1.67-.61,2.49-1.05h.03c4.03-2.22,8.48-2.27,12.53-.13l.99.52c3.7,1.95,7.78,1.94,11.47-.03l.84-.45c4.06-2.17,8.53-2.13,12.58.08"/>
      <path class="cls-3" d="m414.82,64.82c1.09.6,2.21,1.03,3.35,1.28v2.25c-1.29-.27-2.57-.74-3.81-1.42-3.76-2.06-7.91-2.09-11.68-.08l-.84.45c-2,1.07-4.1,1.6-6.21,1.6s-4.17-.53-6.15-1.57l-.99-.52c-3.76-1.98-7.89-1.94-11.62.11h-.03c-.99.55-1.99.97-3.01,1.24v-2.26c.87-.26,1.72-.62,2.56-1.08l.03-.02c4.03-2.21,8.48-2.25,12.52-.12l.99.52c3.7,1.95,7.78,1.94,11.47-.03l.84-.45c4.06-2.17,8.53-2.13,12.58.09"/>
      <path class="cls-3" d="m418.17,74.59v2.25c-1.27-.27-2.53-.74-3.74-1.41-3.76-2.06-7.9-2.09-11.67-.09l-.84.45c-2,1.06-4.11,1.6-6.21,1.6s-4.17-.52-6.15-1.57l-.99-.52c-3.76-1.98-7.88-1.94-11.62.11l-.03.02c-1.01.55-2.04.97-3.08,1.24v-2.26c.89-.26,1.77-.62,2.62-1.09l.03-.02c4.02-2.21,8.47-2.25,12.52-.12l.99.52c3.7,1.95,7.78,1.94,11.47-.03l.84-.45c4.06-2.17,8.53-2.13,12.58.09,1.07.59,2.17,1.01,3.29,1.27"/>
    </g>
  </g>
</svg>