<?xml version="1.0" encoding="UTF-8"?>
<svg id="Calque_2" data-name="Calque 2" xmlns="http://www.w3.org/2000/svg" viewBox="0 0 792 132">
  <defs>
    <style>
      .cls-1 {
        fill: #fff;
      }

      .cls-2 {
        fill: #6fce51;
      }
    </style>
  </defs>
  <g id="Calque_1-2" data-name="Calque 1">
    <g>
      <rect class="cls-2" width="792" height="132"/>
      <path class="cls-1" d="m416.89,77.02c-4.73,6.04-13.23,7.38-19.56,3.3.37-.68.8-1.33,1.29-1.95,4.73-6.04,13.23-7.38,19.56-3.3-.37.68-.8,1.33-1.29,1.95"/>
      <path class="cls-1" d="m404.53,53.31c.93,7.61-4.13,14.58-11.5,16.16-.22-.74-.38-1.51-.47-2.29-.93-7.61,4.13-14.58,11.5-16.16.22.74.38,1.51.47,2.29"/>
      <path class="cls-1" d="m378.13,50.62c6.04,4.73,7.39,13.23,3.3,19.56-.68-.36-1.33-.8-1.95-1.29-6.04-4.73-7.38-13.23-3.3-19.56.68.37,1.33.8,1.95,1.29"/>
    </g>
  </g>
</svg>