<?xml version="1.0" encoding="UTF-8"?>
<svg id="Calque_2" data-name="Calque 2" xmlns="http://www.w3.org/2000/svg" xmlns:xlink="http://www.w3.org/1999/xlink" viewBox="0 0 149.58 465.1">
  <defs>
    <style>
      .cls-1, .cls-2, .cls-3, .cls-4, .cls-5, .cls-6, .cls-7, .cls-8, .cls-9, .cls-10, .cls-11, .cls-12, .cls-13, .cls-14, .cls-15, .cls-16, .cls-17, .cls-18, .cls-19, .cls-20, .cls-21, .cls-22, .cls-23, .cls-24, .cls-25, .cls-26, .cls-27, .cls-28, .cls-29, .cls-30, .cls-31, .cls-32, .cls-33, .cls-34, .cls-35, .cls-36, .cls-37, .cls-38, .cls-39, .cls-40, .cls-41, .cls-42, .cls-43, .cls-44, .cls-45, .cls-46, .cls-47, .cls-48, .cls-49, .cls-50, .cls-51, .cls-52, .cls-53, .cls-54 {
        fill: none;
      }

      .cls-2 {
        stroke-width: 7.13px;
      }

      .cls-2, .cls-3, .cls-4, .cls-5, .cls-6, .cls-7, .cls-8, .cls-9, .cls-10, .cls-11, .cls-12, .cls-13, .cls-14, .cls-15, .cls-16, .cls-17, .cls-18, .cls-19, .cls-20, .cls-21, .cls-22, .cls-23, .cls-24, .cls-25, .cls-26, .cls-27, .cls-28, .cls-29, .cls-30, .cls-31, .cls-32, .cls-33, .cls-34, .cls-35, .cls-36, .cls-37, .cls-38, .cls-39, .cls-40, .cls-41, .cls-42, .cls-43, .cls-44, .cls-45, .cls-46, .cls-47, .cls-48, .cls-49, .cls-50, .cls-51, .cls-52, .cls-53, .cls-54 {
        stroke: #000;
      }

      .cls-2, .cls-3, .cls-4, .cls-5, .cls-6, .cls-8, .cls-9, .cls-11, .cls-12, .cls-13, .cls-14, .cls-15, .cls-16, .cls-17, .cls-18, .cls-19, .cls-20, .cls-21, .cls-22, .cls-23, .cls-24, .cls-25, .cls-26, .cls-28, .cls-29, .cls-30, .cls-31, .cls-32, .cls-33, .cls-34, .cls-35, .cls-36, .cls-37, .cls-39, .cls-40, .cls-41, .cls-42, .cls-43, .cls-44, .cls-45, .cls-46, .cls-47, .cls-48, .cls-49, .cls-50, .cls-51, .cls-52, .cls-53, .cls-54 {
        stroke-miterlimit: 10;
      }

      .cls-3 {
        stroke-width: 7.3px;
      }

      .cls-4 {
        stroke-width: 7.24px;
      }

      .cls-5 {
        stroke-width: 7.47px;
      }

      .cls-6 {
        stroke-width: 7.18px;
      }

      .cls-7 {
        stroke-width: 6.17px;
      }

      .cls-7, .cls-10, .cls-27 {
        stroke-miterlimit: 10;
      }

      .cls-8 {
        stroke-width: 6px;
      }

      .cls-9 {
        stroke-width: 6.23px;
      }

      .cls-10 {
        stroke-width: 6.06px;
      }

      .cls-55 {
        clip-path: url(#clippath);
      }

      .cls-11 {
        stroke-width: 7.64px;
      }

      .cls-12 {
        stroke-width: 7.75px;
      }

      .cls-56 {
        fill: #ff8500;
      }

      .cls-13 {
        stroke-width: 7.81px;
      }

      .cls-14 {
        stroke-width: 8.6px;
      }

      .cls-15 {
        stroke-width: 8.65px;
      }

      .cls-16 {
        stroke-width: 8.54px;
      }

      .cls-17 {
        stroke-width: 6.28px;
      }

      .cls-18 {
        stroke-width: 6.45px;
      }

      .cls-19 {
        stroke-width: 6.62px;
      }

      .cls-20 {
        stroke-width: 6.73px;
      }

      .cls-21 {
        stroke-width: 6.79px;
      }

      .cls-22 {
        stroke-width: 6.96px;
      }

      .cls-23 {
        stroke-width: 7.41px;
      }

      .cls-24 {
        stroke-width: 7.58px;
      }

      .cls-25 {
        stroke-width: 7.35px;
      }

      .cls-26 {
        stroke-width: 7.52px;
      }

      .cls-27 {
        stroke-width: 6.11px;
      }

      .cls-28 {
        stroke-width: 7.69px;
      }

      .cls-29 {
        stroke-width: 8.26px;
      }

      .cls-30 {
        stroke-width: 7.97px;
      }

      .cls-31 {
        stroke-width: 8.43px;
      }

      .cls-32 {
        stroke-width: 7.92px;
      }

      .cls-33 {
        stroke-width: 7.86px;
      }

      .cls-34 {
        stroke-width: 8.37px;
      }

      .cls-35 {
        stroke-width: 8.31px;
      }

      .cls-36 {
        stroke-width: 8.2px;
      }

      .cls-37 {
        stroke-width: 6.39px;
      }

      .cls-38 {
        stroke-miterlimit: 10;
        stroke-width: 6.34px;
      }

      .cls-39 {
        stroke-width: 6.51px;
      }

      .cls-40 {
        stroke-width: 6.56px;
      }

      .cls-41 {
        stroke-width: 6.68px;
      }

      .cls-42 {
        stroke-width: 8.88px;
      }

      .cls-43 {
        stroke-width: 8.76px;
      }

      .cls-44 {
        stroke-width: 8.82px;
      }

      .cls-45 {
        stroke-width: 7.07px;
      }

      .cls-46 {
        stroke-width: 8.71px;
      }

      .cls-47 {
        stroke-width: 8.14px;
      }

      .cls-48 {
        stroke-width: 8.09px;
      }

      .cls-49 {
        stroke-width: 8.03px;
      }

      .cls-50 {
        stroke-width: 8.48px;
      }

      .cls-51 {
        stroke-width: 6.9px;
      }

      .cls-52 {
        stroke-width: 6.85px;
      }

      .cls-53 {
        stroke-width: 7.02px;
      }

      .cls-54 {
        stroke-width: 9.04px;
      }
    </style>
    <clipPath id="clippath">
      <path class="cls-1" d="m3.36,23.11v148.22h148.22V23.11H3.36Zm5.21,98.58c-2.79-7.86-4.21-16.09-4.21-24.47,0-2.19.11-4.36.3-6.52.37-2.78.79-5.65,1.26-8.57.42-2,.94-3.99,1.53-5.95l5.4.98c-3.25,17.88-4.38,32.63-4.29,44.54Z"/>
    </clipPath>
  </defs>
  <g id="Calque_2-2" data-name="Calque 2">
    <g>
      <circle class="cls-56" cx="77.47" cy="97.22" r="72.11"/>
      <path class="cls-8" d="m13.6,94.02c31.05,103.74-23.12,89.5-3.68-17.4"/>
      <g class="cls-55">
        <circle class="cls-56" cx="77.47" cy="97.22" r="72.11"/>
      </g>
    </g>
    <g>
      <path d="m67.64,24.81l1.37-8.87c1.29-8.37,8.37-14.44,16.82-14.44.92,0,1.84.08,2.76.22,4.55.74,8.53,3.22,11.19,6.99,2.66,3.77,3.67,8.35,2.84,12.88l-1.46,8.01-33.51-4.8Z"/>
      <path d="m85.83,3c.83,0,1.67.07,2.51.2h0c8.59,1.4,14.35,9.57,12.79,18.13l-1.2,6.59-30.58-4.38,1.14-7.37c1.19-7.68,7.81-13.17,15.34-13.17m0-3h0c-9.2,0-16.89,6.61-18.3,15.71l-1.14,7.37-.46,3,3,.43,30.58,4.38,2.86.41.52-2.84,1.2-6.59c.9-4.94-.2-9.92-3.09-14.02-2.89-4.1-7.22-6.8-12.17-7.61-.99-.16-2-.24-3-.24h0Z"/>
    </g>
    <line class="cls-8" x1="121.65" y1="31.43" x2="99.93" y2="27.92"/>
    <g>
      <line class="cls-8" x1="62.01" y1="69.31" x2="62.01" y2="83.93"/>
      <line class="cls-8" x1="80.93" y1="69.31" x2="80.93" y2="83.93"/>
    </g>
    <path class="cls-8" d="m69.35,155.38c-2.13,100.27-20.1,184.84,35.25,302.26"/>
    <line class="cls-8" x1="85.37" y1="155.38" x2="13.14" y2="464.41"/>
    <path class="cls-8" d="m133.54,89.68c6.35,34.98,31.59,174.43-63.01-13.06"/>
    <g>
      <g>
        <ellipse class="cls-8" cx="45.52" cy="76.62" rx="5.64" ry="13.06"/>
        <ellipse class="cls-8" cx="70.53" cy="76.62" rx="5.64" ry="13.06"/>
      </g>
      <g>
        <ellipse class="cls-10" cx="44.88" cy="76.55" rx="5.69" ry="13.18"/>
        <ellipse class="cls-10" cx="70.12" cy="76.55" rx="5.69" ry="13.18"/>
      </g>
      <g>
        <ellipse class="cls-27" cx="44.24" cy="76.47" rx="5.74" ry="13.31"/>
        <ellipse class="cls-27" cx="69.71" cy="76.47" rx="5.74" ry="13.31"/>
      </g>
      <g>
        <ellipse class="cls-7" cx="43.6" cy="76.4" rx="5.8" ry="13.43"/>
        <ellipse class="cls-7" cx="69.31" cy="76.4" rx="5.8" ry="13.43"/>
      </g>
      <g>
        <ellipse class="cls-9" cx="42.96" cy="76.33" rx="5.85" ry="13.55"/>
        <ellipse class="cls-9" cx="68.9" cy="76.33" rx="5.85" ry="13.55"/>
      </g>
      <g>
        <ellipse class="cls-17" cx="42.31" cy="76.26" rx="5.9" ry="13.68"/>
        <ellipse class="cls-17" cx="68.49" cy="76.26" rx="5.9" ry="13.68"/>
      </g>
      <g>
        <ellipse class="cls-38" cx="41.67" cy="76.18" rx="5.95" ry="13.8"/>
        <ellipse class="cls-38" cx="68.09" cy="76.18" rx="5.95" ry="13.8"/>
      </g>
      <g>
        <ellipse class="cls-37" cx="41.03" cy="76.11" rx="6.01" ry="13.92"/>
        <ellipse class="cls-37" cx="67.68" cy="76.11" rx="6.01" ry="13.92"/>
      </g>
      <g>
        <ellipse class="cls-18" cx="40.39" cy="76.04" rx="6.06" ry="14.04"/>
        <ellipse class="cls-18" cx="67.27" cy="76.04" rx="6.06" ry="14.04"/>
      </g>
      <g>
        <ellipse class="cls-39" cx="39.74" cy="75.97" rx="6.11" ry="14.17"/>
        <ellipse class="cls-39" cx="66.87" cy="75.97" rx="6.11" ry="14.17"/>
      </g>
      <g>
        <ellipse class="cls-40" cx="39.1" cy="75.89" rx="6.17" ry="14.29"/>
        <ellipse class="cls-40" cx="66.46" cy="75.89" rx="6.17" ry="14.29"/>
      </g>
      <g>
        <ellipse class="cls-19" cx="38.46" cy="75.82" rx="6.22" ry="14.41"/>
        <ellipse class="cls-19" cx="66.05" cy="75.82" rx="6.22" ry="14.41"/>
      </g>
      <g>
        <ellipse class="cls-41" cx="37.82" cy="75.75" rx="6.27" ry="14.53"/>
        <ellipse class="cls-41" cx="65.64" cy="75.75" rx="6.27" ry="14.53"/>
      </g>
      <g>
        <ellipse class="cls-20" cx="37.18" cy="75.68" rx="6.33" ry="14.66"/>
        <ellipse class="cls-20" cx="65.24" cy="75.68" rx="6.33" ry="14.66"/>
      </g>
      <g>
        <ellipse class="cls-21" cx="36.53" cy="75.6" rx="6.38" ry="14.78"/>
        <ellipse class="cls-21" cx="64.83" cy="75.6" rx="6.38" ry="14.78"/>
      </g>
      <g>
        <ellipse class="cls-52" cx="35.89" cy="75.53" rx="6.43" ry="14.9"/>
        <ellipse class="cls-52" cx="64.42" cy="75.53" rx="6.43" ry="14.9"/>
      </g>
      <g>
        <ellipse class="cls-51" cx="35.25" cy="75.46" rx="6.48" ry="15.03"/>
        <ellipse class="cls-51" cx="64.02" cy="75.46" rx="6.48" ry="15.03"/>
      </g>
      <g>
        <ellipse class="cls-22" cx="34.61" cy="75.39" rx="6.54" ry="15.15"/>
        <ellipse class="cls-22" cx="63.61" cy="75.39" rx="6.54" ry="15.15"/>
      </g>
      <g>
        <ellipse class="cls-53" cx="33.97" cy="75.31" rx="6.59" ry="15.27"/>
        <ellipse class="cls-53" cx="63.2" cy="75.31" rx="6.59" ry="15.27"/>
      </g>
      <g>
        <ellipse class="cls-45" cx="33.32" cy="75.24" rx="6.64" ry="15.39"/>
        <ellipse class="cls-45" cx="62.8" cy="75.24" rx="6.64" ry="15.39"/>
      </g>
      <g>
        <ellipse class="cls-2" cx="32.68" cy="75.17" rx="6.7" ry="15.52"/>
        <ellipse class="cls-2" cx="62.39" cy="75.17" rx="6.7" ry="15.52"/>
      </g>
      <g>
        <ellipse class="cls-6" cx="32.04" cy="75.1" rx="6.75" ry="15.64"/>
        <ellipse class="cls-6" cx="61.98" cy="75.1" rx="6.75" ry="15.64"/>
      </g>
      <g>
        <ellipse class="cls-4" cx="31.4" cy="75.02" rx="6.8" ry="15.76"/>
        <ellipse class="cls-4" cx="61.57" cy="75.02" rx="6.8" ry="15.76"/>
      </g>
      <g>
        <ellipse class="cls-3" cx="30.76" cy="74.95" rx="6.86" ry="15.89"/>
        <ellipse class="cls-3" cx="61.17" cy="74.95" rx="6.86" ry="15.89"/>
      </g>
      <g>
        <ellipse class="cls-25" cx="30.11" cy="74.88" rx="6.91" ry="16.01"/>
        <ellipse class="cls-25" cx="60.76" cy="74.88" rx="6.91" ry="16.01"/>
      </g>
      <g>
        <ellipse class="cls-23" cx="29.47" cy="74.8" rx="6.96" ry="16.13"/>
        <ellipse class="cls-23" cx="60.35" cy="74.8" rx="6.96" ry="16.13"/>
      </g>
      <g>
        <ellipse class="cls-5" cx="28.83" cy="74.73" rx="7.01" ry="16.25"/>
        <ellipse class="cls-5" cx="59.95" cy="74.73" rx="7.01" ry="16.25"/>
      </g>
      <g>
        <ellipse class="cls-26" cx="28.19" cy="74.66" rx="7.07" ry="16.38"/>
        <ellipse class="cls-26" cx="59.54" cy="74.66" rx="7.07" ry="16.38"/>
      </g>
      <g>
        <ellipse class="cls-24" cx="27.55" cy="74.59" rx="7.12" ry="16.5"/>
        <ellipse class="cls-24" cx="59.13" cy="74.59" rx="7.12" ry="16.5"/>
      </g>
      <g>
        <ellipse class="cls-11" cx="26.9" cy="74.51" rx="7.17" ry="16.62"/>
        <ellipse class="cls-11" cx="58.73" cy="74.51" rx="7.17" ry="16.62"/>
      </g>
      <g>
        <ellipse class="cls-28" cx="26.26" cy="74.44" rx="7.23" ry="16.75"/>
        <ellipse class="cls-28" cx="58.32" cy="74.44" rx="7.23" ry="16.75"/>
      </g>
      <g>
        <ellipse class="cls-12" cx="25.62" cy="74.37" rx="7.28" ry="16.87"/>
        <ellipse class="cls-12" cx="57.91" cy="74.37" rx="7.28" ry="16.87"/>
      </g>
      <g>
        <ellipse class="cls-13" cx="24.98" cy="74.3" rx="7.33" ry="16.99"/>
        <ellipse class="cls-13" cx="57.51" cy="74.3" rx="7.33" ry="16.99"/>
      </g>
      <g>
        <ellipse class="cls-33" cx="24.34" cy="74.22" rx="7.39" ry="17.11"/>
        <ellipse class="cls-33" cx="57.1" cy="74.22" rx="7.39" ry="17.11"/>
      </g>
      <g>
        <ellipse class="cls-32" cx="23.69" cy="74.15" rx="7.44" ry="17.24"/>
        <ellipse class="cls-32" cx="56.69" cy="74.15" rx="7.44" ry="17.24"/>
      </g>
      <g>
        <ellipse class="cls-30" cx="23.05" cy="74.08" rx="7.49" ry="17.36"/>
        <ellipse class="cls-30" cx="56.28" cy="74.08" rx="7.49" ry="17.36"/>
      </g>
      <g>
        <ellipse class="cls-49" cx="22.41" cy="74.01" rx="7.54" ry="17.48"/>
        <ellipse class="cls-49" cx="55.88" cy="74.01" rx="7.54" ry="17.48"/>
      </g>
      <g>
        <ellipse class="cls-48" cx="21.77" cy="73.93" rx="7.6" ry="17.61"/>
        <ellipse class="cls-48" cx="55.47" cy="73.93" rx="7.6" ry="17.61"/>
      </g>
      <g>
        <ellipse class="cls-47" cx="21.13" cy="73.86" rx="7.65" ry="17.73"/>
        <ellipse class="cls-47" cx="55.06" cy="73.86" rx="7.65" ry="17.73"/>
      </g>
      <g>
        <ellipse class="cls-36" cx="20.48" cy="73.79" rx="7.7" ry="17.85"/>
        <ellipse class="cls-36" cx="54.66" cy="73.79" rx="7.7" ry="17.85"/>
      </g>
      <g>
        <ellipse class="cls-29" cx="19.84" cy="73.72" rx="7.76" ry="17.97"/>
        <ellipse class="cls-29" cx="54.25" cy="73.72" rx="7.76" ry="17.97"/>
      </g>
      <g>
        <ellipse class="cls-35" cx="19.2" cy="73.64" rx="7.81" ry="18.1"/>
        <ellipse class="cls-35" cx="53.84" cy="73.64" rx="7.81" ry="18.1"/>
      </g>
      <g>
        <ellipse class="cls-34" cx="18.56" cy="73.57" rx="7.86" ry="18.22"/>
        <ellipse class="cls-34" cx="53.44" cy="73.57" rx="7.86" ry="18.22"/>
      </g>
      <g>
        <ellipse class="cls-31" cx="17.91" cy="73.5" rx="7.92" ry="18.34"/>
        <ellipse class="cls-31" cx="53.03" cy="73.5" rx="7.92" ry="18.34"/>
      </g>
      <g>
        <ellipse class="cls-50" cx="17.27" cy="73.43" rx="7.97" ry="18.47"/>
        <ellipse class="cls-50" cx="52.62" cy="73.43" rx="7.97" ry="18.47"/>
      </g>
      <g>
        <ellipse class="cls-16" cx="16.63" cy="73.35" rx="8.02" ry="18.59"/>
        <ellipse class="cls-16" cx="52.22" cy="73.35" rx="8.02" ry="18.59"/>
      </g>
      <g>
        <ellipse class="cls-14" cx="15.99" cy="73.28" rx="8.07" ry="18.71"/>
        <ellipse class="cls-14" cx="51.81" cy="73.28" rx="8.07" ry="18.71"/>
      </g>
      <g>
        <ellipse class="cls-15" cx="15.35" cy="73.21" rx="8.13" ry="18.83"/>
        <ellipse class="cls-15" cx="51.4" cy="73.21" rx="8.13" ry="18.83"/>
      </g>
      <g>
        <ellipse class="cls-46" cx="14.7" cy="73.14" rx="8.18" ry="18.96"/>
        <ellipse class="cls-46" cx="50.99" cy="73.14" rx="8.18" ry="18.96"/>
      </g>
      <g>
        <ellipse class="cls-43" cx="14.06" cy="73.06" rx="8.23" ry="19.08"/>
        <ellipse class="cls-43" cx="50.59" cy="73.06" rx="8.23" ry="19.08"/>
      </g>
      <g>
        <ellipse class="cls-44" cx="13.42" cy="72.99" rx="8.29" ry="19.2"/>
        <ellipse class="cls-44" cx="50.18" cy="72.99" rx="8.29" ry="19.2"/>
      </g>
      <g>
        <ellipse class="cls-42" cx="12.78" cy="72.92" rx="8.34" ry="19.32"/>
        <ellipse class="cls-42" cx="49.77" cy="72.92" rx="8.34" ry="19.32"/>
      </g>
    </g>
    <g>
      <ellipse class="cls-56" cx="10.68" cy="72.92" rx="8.34" ry="19.32"/>
      <ellipse class="cls-56" cx="47.67" cy="72.92" rx="8.34" ry="19.32"/>
    </g>
    <g>
      <line class="cls-54" x1="9.91" y1="61.91" x2="9.91" y2="83.93"/>
      <line class="cls-54" x1="47.67" y1="61.91" x2="47.67" y2="83.93"/>
    </g>
  </g>
</svg>