<?xml version="1.0" encoding="UTF-8"?>
<svg id="Calque_2" data-name="Calque 2" xmlns="http://www.w3.org/2000/svg" viewBox="0 0 376.13 383.89">
  <defs>
    <style>
      .cls-1 {
        fill: #ff8500;
      }

      .cls-2 {
        stroke-width: 8.35px;
      }

      .cls-2, .cls-3 {
        fill: none;
        stroke: #000;
        stroke-miterlimit: 10;
      }

      .cls-3 {
        stroke-width: 7.21px;
      }
    </style>
  </defs>
  <g id="Calque_2-2" data-name="Calque 2">
    <path class="cls-2" d="m81.71,137.01c-51.94,1.28-149.46-25.22,9.31-56.29"/>
    <path class="cls-3" d="m231.06,97.14c37.01-11.42,97.06-60.18-24.93-50.95"/>
    <circle class="cls-1" cx="163.71" cy="126.66" r="100.38"/>
    <g>
      <path d="m98.47,36.94c-3.01-5.67-3.61-12.17-1.67-18.29,1.94-6.12,6.16-11.09,11.89-14,3.36-1.7,6.96-2.57,10.71-2.57,9.08,0,17.22,5.05,21.26,13.17l5.56,11.19-42.43,20.51-5.32-10.01Z"/>
      <path d="m119.4,4.18c7.95,0,15.61,4.4,19.39,12.01l4.62,9.3-38.72,18.71-4.37-8.23c-5.68-10.69-1.48-23.97,9.32-29.45h0c3.14-1.59,6.47-2.34,9.76-2.34m0-4.18c-4.07,0-7.99.94-11.65,2.79-6.23,3.16-10.83,8.57-12.94,15.23s-1.47,13.73,1.81,19.9l4.37,8.23,1.89,3.55,3.62-1.75,38.72-18.71,3.8-1.84-1.88-3.78-4.62-9.3c-4.39-8.84-13.25-14.33-23.13-14.33h0Z"/>
    </g>
    <line class="cls-2" x1="77.36" y1="58.02" x2="104.69" y2="44.2"/>
    <g>
      <line class="cls-2" x1="172.45" y1="83.1" x2="178.62" y2="102.51"/>
      <line class="cls-2" x1="147.36" y1="91.08" x2="153.53" y2="110.49"/>
    </g>
    <path class="cls-3" d="m172.45,226.68c27.69-6.48,132.83-3.46,167.43,97.34,14.33,41.76,14.72,28.3,33.96,44.15"/>
    <path class="cls-3" d="m221.87,208.51s37.99,66.97,106.3,167.2c12.54,18.41,1.46-24.14,11.71-31.4"/>
  </g>
</svg>