<?xml version="1.0" encoding="UTF-8"?>
<svg id="Calque_2" data-name="Calque 2" xmlns="http://www.w3.org/2000/svg" viewBox="0 0 144.22 196.67">
  <defs>
    <style>
      .cls-1 {
        fill: none;
        stroke: #000;
        stroke-miterlimit: 10;
        stroke-width: 6px;
      }

      .cls-2 {
        fill: #ff8500;
      }
    </style>
  </defs>
  <g id="Calque_2-2" data-name="Calque 2">
    <g>
      <path class="cls-1" d="m55.92,195.32c20.74-41.17,44.16-54.2,16.19-59.38"/>
      <circle class="cls-2" cx="72.11" cy="97.22" r="72.11"/>
      <path class="cls-1" d="m72.11,135.93c64.89,22.59,29.94,45.19-4.89,51.84"/>
      <path class="cls-1" d="m86.09,66.3c-30.17,8.5-43.38,9.87-35.2,52.91"/>
      <g>
        <g>
          <path d="m62.28,24.81l1.37-8.87c1.29-8.37,8.37-14.44,16.82-14.44.92,0,1.84.08,2.76.22,4.55.74,8.53,3.22,11.19,6.99s3.67,8.35,2.84,12.88l-1.46,8.01-33.51-4.8Z"/>
          <path d="m80.47,3c.83,0,1.67.07,2.51.2,8.59,1.4,14.35,9.57,12.79,18.13l-1.2,6.59-30.58-4.38,1.14-7.37c1.19-7.68,7.81-13.17,15.34-13.17m0-3h0c-9.2,0-16.89,6.61-18.3,15.71l-1.14,7.37-.46,3,3,.43,30.58,4.38,2.86.41.52-2.84,1.2-6.59c.9-4.94-.2-9.92-3.09-14.02-2.89-4.1-7.22-6.8-12.17-7.61-.99-.16-2-.24-2.99-.24h0Z"/>
        </g>
        <line class="cls-1" x1="116.29" y1="31.43" x2="94.57" y2="27.92"/>
      </g>
    </g>
  </g>
</svg>