<?xml version="1.0" encoding="UTF-8"?>
<svg id="Calque_2" data-name="Calque 2" xmlns="http://www.w3.org/2000/svg" viewBox="0 0 274.57 105.42">
  <defs>
    <style>
      .cls-1 {
        fill: none;
        stroke: #000;
        stroke-miterlimit: 10;
        stroke-width: 5.38px;
      }
    </style>
  </defs>
  <g id="Calque_1-2" data-name="Calque 1">
    <g>
      <g>
        <path d="m0,50.25h14.01v1.13H2.46v5.98h10.2v1.11H2.46v7.18h11.55v1.13H0v-16.54Z"/>
        <path d="m16.42,50.25h2.48l10.06,12.83v-12.83h2.08v16.54h-1.23l-11.31-14.39v14.39h-2.08v-16.54Z"/>
        <path d="m36.35,64.81c-1.51-1.48-2.27-3.6-2.27-6.35s.75-4.77,2.26-6.24c1.5-1.46,3.66-2.2,6.46-2.2,2.28,0,4.14.48,5.57,1.44,1.43.96,2.28,2.3,2.55,4.02h-2.13c-.27-1.35-.92-2.41-1.96-3.18s-2.35-1.15-3.92-1.15c-2.05,0-3.62.63-4.71,1.89-1.09,1.26-1.64,3.06-1.64,5.41s.55,4.23,1.65,5.52c1.1,1.28,2.68,1.92,4.75,1.92,1.57,0,2.87-.38,3.9-1.13,1.02-.76,1.67-1.82,1.94-3.19h2.13c-.27,1.72-1.12,3.06-2.55,4.02-1.43.96-3.28,1.44-5.53,1.44-2.82,0-4.98-.74-6.5-2.22Z"/>
        <path d="m67.21,65.5c.31.54.61.91.91,1.1v.19h-2.57c-.27-.3-.52-.68-.74-1.13-.23-.46-.48-1.04-.74-1.75-.44-1.17-.89-2.07-1.35-2.71-.46-.64-1.02-1.06-1.68-1.26h-4.98v6.85h-2.46v-16.54h6.83c2.27,0,4.02.4,5.26,1.19,1.24.79,1.85,2.01,1.85,3.65,0,2.44-1.38,3.96-4.13,4.56.6.3,1.12.74,1.56,1.31.44.57.86,1.36,1.25,2.35.36.91.7,1.64,1,2.19Zm-6.74-6.67c3.09,0,4.63-1.24,4.63-3.73s-1.54-3.71-4.63-3.71h-4.42v7.44h4.42Z"/>
        <path d="m70.15,50.25h14.01v1.13h-11.55v5.98h10.2v1.11h-10.2v7.18h11.55v1.13h-14.01v-16.54Z"/>
        <path d="m88.46,65.63c-1.37-.93-2.13-2.25-2.27-3.97h2.13c.11,1.45.63,2.52,1.57,3.2.94.68,2.32,1.03,4.15,1.03,1.62,0,2.86-.28,3.72-.85.86-.57,1.29-1.38,1.29-2.43,0-.63-.17-1.16-.5-1.58-.33-.42-.89-.8-1.69-1.13-.8-.33-1.91-.64-3.34-.92-2.28-.44-4-1.01-5.16-1.71-1.16-.7-1.74-1.69-1.74-2.96,0-1.42.66-2.48,1.98-3.2,1.32-.72,3.06-1.08,5.22-1.08s3.89.39,5.11,1.17c1.22.78,1.93,1.86,2.11,3.25h-2.1c-.24-1.15-.79-1.98-1.67-2.5-.87-.52-2.08-.78-3.63-.78s-2.63.25-3.41.73c-.78.49-1.17,1.17-1.17,2.03,0,.52.15.96.45,1.32.3.36.82.69,1.57.99.75.3,1.81.59,3.2.87,1.7.35,3.07.72,4.1,1.13,1.03.41,1.81.94,2.33,1.59.52.65.78,1.48.78,2.49,0,1.48-.67,2.63-2,3.46-1.33.83-3.14,1.24-5.42,1.24s-4.25-.46-5.62-1.39Z"/>
        <path d="m109.25,50.25h2.72l6.59,13.96,7.09-13.96h1.61l-8.53,16.77h-1.28l-8.2-16.77Z"/>
        <path d="m129.09,50.25h14.01v1.13h-11.55v5.98h10.2v1.11h-10.2v7.18h11.55v1.13h-14.01v-16.54Zm10.16-5.29c.36-.41.78-.61,1.25-.61.24,0,.42.06.56.18.13.12.2.26.2.44,0,.33-.3.7-.9,1.11l-3.61,2.53h-.83l3.33-3.64Z"/>
        <path d="m149.28,66.02c-1.37-.67-2.42-1.64-3.14-2.92-.72-1.28-1.09-2.8-1.09-4.56s.35-3.28,1.06-4.56c.71-1.28,1.73-2.26,3.07-2.94,1.34-.69,2.93-1.03,4.77-1.03,2.24,0,4.07.48,5.52,1.45s2.31,2.3,2.61,4h-2.13c-.28-1.39-.94-2.45-1.96-3.2-1.02-.75-2.35-1.12-3.97-1.12-2.03,0-3.62.65-4.77,1.95-1.15,1.3-1.72,3.11-1.72,5.42s.59,4.16,1.76,5.45c1.17,1.28,2.82,1.92,4.95,1.92.99,0,1.9-.11,2.72-.32.82-.21,1.6-.55,2.34-1v-5.36h-5.79v-1.06h8.24v6.59c-.93.74-2.04,1.31-3.32,1.7-1.28.39-2.69.59-4.22.59-1.92,0-3.57-.33-4.94-1Z"/>
        <path d="m165.13,50.25h14.01v1.13h-11.55v5.98h10.2v1.11h-10.2v7.18h11.55v1.13h-14.01v-16.54Zm10.16-5.29c.36-.41.78-.61,1.25-.61.24,0,.42.06.56.18.13.12.2.26.2.44,0,.33-.3.7-.9,1.11l-3.61,2.53h-.83l3.33-3.64Z"/>
        <path d="m187.01,51.39h-6.99v-1.13h16.42v1.13h-6.97v15.4h-2.46v-15.4Z"/>
        <path d="m207.82,62.49h-9.52l-2.15,4.3h-1.65l8.6-16.77h1.28l8.1,16.77h-2.65l-2.01-4.3Zm-.54-1.13l-4.06-8.69-4.35,8.69h8.41Z"/>
        <path d="m214.43,50.25h2.46v15.4h10.39v1.13h-12.85v-16.54Z"/>
        <path d="m229.45,50.25h14.01v1.13h-11.55v5.98h10.2v1.11h-10.2v7.18h11.55v1.13h-14.01v-16.54Z"/>
        <path d="m247.76,65.63c-1.37-.93-2.13-2.25-2.27-3.97h2.13c.11,1.45.63,2.52,1.57,3.2.94.68,2.32,1.03,4.15,1.03,1.62,0,2.86-.28,3.72-.85.86-.57,1.29-1.38,1.29-2.43,0-.63-.17-1.16-.5-1.58-.33-.42-.89-.8-1.69-1.13-.8-.33-1.91-.64-3.34-.92-2.28-.44-4-1.01-5.16-1.71-1.16-.7-1.74-1.69-1.74-2.96,0-1.42.66-2.48,1.98-3.2,1.32-.72,3.06-1.08,5.22-1.08s3.89.39,5.11,1.17c1.22.78,1.93,1.86,2.11,3.25h-2.1c-.24-1.15-.79-1.98-1.67-2.5-.87-.52-2.08-.78-3.63-.78s-2.63.25-3.41.73c-.78.49-1.17,1.17-1.17,2.03,0,.52.15.96.45,1.32.3.36.82.69,1.57.99.75.3,1.81.59,3.2.87,1.7.35,3.07.72,4.1,1.13,1.03.41,1.81.94,2.33,1.59.52.65.78,1.48.78,2.49,0,1.48-.67,2.63-2,3.46-1.33.83-3.14,1.24-5.42,1.24s-4.25-.46-5.62-1.39Z"/>
        <path d="m269.23,62.65h5.34v.63h-5.34v-.63Z"/>
        <path d="m6.23,83.47c-.96-.94-1.44-2.28-1.44-4.02s.48-3.02,1.43-3.95c.95-.93,2.31-1.39,4.09-1.39,1.45,0,2.62.3,3.53.91.91.61,1.45,1.46,1.61,2.54h-1.35c-.17-.86-.58-1.53-1.24-2.01-.66-.48-1.49-.73-2.48-.73-1.3,0-2.29.4-2.98,1.2-.69.8-1.04,1.94-1.04,3.42s.35,2.68,1.05,3.49c.7.81,1.7,1.22,3.01,1.22,1,0,1.82-.24,2.47-.72.65-.48,1.06-1.15,1.23-2.02h1.35c-.17,1.09-.71,1.93-1.61,2.54-.91.61-2.07.91-3.5.91-1.78,0-3.15-.47-4.11-1.41Z"/>
        <path d="m17.04,77.4h1.38v1.57c.19-.55.49-.97.9-1.27s.91-.45,1.5-.45c.23,0,.4.02.51.06l-.13.96c-.15-.08-.36-.12-.63-.12-.68,0-1.21.28-1.58.85-.38.57-.57,1.29-.57,2.15v3.57h-1.38v-7.33Z"/>
        <path d="m28.04,83.77c.46-.33.76-.78.89-1.35h1.12c-.19.77-.62,1.37-1.3,1.8-.68.43-1.51.65-2.48.65-.82,0-1.53-.15-2.15-.46-.61-.31-1.09-.75-1.42-1.32-.33-.57-.5-1.24-.5-2s.16-1.46.49-2.03c.33-.58.8-1.02,1.41-1.34.61-.31,1.32-.47,2.13-.47,1.22,0,2.17.33,2.85.99.68.66,1.04,1.58,1.07,2.78h-6.58v.08c0,.99.24,1.76.72,2.32.48.56,1.16.84,2.03.84.68,0,1.25-.16,1.71-.49Zm-3.58-5.24c-.46.44-.74,1.07-.84,1.88h5.23c-.11-.82-.39-1.45-.83-1.88-.44-.44-1.03-.66-1.76-.66s-1.35.22-1.81.67Zm3.59-4.48c.23-.26.49-.39.79-.39.15,0,.27.04.35.11.08.08.13.17.13.28,0,.21-.19.44-.57.7l-2.29,1.6h-.52l2.11-2.3Z"/>
        <path d="m32.48,84.3c-.5-.39-.76-.94-.76-1.66,0-.77.3-1.35.91-1.76.61-.4,1.49-.61,2.66-.61h2.18v-.54c0-.61-.18-1.07-.55-1.39-.37-.32-.9-.48-1.6-.48-.66,0-1.19.15-1.58.46-.4.3-.63.74-.7,1.29h-1.08c.1-.76.45-1.34,1.05-1.75.6-.41,1.4-.61,2.39-.61,1.12,0,1.97.23,2.56.68.59.45.88,1.11.88,1.97v2.42c0,.86.07,1.66.22,2.41h-1.29c-.11-.45-.18-.88-.21-1.29-.6.96-1.56,1.44-2.89,1.44-.97,0-1.7-.19-2.21-.58Zm3.8-.32c.37-.21.67-.5.88-.86.21-.36.32-.76.32-1.2v-1.03h-1.81c-.88,0-1.53.14-1.95.43s-.64.72-.64,1.31c0,.55.16.96.49,1.25s.81.43,1.45.43c.46,0,.87-.11,1.25-.32Z"/>
        <path d="m41.99,84.34c-.32-.36-.48-.91-.48-1.66v-4.67h-1.32l.21-.61h1.12l.54-2.06h.82v2.06h2.05l-.19.61h-1.85v4.87c0,.91.34,1.36,1.02,1.36.36,0,.71-.09,1.05-.28v.64c-.42.18-.92.27-1.51.27-.65,0-1.13-.18-1.45-.54Z"/>
        <path d="m46.67,76.24c-.19-.17-.28-.39-.28-.67s.09-.5.28-.67c.19-.17.43-.25.73-.25s.54.08.73.25c.19.17.28.39.28.67s-.09.5-.28.67c-.19.17-.43.25-.73.25s-.54-.08-.73-.25Zm.04,1.17h1.38v7.33h-1.38v-7.33Z"/>
        <path d="m52.2,84.41c-.64-.31-1.13-.76-1.48-1.34-.35-.58-.52-1.25-.52-2s.17-1.42.52-2c.35-.58.84-1.02,1.48-1.34.64-.31,1.38-.47,2.23-.47s1.59.16,2.24.47c.64.31,1.14.76,1.49,1.34s.52,1.25.52,2-.17,1.43-.52,2-.84,1.02-1.49,1.34c-.64.31-1.39.47-2.24.47s-1.59-.16-2.23-.47Zm4.32-.99c.51-.57.76-1.35.76-2.35s-.25-1.78-.76-2.35-1.21-.85-2.09-.85-1.58.28-2.09.85c-.5.57-.75,1.35-.75,2.35s.25,1.78.75,2.35c.5.57,1.2.85,2.09.85s1.58-.28,2.09-.85Z"/>
        <path d="m60.46,77.4h1.38v1.29c.24-.44.61-.79,1.11-1.05.5-.26,1.07-.39,1.7-.39.97,0,1.73.25,2.29.75.56.5.84,1.18.84,2.04v4.68h-1.38v-4.83c0-.65-.18-1.15-.54-1.5-.36-.35-.87-.53-1.52-.53-.76,0-1.36.25-1.82.74s-.68,1.14-.68,1.95v4.17h-1.38v-7.33Z"/>
        <path d="m75.22,84.39c-.58-.32-1.04-.78-1.36-1.35-.32-.58-.49-1.24-.49-1.97s.15-1.42.46-2c.31-.57.74-1.02,1.31-1.34.56-.32,1.21-.48,1.95-.48.67,0,1.26.13,1.78.4.52.26.92.64,1.21,1.11v-4.25h1.38v10.21h-1.38v-1.33c-.28.48-.67.84-1.16,1.1-.49.25-1.06.38-1.71.38-.75,0-1.41-.16-2-.49Zm3.59-.51c.4-.26.72-.64.94-1.12.22-.48.34-1.04.34-1.67s-.11-1.22-.34-1.71c-.22-.49-.54-.87-.96-1.14-.41-.26-.89-.4-1.43-.4-.8,0-1.43.29-1.91.86-.47.57-.71,1.35-.71,2.33,0,.65.11,1.22.33,1.7s.53.87.93,1.14c.4.27.87.4,1.4.4s.99-.13,1.4-.4Z"/>
        <path d="m83.34,77.48c.26-.21.47-.49.64-.84.16-.35.24-.71.23-1.08-.1.06-.21.09-.33.09-.22,0-.4-.07-.54-.21s-.21-.32-.21-.54c0-.23.07-.42.22-.56.14-.14.34-.22.59-.22.28,0,.5.1.66.31.16.21.24.49.24.86,0,.47-.12.93-.36,1.38-.24.45-.54.78-.91,1l-.22-.18Z"/>
        <path d="m87.18,84.12c-.55-.5-.83-1.2-.83-2.09v-4.63h1.38v4.78c0,.67.18,1.18.53,1.54.35.36.86.54,1.52.54.76,0,1.37-.25,1.83-.74.46-.49.7-1.14.7-1.95v-4.17h1.38v7.33h-1.38v-1.29c-.24.45-.61.8-1.11,1.05-.5.25-1.07.38-1.72.38-.98,0-1.74-.25-2.29-.75Z"/>
        <path d="m95.75,77.4h1.38v1.29c.24-.44.61-.79,1.11-1.05.5-.26,1.07-.39,1.7-.39.97,0,1.73.25,2.29.75.56.5.84,1.18.84,2.04v4.68h-1.38v-4.83c0-.65-.18-1.15-.54-1.5-.36-.35-.87-.53-1.52-.53-.76,0-1.36.25-1.82.74s-.68,1.14-.68,1.95v4.17h-1.38v-7.33Z"/>
        <path d="m106.88,86.96l.42-.73c.26.41.6.61,1.03.61s.73-.2.92-.61c.19-.4.29-1.03.29-1.89v-6.94h1.38v6.64c0,1.13-.21,1.98-.62,2.56-.41.58-1.01.88-1.8.88-.67,0-1.21-.17-1.61-.52Zm2.63-10.72c-.19-.17-.28-.39-.28-.67s.09-.5.28-.67c.19-.17.43-.25.73-.25s.54.08.73.25c.19.17.28.39.28.67s-.09.5-.28.67c-.19.17-.43.25-.73.25s-.54-.08-.73-.25Z"/>
        <path d="m118.87,83.77c.46-.33.76-.78.89-1.35h1.12c-.19.77-.62,1.37-1.3,1.8-.68.43-1.51.65-2.48.65-.82,0-1.53-.15-2.15-.46-.61-.31-1.09-.75-1.42-1.32-.33-.57-.5-1.24-.5-2s.16-1.46.49-2.03c.33-.58.8-1.02,1.41-1.34.61-.31,1.32-.47,2.13-.47,1.22,0,2.17.33,2.85.99.68.66,1.04,1.58,1.07,2.78h-6.58v.08c0,.99.24,1.76.72,2.32.48.56,1.16.84,2.03.84.68,0,1.25-.16,1.71-.49Zm-3.58-5.24c-.46.44-.74,1.07-.84,1.88h5.23c-.11-.82-.39-1.45-.83-1.88-.44-.44-1.03-.66-1.76-.66s-1.35.22-1.81.67Z"/>
        <path d="m123.4,84.12c-.55-.5-.83-1.2-.83-2.09v-4.63h1.38v4.78c0,.67.18,1.18.53,1.54.35.36.86.54,1.52.54.76,0,1.37-.25,1.83-.74.46-.49.7-1.14.7-1.95v-4.17h1.38v7.33h-1.38v-1.29c-.24.45-.61.8-1.11,1.05-.5.25-1.07.38-1.72.38-.98,0-1.74-.25-2.29-.75Z"/>
        <path d="m137.49,84.39c-.58-.32-1.04-.78-1.36-1.35-.32-.58-.49-1.24-.49-1.97s.15-1.42.46-2c.31-.57.74-1.02,1.31-1.34.56-.32,1.21-.48,1.95-.48.67,0,1.26.13,1.78.4.52.26.92.64,1.21,1.11v-4.25h1.38v10.21h-1.38v-1.33c-.28.48-.67.84-1.16,1.1-.49.25-1.06.38-1.71.38-.75,0-1.41-.16-2-.49Zm3.59-.51c.4-.26.72-.64.94-1.12.22-.48.34-1.04.34-1.67s-.11-1.22-.34-1.71c-.22-.49-.54-.87-.96-1.14-.41-.26-.89-.4-1.43-.4-.8,0-1.43.29-1.91.86-.47.57-.71,1.35-.71,2.33,0,.65.11,1.22.33,1.7s.53.87.93,1.14c.4.27.87.4,1.4.4s.99-.13,1.4-.4Z"/>
        <path d="m151.33,83.77c.46-.33.76-.78.89-1.35h1.12c-.19.77-.62,1.37-1.3,1.8-.68.43-1.51.65-2.48.65-.82,0-1.53-.15-2.15-.46-.61-.31-1.09-.75-1.42-1.32-.33-.57-.5-1.24-.5-2s.16-1.46.49-2.03c.33-.58.8-1.02,1.41-1.34.61-.31,1.32-.47,2.13-.47,1.22,0,2.17.33,2.85.99.68.66,1.04,1.58,1.07,2.78h-6.58v.08c0,.99.24,1.76.72,2.32.48.56,1.16.84,2.03.84.68,0,1.25-.16,1.71-.49Zm-3.58-5.24c-.46.44-.74,1.07-.84,1.88h5.23c-.11-.82-.39-1.45-.83-1.88-.44-.44-1.03-.66-1.76-.66s-1.35.22-1.81.67Z"/>
        <path d="m160.03,84.28c-.63-.4-1.01-.96-1.14-1.67h1.14c.08.52.34.92.78,1.22.44.29,1.03.44,1.76.44.69,0,1.24-.14,1.65-.42s.62-.65.62-1.11c0-.37-.18-.66-.54-.88-.36-.21-.96-.39-1.79-.53s-1.5-.3-2-.47c-.49-.17-.85-.39-1.07-.64-.22-.25-.33-.57-.33-.95,0-.62.3-1.11.89-1.47.59-.36,1.42-.54,2.49-.54s1.88.2,2.52.59c.64.39,1.01.94,1.11,1.65h-1.14c-.09-.51-.35-.91-.78-1.2-.43-.29-.97-.43-1.63-.43s-1.13.11-1.52.34c-.38.22-.58.53-.58.9,0,.23.06.41.19.55.13.14.37.26.71.37.34.11.85.22,1.53.34,1.16.2,1.99.48,2.51.83.52.35.78.83.78,1.44,0,.7-.33,1.24-.98,1.64-.65.39-1.56.59-2.71.59-1.03,0-1.86-.2-2.49-.6Z"/>
        <path d="m169.7,84.41c-.64-.31-1.13-.76-1.48-1.34-.35-.58-.52-1.25-.52-2s.17-1.42.52-2c.35-.58.84-1.02,1.48-1.34.64-.31,1.38-.47,2.23-.47s1.59.16,2.24.47c.64.31,1.14.76,1.49,1.34s.52,1.25.52,2-.17,1.43-.52,2-.84,1.02-1.49,1.34c-.64.31-1.39.47-2.24.47s-1.59-.16-2.23-.47Zm4.32-.99c.51-.57.76-1.35.76-2.35s-.25-1.78-.76-2.35-1.21-.85-2.09-.85-1.58.28-2.09.85c-.5.57-.75,1.35-.75,2.35s.25,1.78.75,2.35c.5.57,1.2.85,2.09.85s1.58-.28,2.09-.85Z"/>
        <path d="m179.6,84.42c-.63-.31-1.12-.75-1.46-1.32-.34-.57-.51-1.25-.51-2.03s.17-1.45.51-2.03c.34-.57.82-1.01,1.45-1.32.63-.31,1.37-.46,2.21-.46,1.04,0,1.89.22,2.56.65.67.43,1.09,1.03,1.25,1.8h-1.12c-.14-.57-.45-1.02-.92-1.35-.47-.33-1.04-.49-1.71-.49-.88,0-1.57.29-2.09.86-.51.57-.77,1.35-.77,2.34s.26,1.77.77,2.34c.51.57,1.21.86,2.09.86.66,0,1.23-.16,1.7-.49.48-.33.79-.78.93-1.35h1.12c-.16.77-.58,1.37-1.26,1.8-.68.43-1.52.65-2.54.65-.85,0-1.59-.15-2.22-.46Z"/>
        <path d="m187.7,76.24c-.19-.17-.28-.39-.28-.67s.09-.5.28-.67c.19-.17.43-.25.73-.25s.54.08.73.25c.19.17.28.39.28.67s-.09.5-.28.67c-.19.17-.43.25-.73.25s-.54-.08-.73-.25Zm.04,1.17h1.38v7.33h-1.38v-7.33Z"/>
        <path d="m197.06,83.77c.46-.33.76-.78.89-1.35h1.12c-.19.77-.62,1.37-1.3,1.8-.68.43-1.51.65-2.48.65-.82,0-1.53-.15-2.15-.46-.61-.31-1.09-.75-1.42-1.32-.33-.57-.5-1.24-.5-2s.16-1.46.49-2.03c.33-.58.8-1.02,1.41-1.34.61-.31,1.32-.47,2.13-.47,1.22,0,2.17.33,2.85.99.68.66,1.04,1.58,1.07,2.78h-6.58v.08c0,.99.24,1.76.72,2.32.48.56,1.16.84,2.03.84.68,0,1.25-.16,1.71-.49Zm-3.58-5.24c-.46.44-.74,1.07-.84,1.88h5.23c-.11-.82-.39-1.45-.83-1.88-.44-.44-1.03-.66-1.76-.66s-1.35.22-1.81.67Zm3.59-4.48c.23-.26.49-.39.79-.39.15,0,.27.04.35.11.08.08.13.17.13.28,0,.21-.19.44-.57.7l-2.29,1.6h-.52l2.11-2.3Z"/>
        <path d="m201.88,84.34c-.32-.36-.48-.91-.48-1.66v-4.67h-1.32l.21-.61h1.12l.54-2.06h.82v2.06h2.05l-.19.61h-1.85v4.87c0,.91.34,1.36,1.02,1.36.36,0,.71-.09,1.05-.28v.64c-.42.18-.92.27-1.51.27-.65,0-1.13-.18-1.45-.54Z"/>
        <path d="m211.8,83.77c.46-.33.76-.78.89-1.35h1.12c-.19.77-.62,1.37-1.3,1.8-.68.43-1.51.65-2.48.65-.82,0-1.53-.15-2.15-.46-.61-.31-1.09-.75-1.42-1.32-.33-.57-.5-1.24-.5-2s.16-1.46.49-2.03c.33-.58.8-1.02,1.41-1.34.61-.31,1.32-.47,2.13-.47,1.22,0,2.17.33,2.85.99.68.66,1.04,1.58,1.07,2.78h-6.58v.08c0,.99.24,1.76.72,2.32.48.56,1.16.84,2.03.84.68,0,1.25-.16,1.71-.49Zm-3.58-5.24c-.46.44-.74,1.07-.84,1.88h5.23c-.11-.82-.39-1.45-.83-1.88-.44-.44-1.03-.66-1.76-.66s-1.35.22-1.81.67Zm3.59-4.48c.23-.26.49-.39.79-.39.15,0,.27.04.35.11.08.08.13.17.13.28,0,.21-.19.44-.57.7l-2.29,1.6h-.52l2.11-2.3Z"/>
        <path d="m219.94,76.24c-.19-.17-.28-.39-.28-.67s.09-.5.28-.67c.19-.17.43-.25.73-.25s.54.08.73.25c.19.17.28.39.28.67s-.09.5-.28.67c-.19.17-.43.25-.73.25s-.54-.08-.73-.25Zm.04,1.17h1.38v7.33h-1.38v-7.33Z"/>
        <path d="m223.78,77.4h1.38v1.29c.24-.44.61-.79,1.11-1.05.5-.26,1.07-.39,1.7-.39.97,0,1.73.25,2.29.75.56.5.84,1.18.84,2.04v4.68h-1.38v-4.83c0-.65-.18-1.15-.54-1.5-.36-.35-.87-.53-1.52-.53-.76,0-1.36.25-1.82.74s-.68,1.14-.68,1.95v4.17h-1.38v-7.33Z"/>
        <path d="m233.88,84.28c-.63-.4-1.01-.96-1.14-1.67h1.14c.08.52.34.92.78,1.22.44.29,1.03.44,1.76.44.69,0,1.24-.14,1.65-.42s.62-.65.62-1.11c0-.37-.18-.66-.54-.88-.36-.21-.96-.39-1.79-.53s-1.5-.3-2-.47c-.49-.17-.85-.39-1.07-.64-.22-.25-.33-.57-.33-.95,0-.62.3-1.11.89-1.47.59-.36,1.42-.54,2.49-.54s1.88.2,2.52.59c.64.39,1.01.94,1.11,1.65h-1.14c-.09-.51-.35-.91-.78-1.2-.43-.29-.97-.43-1.63-.43s-1.13.11-1.52.34c-.38.22-.58.53-.58.9,0,.23.06.41.19.55.13.14.37.26.71.37.34.11.85.22,1.53.34,1.16.2,1.99.48,2.51.83.52.35.78.83.78,1.44,0,.7-.33,1.24-.98,1.64-.65.39-1.56.59-2.71.59-1.03,0-1.86-.2-2.49-.6Z"/>
        <path d="m241.84,77.4h1.38v1.36c.28-.47.68-.84,1.2-1.11.52-.27,1.11-.4,1.77-.4,1.17,0,2.08.34,2.74,1.01.66.67.99,1.6.99,2.77s-.33,2.13-1,2.82c-.67.68-1.58,1.02-2.74,1.02-.68,0-1.27-.13-1.78-.4-.51-.27-.91-.66-1.2-1.17v4.26h-1.38v-10.17Zm5.44,6.47c.41-.27.72-.66.94-1.15s.33-1.06.33-1.71c0-.98-.24-1.75-.71-2.31-.47-.56-1.11-.84-1.92-.84-.53,0-1,.13-1.41.4-.41.27-.73.65-.96,1.14-.22.49-.34,1.05-.34,1.69,0,.98.24,1.75.72,2.33.48.58,1.13.87,1.94.87.53,0,1-.14,1.41-.41Z"/>
        <path d="m251.99,76.24c-.19-.17-.28-.39-.28-.67s.09-.5.28-.67c.19-.17.43-.25.73-.25s.54.08.73.25c.19.17.28.39.28.67s-.09.5-.28.67c-.19.17-.43.25-.73.25s-.54-.08-.73-.25Zm.04,1.17h1.38v7.33h-1.38v-7.33Z"/>
        <path d="m255.79,77.4h1.38v1.57c.19-.55.49-.97.9-1.27s.91-.45,1.5-.45c.23,0,.4.02.51.06l-.13.96c-.15-.08-.36-.12-.63-.12-.68,0-1.21.28-1.58.85-.38.57-.57,1.29-.57,2.15v3.57h-1.38v-7.33Z"/>
        <path d="m266.79,83.77c.46-.33.76-.78.89-1.35h1.12c-.19.77-.62,1.37-1.3,1.8-.68.43-1.51.65-2.48.65-.82,0-1.53-.15-2.15-.46-.61-.31-1.09-.75-1.42-1.32-.33-.57-.5-1.24-.5-2s.16-1.46.49-2.03c.33-.58.8-1.02,1.41-1.34.61-.31,1.32-.47,2.13-.47,1.22,0,2.17.33,2.85.99.68.66,1.04,1.58,1.07,2.78h-6.58v.08c0,.99.24,1.76.72,2.32.48.56,1.16.84,2.03.84.68,0,1.25-.16,1.71-.49Zm-3.58-5.24c-.46.44-.74,1.07-.84,1.88h5.23c-.11-.82-.39-1.45-.83-1.88-.44-.44-1.03-.66-1.76-.66s-1.35.22-1.81.67Zm3.59-4.48c.23-.26.49-.39.79-.39.15,0,.27.04.35.11.08.08.13.17.13.28,0,.21-.19.44-.57.7l-2.29,1.6h-.52l2.11-2.3Z"/>
        <path d="m49.63,102.33c-.58-.32-1.04-.78-1.36-1.35-.32-.58-.49-1.24-.49-1.97s.15-1.42.46-2c.31-.57.74-1.02,1.31-1.34.56-.32,1.21-.48,1.95-.48.67,0,1.26.13,1.78.4.52.26.92.64,1.21,1.11v-4.25h1.38v10.21h-1.38v-1.33c-.28.48-.67.84-1.16,1.1-.49.25-1.06.38-1.71.38-.75,0-1.41-.16-2-.49Zm3.59-.51c.4-.26.72-.64.94-1.12.22-.48.34-1.04.34-1.67s-.11-1.22-.34-1.71c-.22-.49-.54-.87-.96-1.14-.41-.26-.89-.4-1.43-.4-.8,0-1.43.29-1.91.86-.47.57-.71,1.35-.71,2.33,0,.65.11,1.22.33,1.7s.53.87.93,1.14c.4.27.87.4,1.4.4s.99-.13,1.4-.4Z"/>
        <path d="m58.6,102.06c-.55-.5-.83-1.2-.83-2.09v-4.63h1.38v4.78c0,.67.18,1.18.53,1.54.35.36.86.54,1.52.54.76,0,1.37-.25,1.83-.74.46-.49.7-1.14.7-1.95v-4.17h1.38v7.33h-1.38v-1.29c-.24.45-.61.8-1.11,1.05-.5.25-1.07.38-1.72.38-.98,0-1.74-.25-2.29-.75Z"/>
        <path d="m69.04,104.9l.42-.73c.26.41.6.61,1.03.61s.73-.2.92-.61c.19-.4.29-1.03.29-1.89v-6.94h1.38v6.64c0,1.13-.21,1.98-.62,2.56-.41.58-1.01.88-1.8.88-.67,0-1.21-.17-1.61-.52Zm2.63-10.72c-.19-.17-.28-.39-.28-.67s.09-.5.28-.67c.19-.17.43-.25.73-.25s.54.08.73.25c.19.17.28.39.28.67s-.09.5-.28.67c-.19.17-.43.25-.73.25s-.54-.08-.73-.25Z"/>
        <path d="m81.04,101.71c.46-.33.76-.78.89-1.35h1.12c-.19.77-.62,1.37-1.3,1.8-.68.43-1.51.65-2.48.65-.82,0-1.53-.15-2.15-.46-.61-.31-1.09-.75-1.42-1.32-.33-.57-.5-1.24-.5-2s.16-1.46.49-2.03c.33-.58.8-1.02,1.41-1.34.61-.31,1.32-.47,2.13-.47,1.22,0,2.17.33,2.85.99.68.66,1.04,1.58,1.07,2.78h-6.58v.08c0,.99.24,1.76.72,2.32.48.56,1.16.84,2.03.84.68,0,1.25-.16,1.71-.49Zm-3.58-5.24c-.46.44-.74,1.07-.84,1.88h5.23c-.11-.82-.39-1.45-.83-1.88-.44-.44-1.03-.66-1.76-.66s-1.35.22-1.81.67Z"/>
        <path d="m85.57,102.06c-.55-.5-.83-1.2-.83-2.09v-4.63h1.38v4.78c0,.67.18,1.18.53,1.54.35.36.86.54,1.52.54.76,0,1.37-.25,1.83-.74.46-.49.7-1.14.7-1.95v-4.17h1.38v7.33h-1.38v-1.29c-.24.45-.61.8-1.11,1.05-.5.25-1.07.38-1.72.38-.98,0-1.74-.25-2.29-.75Z"/>
        <path d="m99.65,102.33c-.58-.32-1.04-.78-1.36-1.35-.32-.58-.49-1.24-.49-1.97s.15-1.42.46-2c.31-.57.74-1.02,1.31-1.34.56-.32,1.21-.48,1.95-.48.67,0,1.26.13,1.78.4.52.26.92.64,1.21,1.11v-4.25h1.38v10.21h-1.38v-1.33c-.28.48-.67.84-1.16,1.1-.49.25-1.06.38-1.71.38-.75,0-1.41-.16-2-.49Zm3.59-.51c.4-.26.72-.64.94-1.12.22-.48.34-1.04.34-1.67s-.11-1.22-.34-1.71c-.22-.49-.54-.87-.96-1.14-.41-.26-.89-.4-1.43-.4-.8,0-1.43.29-1.91.86-.47.57-.71,1.35-.71,2.33,0,.65.11,1.22.33,1.7s.53.87.93,1.14c.4.27.87.4,1.4.4s.99-.13,1.4-.4Z"/>
        <path d="m113.5,101.71c.46-.33.76-.78.89-1.35h1.12c-.19.77-.62,1.37-1.3,1.8-.68.43-1.51.65-2.48.65-.82,0-1.53-.15-2.15-.46-.61-.31-1.09-.75-1.42-1.32-.33-.57-.5-1.24-.5-2s.16-1.46.49-2.03c.33-.58.8-1.02,1.41-1.34.61-.31,1.32-.47,2.13-.47,1.22,0,2.17.33,2.85.99.68.66,1.04,1.58,1.07,2.78h-6.58v.08c0,.99.24,1.76.72,2.32.48.56,1.16.84,2.03.84.68,0,1.25-.16,1.71-.49Zm-3.58-5.24c-.46.44-.74,1.07-.84,1.88h5.23c-.11-.82-.39-1.45-.83-1.88-.44-.44-1.03-.66-1.76-.66s-1.35.22-1.81.67Z"/>
        <path d="m118.52,102.22c-.63-.4-1.01-.96-1.14-1.67h1.14c.08.52.34.92.78,1.22.44.29,1.03.44,1.76.44.69,0,1.24-.14,1.65-.42s.62-.65.62-1.11c0-.37-.18-.66-.54-.88-.36-.21-.96-.39-1.79-.53s-1.5-.3-2-.47c-.49-.17-.85-.39-1.07-.64-.22-.25-.33-.57-.33-.95,0-.62.3-1.11.89-1.47.59-.36,1.42-.54,2.49-.54s1.88.2,2.52.59c.64.39,1.01.94,1.11,1.65h-1.14c-.09-.51-.35-.91-.78-1.2-.43-.29-.97-.43-1.63-.43s-1.13.11-1.52.34c-.38.22-.58.53-.58.9,0,.23.06.41.19.55.13.14.37.26.71.37.34.11.85.22,1.53.34,1.16.2,1.99.48,2.51.83.52.35.78.83.78,1.44,0,.7-.33,1.24-.98,1.64-.65.39-1.56.59-2.71.59-1.03,0-1.86-.2-2.49-.6Z"/>
        <path d="m132.59,100.4c.22-.72.59-1.48,1.09-2.28.5-.8,1.18-1.7,2.04-2.72.57-.67.96-1.19,1.19-1.55.22-.37.34-.69.35-.97h-7.1v-.67h8.84c0,.4-.13.82-.4,1.27-.26.45-.77,1.11-1.52,1.99-1.19,1.41-2.03,2.65-2.52,3.72-.49,1.08-.74,2.24-.74,3.48h-1.57c0-.79.11-1.54.34-2.26Z"/>
        <path d="m144.9,92.2h8.58v.72h-7.03v3.78h6.02v.7h-6.02v5.26h-1.55v-10.46Z"/>
        <path d="m160.67,99.95h-6.02l-1.36,2.72h-1.05l5.44-10.61h.81l5.13,10.61h-1.67l-1.27-2.72Zm-.34-.72l-2.57-5.5-2.75,5.5h5.32Z"/>
        <path d="m176.51,92.2v10.46h-1.55v-8.79l-4.07,8.79h-.73l-4.37-8.91v8.91h-.93v-10.46h1.78l4.17,8.61,3.99-8.61h1.7Z"/>
        <path d="m179.35,92.2h1.55v10.46h-1.55v-10.46Z"/>
        <path d="m183.73,92.2h1.55v9.75h6.58v.72h-8.13v-10.46Z"/>
        <path d="m193.23,92.2h1.55v9.75h6.58v.72h-8.13v-10.46Z"/>
        <path d="m202.74,92.2h8.87v.72h-7.31v3.78h6.46v.7h-6.46v4.54h7.31v.72h-8.87v-10.46Z"/>
        <path d="m214.33,101.94c-.87-.59-1.35-1.43-1.44-2.51h1.35c.07.92.4,1.59.99,2.03s1.47.65,2.62.65c1.03,0,1.81-.18,2.35-.54.54-.36.81-.87.81-1.54,0-.4-.1-.73-.31-1-.21-.27-.57-.51-1.07-.72-.5-.21-1.21-.4-2.12-.58-1.45-.28-2.53-.64-3.27-1.08-.73-.44-1.1-1.07-1.1-1.88,0-.9.42-1.57,1.26-2.03.84-.45,1.94-.68,3.3-.68s2.46.25,3.24.74c.77.49,1.22,1.18,1.34,2.06h-1.33c-.15-.73-.5-1.26-1.05-1.58-.55-.33-1.32-.49-2.29-.49s-1.67.16-2.16.46c-.49.31-.74.74-.74,1.29,0,.33.09.61.28.84.19.23.52.44.99.63s1.15.37,2.03.55c1.08.22,1.94.46,2.59.72.65.26,1.14.6,1.47,1.01.33.41.49.94.49,1.58,0,.94-.42,1.67-1.26,2.19-.84.52-1.99.79-3.43.79s-2.69-.29-3.56-.88Z"/>
        <path d="m224.38,102.59c-.15-.15-.23-.35-.23-.59s.08-.42.24-.58c.16-.15.36-.23.6-.23s.45.08.61.23c.16.15.24.35.24.58s-.08.44-.24.59c-.16.15-.36.23-.61.23s-.45-.08-.61-.23Z"/>
      </g>
      <path class="cls-1" d="m39.25,3.43C19.25,3.43,4.34,13.12,4.34,39.82c0,0,23.42,2.61,24-14.92,0,0,.94-10.27-12.37-14.72"/>
      <polygon points="77.73 .71 72.21 .71 63.68 32.22 55.14 .71 49.51 .71 61.23 42.54 66.8 42.54 77.73 .71"/>
      <g>
        <polygon points="99.8 42.54 94.28 42.54 85.75 11.04 77.21 42.54 71.58 42.54 83.3 .71 88.87 .71 99.8 42.54"/>
        <line class="cls-1" x1="78.88" y1="26.05" x2="92.61" y2="26.05"/>
      </g>
      <polygon points="152.37 42.61 146.84 42.61 138.31 11.1 129.77 42.61 124.14 42.61 135.87 .78 141.43 .78 152.37 42.61"/>
      <line class="cls-1" x1="131.45" y1="26.11" x2="145.18" y2="26.11"/>
      <polygon points="171.79 42.53 160.28 14.76 160.28 42.53 154.9 42.53 154.9 .78 160.09 .73 171.59 28.55 171.59 .78 176.98 .78 176.98 42.53 171.79 42.53"/>
      <g>
        <polyline class="cls-1" points="235.14 39.77 209.93 39.8 209.93 3.41 228.6 3.37"/>
        <line class="cls-1" x1="209.93" y1="22.98" x2="225.57" y2="22.98"/>
      </g>
      <path class="cls-1" d="m121.76,39.78s-20.42.3-20.42-18.2S121.47,3.38,121.47,3.38"/>
      <path class="cls-1" d="m203.48,39.9s-20.42.3-20.42-18.2c0-18.49,20.12-18.2,20.12-18.2"/>
      <path class="cls-1" d="m238.65,23.53c-.15,21.98,31.65,21.37,31.64,5.07,0-6.37-6.04-12.68-16.09-11.68-7.68.77-19.74,2.33-20.6-6.14-1.09-10.71,17.35-10.1,17.35-2.24"/>
    </g>
  </g>
</svg>