<?xml version="1.0" encoding="UTF-8"?>
<svg id="Calque_2" data-name="Calque 2" xmlns="http://www.w3.org/2000/svg" viewBox="0 0 269.34 120.97">
  <defs>
    <style>
      .cls-1 {
        fill: none;
        stroke: #000;
        stroke-miterlimit: 10;
        stroke-width: 5.38px;
      }
    </style>
  </defs>
  <g id="Calque_1-2" data-name="Calque 1">
    <g>
      <g>
        <path d="m38.76,62.71h-9.52l-2.15,4.3h-1.65l8.6-16.77h1.28l8.1,16.77h-2.65l-2.01-4.3Zm-.54-1.13l-4.06-8.69-4.35,8.69h8.41Z"/>
        <path d="m45.38,50.47h13.56v1.13h-11.1v5.98h9.52v1.11h-9.52v8.31h-2.46v-16.54Z"/>
        <path d="m66.33,51.6h-6.99v-1.13h16.42v1.13h-6.97v15.4h-2.46v-15.4Z"/>
        <path d="m77.72,50.47h14.01v1.13h-11.55v5.98h10.2v1.11h-10.2v7.18h11.55v1.13h-14.01v-16.54Z"/>
        <path d="m107.75,65.72c.31.54.61.91.91,1.1v.19h-2.57c-.27-.3-.52-.68-.74-1.13-.23-.46-.48-1.04-.74-1.75-.44-1.17-.89-2.07-1.35-2.71-.46-.64-1.02-1.06-1.68-1.26h-4.98v6.85h-2.46v-16.54h6.83c2.27,0,4.02.4,5.26,1.19,1.24.79,1.85,2.01,1.85,3.65,0,2.44-1.38,3.96-4.13,4.56.6.3,1.12.74,1.56,1.31.44.57.86,1.36,1.25,2.35.36.91.7,1.64,1,2.19Zm-6.74-6.67c3.09,0,4.63-1.24,4.63-3.73s-1.54-3.71-4.63-3.71h-4.42v7.44h4.42Z"/>
        <path d="m116.97,50.47h14.01v1.13h-11.55v5.98h10.2v1.11h-10.2v7.18h11.55v1.13h-14.01v-16.54Z"/>
        <path d="m133.39,50.47h13.56v1.13h-11.1v5.98h9.52v1.11h-9.52v8.31h-2.46v-16.54Z"/>
        <path d="m148.88,50.47h13.56v1.13h-11.1v5.98h9.52v1.11h-9.52v8.31h-2.46v-16.54Z"/>
        <path d="m164.38,50.47h14.01v1.13h-11.55v5.98h10.2v1.11h-10.2v7.18h11.55v1.13h-14.01v-16.54Z"/>
        <path d="m182.62,65.02c-1.51-1.48-2.27-3.6-2.27-6.35s.75-4.77,2.26-6.24c1.5-1.46,3.66-2.2,6.46-2.2,2.28,0,4.14.48,5.57,1.44,1.43.96,2.28,2.3,2.55,4.02h-2.13c-.27-1.35-.92-2.41-1.96-3.18s-2.35-1.15-3.92-1.15c-2.05,0-3.62.63-4.71,1.89-1.09,1.26-1.64,3.06-1.64,5.41s.55,4.23,1.65,5.52c1.1,1.28,2.68,1.92,4.75,1.92,1.57,0,2.87-.38,3.9-1.13,1.02-.76,1.67-1.82,1.94-3.19h2.13c-.27,1.72-1.12,3.06-2.55,4.02-1.43.96-3.28,1.44-5.53,1.44-2.82,0-4.98-.74-6.5-2.22Z"/>
        <path d="m205.32,51.6h-6.99v-1.13h16.42v1.13h-6.97v15.4h-2.46v-15.4Z"/>
        <path d="m218.59,65.85c-1.37-.93-2.13-2.25-2.27-3.97h2.13c.11,1.45.63,2.52,1.57,3.2.94.68,2.32,1.03,4.15,1.03,1.62,0,2.86-.28,3.72-.85.86-.57,1.29-1.38,1.29-2.43,0-.63-.17-1.16-.5-1.58-.33-.42-.89-.8-1.69-1.13-.8-.33-1.91-.64-3.34-.92-2.28-.44-4-1.01-5.16-1.71-1.16-.7-1.74-1.69-1.74-2.96,0-1.42.66-2.48,1.98-3.2,1.32-.72,3.06-1.08,5.22-1.08s3.89.39,5.11,1.17c1.22.78,1.93,1.86,2.11,3.25h-2.1c-.24-1.15-.79-1.98-1.67-2.5-.87-.52-2.08-.78-3.63-.78s-2.63.25-3.41.73c-.78.49-1.17,1.17-1.17,2.03,0,.52.15.96.45,1.32.3.36.82.69,1.57.99.75.3,1.81.59,3.2.87,1.7.35,3.07.72,4.1,1.13,1.03.41,1.81.94,2.33,1.59.52.65.78,1.48.78,2.49,0,1.48-.67,2.63-2,3.46-1.33.83-3.14,1.24-5.42,1.24s-4.25-.46-5.62-1.39Z"/>
        <path d="m240.06,62.86h5.34v.63h-5.34v-.63Z"/>
        <path d="m19.41,84.13c.19.34.39.58.58.7v.12h-1.63c-.17-.19-.33-.43-.47-.72-.14-.29-.3-.66-.47-1.11-.28-.74-.56-1.31-.85-1.71-.29-.4-.64-.67-1.06-.8h-3.15v4.34h-1.55v-10.46h4.32c1.44,0,2.54.25,3.33.75.78.5,1.17,1.27,1.17,2.31,0,1.54-.87,2.51-2.62,2.89.38.19.71.47.99.83.28.36.54.86.79,1.49.23.58.44,1.04.64,1.38Zm-4.27-4.22c1.95,0,2.93-.79,2.93-2.36s-.98-2.35-2.93-2.35h-2.8v4.71h2.8Z"/>
        <path d="m26.74,83.99c.46-.33.76-.78.89-1.35h1.12c-.19.77-.62,1.37-1.3,1.8-.68.43-1.51.65-2.48.65-.82,0-1.53-.15-2.15-.46-.61-.31-1.09-.75-1.42-1.32-.33-.57-.5-1.24-.5-2s.16-1.46.49-2.03c.33-.58.8-1.02,1.41-1.34.61-.31,1.32-.47,2.13-.47,1.22,0,2.17.33,2.85.99.68.66,1.04,1.58,1.07,2.78h-6.58v.08c0,.99.24,1.76.72,2.32.48.56,1.16.84,2.03.84.68,0,1.25-.16,1.71-.49Zm-3.58-5.24c-.46.44-.74,1.07-.84,1.88h5.23c-.11-.82-.39-1.45-.83-1.88-.44-.44-1.03-.66-1.76-.66s-1.35.22-1.81.67Zm3.59-4.48c.23-.26.49-.39.79-.39.15,0,.27.04.35.11.08.08.13.17.13.28,0,.21-.19.44-.57.7l-2.29,1.6h-.52l2.11-2.3Z"/>
        <path d="m31.18,84.51c-.5-.39-.76-.94-.76-1.66,0-.77.3-1.35.91-1.76.61-.4,1.49-.61,2.66-.61h2.18v-.54c0-.61-.18-1.07-.55-1.39-.37-.32-.9-.48-1.6-.48-.66,0-1.19.15-1.58.46-.4.3-.63.74-.7,1.29h-1.08c.1-.76.45-1.34,1.05-1.75.6-.41,1.4-.61,2.39-.61,1.12,0,1.97.23,2.56.68.59.45.88,1.11.88,1.97v2.42c0,.86.07,1.66.22,2.41h-1.29c-.11-.45-.18-.88-.21-1.29-.6.96-1.56,1.44-2.89,1.44-.97,0-1.7-.19-2.21-.58Zm3.8-.32c.37-.21.67-.5.88-.86.21-.36.32-.76.32-1.2v-1.03h-1.81c-.88,0-1.53.14-1.95.43s-.64.72-.64,1.31c0,.55.16.96.49,1.25s.81.43,1.45.43c.46,0,.87-.11,1.25-.32Z"/>
        <path d="m40.14,74.73h1.38v10.21h-1.38v-10.21Z"/>
        <path d="m44.28,76.45c-.19-.17-.28-.39-.28-.67s.09-.5.28-.67c.19-.17.43-.25.73-.25s.54.08.73.25c.19.17.28.39.28.67s-.09.5-.28.67c-.19.17-.43.25-.73.25s-.54-.08-.73-.25Zm.04,1.17h1.38v7.33h-1.38v-7.33Z"/>
        <path d="m48.97,84.5c-.63-.4-1.01-.96-1.14-1.67h1.14c.08.52.34.92.78,1.22.44.29,1.03.44,1.76.44.69,0,1.24-.14,1.65-.42s.62-.65.62-1.11c0-.37-.18-.66-.54-.88-.36-.21-.96-.39-1.79-.53s-1.5-.3-2-.47c-.49-.17-.85-.39-1.07-.64-.22-.25-.33-.57-.33-.95,0-.62.3-1.11.89-1.47.59-.36,1.42-.54,2.49-.54s1.88.2,2.52.59c.64.39,1.01.94,1.11,1.65h-1.14c-.09-.51-.35-.91-.78-1.2-.43-.29-.97-.43-1.63-.43s-1.13.11-1.52.34c-.38.22-.58.53-.58.9,0,.23.06.41.19.55.13.14.37.26.71.37.34.11.85.22,1.53.34,1.16.2,1.99.48,2.51.83.52.35.78.83.78,1.44,0,.7-.33,1.24-.98,1.64-.65.39-1.56.59-2.71.59-1.03,0-1.86-.2-2.49-.6Z"/>
        <path d="m57.51,84.51c-.5-.39-.76-.94-.76-1.66,0-.77.3-1.35.91-1.76.61-.4,1.49-.61,2.66-.61h2.18v-.54c0-.61-.18-1.07-.55-1.39-.37-.32-.9-.48-1.6-.48-.66,0-1.19.15-1.58.46-.4.3-.63.74-.7,1.29h-1.08c.1-.76.45-1.34,1.05-1.75.6-.41,1.4-.61,2.39-.61,1.12,0,1.97.23,2.56.68.59.45.88,1.11.88,1.97v2.42c0,.86.07,1.66.22,2.41h-1.29c-.11-.45-.18-.88-.21-1.29-.6.96-1.56,1.44-2.89,1.44-.97,0-1.7-.19-2.21-.58Zm3.8-.32c.37-.21.67-.5.88-.86.21-.36.32-.76.32-1.2v-1.03h-1.81c-.88,0-1.53.14-1.95.43s-.64.72-.64,1.31c0,.55.16.96.49,1.25s.81.43,1.45.43c.46,0,.87-.11,1.25-.32Z"/>
        <path d="m67.02,84.55c-.32-.36-.48-.91-.48-1.66v-4.67h-1.32l.21-.61h1.12l.54-2.06h.82v2.06h2.05l-.19.61h-1.85v4.87c0,.91.34,1.36,1.02,1.36.36,0,.71-.09,1.05-.28v.64c-.42.18-.92.27-1.51.27-.65,0-1.13-.18-1.45-.54Z"/>
        <path d="m71.7,76.45c-.19-.17-.28-.39-.28-.67s.09-.5.28-.67c.19-.17.43-.25.73-.25s.54.08.73.25c.19.17.28.39.28.67s-.09.5-.28.67c-.19.17-.43.25-.73.25s-.54-.08-.73-.25Zm.04,1.17h1.38v7.33h-1.38v-7.33Z"/>
        <path d="m77.23,84.62c-.64-.31-1.13-.76-1.48-1.34-.35-.58-.52-1.25-.52-2s.17-1.42.52-2c.35-.58.84-1.02,1.48-1.34.64-.31,1.38-.47,2.23-.47s1.59.16,2.24.47c.64.31,1.14.76,1.49,1.34s.52,1.25.52,2-.17,1.43-.52,2-.84,1.02-1.49,1.34c-.64.31-1.39.47-2.24.47s-1.59-.16-2.23-.47Zm4.32-.99c.51-.57.76-1.35.76-2.35s-.25-1.78-.76-2.35-1.21-.85-2.09-.85-1.58.28-2.09.85c-.5.57-.75,1.35-.75,2.35s.25,1.78.75,2.35c.5.57,1.2.85,2.09.85s1.58-.28,2.09-.85Z"/>
        <path d="m85.49,77.62h1.38v1.29c.24-.44.61-.79,1.11-1.05.5-.26,1.07-.39,1.7-.39.97,0,1.73.25,2.29.75.56.5.84,1.18.84,2.04v4.68h-1.38v-4.83c0-.65-.18-1.15-.54-1.5-.36-.35-.87-.53-1.52-.53-.76,0-1.36.25-1.82.74s-.68,1.14-.68,1.95v4.17h-1.38v-7.33Z"/>
        <path d="m100.25,84.61c-.58-.32-1.04-.78-1.36-1.35-.32-.58-.49-1.24-.49-1.97s.15-1.42.46-2c.31-.57.74-1.02,1.31-1.34.56-.32,1.21-.48,1.95-.48.67,0,1.26.13,1.78.4.52.26.92.64,1.21,1.11v-4.25h1.38v10.21h-1.38v-1.33c-.28.48-.67.84-1.16,1.1-.49.25-1.06.38-1.71.38-.75,0-1.41-.16-2-.49Zm3.59-.51c.4-.26.72-.64.94-1.12.22-.48.34-1.04.34-1.67s-.11-1.22-.34-1.71c-.22-.49-.54-.87-.96-1.14-.41-.26-.89-.4-1.43-.4-.8,0-1.43.29-1.91.86-.47.57-.71,1.35-.71,2.33,0,.65.11,1.22.33,1.7s.53.87.93,1.14c.4.27.87.4,1.4.4s.99-.13,1.4-.4Z"/>
        <path d="m108.37,77.69c.26-.21.47-.49.64-.84.16-.35.24-.71.23-1.08-.1.06-.21.09-.33.09-.22,0-.4-.07-.54-.21s-.21-.32-.21-.54c0-.23.07-.42.22-.56.14-.14.34-.22.59-.22.28,0,.5.1.66.31.16.21.24.49.24.86,0,.47-.12.93-.36,1.38-.24.45-.54.78-.91,1l-.22-.18Z"/>
        <path d="m112.21,84.34c-.55-.5-.83-1.2-.83-2.09v-4.63h1.38v4.78c0,.67.18,1.18.53,1.54.35.36.86.54,1.52.54.76,0,1.37-.25,1.83-.74.46-.49.7-1.14.7-1.95v-4.17h1.38v7.33h-1.38v-1.29c-.24.45-.61.8-1.11,1.05-.5.25-1.07.38-1.72.38-.98,0-1.74-.25-2.29-.75Z"/>
        <path d="m120.78,77.62h1.38v1.29c.24-.44.61-.79,1.11-1.05.5-.26,1.07-.39,1.7-.39.97,0,1.73.25,2.29.75.56.5.84,1.18.84,2.04v4.68h-1.38v-4.83c0-.65-.18-1.15-.54-1.5-.36-.35-.87-.53-1.52-.53-.76,0-1.36.25-1.82.74s-.68,1.14-.68,1.95v4.17h-1.38v-7.33Z"/>
        <path d="m135.56,83.99c.46-.33.76-.78.89-1.35h1.12c-.19.77-.62,1.37-1.3,1.8-.68.43-1.51.65-2.48.65-.82,0-1.53-.15-2.15-.46-.61-.31-1.09-.75-1.42-1.32-.33-.57-.5-1.24-.5-2s.16-1.46.49-2.03c.33-.58.8-1.02,1.41-1.34.61-.31,1.32-.47,2.13-.47,1.22,0,2.17.33,2.85.99.68.66,1.04,1.58,1.07,2.78h-6.58v.08c0,.99.24,1.76.72,2.32.48.56,1.16.84,2.03.84.68,0,1.25-.16,1.71-.49Zm-3.58-5.24c-.46.44-.74,1.07-.84,1.88h5.23c-.11-.82-.39-1.45-.83-1.88-.44-.44-1.03-.66-1.76-.66s-1.35.22-1.81.67Z"/>
        <path d="m143.98,84.51c-.5-.39-.76-.94-.76-1.66,0-.77.3-1.35.91-1.76.61-.4,1.49-.61,2.66-.61h2.18v-.54c0-.61-.18-1.07-.55-1.39-.37-.32-.9-.48-1.6-.48-.66,0-1.19.15-1.58.46-.4.3-.63.74-.7,1.29h-1.08c.1-.76.45-1.34,1.05-1.75.6-.41,1.4-.61,2.39-.61,1.12,0,1.97.23,2.56.68.59.45.88,1.11.88,1.97v2.42c0,.86.07,1.66.22,2.41h-1.29c-.11-.45-.18-.88-.21-1.29-.6.96-1.56,1.44-2.89,1.44-.97,0-1.7-.19-2.21-.58Zm3.8-.32c.37-.21.67-.5.88-.86.21-.36.32-.76.32-1.2v-1.03h-1.81c-.88,0-1.53.14-1.95.43s-.64.72-.64,1.31c0,.55.16.96.49,1.25s.81.43,1.45.43c.46,0,.87-.11,1.25-.32Z"/>
        <path d="m152.55,77.62h1.38v1.29c.24-.44.61-.79,1.11-1.05.5-.26,1.07-.39,1.7-.39.97,0,1.73.25,2.29.75.56.5.84,1.18.84,2.04v4.68h-1.38v-4.83c0-.65-.18-1.15-.54-1.5-.36-.35-.87-.53-1.52-.53-.76,0-1.36.25-1.82.74s-.68,1.14-.68,1.95v4.17h-1.38v-7.33Z"/>
        <path d="m162.09,76.45c-.19-.17-.28-.39-.28-.67s.09-.5.28-.67c.19-.17.43-.25.73-.25s.54.08.73.25c.19.17.28.39.28.67s-.09.5-.28.67c-.19.17-.43.25-.73.25s-.54-.08-.73-.25Zm.04,1.17h1.38v7.33h-1.38v-7.33Z"/>
        <path d="m165.93,77.62h1.35v1.24c.22-.44.56-.78,1.01-1.02.45-.24.97-.37,1.56-.37.71,0,1.29.15,1.76.45.46.3.79.73.98,1.3.23-.59.58-1.03,1.04-1.32.46-.29,1.02-.43,1.67-.43.96,0,1.69.24,2.2.71s.76,1.15.76,2.03v4.74h-1.38v-4.87c0-.61-.17-1.09-.52-1.45-.34-.36-.81-.54-1.38-.54-.68,0-1.22.28-1.61.84-.4.56-.6,1.34-.6,2.33v3.69h-1.35v-4.23c0-.85-.17-1.5-.52-1.95-.34-.45-.83-.68-1.47-.68s-1.16.24-1.55.73c-.38.48-.58,1.14-.58,1.97v4.17h-1.38v-7.33Z"/>
        <path d="m180.75,84.51c-.5-.39-.76-.94-.76-1.66,0-.77.3-1.35.91-1.76.61-.4,1.49-.61,2.66-.61h2.18v-.54c0-.61-.18-1.07-.55-1.39-.37-.32-.9-.48-1.6-.48-.66,0-1.19.15-1.58.46-.4.3-.63.74-.7,1.29h-1.08c.1-.76.45-1.34,1.05-1.75.6-.41,1.4-.61,2.39-.61,1.12,0,1.97.23,2.56.68.59.45.88,1.11.88,1.97v2.42c0,.86.07,1.66.22,2.41h-1.29c-.11-.45-.18-.88-.21-1.29-.6.96-1.56,1.44-2.89,1.44-.97,0-1.7-.19-2.21-.58Zm3.8-.32c.37-.21.67-.5.88-.86.21-.36.32-.76.32-1.2v-1.03h-1.81c-.88,0-1.53.14-1.95.43s-.64.72-.64,1.31c0,.55.16.96.49,1.25s.81.43,1.45.43c.46,0,.87-.11,1.25-.32Z"/>
        <path d="m190.27,84.55c-.32-.36-.48-.91-.48-1.66v-4.67h-1.32l.21-.61h1.12l.54-2.06h.82v2.06h2.05l-.19.61h-1.85v4.87c0,.91.34,1.36,1.02,1.36.36,0,.71-.09,1.05-.28v.64c-.42.18-.92.27-1.51.27-.65,0-1.13-.18-1.45-.54Z"/>
        <path d="m194.95,76.45c-.19-.17-.28-.39-.28-.67s.09-.5.28-.67c.19-.17.43-.25.73-.25s.54.08.73.25c.19.17.28.39.28.67s-.09.5-.28.67c-.19.17-.43.25-.73.25s-.54-.08-.73-.25Zm.04,1.17h1.38v7.33h-1.38v-7.33Z"/>
        <path d="m200.48,84.62c-.64-.31-1.13-.76-1.48-1.34-.35-.58-.52-1.25-.52-2s.17-1.42.52-2c.35-.58.84-1.02,1.48-1.34.64-.31,1.38-.47,2.23-.47s1.59.16,2.24.47c.64.31,1.14.76,1.49,1.34s.52,1.25.52,2-.17,1.43-.52,2-.84,1.02-1.49,1.34c-.64.31-1.39.47-2.24.47s-1.59-.16-2.23-.47Zm4.32-.99c.51-.57.76-1.35.76-2.35s-.25-1.78-.76-2.35-1.21-.85-2.09-.85-1.58.28-2.09.85c-.5.57-.75,1.35-.75,2.35s.25,1.78.75,2.35c.5.57,1.2.85,2.09.85s1.58-.28,2.09-.85Z"/>
        <path d="m208.73,77.62h1.38v1.29c.24-.44.61-.79,1.11-1.05.5-.26,1.07-.39,1.7-.39.97,0,1.73.25,2.29.75.56.5.84,1.18.84,2.04v4.68h-1.38v-4.83c0-.65-.18-1.15-.54-1.5-.36-.35-.87-.53-1.52-.53-.76,0-1.36.25-1.82.74s-.68,1.14-.68,1.95v4.17h-1.38v-7.33Z"/>
        <path d="m222.52,84.51c-.5-.39-.76-.94-.76-1.66,0-.77.3-1.35.91-1.76.61-.4,1.49-.61,2.66-.61h2.18v-.54c0-.61-.18-1.07-.55-1.39-.37-.32-.9-.48-1.6-.48-.66,0-1.19.15-1.58.46-.4.3-.63.74-.7,1.29h-1.08c.1-.76.45-1.34,1.05-1.75.6-.41,1.4-.61,2.39-.61,1.12,0,1.97.23,2.56.68.59.45.88,1.11.88,1.97v2.42c0,.86.07,1.66.22,2.41h-1.29c-.11-.45-.18-.88-.21-1.29-.6.96-1.56,1.44-2.89,1.44-.97,0-1.7-.19-2.21-.58Zm3.8-.32c.37-.21.67-.5.88-.86.21-.36.32-.76.32-1.2v-1.03h-1.81c-.88,0-1.53.14-1.95.43s-.64.72-.64,1.31c0,.55.16.96.49,1.25s.81.43,1.45.43c.46,0,.87-.11,1.25-.32Z"/>
        <path d="m230.91,87.71c-.27-.08-.5-.19-.68-.33l.42-.73c.11.15.27.27.47.36.2.09.4.13.59.13.33,0,.66-.11.99-.32.33-.21.61-.49.81-.83.21-.34.31-.68.31-1.03s-.08-.65-.24-.94l-3.42-6.4h1.52l3.02,5.91,2.87-5.91h.87l-3.66,7.55c-.87,1.77-1.87,2.66-3.01,2.66-.31,0-.6-.04-.87-.12Z"/>
        <path d="m239.6,84.51c-.5-.39-.76-.94-.76-1.66,0-.77.3-1.35.91-1.76.61-.4,1.49-.61,2.66-.61h2.18v-.54c0-.61-.18-1.07-.55-1.39-.37-.32-.9-.48-1.6-.48-.66,0-1.19.15-1.58.46-.4.3-.63.74-.7,1.29h-1.08c.1-.76.45-1.34,1.05-1.75.6-.41,1.4-.61,2.39-.61,1.12,0,1.97.23,2.56.68.59.45.88,1.11.88,1.97v2.42c0,.86.07,1.66.22,2.41h-1.29c-.11-.45-.18-.88-.21-1.29-.6.96-1.56,1.44-2.89,1.44-.97,0-1.7-.19-2.21-.58Zm3.8-.32c.37-.21.67-.5.88-.86.21-.36.32-.76.32-1.2v-1.03h-1.81c-.88,0-1.53.14-1.95.43s-.64.72-.64,1.31c0,.55.16.96.49,1.25s.81.43,1.45.43c.46,0,.87-.11,1.25-.32Z"/>
        <path d="m248.17,77.62h1.38v1.29c.24-.44.61-.79,1.11-1.05.5-.26,1.07-.39,1.7-.39.97,0,1.73.25,2.29.75.56.5.84,1.18.84,2.04v4.68h-1.38v-4.83c0-.65-.18-1.15-.54-1.5-.36-.35-.87-.53-1.52-.53-.76,0-1.36.25-1.82.74s-.68,1.14-.68,1.95v4.17h-1.38v-7.33Z"/>
        <path d="m258.37,84.55c-.32-.36-.48-.91-.48-1.66v-4.67h-1.32l.21-.61h1.12l.54-2.06h.82v2.06h2.05l-.19.61h-1.85v4.87c0,.91.34,1.36,1.02,1.36.36,0,.71-.09,1.05-.28v.64c-.42.18-.92.27-1.51.27-.65,0-1.13-.18-1.45-.54Z"/>
        <path d="m9.37,95.56h1.38v1.36c.28-.47.68-.84,1.2-1.11.52-.27,1.11-.4,1.77-.4,1.17,0,2.08.34,2.74,1.01.66.67.99,1.6.99,2.77s-.33,2.13-1,2.82c-.67.68-1.58,1.02-2.74,1.02-.68,0-1.27-.13-1.78-.4-.51-.27-.91-.66-1.2-1.17v4.26h-1.38v-10.17Zm5.44,6.47c.41-.27.72-.66.94-1.15s.33-1.06.33-1.71c0-.98-.24-1.75-.71-2.31-.47-.56-1.11-.84-1.92-.84-.53,0-1,.13-1.41.4-.41.27-.73.65-.96,1.14-.22.49-.34,1.05-.34,1.69,0,.98.24,1.75.72,2.33.48.58,1.13.87,1.94.87.53,0,1-.14,1.41-.41Z"/>
        <path d="m20.93,102.56c-.64-.31-1.13-.76-1.48-1.34-.35-.58-.52-1.25-.52-2s.17-1.42.52-2c.35-.58.84-1.02,1.48-1.34.64-.31,1.38-.47,2.23-.47s1.59.16,2.24.47c.64.31,1.14.76,1.49,1.34s.52,1.25.52,2-.17,1.43-.52,2-.84,1.02-1.49,1.34c-.64.31-1.39.47-2.24.47s-1.59-.16-2.23-.47Zm4.32-.99c.51-.57.76-1.35.76-2.35s-.25-1.78-.76-2.35-1.21-.85-2.09-.85-1.58.28-2.09.85c-.5.57-.75,1.35-.75,2.35s.25,1.78.75,2.35c.5.57,1.2.85,2.09.85s1.58-.28,2.09-.85Z"/>
        <path d="m29.83,102.28c-.55-.5-.83-1.2-.83-2.09v-4.63h1.38v4.78c0,.67.18,1.18.53,1.54.35.36.86.54,1.52.54.76,0,1.37-.25,1.83-.74.46-.49.7-1.14.7-1.95v-4.17h1.38v7.33h-1.38v-1.29c-.24.45-.61.8-1.11,1.05-.5.25-1.07.38-1.72.38-.98,0-1.74-.25-2.29-.75Z"/>
        <path d="m38.36,95.56h1.38v1.57c.19-.55.49-.97.9-1.27s.91-.45,1.5-.45c.23,0,.4.02.51.06l-.13.96c-.15-.08-.36-.12-.63-.12-.68,0-1.21.28-1.58.85-.38.57-.57,1.29-.57,2.15v3.57h-1.38v-7.33Z"/>
        <path d="m48.66,102.44c-.63-.4-1.01-.96-1.14-1.67h1.14c.08.52.34.92.78,1.22.44.29,1.03.44,1.76.44.69,0,1.24-.14,1.65-.42s.62-.65.62-1.11c0-.37-.18-.66-.54-.88-.36-.21-.96-.39-1.79-.53s-1.5-.3-2-.47c-.49-.17-.85-.39-1.07-.64-.22-.25-.33-.57-.33-.95,0-.62.3-1.11.89-1.47.59-.36,1.42-.54,2.49-.54s1.88.2,2.52.59c.64.39,1.01.94,1.11,1.65h-1.14c-.09-.51-.35-.91-.78-1.2-.43-.29-.97-.43-1.63-.43s-1.13.11-1.52.34c-.38.22-.58.53-.58.9,0,.23.06.41.19.55.13.14.37.26.71.37.34.11.85.22,1.53.34,1.16.2,1.99.48,2.51.83.52.35.78.83.78,1.44,0,.7-.33,1.24-.98,1.64-.65.39-1.56.59-2.71.59-1.03,0-1.86-.2-2.49-.6Z"/>
        <path d="m57.28,102.28c-.55-.5-.83-1.2-.83-2.09v-4.63h1.38v4.78c0,.67.18,1.18.53,1.54.35.36.86.54,1.52.54.76,0,1.37-.25,1.83-.74.46-.49.7-1.14.7-1.95v-4.17h1.38v7.33h-1.38v-1.29c-.24.45-.61.8-1.11,1.05-.5.25-1.07.38-1.72.38-.98,0-1.74-.25-2.29-.75Z"/>
        <path d="m65.84,95.56h1.38v1.36c.28-.47.68-.84,1.2-1.11.52-.27,1.11-.4,1.77-.4,1.17,0,2.08.34,2.74,1.01.66.67.99,1.6.99,2.77s-.33,2.13-1,2.82c-.67.68-1.58,1.02-2.74,1.02-.68,0-1.27-.13-1.78-.4-.51-.27-.91-.66-1.2-1.17v4.26h-1.38v-10.17Zm5.44,6.47c.41-.27.72-.66.94-1.15s.33-1.06.33-1.71c0-.98-.24-1.75-.71-2.31-.47-.56-1.11-.84-1.92-.84-.53,0-1,.13-1.41.4-.41.27-.73.65-.96,1.14-.22.49-.34,1.05-.34,1.69,0,.98.24,1.75.72,2.33.48.58,1.13.87,1.94.87.53,0,1-.14,1.41-.41Z"/>
        <path d="m75.69,95.56h1.38v1.36c.28-.47.68-.84,1.2-1.11.52-.27,1.11-.4,1.77-.4,1.17,0,2.08.34,2.74,1.01.66.67.99,1.6.99,2.77s-.33,2.13-1,2.82c-.67.68-1.58,1.02-2.74,1.02-.68,0-1.27-.13-1.78-.4-.51-.27-.91-.66-1.2-1.17v4.26h-1.38v-10.17Zm5.44,6.47c.41-.27.72-.66.94-1.15s.33-1.06.33-1.71c0-.98-.24-1.75-.71-2.31-.47-.56-1.11-.84-1.92-.84-.53,0-1,.13-1.41.4-.41.27-.73.65-.96,1.14-.22.49-.34,1.05-.34,1.69,0,.98.24,1.75.72,2.33.48.58,1.13.87,1.94.87.53,0,1-.14,1.41-.41Z"/>
        <path d="m87.25,102.56c-.64-.31-1.13-.76-1.48-1.34-.35-.58-.52-1.25-.52-2s.17-1.42.52-2c.35-.58.84-1.02,1.48-1.34.64-.31,1.38-.47,2.23-.47s1.59.16,2.24.47c.64.31,1.14.76,1.49,1.34s.52,1.25.52,2-.17,1.43-.52,2-.84,1.02-1.49,1.34c-.64.31-1.39.47-2.24.47s-1.59-.16-2.23-.47Zm4.32-.99c.51-.57.76-1.35.76-2.35s-.25-1.78-.76-2.35-1.21-.85-2.09-.85-1.58.28-2.09.85c-.5.57-.75,1.35-.75,2.35s.25,1.78.75,2.35c.5.57,1.2.85,2.09.85s1.58-.28,2.09-.85Z"/>
        <path d="m95.46,95.56h1.38v1.57c.19-.55.49-.97.9-1.27s.91-.45,1.5-.45c.23,0,.4.02.51.06l-.13.96c-.15-.08-.36-.12-.63-.12-.68,0-1.21.28-1.58.85-.38.57-.57,1.29-.57,2.15v3.57h-1.38v-7.33Z"/>
        <path d="m101.87,102.5c-.32-.36-.48-.91-.48-1.66v-4.67h-1.32l.21-.61h1.12l.54-2.06h.82v2.06h2.05l-.19.61h-1.85v4.87c0,.91.34,1.36,1.02,1.36.36,0,.71-.09,1.05-.28v.64c-.42.18-.92.27-1.51.27-.65,0-1.13-.18-1.45-.54Z"/>
        <path d="m110.63,92.67h1.38v10.21h-1.38v-10.21Z"/>
        <path d="m120.01,101.93c.46-.33.76-.78.89-1.35h1.12c-.19.77-.62,1.37-1.3,1.8-.68.43-1.51.65-2.48.65-.82,0-1.53-.15-2.15-.46-.61-.31-1.09-.75-1.42-1.32-.33-.57-.5-1.24-.5-2s.16-1.46.49-2.03c.33-.58.8-1.02,1.41-1.34.61-.31,1.32-.47,2.13-.47,1.22,0,2.17.33,2.85.99.68.66,1.04,1.58,1.07,2.78h-6.58v.08c0,.99.24,1.76.72,2.32.48.56,1.16.84,2.03.84.68,0,1.25-.16,1.71-.49Zm-3.58-5.24c-.46.44-.74,1.07-.84,1.88h5.23c-.11-.82-.39-1.45-.83-1.88-.44-.44-1.03-.66-1.76-.66s-1.35.22-1.81.67Z"/>
        <path d="m127.85,95.56h1.38v1.36c.28-.47.68-.84,1.2-1.11.52-.27,1.11-.4,1.77-.4,1.17,0,2.08.34,2.74,1.01.66.67.99,1.6.99,2.77s-.33,2.13-1,2.82c-.67.68-1.58,1.02-2.74,1.02-.68,0-1.27-.13-1.78-.4-.51-.27-.91-.66-1.2-1.17v4.26h-1.38v-10.17Zm5.44,6.47c.41-.27.72-.66.94-1.15s.33-1.06.33-1.71c0-.98-.24-1.75-.71-2.31-.47-.56-1.11-.84-1.92-.84-.53,0-1,.13-1.41.4-.41.27-.73.65-.96,1.14-.22.49-.34,1.05-.34,1.69,0,.98.24,1.75.72,2.33.48.58,1.13.87,1.94.87.53,0,1-.14,1.41-.41Z"/>
        <path d="m137.67,95.56h1.38v1.57c.19-.55.49-.97.9-1.27s.91-.45,1.5-.45c.23,0,.4.02.51.06l-.13.96c-.15-.08-.36-.12-.63-.12-.68,0-1.21.28-1.58.85-.38.57-.57,1.29-.57,2.15v3.57h-1.38v-7.33Z"/>
        <path d="m144.84,102.56c-.64-.31-1.13-.76-1.48-1.34-.35-.58-.52-1.25-.52-2s.17-1.42.52-2c.35-.58.84-1.02,1.48-1.34.64-.31,1.38-.47,2.23-.47s1.59.16,2.24.47c.64.31,1.14.76,1.49,1.34s.52,1.25.52,2-.17,1.43-.52,2-.84,1.02-1.49,1.34c-.64.31-1.39.47-2.24.47s-1.59-.16-2.23-.47Zm4.32-.99c.51-.57.76-1.35.76-2.35s-.25-1.78-.76-2.35-1.21-.85-2.09-.85-1.58.28-2.09.85c-.5.57-.75,1.35-.75,2.35s.25,1.78.75,2.35c.5.57,1.2.85,2.09.85s1.58-.28,2.09-.85Z"/>
        <path d="m150.98,105.11l.42-.73c.26.41.6.61,1.03.61s.73-.2.92-.61c.19-.4.29-1.03.29-1.89v-6.94h1.38v6.64c0,1.13-.21,1.98-.62,2.56-.41.58-1.01.88-1.8.88-.67,0-1.21-.17-1.61-.52Zm2.63-10.72c-.19-.17-.28-.39-.28-.67s.09-.5.28-.67c.19-.17.43-.25.73-.25s.54.08.73.25c.19.17.28.39.28.67s-.09.5-.28.67c-.19.17-.43.25-.73.25s-.54-.08-.73-.25Z"/>
        <path d="m162.98,101.93c.46-.33.76-.78.89-1.35h1.12c-.19.77-.62,1.37-1.3,1.8-.68.43-1.51.65-2.48.65-.82,0-1.53-.15-2.15-.46-.61-.31-1.09-.75-1.42-1.32-.33-.57-.5-1.24-.5-2s.16-1.46.49-2.03c.33-.58.8-1.02,1.41-1.34.61-.31,1.32-.47,2.13-.47,1.22,0,2.17.33,2.85.99.68.66,1.04,1.58,1.07,2.78h-6.58v.08c0,.99.24,1.76.72,2.32.48.56,1.16.84,2.03.84.68,0,1.25-.16,1.71-.49Zm-3.58-5.24c-.46.44-.74,1.07-.84,1.88h5.23c-.11-.82-.39-1.45-.83-1.88-.44-.44-1.03-.66-1.76-.66s-1.35.22-1.81.67Z"/>
        <path d="m167.8,102.5c-.32-.36-.48-.91-.48-1.66v-4.67h-1.32l.21-.61h1.12l.54-2.06h.82v2.06h2.05l-.19.61h-1.85v4.87c0,.91.34,1.36,1.02,1.36.36,0,.71-.09,1.05-.28v.64c-.42.18-.92.27-1.51.27-.65,0-1.13-.18-1.45-.54Z"/>
        <path d="m177.7,102.55c-.58-.32-1.04-.78-1.36-1.35-.32-.58-.49-1.24-.49-1.97s.15-1.42.46-2c.31-.57.74-1.02,1.31-1.34.56-.32,1.21-.48,1.95-.48.67,0,1.26.13,1.78.4.52.26.92.64,1.21,1.11v-4.25h1.38v10.21h-1.38v-1.33c-.28.48-.67.84-1.16,1.1-.49.25-1.06.38-1.71.38-.75,0-1.41-.16-2-.49Zm3.59-.51c.4-.26.72-.64.94-1.12.22-.48.34-1.04.34-1.67s-.11-1.22-.34-1.71c-.22-.49-.54-.87-.96-1.14-.41-.26-.89-.4-1.43-.4-.8,0-1.43.29-1.91.86-.47.57-.71,1.35-.71,2.33,0,.65.11,1.22.33,1.7s.53.87.93,1.14c.4.27.87.4,1.4.4s.99-.13,1.4-.4Z"/>
        <path d="m185.83,95.63c.26-.21.47-.49.64-.84.16-.35.24-.71.23-1.08-.1.06-.21.09-.33.09-.22,0-.4-.07-.54-.21s-.21-.32-.21-.54c0-.23.07-.42.22-.56.14-.14.34-.22.59-.22.28,0,.5.1.66.31.16.21.24.49.24.86,0,.47-.12.93-.36,1.38-.24.45-.54.78-.91,1l-.22-.18Z"/>
        <path d="m194.54,101.93c.46-.33.76-.78.89-1.35h1.12c-.19.77-.62,1.37-1.3,1.8-.68.43-1.51.65-2.48.65-.82,0-1.53-.15-2.15-.46-.61-.31-1.09-.75-1.42-1.32-.33-.57-.5-1.24-.5-2s.16-1.46.49-2.03c.33-.58.8-1.02,1.41-1.34.61-.31,1.32-.47,2.13-.47,1.22,0,2.17.33,2.85.99.68.66,1.04,1.58,1.07,2.78h-6.58v.08c0,.99.24,1.76.72,2.32.48.56,1.16.84,2.03.84.68,0,1.25-.16,1.71-.49Zm-3.58-5.24c-.46.44-.74,1.07-.84,1.88h5.23c-.11-.82-.39-1.45-.83-1.88-.44-.44-1.03-.66-1.76-.66s-1.35.22-1.81.67Zm3.59-4.48c.23-.26.49-.39.79-.39.15,0,.27.04.35.11.08.08.13.17.13.28,0,.21-.19.44-.57.7l-2.29,1.6h-.52l2.11-2.3Z"/>
        <path d="m199.95,102.55c-.58-.32-1.04-.78-1.36-1.35-.32-.58-.49-1.24-.49-1.97s.15-1.42.46-2c.31-.57.74-1.02,1.31-1.34.56-.32,1.21-.48,1.95-.48.67,0,1.26.13,1.78.4.52.26.92.64,1.21,1.11v-4.25h1.38v10.21h-1.38v-1.33c-.28.48-.67.84-1.16,1.1-.49.25-1.06.38-1.71.38-.75,0-1.41-.16-2-.49Zm3.59-.51c.4-.26.72-.64.94-1.12.22-.48.34-1.04.34-1.67s-.11-1.22-.34-1.71c-.22-.49-.54-.87-.96-1.14-.41-.26-.89-.4-1.43-.4-.8,0-1.43.29-1.91.86-.47.57-.71,1.35-.71,2.33,0,.65.11,1.22.33,1.7s.53.87.93,1.14c.4.27.87.4,1.4.4s.99-.13,1.4-.4Z"/>
        <path d="m208.55,94.39c-.19-.17-.28-.39-.28-.67s.09-.5.28-.67c.19-.17.43-.25.73-.25s.54.08.73.25c.19.17.28.39.28.67s-.09.5-.28.67c-.19.17-.43.25-.73.25s-.54-.08-.73-.25Zm.04,1.17h1.38v7.33h-1.38v-7.33Z"/>
        <path d="m213.34,102.5c-.32-.36-.48-.91-.48-1.66v-4.67h-1.32l.21-.61h1.12l.54-2.06h.82v2.06h2.05l-.19.61h-1.85v4.87c0,.91.34,1.36,1.02,1.36.36,0,.71-.09,1.05-.28v.64c-.42.18-.92.27-1.51.27-.65,0-1.13-.18-1.45-.54Z"/>
        <path d="m218.02,94.39c-.19-.17-.28-.39-.28-.67s.09-.5.28-.67c.19-.17.43-.25.73-.25s.54.08.73.25c.19.17.28.39.28.67s-.09.5-.28.67c-.19.17-.43.25-.73.25s-.54-.08-.73-.25Zm.04,1.17h1.38v7.33h-1.38v-7.33Z"/>
        <path d="m223.55,102.56c-.64-.31-1.13-.76-1.48-1.34-.35-.58-.52-1.25-.52-2s.17-1.42.52-2c.35-.58.84-1.02,1.48-1.34.64-.31,1.38-.47,2.23-.47s1.59.16,2.24.47c.64.31,1.14.76,1.49,1.34s.52,1.25.52,2-.17,1.43-.52,2-.84,1.02-1.49,1.34c-.64.31-1.39.47-2.24.47s-1.59-.16-2.23-.47Zm4.32-.99c.51-.57.76-1.35.76-2.35s-.25-1.78-.76-2.35-1.21-.85-2.09-.85-1.58.28-2.09.85c-.5.57-.75,1.35-.75,2.35s.25,1.78.75,2.35c.5.57,1.2.85,2.09.85s1.58-.28,2.09-.85Z"/>
        <path d="m231.8,95.56h1.38v1.29c.24-.44.61-.79,1.11-1.05.5-.26,1.07-.39,1.7-.39.97,0,1.73.25,2.29.75.56.5.84,1.18.84,2.04v4.68h-1.38v-4.83c0-.65-.18-1.15-.54-1.5-.36-.35-.87-.53-1.52-.53-.76,0-1.36.25-1.82.74s-.68,1.14-.68,1.95v4.17h-1.38v-7.33Z"/>
        <path d="m246.56,102.55c-.58-.32-1.04-.78-1.36-1.35-.32-.58-.49-1.24-.49-1.97s.15-1.42.46-2c.31-.57.74-1.02,1.31-1.34.56-.32,1.21-.48,1.95-.48.67,0,1.26.13,1.78.4.52.26.92.64,1.21,1.11v-4.25h1.38v10.21h-1.38v-1.33c-.28.48-.67.84-1.16,1.1-.49.25-1.06.38-1.71.38-.75,0-1.41-.16-2-.49Zm3.59-.51c.4-.26.72-.64.94-1.12.22-.48.34-1.04.34-1.67s-.11-1.22-.34-1.71c-.22-.49-.54-.87-.96-1.14-.41-.26-.89-.4-1.43-.4-.8,0-1.43.29-1.91.86-.47.57-.71,1.35-.71,2.33,0,.65.11,1.22.33,1.7s.53.87.93,1.14c.4.27.87.4,1.4.4s.99-.13,1.4-.4Z"/>
        <path d="m255.53,102.28c-.55-.5-.83-1.2-.83-2.09v-4.63h1.38v4.78c0,.67.18,1.18.53,1.54.35.36.86.54,1.52.54.76,0,1.37-.25,1.83-.74.46-.49.7-1.14.7-1.95v-4.17h1.38v7.33h-1.38v-1.29c-.24.45-.61.8-1.11,1.05-.5.25-1.07.38-1.72.38-.98,0-1.74-.25-2.29-.75Z"/>
        <path d="m122.49,110.36v10.46h-1.55v-8.79l-4.07,8.79h-.73l-4.37-8.91v8.91h-.93v-10.46h1.78l4.17,8.61,3.99-8.61h1.7Z"/>
        <path d="m124.71,110.36h1.57l6.37,8.12v-8.12h1.32v10.46h-.78l-7.16-9.1v9.1h-1.32v-10.46Z"/>
        <path d="m136.18,110.36h1.55v4.5h6.71v-4.5h1.55v10.46h-1.55v-5.26h-6.71v5.26h-1.55v-10.46Z"/>
        <path d="m148.21,110.36h1.57l6.37,8.12v-8.12h1.32v10.46h-.78l-7.16-9.1v9.1h-1.32v-10.46Z"/>
        <path d="m159.51,120.74c-.15-.15-.23-.35-.23-.59s.08-.42.24-.58c.16-.15.36-.23.6-.23s.45.08.61.23c.16.15.24.35.24.58s-.08.44-.24.59c-.16.15-.36.23-.61.23s-.45-.08-.61-.23Z"/>
      </g>
      <path d="m47.87,30.49c-1.91,7.44-5.99,11.3-6.16,11.45l-.77.72h-16.92v-4.89c-1.52,1.18-3.45,2.22-5.87,3.03-5.52,1.85-11.74,1.88-15.07,1.89H0s0-2.69,0-2.69c0-10.53,3.4-22.01,11.93-29.76C19.23,3.63,29.86.93,37.6.93v5.38c-6.36,0-15.8,2.26-22.05,7.93-6.65,6.03-9.31,15.04-10.05,23.05,3.12-.08,7.31-.37,10.93-1.58,5.17-1.73,7.58-4.69,7.58-9.3h5.38v10.89h9.29c1.02-1.24,2.99-4.09,4.05-8.46,1.37-5.65.78-12.09-1.69-18.96h5.68c2.03,6.34,2.97,13.51,1.15,20.63Z"/>
      <g>
        <path class="cls-1" d="m54.99,12.24c0-5.25,4.25-9.5,9.5-9.5s9.5,4.25,9.5,9.5"/>
        <path class="cls-1" d="m73.99,31.3c0,5.25-4.25,9.5-9.5,9.5s-9.5-4.25-9.5-9.5"/>
        <line class="cls-1" x1="54.99" y1="12.24" x2="54.99" y2="31.3"/>
        <line class="cls-1" x1="73.99" y1="12.24" x2="73.99" y2="31.3"/>
      </g>
      <g>
        <path class="cls-1" d="m198.61,12.24c0-5.25,4.25-9.5,9.5-9.5s9.5,4.25,9.5,9.5"/>
        <path class="cls-1" d="m217.61,31.3c0,5.25-4.25,9.5-9.5,9.5s-9.5-4.25-9.5-9.5"/>
        <line class="cls-1" x1="198.61" y1="12.24" x2="198.61" y2="31.3"/>
        <line class="cls-1" x1="217.61" y1="12.24" x2="217.61" y2="31.3"/>
      </g>
      <g>
        <g>
          <path class="cls-1" d="m93.97,3.59c5.25,0,9.5,4.7,9.5,10.51,0,5.8-4.25,10.51-9.5,10.51"/>
          <line class="cls-1" x1="93.97" y1="3.59" x2="83.48" y2="3.59"/>
          <line class="cls-1" x1="93.97" y1="24.6" x2="83.48" y2="24.6"/>
        </g>
        <line class="cls-1" x1="88.3" y1="24.6" x2="85.42" y2="24.62"/>
        <path class="cls-1" d="m83.16,42.65l-.02-39.08s2.19.02,4.83.02"/>
        <path class="cls-1" d="m85.42,24.62h0c9.25,0,19.72,6.69,19.72,18.03"/>
      </g>
      <line class="cls-1" x1="113.65" y1="42.65" x2="113.63" y2=".94"/>
      <path class="cls-1" d="m115.91,24.62h0c9.25,0,19.72,6.69,19.72,18.03"/>
      <polyline points="138.09 .94 122.81 25.22 118.25 22.35 131.73 .94"/>
      <path class="cls-1" d="m142.94,35.34c3.14,7.8,16.11,7.24,17.73-1.12,1.22-6.29-3.46-9.88-8.68-12.99-3.84-2.28-9.37-5.19-9.04-10.72.6-10.22,15.4-10.18,18.09-1.37"/>
      <g>
        <line class="cls-1" x1="172.3" y1="24.87" x2="188.32" y2="24.87"/>
        <line class="cls-1" x1="170.05" y1="42.9" x2="170.03" y2="1.12"/>
        <line class="cls-1" x1="189.16" y1="42.9" x2="189.15" y2="1.12"/>
      </g>
      <path class="cls-1" d="m224.53,3.59c30.07,0,38.44,12.37,41.15,21.01h-38.16"/>
      <line class="cls-1" x1="232.33" y1="24.6" x2="229.45" y2="24.62"/>
      <line class="cls-1" x1="227.2" y1="42.65" x2="227.18" y2="3.57"/>
    </g>
  </g>
</svg>