<?xml version="1.0" encoding="UTF-8"?>
<svg id="Calque_2" data-name="Calque 2" xmlns="http://www.w3.org/2000/svg" viewBox="0 0 272.11 121.04">
  <defs>
    <style>
      .cls-1 {
        fill: #1d1d1b;
      }

      .cls-2 {
        fill: #fff;
      }

      .cls-2, .cls-3, .cls-4 {
        stroke: #000;
        stroke-width: 5.38px;
      }

      .cls-2, .cls-4 {
        stroke-miterlimit: 10;
      }

      .cls-3 {
        stroke-linejoin: bevel;
      }

      .cls-3, .cls-4 {
        fill: none;
      }
    </style>
  </defs>
  <g id="Calque_1-2" data-name="Calque 1">
    <g>
      <g>
        <line class="cls-2" x1="150.15" y1="42.68" x2="150.15" y2="3.65"/>
        <line class="cls-4" x1="139.03" y1="3.69" x2="161.15" y2="3.73"/>
      </g>
      <g>
        <path d="m18.73,50.54v16.54h-2.46v-13.89l-6.43,13.89h-1.16l-6.9-14.08v14.08H.33v-16.54h2.81l6.59,13.61,6.31-13.61h2.69Z"/>
        <path d="m22.25,50.54h2.48l10.06,12.83v-12.83h2.08v16.54h-1.23l-11.31-14.39v14.39h-2.08v-16.54Z"/>
        <path d="m40.36,50.54h2.46v7.11h10.61v-7.11h2.46v16.54h-2.46v-8.31h-10.61v8.31h-2.46v-16.54Z"/>
        <path d="m59.38,50.54h2.48l10.06,12.83v-12.83h2.08v16.54h-1.23l-11.31-14.39v14.39h-2.08v-16.54Z"/>
        <path d="m82.81,62.93h5.34v.63h-5.34v-.63Z"/>
        <path d="m95.16,65.82c-.96-.94-1.44-2.28-1.44-4.02s.48-3.02,1.43-3.95c.95-.93,2.31-1.39,4.09-1.39,1.45,0,2.62.3,3.53.91.91.61,1.45,1.46,1.61,2.54h-1.35c-.17-.86-.58-1.53-1.24-2.01-.66-.48-1.49-.73-2.48-.73-1.3,0-2.29.4-2.98,1.2-.69.8-1.04,1.94-1.04,3.42s.35,2.68,1.05,3.49c.7.81,1.7,1.22,3.01,1.22,1,0,1.82-.24,2.47-.72.65-.48,1.06-1.15,1.23-2.02h1.35c-.17,1.09-.71,1.93-1.61,2.54-.91.61-2.07.91-3.5.91-1.78,0-3.15-.47-4.11-1.41Z"/>
        <path d="m107.7,66.75c-.64-.31-1.13-.76-1.48-1.34-.35-.58-.52-1.25-.52-2s.17-1.42.52-2c.35-.58.84-1.02,1.48-1.34.64-.31,1.38-.47,2.23-.47s1.59.16,2.24.47c.64.31,1.14.76,1.49,1.34s.52,1.25.52,2-.17,1.43-.52,2-.84,1.02-1.49,1.34c-.64.31-1.39.47-2.24.47s-1.59-.16-2.23-.47Zm4.32-.99c.51-.57.76-1.35.76-2.35s-.25-1.78-.76-2.35-1.21-.85-2.09-.85-1.58.28-2.09.85c-.5.57-.75,1.35-.75,2.35s.25,1.78.75,2.35c.5.57,1.2.85,2.09.85s1.58-.28,2.09-.85Z"/>
        <path d="m115.95,59.75h1.38v1.29c.24-.44.61-.79,1.11-1.05.5-.26,1.07-.39,1.7-.39.97,0,1.73.25,2.29.75.56.5.84,1.18.84,2.04v4.68h-1.38v-4.83c0-.65-.18-1.15-.54-1.5-.36-.35-.87-.53-1.52-.53-.76,0-1.36.25-1.82.74s-.68,1.14-.68,1.95v4.17h-1.38v-7.33Z"/>
        <path d="m126.86,66.76c-.63-.31-1.12-.75-1.46-1.32-.34-.57-.51-1.25-.51-2.03s.17-1.45.51-2.03c.34-.57.82-1.01,1.45-1.32.63-.31,1.37-.46,2.21-.46,1.04,0,1.89.22,2.56.65.67.43,1.09,1.03,1.25,1.8h-1.12c-.14-.57-.45-1.02-.92-1.35-.47-.33-1.04-.49-1.71-.49-.88,0-1.57.29-2.09.86-.51.57-.77,1.35-.77,2.34s.26,1.77.77,2.34c.51.57,1.21.86,2.09.86.66,0,1.23-.16,1.7-.49.48-.33.79-.78.93-1.35h1.12c-.16.77-.58,1.37-1.26,1.8-.68.43-1.52.65-2.54.65-.85,0-1.59-.15-2.22-.46Z"/>
        <path d="m140.19,66.11c.46-.33.76-.78.89-1.35h1.12c-.19.77-.62,1.37-1.3,1.8-.68.43-1.51.65-2.48.65-.82,0-1.53-.15-2.15-.46-.61-.31-1.09-.75-1.42-1.32-.33-.57-.5-1.24-.5-2s.16-1.46.49-2.03c.33-.58.8-1.02,1.41-1.34.61-.31,1.32-.47,2.13-.47,1.22,0,2.17.33,2.85.99.68.66,1.04,1.58,1.07,2.78h-6.58v.08c0,.99.24,1.76.72,2.32.48.56,1.16.84,2.03.84.68,0,1.25-.16,1.71-.49Zm-3.58-5.24c-.46.44-.74,1.07-.84,1.88h5.23c-.11-.82-.39-1.45-.83-1.88-.44-.44-1.03-.66-1.76-.66s-1.35.22-1.81.67Z"/>
        <path d="m144.06,59.75h1.38v1.36c.28-.47.68-.84,1.2-1.11.52-.27,1.11-.4,1.77-.4,1.17,0,2.08.34,2.74,1.01.66.67.99,1.6.99,2.77s-.33,2.13-1,2.82c-.67.68-1.58,1.02-2.74,1.02-.68,0-1.27-.13-1.78-.4-.51-.27-.91-.66-1.2-1.17v4.26h-1.38v-10.17Zm5.44,6.47c.41-.27.72-.66.94-1.15s.33-1.06.33-1.71c0-.98-.24-1.75-.71-2.31-.47-.56-1.11-.84-1.92-.84-.53,0-1,.13-1.41.4-.41.27-.73.65-.96,1.14-.22.49-.34,1.05-.34,1.69,0,.98.24,1.75.72,2.33.48.58,1.13.87,1.94.87.53,0,1-.14,1.41-.41Z"/>
        <path d="m154.87,66.68c-.32-.36-.48-.91-.48-1.66v-4.67h-1.32l.21-.61h1.12l.54-2.06h.82v2.06h2.05l-.19.61h-1.85v4.87c0,.91.34,1.36,1.02,1.36.36,0,.71-.09,1.05-.28v.64c-.42.18-.92.27-1.51.27-.65,0-1.13-.18-1.45-.54Z"/>
        <path d="m159.55,58.58c-.19-.17-.28-.39-.28-.67s.09-.5.28-.67c.19-.17.43-.25.73-.25s.54.08.73.25c.19.17.28.39.28.67s-.09.5-.28.67c-.19.17-.43.25-.73.25s-.54-.08-.73-.25Zm.04,1.17h1.38v7.33h-1.38v-7.33Z"/>
        <path d="m165.08,66.75c-.64-.31-1.13-.76-1.48-1.34-.35-.58-.52-1.25-.52-2s.17-1.42.52-2c.35-.58.84-1.02,1.48-1.34.64-.31,1.38-.47,2.23-.47s1.59.16,2.24.47c.64.31,1.14.76,1.49,1.34s.52,1.25.52,2-.17,1.43-.52,2-.84,1.02-1.49,1.34c-.64.31-1.39.47-2.24.47s-1.59-.16-2.23-.47Zm4.32-.99c.51-.57.76-1.35.76-2.35s-.25-1.78-.76-2.35-1.21-.85-2.09-.85-1.58.28-2.09.85c-.5.57-.75,1.35-.75,2.35s.25,1.78.75,2.35c.5.57,1.2.85,2.09.85s1.58-.28,2.09-.85Z"/>
        <path d="m173.33,59.75h1.38v1.29c.24-.44.61-.79,1.11-1.05.5-.26,1.07-.39,1.7-.39.97,0,1.73.25,2.29.75.56.5.84,1.18.84,2.04v4.68h-1.38v-4.83c0-.65-.18-1.15-.54-1.5-.36-.35-.87-.53-1.52-.53-.76,0-1.36.25-1.82.74s-.68,1.14-.68,1.95v4.17h-1.38v-7.33Z"/>
        <path d="m188.09,66.74c-.58-.32-1.04-.78-1.36-1.35-.32-.58-.49-1.24-.49-1.97s.15-1.42.46-2c.31-.57.74-1.02,1.31-1.34.56-.32,1.21-.48,1.95-.48.67,0,1.26.13,1.78.4.52.26.92.64,1.21,1.11v-4.25h1.38v10.21h-1.38v-1.33c-.28.48-.67.84-1.16,1.1-.49.25-1.06.38-1.71.38-.75,0-1.41-.16-2-.49Zm3.59-.51c.4-.26.72-.64.94-1.12.22-.48.34-1.04.34-1.67s-.11-1.22-.34-1.71c-.22-.49-.54-.87-.96-1.14-.41-.26-.89-.4-1.43-.4-.8,0-1.43.29-1.91.86-.47.57-.71,1.35-.71,2.33,0,.65.11,1.22.33,1.7s.53.87.93,1.14c.4.27.87.4,1.4.4s.99-.13,1.4-.4Z"/>
        <path d="m201.94,66.11c.46-.33.76-.78.89-1.35h1.12c-.19.77-.62,1.37-1.3,1.8-.68.43-1.51.65-2.48.65-.82,0-1.53-.15-2.15-.46-.61-.31-1.09-.75-1.42-1.32-.33-.57-.5-1.24-.5-2s.16-1.46.49-2.03c.33-.58.8-1.02,1.41-1.34.61-.31,1.32-.47,2.13-.47,1.22,0,2.17.33,2.85.99.68.66,1.04,1.58,1.07,2.78h-6.58v.08c0,.99.24,1.76.72,2.32.48.56,1.16.84,2.03.84.68,0,1.25-.16,1.71-.49Zm-3.58-5.24c-.46.44-.74,1.07-.84,1.88h5.23c-.11-.82-.39-1.45-.83-1.88-.44-.44-1.03-.66-1.76-.66s-1.35.22-1.81.67Z"/>
        <path d="m210.18,56.86h1.38v10.21h-1.38v-10.21Z"/>
        <path d="m213.85,59.82c.26-.21.47-.49.64-.84.16-.35.24-.71.23-1.08-.1.06-.21.09-.33.09-.22,0-.4-.07-.54-.21s-.21-.32-.21-.54c0-.23.07-.42.22-.56.14-.14.34-.22.59-.22.28,0,.5.1.66.31.16.21.24.49.24.86,0,.47-.12.93-.36,1.38-.24.45-.54.78-.91,1l-.22-.18Z"/>
        <path d="m217.31,58.58c-.19-.17-.28-.39-.28-.67s.09-.5.28-.67c.19-.17.43-.25.73-.25s.54.08.73.25c.19.17.28.39.28.67s-.09.5-.28.67c-.19.17-.43.25-.73.25s-.54-.08-.73-.25Zm.04,1.17h1.38v7.33h-1.38v-7.33Z"/>
        <path d="m222.69,66.74c-.58-.32-1.04-.78-1.36-1.35-.32-.58-.49-1.24-.49-1.97s.15-1.42.46-2c.31-.57.74-1.02,1.31-1.34.56-.32,1.21-.48,1.95-.48.67,0,1.26.13,1.78.4.52.26.92.64,1.21,1.11v-4.25h1.38v10.21h-1.38v-1.33c-.28.48-.67.84-1.16,1.1-.49.25-1.06.38-1.71.38-.75,0-1.41-.16-2-.49Zm3.59-.51c.4-.26.72-.64.94-1.12.22-.48.34-1.04.34-1.67s-.11-1.22-.34-1.71c-.22-.49-.54-.87-.96-1.14-.41-.26-.89-.4-1.43-.4-.8,0-1.43.29-1.91.86-.47.57-.71,1.35-.71,2.33,0,.65.11,1.22.33,1.7s.53.87.93,1.14c.4.27.87.4,1.4.4s.99-.13,1.4-.4Z"/>
        <path d="m236.53,66.11c.46-.33.76-.78.89-1.35h1.12c-.19.77-.62,1.37-1.3,1.8-.68.43-1.51.65-2.48.65-.82,0-1.53-.15-2.15-.46-.61-.31-1.09-.75-1.42-1.32-.33-.57-.5-1.24-.5-2s.16-1.46.49-2.03c.33-.58.8-1.02,1.41-1.34.61-.31,1.32-.47,2.13-.47,1.22,0,2.17.33,2.85.99.68.66,1.04,1.58,1.07,2.78h-6.58v.08c0,.99.24,1.76.72,2.32.48.56,1.16.84,2.03.84.68,0,1.25-.16,1.71-.49Zm-3.58-5.24c-.46.44-.74,1.07-.84,1.88h5.23c-.11-.82-.39-1.45-.83-1.88-.44-.44-1.03-.66-1.76-.66s-1.35.22-1.81.67Z"/>
        <path d="m240.41,59.75h1.38v1.29c.24-.44.61-.79,1.11-1.05.5-.26,1.07-.39,1.7-.39.97,0,1.73.25,2.29.75.56.5.84,1.18.84,2.04v4.68h-1.38v-4.83c0-.65-.18-1.15-.54-1.5-.36-.35-.87-.53-1.52-.53-.76,0-1.36.25-1.82.74s-.68,1.14-.68,1.95v4.17h-1.38v-7.33Z"/>
        <path d="m250.61,66.68c-.32-.36-.48-.91-.48-1.66v-4.67h-1.32l.21-.61h1.12l.54-2.06h.82v2.06h2.05l-.19.61h-1.85v4.87c0,.91.34,1.36,1.02,1.36.36,0,.71-.09,1.05-.28v.64c-.42.18-.92.27-1.51.27-.65,0-1.13-.18-1.45-.54Z"/>
        <path d="m255.29,58.58c-.19-.17-.28-.39-.28-.67s.09-.5.28-.67c.19-.17.43-.25.73-.25s.54.08.73.25c.19.17.28.39.28.67s-.09.5-.28.67c-.19.17-.43.25-.73.25s-.54-.08-.73-.25Zm.04,1.17h1.38v7.33h-1.38v-7.33Z"/>
        <path d="m260.07,66.68c-.32-.36-.48-.91-.48-1.66v-4.67h-1.32l.21-.61h1.12l.54-2.06h.82v2.06h2.05l-.19.61h-1.85v4.87c0,.91.34,1.36,1.02,1.36.36,0,.71-.09,1.05-.28v.64c-.42.18-.92.27-1.51.27-.65,0-1.13-.18-1.45-.54Z"/>
        <path d="m269.99,66.11c.46-.33.76-.78.89-1.35h1.12c-.19.77-.62,1.37-1.3,1.8-.68.43-1.51.65-2.48.65-.82,0-1.53-.15-2.15-.46-.61-.31-1.09-.75-1.42-1.32-.33-.57-.5-1.24-.5-2s.16-1.46.49-2.03c.33-.58.8-1.02,1.41-1.34.61-.31,1.32-.47,2.13-.47,1.22,0,2.17.33,2.85.99.68.66,1.04,1.58,1.07,2.78h-6.58v.08c0,.99.24,1.76.72,2.32.48.56,1.16.84,2.03.84.68,0,1.25-.16,1.71-.49Zm-3.58-5.24c-.46.44-.74,1.07-.84,1.88h5.23c-.11-.82-.39-1.45-.83-1.88-.44-.44-1.03-.66-1.76-.66s-1.35.22-1.81.67Zm3.59-4.48c.23-.26.49-.39.79-.39.15,0,.27.04.35.11.08.08.13.17.13.28,0,.21-.19.44-.57.7l-2.29,1.6h-.52l2.11-2.3Z"/>
        <path d="m3.12,77.69h1.49l3.05,5.91,2.99-5.91h.81l-3.74,7.47h-.64l-3.96-7.47Z"/>
        <path d="m12.92,76.52c-.19-.17-.28-.39-.28-.67s.09-.5.28-.67c.19-.17.43-.25.73-.25s.54.08.73.25c.19.17.28.39.28.67s-.09.5-.28.67c-.19.17-.43.25-.73.25s-.54-.08-.73-.25Zm.04,1.17h1.38v7.33h-1.38v-7.33Z"/>
        <path d="m17.61,84.56c-.63-.4-1.01-.96-1.14-1.67h1.14c.08.52.34.92.78,1.22.44.29,1.03.44,1.76.44.69,0,1.24-.14,1.65-.42s.62-.65.62-1.11c0-.37-.18-.66-.54-.88-.36-.21-.96-.39-1.79-.53s-1.5-.3-2-.47c-.49-.17-.85-.39-1.07-.64-.22-.25-.33-.57-.33-.95,0-.62.3-1.11.89-1.47.59-.36,1.42-.54,2.49-.54s1.88.2,2.52.59c.64.39,1.01.94,1.11,1.65h-1.14c-.09-.51-.35-.91-.78-1.2-.43-.29-.97-.43-1.63-.43s-1.13.11-1.52.34c-.38.22-.58.53-.58.9,0,.23.06.41.19.55.13.14.37.26.71.37.34.11.85.22,1.53.34,1.16.2,1.99.48,2.51.83.52.35.78.83.78,1.44,0,.7-.33,1.24-.98,1.64-.65.39-1.56.59-2.71.59-1.03,0-1.86-.2-2.49-.6Z"/>
        <path d="m26.24,84.41c-.55-.5-.83-1.2-.83-2.09v-4.63h1.38v4.78c0,.67.18,1.18.53,1.54.35.36.86.54,1.52.54.76,0,1.37-.25,1.83-.74.46-.49.7-1.14.7-1.95v-4.17h1.38v7.33h-1.38v-1.29c-.24.45-.61.8-1.11,1.05-.5.25-1.07.38-1.72.38-.98,0-1.74-.25-2.29-.75Z"/>
        <path d="m40.34,84.05c.46-.33.76-.78.89-1.35h1.12c-.19.77-.62,1.37-1.3,1.8-.68.43-1.51.65-2.48.65-.82,0-1.53-.15-2.15-.46-.61-.31-1.09-.75-1.42-1.32-.33-.57-.5-1.24-.5-2s.16-1.46.49-2.03c.33-.58.8-1.02,1.41-1.34.61-.31,1.32-.47,2.13-.47,1.22,0,2.17.33,2.85.99.68.66,1.04,1.58,1.07,2.78h-6.58v.08c0,.99.24,1.76.72,2.32.48.56,1.16.84,2.03.84.68,0,1.25-.16,1.71-.49Zm-3.58-5.24c-.46.44-.74,1.07-.84,1.88h5.23c-.11-.82-.39-1.45-.83-1.88-.44-.44-1.03-.66-1.76-.66s-1.35.22-1.81.67Z"/>
        <path d="m44.6,74.8h1.38v10.21h-1.38v-10.21Z"/>
        <path d="m48.85,74.8h1.38v10.21h-1.38v-10.21Z"/>
        <path d="m58.23,84.05c.46-.33.76-.78.89-1.35h1.12c-.19.77-.62,1.37-1.3,1.8-.68.43-1.51.65-2.48.65-.82,0-1.53-.15-2.15-.46-.61-.31-1.09-.75-1.42-1.32-.33-.57-.5-1.24-.5-2s.16-1.46.49-2.03c.33-.58.8-1.02,1.41-1.34.61-.31,1.32-.47,2.13-.47,1.22,0,2.17.33,2.85.99.68.66,1.04,1.58,1.07,2.78h-6.58v.08c0,.99.24,1.76.72,2.32.48.56,1.16.84,2.03.84.68,0,1.25-.16,1.71-.49Zm-3.58-5.24c-.46.44-.74,1.07-.84,1.88h5.23c-.11-.82-.39-1.45-.83-1.88-.44-.44-1.03-.66-1.76-.66s-1.35.22-1.81.67Z"/>
        <path d="m67.62,84.68c-.58-.32-1.04-.78-1.36-1.35-.32-.58-.49-1.24-.49-1.97s.15-1.42.46-2c.31-.57.74-1.02,1.31-1.34.56-.32,1.21-.48,1.95-.48.67,0,1.26.13,1.78.4.52.26.92.64,1.21,1.11v-4.25h1.38v10.21h-1.38v-1.33c-.28.48-.67.84-1.16,1.1-.49.25-1.06.38-1.71.38-.75,0-1.41-.16-2-.49Zm3.59-.51c.4-.26.72-.64.94-1.12.22-.48.34-1.04.34-1.67s-.11-1.22-.34-1.71c-.22-.49-.54-.87-.96-1.14-.41-.26-.89-.4-1.43-.4-.8,0-1.43.29-1.91.86-.47.57-.71,1.35-.71,2.33,0,.65.11,1.22.33,1.7s.53.87.93,1.14c.4.27.87.4,1.4.4s.99-.13,1.4-.4Z"/>
        <path d="m81.46,84.05c.46-.33.76-.78.89-1.35h1.12c-.19.77-.62,1.37-1.3,1.8-.68.43-1.51.65-2.48.65-.82,0-1.53-.15-2.15-.46-.61-.31-1.09-.75-1.42-1.32-.33-.57-.5-1.24-.5-2s.16-1.46.49-2.03c.33-.58.8-1.02,1.41-1.34.61-.31,1.32-.47,2.13-.47,1.22,0,2.17.33,2.85.99.68.66,1.04,1.58,1.07,2.78h-6.58v.08c0,.99.24,1.76.72,2.32.48.56,1.16.84,2.03.84.68,0,1.25-.16,1.71-.49Zm-3.58-5.24c-.46.44-.74,1.07-.84,1.88h5.23c-.11-.82-.39-1.45-.83-1.88-.44-.44-1.03-.66-1.76-.66s-1.35.22-1.81.67Z"/>
        <path d="m95.13,85.01l-3.14-3.96-1.32,1.15v2.81h-1.38v-10.21h1.38v6.41l4.11-3.53h1.06l-2.98,2.59,3.75,4.74h-1.5Z"/>
        <path d="m98.2,76.52c-.19-.17-.28-.39-.28-.67s.09-.5.28-.67c.19-.17.43-.25.73-.25s.54.08.73.25c.19.17.28.39.28.67s-.09.5-.28.67c-.19.17-.43.25-.73.25s-.54-.08-.73-.25Zm.04,1.17h1.38v7.33h-1.38v-7.33Z"/>
        <path d="m102.98,84.62c-.32-.36-.48-.91-.48-1.66v-4.67h-1.32l.21-.61h1.12l.54-2.06h.82v2.06h2.05l-.19.61h-1.85v4.87c0,.91.34,1.36,1.02,1.36.36,0,.71-.09,1.05-.28v.64c-.42.18-.92.27-1.51.27-.65,0-1.13-.18-1.45-.54Z"/>
        <path d="m108.22,84.56c-.63-.4-1.01-.96-1.14-1.67h1.14c.08.52.34.92.78,1.22.44.29,1.03.44,1.76.44.69,0,1.24-.14,1.65-.42s.62-.65.62-1.11c0-.37-.18-.66-.54-.88-.36-.21-.96-.39-1.79-.53s-1.5-.3-2-.47c-.49-.17-.85-.39-1.07-.64-.22-.25-.33-.57-.33-.95,0-.62.3-1.11.89-1.47.59-.36,1.42-.54,2.49-.54s1.88.2,2.52.59c.64.39,1.01.94,1.11,1.65h-1.14c-.09-.51-.35-.91-.78-1.2-.43-.29-.97-.43-1.63-.43s-1.13.11-1.52.34c-.38.22-.58.53-.58.9,0,.23.06.41.19.55.13.14.37.26.71.37.34.11.85.22,1.53.34,1.16.2,1.99.48,2.51.83.52.35.78.83.78,1.44,0,.7-.33,1.24-.98,1.64-.65.39-1.56.59-2.71.59-1.03,0-1.86-.2-2.49-.6Z"/>
        <path d="m121.83,84.7c-.63-.31-1.12-.75-1.46-1.32-.34-.57-.51-1.25-.51-2.03s.17-1.45.51-2.03c.34-.57.82-1.01,1.45-1.32.63-.31,1.37-.46,2.21-.46,1.04,0,1.89.22,2.56.65.67.43,1.09,1.03,1.25,1.8h-1.12c-.14-.57-.45-1.02-.92-1.35-.47-.33-1.04-.49-1.71-.49-.88,0-1.57.29-2.09.86-.51.57-.77,1.35-.77,2.34s.26,1.77.77,2.34c.51.57,1.21.86,2.09.86.66,0,1.23-.16,1.7-.49.48-.33.79-.78.93-1.35h1.12c-.16.77-.58,1.37-1.26,1.8-.68.43-1.52.65-2.54.65-.85,0-1.59-.15-2.22-.46Z"/>
        <path d="m131.33,84.69c-.64-.31-1.13-.76-1.48-1.34-.35-.58-.52-1.25-.52-2s.17-1.42.52-2c.35-.58.84-1.02,1.48-1.34.64-.31,1.38-.47,2.23-.47s1.59.16,2.24.47c.64.31,1.14.76,1.49,1.34s.52,1.25.52,2-.17,1.43-.52,2-.84,1.02-1.49,1.34c-.64.31-1.39.47-2.24.47s-1.59-.16-2.23-.47Zm4.32-.99c.51-.57.76-1.35.76-2.35s-.25-1.78-.76-2.35-1.21-.85-2.09-.85-1.58.28-2.09.85c-.5.57-.75,1.35-.75,2.35s.25,1.78.75,2.35c.5.57,1.2.85,2.09.85s1.58-.28,2.09-.85Z"/>
        <path d="m139.97,74.8h1.38v10.21h-1.38v-10.21Z"/>
        <path d="m144.21,74.8h1.38v10.21h-1.38v-10.21Z"/>
        <path d="m153.6,84.05c.46-.33.76-.78.89-1.35h1.12c-.19.77-.62,1.37-1.3,1.8-.68.43-1.51.65-2.48.65-.82,0-1.53-.15-2.15-.46-.61-.31-1.09-.75-1.42-1.32-.33-.57-.5-1.24-.5-2s.16-1.46.49-2.03c.33-.58.8-1.02,1.41-1.34.61-.31,1.32-.47,2.13-.47,1.22,0,2.17.33,2.85.99.68.66,1.04,1.58,1.07,2.78h-6.58v.08c0,.99.24,1.76.72,2.32.48.56,1.16.84,2.03.84.68,0,1.25-.16,1.71-.49Zm-3.58-5.24c-.46.44-.74,1.07-.84,1.88h5.23c-.11-.82-.39-1.45-.83-1.88-.44-.44-1.03-.66-1.76-.66s-1.35.22-1.81.67Z"/>
        <path d="m159.13,84.7c-.63-.31-1.12-.75-1.46-1.32-.34-.57-.51-1.25-.51-2.03s.17-1.45.51-2.03c.34-.57.82-1.01,1.45-1.32.63-.31,1.37-.46,2.21-.46,1.04,0,1.89.22,2.56.65.67.43,1.09,1.03,1.25,1.8h-1.12c-.14-.57-.45-1.02-.92-1.35-.47-.33-1.04-.49-1.71-.49-.88,0-1.57.29-2.09.86-.51.57-.77,1.35-.77,2.34s.26,1.77.77,2.34c.51.57,1.21.86,2.09.86.66,0,1.23-.16,1.7-.49.48-.33.79-.78.93-1.35h1.12c-.16.77-.58,1.37-1.26,1.8-.68.43-1.52.65-2.54.65-.85,0-1.59-.15-2.22-.46Z"/>
        <path d="m167.88,84.62c-.32-.36-.48-.91-.48-1.66v-4.67h-1.32l.21-.61h1.12l.54-2.06h.82v2.06h2.05l-.19.61h-1.85v4.87c0,.91.34,1.36,1.02,1.36.36,0,.71-.09,1.05-.28v.64c-.42.18-.92.27-1.51.27-.65,0-1.13-.18-1.45-.54Z"/>
        <path d="m172.56,76.52c-.19-.17-.28-.39-.28-.67s.09-.5.28-.67c.19-.17.43-.25.73-.25s.54.08.73.25c.19.17.28.39.28.67s-.09.5-.28.67c-.19.17-.43.25-.73.25s-.54-.08-.73-.25Zm.04,1.17h1.38v7.33h-1.38v-7.33Z"/>
        <path d="m178.09,84.69c-.64-.31-1.13-.76-1.48-1.34-.35-.58-.52-1.25-.52-2s.17-1.42.52-2c.35-.58.84-1.02,1.48-1.34.64-.31,1.38-.47,2.23-.47s1.59.16,2.24.47c.64.31,1.14.76,1.49,1.34s.52,1.25.52,2-.17,1.43-.52,2-.84,1.02-1.49,1.34c-.64.31-1.39.47-2.24.47s-1.59-.16-2.23-.47Zm4.32-.99c.51-.57.76-1.35.76-2.35s-.25-1.78-.76-2.35-1.21-.85-2.09-.85-1.58.28-2.09.85c-.5.57-.75,1.35-.75,2.35s.25,1.78.75,2.35c.5.57,1.2.85,2.09.85s1.58-.28,2.09-.85Z"/>
        <path d="m186.34,77.69h1.38v1.29c.24-.44.61-.79,1.11-1.05.5-.26,1.07-.39,1.7-.39.97,0,1.73.25,2.29.75.56.5.84,1.18.84,2.04v4.68h-1.38v-4.83c0-.65-.18-1.15-.54-1.5-.36-.35-.87-.53-1.52-.53-.76,0-1.36.25-1.82.74s-.68,1.14-.68,1.95v4.17h-1.38v-7.33Z"/>
        <path d="m195.6,77.69h1.38v1.29c.24-.44.61-.79,1.11-1.05.5-.26,1.07-.39,1.7-.39.97,0,1.73.25,2.29.75.56.5.84,1.18.84,2.04v4.68h-1.38v-4.83c0-.65-.18-1.15-.54-1.5-.36-.35-.87-.53-1.52-.53-.76,0-1.36.25-1.82.74s-.68,1.14-.68,1.95v4.17h-1.38v-7.33Z"/>
        <path d="m205.41,84.58c-.5-.39-.76-.94-.76-1.66,0-.77.3-1.35.91-1.76.61-.4,1.49-.61,2.66-.61h2.18v-.54c0-.61-.18-1.07-.55-1.39-.37-.32-.9-.48-1.6-.48-.66,0-1.19.15-1.58.46-.4.3-.63.74-.7,1.29h-1.08c.1-.76.45-1.34,1.05-1.75.6-.41,1.4-.61,2.39-.61,1.12,0,1.97.23,2.56.68.59.45.88,1.11.88,1.97v2.42c0,.86.07,1.66.22,2.41h-1.29c-.11-.45-.18-.88-.21-1.29-.6.96-1.56,1.44-2.89,1.44-.97,0-1.7-.19-2.21-.58Zm3.8-.32c.37-.21.67-.5.88-.86.21-.36.32-.76.32-1.2v-1.03h-1.81c-.88,0-1.53.14-1.95.43s-.64.72-.64,1.31c0,.55.16.96.49,1.25s.81.43,1.45.43c.46,0,.87-.11,1.25-.32Z"/>
        <path d="m216.53,84.77c-.5-.26-.89-.64-1.18-1.14v1.38h-1.38v-10.21h1.38v4.29c.28-.49.68-.87,1.21-1.14.53-.27,1.13-.41,1.81-.41,1.14,0,2.04.34,2.7,1.02.66.68.99,1.6.99,2.78,0,.76-.16,1.43-.47,2-.31.58-.75,1.03-1.32,1.35-.57.32-1.23.48-1.99.48-.67,0-1.25-.13-1.75-.39Zm3.43-1.11c.48-.6.73-1.38.73-2.36s-.23-1.75-.7-2.32c-.47-.57-1.11-.85-1.91-.85-.54,0-1.01.13-1.43.4-.41.27-.73.65-.96,1.14-.22.49-.34,1.05-.34,1.69,0,.97.24,1.74.73,2.32.49.58,1.14.88,1.94.88s1.45-.3,1.94-.9Z"/>
        <path d="m224.23,74.8h1.38v10.21h-1.38v-10.21Z"/>
        <path d="m233.61,84.05c.46-.33.76-.78.89-1.35h1.12c-.19.77-.62,1.37-1.3,1.8-.68.43-1.51.65-2.48.65-.82,0-1.53-.15-2.15-.46-.61-.31-1.09-.75-1.42-1.32-.33-.57-.5-1.24-.5-2s.16-1.46.49-2.03c.33-.58.8-1.02,1.41-1.34.61-.31,1.32-.47,2.13-.47,1.22,0,2.17.33,2.85.99.68.66,1.04,1.58,1.07,2.78h-6.58v.08c0,.99.24,1.76.72,2.32.48.56,1.16.84,2.03.84.68,0,1.25-.16,1.71-.49Zm-3.58-5.24c-.46.44-.74,1.07-.84,1.88h5.23c-.11-.82-.39-1.45-.83-1.88-.44-.44-1.03-.66-1.76-.66s-1.35.22-1.81.67Z"/>
        <path d="m238.63,84.56c-.63-.4-1.01-.96-1.14-1.67h1.14c.08.52.34.92.78,1.22.44.29,1.03.44,1.76.44.69,0,1.24-.14,1.65-.42s.62-.65.62-1.11c0-.37-.18-.66-.54-.88-.36-.21-.96-.39-1.79-.53s-1.5-.3-2-.47c-.49-.17-.85-.39-1.07-.64-.22-.25-.33-.57-.33-.95,0-.62.3-1.11.89-1.47.59-.36,1.42-.54,2.49-.54s1.88.2,2.52.59c.64.39,1.01.94,1.11,1.65h-1.14c-.09-.51-.35-.91-.78-1.2-.43-.29-.97-.43-1.63-.43s-1.13.11-1.52.34c-.38.22-.58.53-.58.9,0,.23.06.41.19.55.13.14.37.26.71.37.34.11.85.22,1.53.34,1.16.2,1.99.48,2.51.83.52.35.78.83.78,1.44,0,.7-.33,1.24-.98,1.64-.65.39-1.56.59-2.71.59-1.03,0-1.86-.2-2.49-.6Z"/>
        <path d="m252.24,84.7c-.63-.31-1.12-.75-1.46-1.32-.34-.57-.51-1.25-.51-2.03s.17-1.45.51-2.03c.34-.57.82-1.01,1.45-1.32.63-.31,1.37-.46,2.21-.46,1.04,0,1.89.22,2.56.65.67.43,1.09,1.03,1.25,1.8h-1.12c-.14-.57-.45-1.02-.92-1.35-.47-.33-1.04-.49-1.71-.49-.88,0-1.57.29-2.09.86-.51.57-.77,1.35-.77,2.34s.26,1.77.77,2.34c.51.57,1.21.86,2.09.86.66,0,1.23-.16,1.7-.49.48-.33.79-.78.93-1.35h1.12c-.16.77-.58,1.37-1.26,1.8-.68.43-1.52.65-2.54.65-.85,0-1.59-.15-2.22-.46Z"/>
        <path d="m265.57,84.05c.46-.33.76-.78.89-1.35h1.12c-.19.77-.62,1.37-1.3,1.8-.68.43-1.51.65-2.48.65-.82,0-1.53-.15-2.15-.46-.61-.31-1.09-.75-1.42-1.32-.33-.57-.5-1.24-.5-2s.16-1.46.49-2.03c.33-.58.8-1.02,1.41-1.34.61-.31,1.32-.47,2.13-.47,1.22,0,2.17.33,2.85.99.68.66,1.04,1.58,1.07,2.78h-6.58v.08c0,.99.24,1.76.72,2.32.48.56,1.16.84,2.03.84.68,0,1.25-.16,1.71-.49Zm-3.58-5.24c-.46.44-.74,1.07-.84,1.88h5.23c-.11-.82-.39-1.45-.83-1.88-.44-.44-1.03-.66-1.76-.66s-1.35.22-1.81.67Z"/>
        <path d="m6.29,102.64c-.63-.31-1.12-.75-1.46-1.32-.34-.57-.51-1.25-.51-2.03s.17-1.45.51-2.03c.34-.57.82-1.01,1.45-1.32.63-.31,1.37-.46,2.21-.46,1.04,0,1.89.22,2.56.65.67.43,1.09,1.03,1.25,1.8h-1.12c-.14-.57-.45-1.02-.92-1.35-.47-.33-1.04-.49-1.71-.49-.88,0-1.57.29-2.09.86-.51.57-.77,1.35-.77,2.34s.26,1.77.77,2.34c.51.57,1.21.86,2.09.86.66,0,1.23-.16,1.7-.49.48-.33.79-.78.93-1.35h1.12c-.16.77-.58,1.37-1.26,1.8-.68.43-1.52.65-2.54.65-.85,0-1.59-.15-2.22-.46Z"/>
        <path d="m15.8,102.63c-.64-.31-1.13-.76-1.48-1.34-.35-.58-.52-1.25-.52-2s.17-1.42.52-2c.35-.58.84-1.02,1.48-1.34.64-.31,1.38-.47,2.23-.47s1.59.16,2.24.47c.64.31,1.14.76,1.49,1.34s.52,1.25.52,2-.17,1.43-.52,2-.84,1.02-1.49,1.34c-.64.31-1.39.47-2.24.47s-1.59-.16-2.23-.47Zm4.32-.99c.51-.57.76-1.35.76-2.35s-.25-1.78-.76-2.35-1.21-.85-2.09-.85-1.58.28-2.09.85c-.5.57-.75,1.35-.75,2.35s.25,1.78.75,2.35c.5.57,1.2.85,2.09.85s1.58-.28,2.09-.85Z"/>
        <path d="m24.05,95.63h1.38v1.29c.24-.44.61-.79,1.11-1.05.5-.26,1.07-.39,1.7-.39.97,0,1.73.25,2.29.75.56.5.84,1.18.84,2.04v4.68h-1.38v-4.83c0-.65-.18-1.15-.54-1.5-.36-.35-.87-.53-1.52-.53-.76,0-1.36.25-1.82.74s-.68,1.14-.68,1.95v4.17h-1.38v-7.33Z"/>
        <path d="m34.95,102.64c-.63-.31-1.12-.75-1.46-1.32-.34-.57-.51-1.25-.51-2.03s.17-1.45.51-2.03c.34-.57.82-1.01,1.45-1.32.63-.31,1.37-.46,2.21-.46,1.04,0,1.89.22,2.56.65.67.43,1.09,1.03,1.25,1.8h-1.12c-.14-.57-.45-1.02-.92-1.35-.47-.33-1.04-.49-1.71-.49-.88,0-1.57.29-2.09.86-.51.57-.77,1.35-.77,2.34s.26,1.77.77,2.34c.51.57,1.21.86,2.09.86.66,0,1.23-.16,1.7-.49.48-.33.79-.78.93-1.35h1.12c-.16.77-.58,1.37-1.26,1.8-.68.43-1.52.65-2.54.65-.85,0-1.59-.15-2.22-.46Z"/>
        <path d="m48.29,101.99c.46-.33.76-.78.89-1.35h1.12c-.19.77-.62,1.37-1.3,1.8-.68.43-1.51.65-2.48.65-.82,0-1.53-.15-2.15-.46-.61-.31-1.09-.75-1.42-1.32-.33-.57-.5-1.24-.5-2s.16-1.46.49-2.03c.33-.58.8-1.02,1.41-1.34.61-.31,1.32-.47,2.13-.47,1.22,0,2.17.33,2.85.99.68.66,1.04,1.58,1.07,2.78h-6.58v.08c0,.99.24,1.76.72,2.32.48.56,1.16.84,2.03.84.68,0,1.25-.16,1.71-.49Zm-3.58-5.24c-.46.44-.74,1.07-.84,1.88h5.23c-.11-.82-.39-1.45-.83-1.88-.44-.44-1.03-.66-1.76-.66s-1.35.22-1.81.67Z"/>
        <path d="m52.17,95.63h1.38v1.29c.24-.44.61-.79,1.11-1.05.5-.26,1.07-.39,1.7-.39.97,0,1.73.25,2.29.75.56.5.84,1.18.84,2.04v4.68h-1.38v-4.83c0-.65-.18-1.15-.54-1.5-.36-.35-.87-.53-1.52-.53-.76,0-1.36.25-1.82.74s-.68,1.14-.68,1.95v4.17h-1.38v-7.33Z"/>
        <path d="m62.36,102.56c-.32-.36-.48-.91-.48-1.66v-4.67h-1.32l.21-.61h1.12l.54-2.06h.82v2.06h2.05l-.19.61h-1.85v4.87c0,.91.34,1.36,1.02,1.36.36,0,.71-.09,1.05-.28v.64c-.42.18-.92.27-1.51.27-.65,0-1.13-.18-1.45-.54Z"/>
        <path d="m66.71,95.63h1.38v1.57c.19-.55.49-.97.9-1.27s.91-.45,1.5-.45c.23,0,.4.02.51.06l-.13.96c-.15-.08-.36-.12-.63-.12-.68,0-1.21.28-1.58.85-.38.57-.57,1.29-.57,2.15v3.57h-1.38v-7.33Z"/>
        <path d="m72.75,102.52c-.5-.39-.76-.94-.76-1.66,0-.77.3-1.35.91-1.76.61-.4,1.49-.61,2.66-.61h2.18v-.54c0-.61-.18-1.07-.55-1.39-.37-.32-.9-.48-1.6-.48-.66,0-1.19.15-1.58.46-.4.3-.63.74-.7,1.29h-1.08c.1-.76.45-1.34,1.05-1.75.6-.41,1.4-.61,2.39-.61,1.12,0,1.97.23,2.56.68.59.45.88,1.11.88,1.97v2.42c0,.86.07,1.66.22,2.41h-1.29c-.11-.45-.18-.88-.21-1.29-.6.96-1.56,1.44-2.89,1.44-.97,0-1.7-.19-2.21-.58Zm3.8-.32c.37-.21.67-.5.88-.86.21-.36.32-.76.32-1.2v-1.03h-1.81c-.88,0-1.53.14-1.95.43s-.64.72-.64,1.31c0,.55.16.96.49,1.25s.81.43,1.45.43c.46,0,.87-.11,1.25-.32Z"/>
        <path d="m81.32,95.63h1.38v1.29c.24-.44.61-.79,1.11-1.05.5-.26,1.07-.39,1.7-.39.97,0,1.73.25,2.29.75.56.5.84,1.18.84,2.04v4.68h-1.38v-4.83c0-.65-.18-1.15-.54-1.5-.36-.35-.87-.53-1.52-.53-.76,0-1.36.25-1.82.74s-.68,1.14-.68,1.95v4.17h-1.38v-7.33Z"/>
        <path d="m91.52,102.56c-.32-.36-.48-.91-.48-1.66v-4.67h-1.32l.21-.61h1.12l.54-2.06h.82v2.06h2.05l-.19.61h-1.85v4.87c0,.91.34,1.36,1.02,1.36.36,0,.71-.09,1.05-.28v.64c-.42.18-.92.27-1.51.27-.65,0-1.13-.18-1.45-.54Z"/>
        <path d="m101.54,102.64c-.63-.31-1.12-.75-1.46-1.32-.34-.57-.51-1.25-.51-2.03s.17-1.45.51-2.03c.34-.57.82-1.01,1.45-1.32.63-.31,1.37-.46,2.21-.46,1.04,0,1.89.22,2.56.65.67.43,1.09,1.03,1.25,1.8h-1.12c-.14-.57-.45-1.02-.92-1.35-.47-.33-1.04-.49-1.71-.49-.88,0-1.57.29-2.09.86-.51.57-.77,1.35-.77,2.34s.26,1.77.77,2.34c.51.57,1.21.86,2.09.86.66,0,1.23-.16,1.7-.49.48-.33.79-.78.93-1.35h1.12c-.16.77-.58,1.37-1.26,1.8-.68.43-1.52.65-2.54.65-.85,0-1.59-.15-2.22-.46Z"/>
        <path d="m109.34,92.74h1.38v4.29c.26-.49.65-.87,1.16-1.14.51-.27,1.09-.41,1.74-.41.96,0,1.7.24,2.24.71.53.47.8,1.13.8,1.98v4.78h-1.38v-4.92c0-.62-.17-1.1-.51-1.43-.34-.34-.82-.51-1.45-.51-.79,0-1.42.26-1.89.78-.47.52-.71,1.2-.71,2.05v4.04h-1.38v-10.21Z"/>
        <path d="m119.14,102.52c-.5-.39-.76-.94-.76-1.66,0-.77.3-1.35.91-1.76.61-.4,1.49-.61,2.66-.61h2.18v-.54c0-.61-.18-1.07-.55-1.39-.37-.32-.9-.48-1.6-.48-.66,0-1.19.15-1.58.46-.4.3-.63.74-.7,1.29h-1.08c.1-.76.45-1.34,1.05-1.75.6-.41,1.4-.61,2.39-.61,1.12,0,1.97.23,2.56.68.59.45.88,1.11.88,1.97v2.42c0,.86.07,1.66.22,2.41h-1.29c-.11-.45-.18-.88-.21-1.29-.6.96-1.56,1.44-2.89,1.44-.97,0-1.7-.19-2.21-.58Zm3.8-.32c.37-.21.67-.5.88-.86.21-.36.32-.76.32-1.2v-1.03h-1.81c-.88,0-1.53.14-1.95.43s-.64.72-.64,1.31c0,.55.16.96.49,1.25s.81.43,1.45.43c.46,0,.87-.11,1.25-.32Z"/>
        <path d="m129.36,102.64c-.63-.31-1.12-.75-1.46-1.32-.34-.57-.51-1.25-.51-2.03s.17-1.45.51-2.03c.34-.57.82-1.01,1.45-1.32.63-.31,1.37-.46,2.21-.46,1.04,0,1.89.22,2.56.65.67.43,1.09,1.03,1.25,1.8h-1.12c-.14-.57-.45-1.02-.92-1.35-.47-.33-1.04-.49-1.71-.49-.88,0-1.57.29-2.09.86-.51.57-.77,1.35-.77,2.34s.26,1.77.77,2.34c.51.57,1.21.86,2.09.86.66,0,1.23-.16,1.7-.49.48-.33.79-.78.93-1.35h1.12c-.16.77-.58,1.37-1.26,1.8-.68.43-1.52.65-2.54.65-.85,0-1.59-.15-2.22-.46Z"/>
        <path d="m137.82,102.35c-.55-.5-.83-1.2-.83-2.09v-4.63h1.38v4.78c0,.67.18,1.18.53,1.54.35.36.86.54,1.52.54.76,0,1.37-.25,1.83-.74.46-.49.7-1.14.7-1.95v-4.17h1.38v7.33h-1.38v-1.29c-.24.45-.61.8-1.11,1.05-.5.25-1.07.38-1.72.38-.98,0-1.74-.25-2.29-.75Z"/>
        <path d="m146.4,95.63h1.38v1.29c.24-.44.61-.79,1.11-1.05.5-.26,1.07-.39,1.7-.39.97,0,1.73.25,2.29.75.56.5.84,1.18.84,2.04v4.68h-1.38v-4.83c0-.65-.18-1.15-.54-1.5-.36-.35-.87-.53-1.52-.53-.76,0-1.36.25-1.82.74s-.68,1.14-.68,1.95v4.17h-1.38v-7.33Z"/>
        <path d="m160.47,102.5c-.63-.4-1.01-.96-1.14-1.67h1.14c.08.52.34.92.78,1.22.44.29,1.03.44,1.76.44.69,0,1.24-.14,1.65-.42s.62-.65.62-1.11c0-.37-.18-.66-.54-.88-.36-.21-.96-.39-1.79-.53s-1.5-.3-2-.47c-.49-.17-.85-.39-1.07-.64-.22-.25-.33-.57-.33-.95,0-.62.3-1.11.89-1.47.59-.36,1.42-.54,2.49-.54s1.88.2,2.52.59c.64.39,1.01.94,1.11,1.65h-1.14c-.09-.51-.35-.91-.78-1.2-.43-.29-.97-.43-1.63-.43s-1.13.11-1.52.34c-.38.22-.58.53-.58.9,0,.23.06.41.19.55.13.14.37.26.71.37.34.11.85.22,1.53.34,1.16.2,1.99.48,2.51.83.52.35.78.83.78,1.44,0,.7-.33,1.24-.98,1.64-.65.39-1.56.59-2.71.59-1.03,0-1.86-.2-2.49-.6Z"/>
        <path d="m169.1,102.35c-.55-.5-.83-1.2-.83-2.09v-4.63h1.38v4.78c0,.67.18,1.18.53,1.54.35.36.86.54,1.52.54.76,0,1.37-.25,1.83-.74.46-.49.7-1.14.7-1.95v-4.17h1.38v7.33h-1.38v-1.29c-.24.45-.61.8-1.11,1.05-.5.25-1.07.38-1.72.38-.98,0-1.74-.25-2.29-.75Z"/>
        <path d="m177.63,95.63h1.38v1.57c.19-.55.49-.97.9-1.27s.91-.45,1.5-.45c.23,0,.4.02.51.06l-.13.96c-.15-.08-.36-.12-.63-.12-.68,0-1.21.28-1.58.85-.38.57-.57,1.29-.57,2.15v3.57h-1.38v-7.33Z"/>
        <path d="m187.73,102.35c-.55-.5-.83-1.2-.83-2.09v-4.63h1.38v4.78c0,.67.18,1.18.53,1.54.35.36.86.54,1.52.54.76,0,1.37-.25,1.83-.74.46-.49.7-1.14.7-1.95v-4.17h1.38v7.33h-1.38v-1.29c-.24.45-.61.8-1.11,1.05-.5.25-1.07.38-1.72.38-.98,0-1.74-.25-2.29-.75Z"/>
        <path d="m196.3,95.63h1.38v1.29c.24-.44.61-.79,1.11-1.05.5-.26,1.07-.39,1.7-.39.97,0,1.73.25,2.29.75.56.5.84,1.18.84,2.04v4.68h-1.38v-4.83c0-.65-.18-1.15-.54-1.5-.36-.35-.87-.53-1.52-.53-.76,0-1.36.25-1.82.74s-.68,1.14-.68,1.95v4.17h-1.38v-7.33Z"/>
        <path d="m211.08,101.99c.46-.33.76-.78.89-1.35h1.12c-.19.77-.62,1.37-1.3,1.8-.68.43-1.51.65-2.48.65-.82,0-1.53-.15-2.15-.46-.61-.31-1.09-.75-1.42-1.32-.33-.57-.5-1.24-.5-2s.16-1.46.49-2.03c.33-.58.8-1.02,1.41-1.34.61-.31,1.32-.47,2.13-.47,1.22,0,2.17.33,2.85.99.68.66,1.04,1.58,1.07,2.78h-6.58v.08c0,.99.24,1.76.72,2.32.48.56,1.16.84,2.03.84.68,0,1.25-.16,1.71-.49Zm-3.58-5.24c-.46.44-.74,1.07-.84,1.88h5.23c-.11-.82-.39-1.45-.83-1.88-.44-.44-1.03-.66-1.76-.66s-1.35.22-1.81.67Z"/>
        <path d="m219.61,96.24h-1.51l.18-.61h1.33v-.79c0-.66.19-1.16.57-1.51.38-.35.93-.52,1.66-.52.54,0,.98.09,1.32.27l-.19.63c-.21-.19-.47-.28-.79-.28-.37,0-.66.11-.87.34-.21.22-.31.54-.31.93v.94h2.03l-.16.61h-1.87v6.71h-1.38v-6.71Z"/>
        <path d="m224,102.52c-.5-.39-.76-.94-.76-1.66,0-.77.3-1.35.91-1.76.61-.4,1.49-.61,2.66-.61h2.18v-.54c0-.61-.18-1.07-.55-1.39-.37-.32-.9-.48-1.6-.48-.66,0-1.19.15-1.58.46-.4.3-.63.74-.7,1.29h-1.08c.1-.76.45-1.34,1.05-1.75.6-.41,1.4-.61,2.39-.61,1.12,0,1.97.23,2.56.68.59.45.88,1.11.88,1.97v2.42c0,.86.07,1.66.22,2.41h-1.29c-.11-.45-.18-.88-.21-1.29-.6.96-1.56,1.44-2.89,1.44-.97,0-1.7-.19-2.21-.58Zm3.8-.32c.37-.21.67-.5.88-.86.21-.36.32-.76.32-1.2v-1.03h-1.81c-.88,0-1.53.14-1.95.43s-.64.72-.64,1.31c0,.55.16.96.49,1.25s.81.43,1.45.43c.46,0,.87-.11,1.25-.32Z"/>
        <path d="m232.57,95.63h1.35v1.24c.22-.44.56-.78,1.01-1.02.45-.24.97-.37,1.56-.37.71,0,1.29.15,1.76.45.46.3.79.73.98,1.3.23-.59.58-1.03,1.04-1.32.46-.29,1.02-.43,1.67-.43.96,0,1.69.24,2.2.71s.76,1.15.76,2.03v4.74h-1.38v-4.87c0-.61-.17-1.09-.52-1.45-.34-.36-.81-.54-1.38-.54-.68,0-1.22.28-1.61.84-.4.56-.6,1.34-.6,2.33v3.69h-1.35v-4.23c0-.85-.17-1.5-.52-1.95-.34-.45-.83-.68-1.47-.68s-1.16.24-1.55.73c-.38.48-.58,1.14-.58,1.97v4.17h-1.38v-7.33Z"/>
        <path d="m247.12,94.46c-.19-.17-.28-.39-.28-.67s.09-.5.28-.67c.19-.17.43-.25.73-.25s.54.08.73.25c.19.17.28.39.28.67s-.09.5-.28.67c-.19.17-.43.25-.73.25s-.54-.08-.73-.25Zm.04,1.17h1.38v7.33h-1.38v-7.33Z"/>
        <path d="m251.35,92.74h1.38v10.21h-1.38v-10.21Z"/>
        <path d="m255.59,92.74h1.38v10.21h-1.38v-10.21Z"/>
        <path d="m264.97,101.99c.46-.33.76-.78.89-1.35h1.12c-.19.77-.62,1.37-1.3,1.8-.68.43-1.51.65-2.48.65-.82,0-1.53-.15-2.15-.46-.61-.31-1.09-.75-1.42-1.32-.33-.57-.5-1.24-.5-2s.16-1.46.49-2.03c.33-.58.8-1.02,1.41-1.34.61-.31,1.32-.47,2.13-.47,1.22,0,2.17.33,2.85.99.68.66,1.04,1.58,1.07,2.78h-6.58v.08c0,.99.24,1.76.72,2.32.48.56,1.16.84,2.03.84.68,0,1.25-.16,1.71-.49Zm-3.58-5.24c-.46.44-.74,1.07-.84,1.88h5.23c-.11-.82-.39-1.45-.83-1.88-.44-.44-1.03-.66-1.76-.66s-1.35.22-1.81.67Z"/>
        <path d="m97.7,120.56c-.58-.32-1.04-.78-1.36-1.35-.32-.58-.49-1.24-.49-1.97s.15-1.42.46-2c.31-.57.74-1.02,1.31-1.34.56-.32,1.21-.48,1.95-.48.67,0,1.26.13,1.78.4.52.26.92.64,1.21,1.11v-4.25h1.38v10.21h-1.38v-1.33c-.28.48-.67.84-1.16,1.1-.49.25-1.06.38-1.71.38-.75,0-1.41-.16-2-.49Zm3.59-.51c.4-.26.72-.64.94-1.12.22-.48.34-1.04.34-1.67s-.11-1.22-.34-1.71c-.22-.49-.54-.87-.96-1.14-.41-.26-.89-.4-1.43-.4-.8,0-1.43.29-1.91.86-.47.57-.71,1.35-.71,2.33,0,.65.11,1.22.33,1.7s.53.87.93,1.14c.4.27.87.4,1.4.4s.99-.13,1.4-.4Z"/>
        <path d="m105.82,113.64c.26-.21.47-.49.64-.84.16-.35.24-.71.23-1.08-.1.06-.21.09-.33.09-.22,0-.4-.07-.54-.21s-.21-.32-.21-.54c0-.23.07-.42.22-.56.14-.14.34-.22.59-.22.28,0,.5.1.66.31.16.21.24.49.24.86,0,.47-.12.93-.36,1.38-.24.45-.54.78-.91,1l-.22-.18Z"/>
        <path d="m109.29,112.4c-.19-.17-.28-.39-.28-.67s.09-.5.28-.67c.19-.17.43-.25.73-.25s.54.08.73.25c.19.17.28.39.28.67s-.09.5-.28.67c-.19.17-.43.25-.73.25s-.54-.08-.73-.25Zm.04,1.17h1.38v7.33h-1.38v-7.33Z"/>
        <path d="m113.13,113.57h1.38v1.29c.24-.44.61-.79,1.11-1.05.5-.26,1.07-.39,1.7-.39.97,0,1.73.25,2.29.75.56.5.84,1.18.84,2.04v4.68h-1.38v-4.83c0-.65-.18-1.15-.54-1.5-.36-.35-.87-.53-1.52-.53-.76,0-1.36.25-1.82.74s-.68,1.14-.68,1.95v4.17h-1.38v-7.33Z"/>
        <path d="m123.23,120.44c-.63-.4-1.01-.96-1.14-1.67h1.14c.08.52.34.92.78,1.22.44.29,1.03.44,1.76.44.69,0,1.24-.14,1.65-.42s.62-.65.62-1.11c0-.37-.18-.66-.54-.88-.36-.21-.96-.39-1.79-.53s-1.5-.3-2-.47c-.49-.17-.85-.39-1.07-.64-.22-.25-.33-.57-.33-.95,0-.62.3-1.11.89-1.47.59-.36,1.42-.54,2.49-.54s1.88.2,2.52.59c.64.39,1.01.94,1.11,1.65h-1.14c-.09-.51-.35-.91-.78-1.2-.43-.29-.97-.43-1.63-.43s-1.13.11-1.52.34c-.38.22-.58.53-.58.9,0,.23.06.41.19.55.13.14.37.26.71.37.34.11.85.22,1.53.34,1.16.2,1.99.48,2.51.83.52.35.78.83.78,1.44,0,.7-.33,1.24-.98,1.64-.65.39-1.56.59-2.71.59-1.03,0-1.86-.2-2.49-.6Z"/>
        <path d="m137.03,119.94c.46-.33.76-.78.89-1.35h1.12c-.19.77-.62,1.37-1.3,1.8-.68.43-1.51.65-2.48.65-.82,0-1.53-.15-2.15-.46-.61-.31-1.09-.75-1.42-1.32-.33-.57-.5-1.24-.5-2s.16-1.46.49-2.03c.33-.58.8-1.02,1.41-1.34.61-.31,1.32-.47,2.13-.47,1.22,0,2.17.33,2.85.99.68.66,1.04,1.58,1.07,2.78h-6.58v.08c0,.99.24,1.76.72,2.32.48.56,1.16.84,2.03.84.68,0,1.25-.16,1.71-.49Zm-3.58-5.24c-.46.44-.74,1.07-.84,1.88h5.23c-.11-.82-.39-1.45-.83-1.88-.44-.44-1.03-.66-1.76-.66s-1.35.22-1.81.67Z"/>
        <path d="m142.56,120.58c-.63-.31-1.12-.75-1.46-1.32-.34-.57-.51-1.25-.51-2.03s.17-1.45.51-2.03c.34-.57.82-1.01,1.45-1.32.63-.31,1.37-.46,2.21-.46,1.04,0,1.89.22,2.56.65.67.43,1.09,1.03,1.25,1.8h-1.12c-.14-.57-.45-1.02-.92-1.35-.47-.33-1.04-.49-1.71-.49-.88,0-1.57.29-2.09.86-.51.57-.77,1.35-.77,2.34s.26,1.77.77,2.34c.51.57,1.21.86,2.09.86.66,0,1.23-.16,1.7-.49.48-.33.79-.78.93-1.35h1.12c-.16.77-.58,1.37-1.26,1.8-.68.43-1.52.65-2.54.65-.85,0-1.59-.15-2.22-.46Z"/>
        <path d="m151.32,120.5c-.32-.36-.48-.91-.48-1.66v-4.67h-1.32l.21-.61h1.12l.54-2.06h.82v2.06h2.05l-.19.61h-1.85v4.87c0,.91.34,1.36,1.02,1.36.36,0,.71-.09,1.05-.28v.64c-.42.18-.92.27-1.51.27-.65,0-1.13-.18-1.45-.54Z"/>
        <path d="m161.24,119.94c.46-.33.76-.78.89-1.35h1.12c-.19.77-.62,1.37-1.3,1.8-.68.43-1.51.65-2.48.65-.82,0-1.53-.15-2.15-.46-.61-.31-1.09-.75-1.42-1.32-.33-.57-.5-1.24-.5-2s.16-1.46.49-2.03c.33-.58.8-1.02,1.41-1.34.61-.31,1.32-.47,2.13-.47,1.22,0,2.17.33,2.85.99.68.66,1.04,1.58,1.07,2.78h-6.58v.08c0,.99.24,1.76.72,2.32.48.56,1.16.84,2.03.84.68,0,1.25-.16,1.71-.49Zm-3.58-5.24c-.46.44-.74,1.07-.84,1.88h5.23c-.11-.82-.39-1.45-.83-1.88-.44-.44-1.03-.66-1.76-.66s-1.35.22-1.81.67Z"/>
        <path d="m166.26,120.44c-.63-.4-1.01-.96-1.14-1.67h1.14c.08.52.34.92.78,1.22.44.29,1.03.44,1.76.44.69,0,1.24-.14,1.65-.42s.62-.65.62-1.11c0-.37-.18-.66-.54-.88-.36-.21-.96-.39-1.79-.53s-1.5-.3-2-.47c-.49-.17-.85-.39-1.07-.64-.22-.25-.33-.57-.33-.95,0-.62.3-1.11.89-1.47.59-.36,1.42-.54,2.49-.54s1.88.2,2.52.59c.64.39,1.01.94,1.11,1.65h-1.14c-.09-.51-.35-.91-.78-1.2-.43-.29-.97-.43-1.63-.43s-1.13.11-1.52.34c-.38.22-.58.53-.58.9,0,.23.06.41.19.55.13.14.37.26.71.37.34.11.85.22,1.53.34,1.16.2,1.99.48,2.51.83.52.35.78.83.78,1.44,0,.7-.33,1.24-.98,1.64-.65.39-1.56.59-2.71.59-1.03,0-1.86-.2-2.49-.6Z"/>
        <path d="m174.12,120.81c-.15-.15-.23-.35-.23-.59s.08-.42.24-.58c.16-.15.36-.23.6-.23s.45.08.61.23c.16.15.24.35.24.58s-.08.44-.24.59c-.16.15-.36.23-.61.23s-.45-.08-.61-.23Z"/>
      </g>
      <g>
        <path class="cls-4" d="m37.6,3.65C23.99,3.65,2.69,11.73,2.69,40.05h34.91"/>
        <polyline class="cls-4" points="34.91 42.68 34.91 26.47 29.73 26.47"/>
      </g>
      <g>
        <path class="cls-4" d="m78.21,3.65c-25.39.04-23.04,21.21-23.04,36.39h23.04"/>
        <polyline class="cls-4" points="76.43 42.68 76.43 26.47 71.35 26.47"/>
      </g>
      <g>
        <line class="cls-4" x1="45.12" y1="9.69" x2="45.12" y2="42.68"/>
        <line class="cls-4" x1="45.12" y1="6.37" x2="45.12" y2=".94"/>
      </g>
      <g>
        <line class="cls-4" x1="167.3" y1="9.69" x2="167.3" y2="42.68"/>
        <line class="cls-4" x1="167.3" y1="6.37" x2="167.3" y2=".94"/>
      </g>
      <polygon class="cls-1" points="96.78 .89 96.78 .89 96.78 .89 96.78 .89"/>
      <polygon points="130.39 42.68 118.89 14.92 118.89 42.68 113.5 42.68 113.5 .94 118.69 .89 130.2 28.71 130.2 .94 135.58 .94 135.58 42.68 130.39 42.68"/>
      <path class="cls-4" d="m176.6,35.47c3.14,7.8,16.11,7.24,17.73-1.12,1.22-6.29-3.46-9.88-8.68-12.99-3.84-2.28-9.37-5.19-9.04-10.72.6-10.22,15.4-10.18,18.09-1.37"/>
      <polyline class="cls-3" points="203.84 42.78 203.84 .94 213.34 26.47 222.84 .94 222.84 42.78"/>
      <g>
        <polyline class="cls-4" points="270.18 39.89 232.85 39.99 232.85 3.6 243.16 3.55"/>
        <line class="cls-4" x1="232.85" y1="23.17" x2="251.52" y2="23.17"/>
      </g>
      <polygon points="110.47 42.68 104.95 42.68 96.42 11.18 87.88 42.68 82.25 42.68 93.97 .85 99.54 .85 110.47 42.68"/>
      <line class="cls-4" x1="89.55" y1="26.19" x2="103.28" y2="26.19"/>
    </g>
  </g>
</svg>