<?xml version="1.0" encoding="UTF-8"?>
<svg id="Calque_2" data-name="Calque 2" xmlns="http://www.w3.org/2000/svg" viewBox="0 0 623.1 87.82">
  <defs>
    <style>
      .cls-1 {
        fill: #fff;
      }

      .cls-1, .cls-2 {
        stroke: #000;
        stroke-miterlimit: 10;
        stroke-width: 5.38px;
      }

      .cls-2 {
        fill: none;
      }
    </style>
  </defs>
  <g id="Calque_1-2" data-name="Calque 1">
    <g>
      <g>
        <path d="m25.09,62.68h-9.52l-2.15,4.3h-1.65l8.6-16.77h1.28l8.1,16.77h-2.65l-2.01-4.3Zm-.54-1.13l-4.06-8.69-4.35,8.69h8.41Z"/>
        <path d="m31.7,50.45h13.56v1.13h-11.1v5.98h9.52v1.11h-9.52v8.31h-2.46v-16.54Z"/>
        <path d="m47.2,50.45h13.56v1.13h-11.1v5.98h9.52v1.11h-9.52v8.31h-2.46v-16.54Z"/>
        <path d="m63.66,50.45h2.46v16.54h-2.46v-16.54Z"/>
        <path d="m72.4,65c-1.51-1.48-2.27-3.6-2.27-6.35s.75-4.77,2.26-6.24c1.5-1.46,3.66-2.2,6.46-2.2,2.28,0,4.14.48,5.57,1.44,1.43.96,2.28,2.3,2.55,4.02h-2.13c-.27-1.35-.92-2.41-1.96-3.18s-2.35-1.15-3.92-1.15c-2.05,0-3.62.63-4.71,1.89-1.09,1.26-1.64,3.06-1.64,5.41s.55,4.23,1.65,5.52c1.1,1.28,2.68,1.92,4.75,1.92,1.57,0,2.87-.38,3.9-1.13,1.02-.76,1.67-1.82,1.94-3.19h2.13c-.27,1.72-1.12,3.06-2.55,4.02-1.43.96-3.28,1.44-5.53,1.44-2.82,0-4.98-.74-6.5-2.22Z"/>
        <path d="m89.64,50.45h2.46v7.11h10.61v-7.11h2.46v16.54h-2.46v-8.31h-10.61v8.31h-2.46v-16.54Z"/>
        <path d="m108.66,50.45h14.01v1.13h-11.55v5.98h10.2v1.11h-10.2v7.18h11.55v1.13h-14.01v-16.54Z"/>
        <path d="m130.39,62.84h5.34v.63h-5.34v-.63Z"/>
        <path d="m142.73,65.73c-.96-.94-1.44-2.28-1.44-4.02s.48-3.02,1.43-3.95c.95-.93,2.31-1.39,4.09-1.39,1.45,0,2.62.3,3.53.91.91.61,1.45,1.46,1.61,2.54h-1.35c-.17-.86-.58-1.53-1.24-2.01-.66-.48-1.49-.73-2.48-.73-1.3,0-2.29.4-2.98,1.2-.69.8-1.04,1.94-1.04,3.42s.35,2.68,1.05,3.49c.7.81,1.7,1.22,3.01,1.22,1,0,1.82-.24,2.47-.72.65-.48,1.06-1.15,1.23-2.02h1.35c-.17,1.09-.71,1.93-1.61,2.54-.91.61-2.07.91-3.5.91-1.78,0-3.15-.47-4.11-1.41Z"/>
        <path d="m153.54,59.66h1.38v1.57c.19-.55.49-.97.9-1.27s.91-.45,1.5-.45c.23,0,.4.02.51.06l-.13.96c-.15-.08-.36-.12-.63-.12-.68,0-1.21.28-1.58.85-.38.57-.57,1.29-.57,2.15v3.57h-1.38v-7.33Z"/>
        <path d="m164.54,66.02c.46-.33.76-.78.89-1.35h1.12c-.19.77-.62,1.37-1.3,1.8-.68.43-1.51.65-2.48.65-.82,0-1.53-.15-2.15-.46-.61-.31-1.09-.75-1.42-1.32-.33-.57-.5-1.24-.5-2s.16-1.46.49-2.03c.33-.58.8-1.02,1.41-1.34.61-.31,1.32-.47,2.13-.47,1.22,0,2.17.33,2.85.99.68.66,1.04,1.58,1.07,2.78h-6.58v.08c0,.99.24,1.76.72,2.32.48.56,1.16.84,2.03.84.68,0,1.25-.16,1.71-.49Zm-3.58-5.24c-.46.44-.74,1.07-.84,1.88h5.23c-.11-.82-.39-1.45-.83-1.88-.44-.44-1.03-.66-1.76-.66s-1.35.22-1.81.67Zm3.59-4.48c.23-.26.49-.39.79-.39.15,0,.27.04.35.11.08.08.13.17.13.28,0,.21-.19.44-.57.7l-2.29,1.6h-.52l2.11-2.3Z"/>
        <path d="m168.98,66.55c-.5-.39-.76-.94-.76-1.66,0-.77.3-1.35.91-1.76.61-.4,1.49-.61,2.66-.61h2.18v-.54c0-.61-.18-1.07-.55-1.39-.37-.32-.9-.48-1.6-.48-.66,0-1.19.15-1.58.46-.4.3-.63.74-.7,1.29h-1.08c.1-.76.45-1.34,1.05-1.75.6-.41,1.4-.61,2.39-.61,1.12,0,1.97.23,2.56.68.59.45.88,1.11.88,1.97v2.42c0,.86.07,1.66.22,2.41h-1.29c-.11-.45-.18-.88-.21-1.29-.6.96-1.56,1.44-2.89,1.44-.97,0-1.7-.19-2.21-.58Zm3.8-.32c.37-.21.67-.5.88-.86.21-.36.32-.76.32-1.2v-1.03h-1.81c-.88,0-1.53.14-1.95.43s-.64.72-.64,1.31c0,.55.16.96.49,1.25s.81.43,1.45.43c.46,0,.87-.11,1.25-.32Z"/>
        <path d="m178.5,66.59c-.32-.36-.48-.91-.48-1.66v-4.67h-1.32l.21-.61h1.12l.54-2.06h.82v2.06h2.05l-.19.61h-1.85v4.87c0,.91.34,1.36,1.02,1.36.36,0,.71-.09,1.05-.28v.64c-.42.18-.92.27-1.51.27-.65,0-1.13-.18-1.45-.54Z"/>
        <path d="m183.17,58.49c-.19-.17-.28-.39-.28-.67s.09-.5.28-.67c.19-.17.43-.25.73-.25s.54.08.73.25c.19.17.28.39.28.67s-.09.5-.28.67c-.19.17-.43.25-.73.25s-.54-.08-.73-.25Zm.04,1.17h1.38v7.33h-1.38v-7.33Z"/>
        <path d="m188.71,66.66c-.64-.31-1.13-.76-1.48-1.34-.35-.58-.52-1.25-.52-2s.17-1.42.52-2c.35-.58.84-1.02,1.48-1.34.64-.31,1.38-.47,2.23-.47s1.59.16,2.24.47c.64.31,1.14.76,1.49,1.34s.52,1.25.52,2-.17,1.43-.52,2-.84,1.02-1.49,1.34c-.64.31-1.39.47-2.24.47s-1.59-.16-2.23-.47Zm4.32-.99c.51-.57.76-1.35.76-2.35s-.25-1.78-.76-2.35-1.21-.85-2.09-.85-1.58.28-2.09.85c-.5.57-.75,1.35-.75,2.35s.25,1.78.75,2.35c.5.57,1.2.85,2.09.85s1.58-.28,2.09-.85Z"/>
        <path d="m196.96,59.66h1.38v1.29c.24-.44.61-.79,1.11-1.05.5-.26,1.07-.39,1.7-.39.97,0,1.73.25,2.29.75.56.5.84,1.18.84,2.04v4.68h-1.38v-4.83c0-.65-.18-1.15-.54-1.5-.36-.35-.87-.53-1.52-.53-.76,0-1.36.25-1.82.74s-.68,1.14-.68,1.95v4.17h-1.38v-7.33Z"/>
        <path d="m211.72,66.65c-.58-.32-1.04-.78-1.36-1.35-.32-.58-.49-1.24-.49-1.97s.15-1.42.46-2c.31-.57.74-1.02,1.31-1.34.56-.32,1.21-.48,1.95-.48.67,0,1.26.13,1.78.4.52.26.92.64,1.21,1.11v-4.25h1.38v10.21h-1.38v-1.33c-.28.48-.67.84-1.16,1.1-.49.25-1.06.38-1.71.38-.75,0-1.41-.16-2-.49Zm3.59-.51c.4-.26.72-.64.94-1.12.22-.48.34-1.04.34-1.67s-.11-1.22-.34-1.71c-.22-.49-.54-.87-.96-1.14-.41-.26-.89-.4-1.43-.4-.8,0-1.43.29-1.91.86-.47.57-.71,1.35-.71,2.33,0,.65.11,1.22.33,1.7s.53.87.93,1.14c.4.27.87.4,1.4.4s.99-.13,1.4-.4Z"/>
        <path d="m219.85,59.73c.26-.21.47-.49.64-.84.16-.35.24-.71.23-1.08-.1.06-.21.09-.33.09-.22,0-.4-.07-.54-.21s-.21-.32-.21-.54c0-.23.07-.42.22-.56.14-.14.34-.22.59-.22.28,0,.5.1.66.31.16.21.24.49.24.86,0,.47-.12.93-.36,1.38-.24.45-.54.78-.91,1l-.22-.18Z"/>
        <path d="m223.68,66.38c-.55-.5-.83-1.2-.83-2.09v-4.63h1.38v4.78c0,.67.18,1.18.53,1.54.35.36.86.54,1.52.54.76,0,1.37-.25,1.83-.74.46-.49.7-1.14.7-1.95v-4.17h1.38v7.33h-1.38v-1.29c-.24.45-.61.8-1.11,1.05-.5.25-1.07.38-1.72.38-.98,0-1.74-.25-2.29-.75Z"/>
        <path d="m232.25,59.66h1.38v1.29c.24-.44.61-.79,1.11-1.05.5-.26,1.07-.39,1.7-.39.97,0,1.73.25,2.29.75.56.5.84,1.18.84,2.04v4.68h-1.38v-4.83c0-.65-.18-1.15-.54-1.5-.36-.35-.87-.53-1.52-.53-.76,0-1.36.25-1.82.74s-.68,1.14-.68,1.95v4.17h-1.38v-7.33Z"/>
        <path d="m247.03,66.02c.46-.33.76-.78.89-1.35h1.12c-.19.77-.62,1.37-1.3,1.8-.68.43-1.51.65-2.48.65-.82,0-1.53-.15-2.15-.46-.61-.31-1.09-.75-1.42-1.32-.33-.57-.5-1.24-.5-2s.16-1.46.49-2.03c.33-.58.8-1.02,1.41-1.34.61-.31,1.32-.47,2.13-.47,1.22,0,2.17.33,2.85.99.68.66,1.04,1.58,1.07,2.78h-6.58v.08c0,.99.24,1.76.72,2.32.48.56,1.16.84,2.03.84.68,0,1.25-.16,1.71-.49Zm-3.58-5.24c-.46.44-.74,1.07-.84,1.88h5.23c-.11-.82-.39-1.45-.83-1.88-.44-.44-1.03-.66-1.76-.66s-1.35.22-1.81.67Z"/>
        <path d="m255.45,66.55c-.5-.39-.76-.94-.76-1.66,0-.77.3-1.35.91-1.76.61-.4,1.49-.61,2.66-.61h2.18v-.54c0-.61-.18-1.07-.55-1.39-.37-.32-.9-.48-1.6-.48-.66,0-1.19.15-1.58.46-.4.3-.63.74-.7,1.29h-1.08c.1-.76.45-1.34,1.05-1.75.6-.41,1.4-.61,2.39-.61,1.12,0,1.97.23,2.56.68.59.45.88,1.11.88,1.97v2.42c0,.86.07,1.66.22,2.41h-1.29c-.11-.45-.18-.88-.21-1.29-.6.96-1.56,1.44-2.89,1.44-.97,0-1.7-.19-2.21-.58Zm3.8-.32c.37-.21.67-.5.88-.86.21-.36.32-.76.32-1.2v-1.03h-1.81c-.88,0-1.53.14-1.95.43s-.64.72-.64,1.31c0,.55.16.96.49,1.25s.81.43,1.45.43c.46,0,.87-.11,1.25-.32Z"/>
        <path d="m264.7,60.27h-1.51l.18-.61h1.33v-.79c0-.66.19-1.16.57-1.51.38-.35.93-.52,1.66-.52.54,0,.98.09,1.32.27l-.19.63c-.21-.19-.47-.28-.79-.28-.37,0-.66.11-.87.34-.21.22-.31.54-.31.93v.94h2.03l-.16.61h-1.87v6.71h-1.38v-6.71Z"/>
        <path d="m275.92,66.98h-1.38v-6.71h-3.38v6.71h-1.38v-6.71h-1.51l.18-.61h1.33v-.79c0-.66.19-1.16.57-1.51.38-.35.93-.52,1.66-.52.54,0,.98.09,1.32.27l-.19.63c-.21-.19-.47-.28-.79-.28-.37,0-.66.11-.87.34-.21.22-.31.54-.31.93v.94h4.75v7.33Zm.04-9.84c.19.17.28.39.28.67s-.09.5-.28.67c-.19.17-.43.25-.73.25s-.54-.08-.73-.25c-.19-.17-.28-.39-.28-.67s.09-.5.28-.67c.19-.17.43-.25.73-.25s.54.08.73.25Z"/>
        <path d="m280,66.67c-.63-.31-1.12-.75-1.46-1.32-.34-.57-.51-1.25-.51-2.03s.17-1.45.51-2.03c.34-.57.82-1.01,1.45-1.32.63-.31,1.37-.46,2.21-.46,1.04,0,1.89.22,2.56.65.67.43,1.09,1.03,1.25,1.8h-1.12c-.14-.57-.45-1.02-.92-1.35-.47-.33-1.04-.49-1.71-.49-.88,0-1.57.29-2.09.86-.51.57-.77,1.35-.77,2.34s.26,1.77.77,2.34c.51.57,1.21.86,2.09.86.66,0,1.23-.16,1.7-.49.48-.33.79-.78.93-1.35h1.12c-.16.77-.58,1.37-1.26,1.8-.68.43-1.52.65-2.54.65-.85,0-1.59-.15-2.22-.46Z"/>
        <path d="m287.79,56.77h1.38v4.29c.26-.49.65-.87,1.16-1.14.51-.27,1.09-.41,1.74-.41.96,0,1.7.24,2.24.71.53.47.8,1.13.8,1.98v4.78h-1.38v-4.92c0-.62-.17-1.1-.51-1.43-.34-.34-.82-.51-1.45-.51-.79,0-1.42.26-1.89.78-.47.52-.71,1.2-.71,2.05v4.04h-1.38v-10.21Z"/>
        <path d="m302.56,66.02c.46-.33.76-.78.89-1.35h1.12c-.19.77-.62,1.37-1.3,1.8-.68.43-1.51.65-2.48.65-.82,0-1.53-.15-2.15-.46-.61-.31-1.09-.75-1.42-1.32-.33-.57-.5-1.24-.5-2s.16-1.46.49-2.03c.33-.58.8-1.02,1.41-1.34.61-.31,1.32-.47,2.13-.47,1.22,0,2.17.33,2.85.99.68.66,1.04,1.58,1.07,2.78h-6.58v.08c0,.99.24,1.76.72,2.32.48.56,1.16.84,2.03.84.68,0,1.25-.16,1.71-.49Zm-3.58-5.24c-.46.44-.74,1.07-.84,1.88h5.23c-.11-.82-.39-1.45-.83-1.88-.44-.44-1.03-.66-1.76-.66s-1.35.22-1.81.67Z"/>
        <path d="m310.4,59.66h1.38v1.36c.28-.47.68-.84,1.2-1.11.52-.27,1.11-.4,1.77-.4,1.17,0,2.08.34,2.74,1.01.66.67.99,1.6.99,2.77s-.33,2.13-1,2.82c-.67.68-1.58,1.02-2.74,1.02-.68,0-1.27-.13-1.78-.4-.51-.27-.91-.66-1.2-1.17v4.26h-1.38v-10.17Zm5.44,6.47c.41-.27.72-.66.94-1.15s.33-1.06.33-1.71c0-.98-.24-1.75-.71-2.31-.47-.56-1.11-.84-1.92-.84-.53,0-1,.13-1.41.4-.41.27-.73.65-.96,1.14-.22.49-.34,1.05-.34,1.69,0,.98.24,1.75.72,2.33.48.58,1.13.87,1.94.87.53,0,1-.14,1.41-.41Z"/>
        <path d="m321.95,66.66c-.64-.31-1.13-.76-1.48-1.34-.35-.58-.52-1.25-.52-2s.17-1.42.52-2c.35-.58.84-1.02,1.48-1.34.64-.31,1.38-.47,2.23-.47s1.59.16,2.24.47c.64.31,1.14.76,1.49,1.34s.52,1.25.52,2-.17,1.43-.52,2-.84,1.02-1.49,1.34c-.64.31-1.39.47-2.24.47s-1.59-.16-2.23-.47Zm4.32-.99c.51-.57.76-1.35.76-2.35s-.25-1.78-.76-2.35-1.21-.85-2.09-.85-1.58.28-2.09.85c-.5.57-.75,1.35-.75,2.35s.25,1.78.75,2.35c.5.57,1.2.85,2.09.85s1.58-.28,2.09-.85Z"/>
        <path d="m330.86,66.38c-.55-.5-.83-1.2-.83-2.09v-4.63h1.38v4.78c0,.67.18,1.18.53,1.54.35.36.86.54,1.52.54.76,0,1.37-.25,1.83-.74.46-.49.7-1.14.7-1.95v-4.17h1.38v7.33h-1.38v-1.29c-.24.45-.61.8-1.11,1.05-.5.25-1.07.38-1.72.38-.98,0-1.74-.25-2.29-.75Z"/>
        <path d="m339.39,59.66h1.38v1.57c.19-.55.49-.97.9-1.27s.91-.45,1.5-.45c.23,0,.4.02.51.06l-.13.96c-.15-.08-.36-.12-.63-.12-.68,0-1.21.28-1.58.85-.38.57-.57,1.29-.57,2.15v3.57h-1.38v-7.33Z"/>
        <path d="m349.22,56.77h1.38v10.21h-1.38v-10.21Z"/>
        <path d="m352.89,59.73c.26-.21.47-.49.64-.84.16-.35.24-.71.23-1.08-.1.06-.21.09-.33.09-.22,0-.4-.07-.54-.21s-.21-.32-.21-.54c0-.23.07-.42.22-.56.14-.14.34-.22.59-.22.28,0,.5.1.66.31.16.21.24.49.24.86,0,.47-.12.93-.36,1.38-.24.45-.54.78-.91,1l-.22-.18Z"/>
        <path d="m356.13,56.52h8.87v.72h-7.31v3.78h6.46v.7h-6.46v4.54h7.31v.72h-8.87v-10.46Zm6.43-3.35c.23-.26.49-.39.79-.39.15,0,.27.04.35.11.08.08.13.17.13.28,0,.21-.19.44-.57.7l-2.29,1.6h-.52l2.11-2.3Z"/>
        <path d="m368.11,66.67c-.63-.31-1.12-.75-1.46-1.32-.34-.57-.51-1.25-.51-2.03s.17-1.45.51-2.03c.34-.57.82-1.01,1.45-1.32.63-.31,1.37-.46,2.21-.46,1.04,0,1.89.22,2.56.65.67.43,1.09,1.03,1.25,1.8h-1.12c-.14-.57-.45-1.02-.92-1.35-.47-.33-1.04-.49-1.71-.49-.88,0-1.57.29-2.09.86-.51.57-.77,1.35-.77,2.34s.26,1.77.77,2.34c.51.57,1.21.86,2.09.86.66,0,1.23-.16,1.7-.49.48-.33.79-.78.93-1.35h1.12c-.16.77-.58,1.37-1.26,1.8-.68.43-1.52.65-2.54.65-.85,0-1.59-.15-2.22-.46Z"/>
        <path d="m377.61,66.66c-.64-.31-1.13-.76-1.48-1.34-.35-.58-.52-1.25-.52-2s.17-1.42.52-2c.35-.58.84-1.02,1.48-1.34.64-.31,1.38-.47,2.23-.47s1.59.16,2.24.47c.64.31,1.14.76,1.49,1.34s.52,1.25.52,2-.17,1.43-.52,2-.84,1.02-1.49,1.34c-.64.31-1.39.47-2.24.47s-1.59-.16-2.23-.47Zm4.32-.99c.51-.57.76-1.35.76-2.35s-.25-1.78-.76-2.35-1.21-.85-2.09-.85-1.58.28-2.09.85c-.5.57-.75,1.35-.75,2.35s.25,1.78.75,2.35c.5.57,1.2.85,2.09.85s1.58-.28,2.09-.85Z"/>
        <path d="m386.25,56.77h1.38v10.21h-1.38v-10.21Z"/>
        <path d="m395.64,66.02c.46-.33.76-.78.89-1.35h1.12c-.19.77-.62,1.37-1.3,1.8-.68.43-1.51.65-2.48.65-.82,0-1.53-.15-2.15-.46-.61-.31-1.09-.75-1.42-1.32-.33-.57-.5-1.24-.5-2s.16-1.46.49-2.03c.33-.58.8-1.02,1.41-1.34.61-.31,1.32-.47,2.13-.47,1.22,0,2.17.33,2.85.99.68.66,1.04,1.58,1.07,2.78h-6.58v.08c0,.99.24,1.76.72,2.32.48.56,1.16.84,2.03.84.68,0,1.25-.16,1.71-.49Zm-3.58-5.24c-.46.44-.74,1.07-.84,1.88h5.23c-.11-.82-.39-1.45-.83-1.88-.44-.44-1.03-.66-1.76-.66s-1.35.22-1.81.67Z"/>
        <path d="m409.02,66.02c.46-.33.76-.78.89-1.35h1.12c-.19.77-.62,1.37-1.3,1.8-.68.43-1.51.65-2.48.65-.82,0-1.53-.15-2.15-.46-.61-.31-1.09-.75-1.42-1.32-.33-.57-.5-1.24-.5-2s.16-1.46.49-2.03c.33-.58.8-1.02,1.41-1.34.61-.31,1.32-.47,2.13-.47,1.22,0,2.17.33,2.85.99.68.66,1.04,1.58,1.07,2.78h-6.58v.08c0,.99.24,1.76.72,2.32.48.56,1.16.84,2.03.84.68,0,1.25-.16,1.71-.49Zm-3.58-5.24c-.46.44-.74,1.07-.84,1.88h5.23c-.11-.82-.39-1.45-.83-1.88-.44-.44-1.03-.66-1.76-.66s-1.35.22-1.81.67Z"/>
        <path d="m413.84,66.59c-.32-.36-.48-.91-.48-1.66v-4.67h-1.32l.21-.61h1.12l.54-2.06h.82v2.06h2.05l-.19.61h-1.85v4.87c0,.91.34,1.36,1.02,1.36.36,0,.71-.09,1.05-.28v.64c-.42.18-.92.27-1.51.27-.65,0-1.13-.18-1.45-.54Z"/>
        <path d="m422.27,56.52h1.55v9.75h6.58v.72h-8.13v-10.46Z"/>
        <path d="m430.33,69.75c-.27-.08-.5-.19-.68-.33l.42-.73c.11.15.27.27.47.36.2.09.4.13.59.13.33,0,.66-.11.99-.32.33-.21.61-.49.81-.83.21-.34.31-.68.31-1.03s-.08-.65-.24-.94l-3.42-6.4h1.52l3.02,5.91,2.87-5.91h.87l-3.66,7.55c-.87,1.77-1.87,2.66-3.01,2.66-.31,0-.6-.04-.87-.12Z"/>
        <path d="m440.71,66.67c-.63-.31-1.12-.75-1.46-1.32-.34-.57-.51-1.25-.51-2.03s.17-1.45.51-2.03c.34-.57.82-1.01,1.45-1.32.63-.31,1.37-.46,2.21-.46,1.04,0,1.89.22,2.56.65.67.43,1.09,1.03,1.25,1.8h-1.12c-.14-.57-.45-1.02-.92-1.35-.47-.33-1.04-.49-1.71-.49-.88,0-1.57.29-2.09.86-.51.57-.77,1.35-.77,2.34s.26,1.77.77,2.34c.51.57,1.21.86,2.09.86.66,0,1.23-.16,1.7-.49.48-.33.79-.78.93-1.35h1.12c-.16.77-.58,1.37-1.26,1.8-.68.43-1.52.65-2.54.65-.85,0-1.59-.15-2.22-.46Z"/>
        <path d="m454.05,66.02c.46-.33.76-.78.89-1.35h1.12c-.19.77-.62,1.37-1.3,1.8-.68.43-1.51.65-2.48.65-.82,0-1.53-.15-2.15-.46-.61-.31-1.09-.75-1.42-1.32-.33-.57-.5-1.24-.5-2s.16-1.46.49-2.03c.33-.58.8-1.02,1.41-1.34.61-.31,1.32-.47,2.13-.47,1.22,0,2.17.33,2.85.99.68.66,1.04,1.58,1.07,2.78h-6.58v.08c0,.99.24,1.76.72,2.32.48.56,1.16.84,2.03.84.68,0,1.25-.16,1.71-.49Zm-3.58-5.24c-.46.44-.74,1.07-.84,1.88h5.23c-.11-.82-.39-1.45-.83-1.88-.44-.44-1.03-.66-1.76-.66s-1.35.22-1.81.67Zm3.59-4.48c.23-.26.49-.39.79-.39.15,0,.27.04.35.11.08.08.13.17.13.28,0,.21-.19.44-.57.7l-2.29,1.6h-.52l2.11-2.3Z"/>
        <path d="m463.45,66.02c.46-.33.76-.78.89-1.35h1.12c-.19.77-.62,1.37-1.3,1.8-.68.43-1.51.65-2.48.65-.82,0-1.53-.15-2.15-.46-.61-.31-1.09-.75-1.42-1.32-.33-.57-.5-1.24-.5-2s.16-1.46.49-2.03c.33-.58.8-1.02,1.41-1.34.61-.31,1.32-.47,2.13-.47,1.22,0,2.17.33,2.85.99.68.66,1.04,1.58,1.07,2.78h-6.58v.08c0,.99.24,1.76.72,2.32.48.56,1.16.84,2.03.84.68,0,1.25-.16,1.71-.49Zm-3.58-5.24c-.46.44-.74,1.07-.84,1.88h5.23c-.11-.82-.39-1.45-.83-1.88-.44-.44-1.03-.66-1.76-.66s-1.35.22-1.81.67Z"/>
        <path d="m472.84,66.65c-.58-.32-1.04-.78-1.36-1.35-.32-.58-.49-1.24-.49-1.97s.15-1.42.46-2c.31-.57.74-1.02,1.31-1.34.56-.32,1.21-.48,1.95-.48.67,0,1.26.13,1.78.4.52.26.92.64,1.21,1.11v-4.25h1.38v10.21h-1.38v-1.33c-.28.48-.67.84-1.16,1.1-.49.25-1.06.38-1.71.38-.75,0-1.41-.16-2-.49Zm3.59-.51c.4-.26.72-.64.94-1.12.22-.48.34-1.04.34-1.67s-.11-1.22-.34-1.71c-.22-.49-.54-.87-.96-1.14-.41-.26-.89-.4-1.43-.4-.8,0-1.43.29-1.91.86-.47.57-.71,1.35-.71,2.33,0,.65.11,1.22.33,1.7s.53.87.93,1.14c.4.27.87.4,1.4.4s.99-.13,1.4-.4Z"/>
        <path d="m486.68,66.02c.46-.33.76-.78.89-1.35h1.12c-.19.77-.62,1.37-1.3,1.8-.68.43-1.51.65-2.48.65-.82,0-1.53-.15-2.15-.46-.61-.31-1.09-.75-1.42-1.32-.33-.57-.5-1.24-.5-2s.16-1.46.49-2.03c.33-.58.8-1.02,1.41-1.34.61-.31,1.32-.47,2.13-.47,1.22,0,2.17.33,2.85.99.68.66,1.04,1.58,1.07,2.78h-6.58v.08c0,.99.24,1.76.72,2.32.48.56,1.16.84,2.03.84.68,0,1.25-.16,1.71-.49Zm-3.58-5.24c-.46.44-.74,1.07-.84,1.88h5.23c-.11-.82-.39-1.45-.83-1.88-.44-.44-1.03-.66-1.76-.66s-1.35.22-1.81.67Z"/>
        <path d="m491.7,66.53c-.63-.4-1.01-.96-1.14-1.67h1.14c.08.52.34.92.78,1.22.44.29,1.03.44,1.76.44.69,0,1.24-.14,1.65-.42s.62-.65.62-1.11c0-.37-.18-.66-.54-.88-.36-.21-.96-.39-1.79-.53s-1.5-.3-2-.47c-.49-.17-.85-.39-1.07-.64-.22-.25-.33-.57-.33-.95,0-.62.3-1.11.89-1.47.59-.36,1.42-.54,2.49-.54s1.88.2,2.52.59c.64.39,1.01.94,1.11,1.65h-1.14c-.09-.51-.35-.91-.78-1.2-.43-.29-.97-.43-1.63-.43s-1.13.11-1.52.34c-.38.22-.58.53-.58.9,0,.23.06.41.19.55.13.14.37.26.71.37.34.11.85.22,1.53.34,1.16.2,1.99.48,2.51.83.52.35.78.83.78,1.44,0,.7-.33,1.24-.98,1.64-.65.39-1.56.59-2.71.59-1.03,0-1.86-.2-2.49-.6Z"/>
        <path d="m515.36,56.52v10.46h-1.55v-8.79l-4.07,8.79h-.73l-4.37-8.91v8.91h-.93v-10.46h1.78l4.17,8.61,3.99-8.61h1.7Z"/>
        <path d="m523.05,66.02c.46-.33.76-.78.89-1.35h1.12c-.19.77-.62,1.37-1.3,1.8-.68.43-1.51.65-2.48.65-.82,0-1.53-.15-2.15-.46-.61-.31-1.09-.75-1.42-1.32-.33-.57-.5-1.24-.5-2s.16-1.46.49-2.03c.33-.58.8-1.02,1.41-1.34.61-.31,1.32-.47,2.13-.47,1.22,0,2.17.33,2.85.99.68.66,1.04,1.58,1.07,2.78h-6.58v.08c0,.99.24,1.76.72,2.32.48.56,1.16.84,2.03.84.68,0,1.25-.16,1.71-.49Zm-3.58-5.24c-.46.44-.74,1.07-.84,1.88h5.23c-.11-.82-.39-1.45-.83-1.88-.44-.44-1.03-.66-1.76-.66s-1.35.22-1.81.67Zm3.59-4.48c.23-.26.49-.39.79-.39.15,0,.27.04.35.11.08.08.13.17.13.28,0,.21-.19.44-.57.7l-2.29,1.6h-.52l2.11-2.3Z"/>
        <path d="m527.88,66.59c-.32-.36-.48-.91-.48-1.66v-4.67h-1.32l.21-.61h1.12l.54-2.06h.82v2.06h2.05l-.19.61h-1.85v4.87c0,.91.34,1.36,1.02,1.36.36,0,.71-.09,1.05-.28v.64c-.42.18-.92.27-1.51.27-.65,0-1.13-.18-1.45-.54Z"/>
        <path d="m532.55,58.49c-.19-.17-.28-.39-.28-.67s.09-.5.28-.67c.19-.17.43-.25.73-.25s.54.08.73.25c.19.17.28.39.28.67s-.09.5-.28.67c-.19.17-.43.25-.73.25s-.54-.08-.73-.25Zm.04,1.17h1.38v7.33h-1.38v-7.33Z"/>
        <path d="m541.92,66.02c.46-.33.76-.78.89-1.35h1.12c-.19.77-.62,1.37-1.3,1.8-.68.43-1.51.65-2.48.65-.82,0-1.53-.15-2.15-.46-.61-.31-1.09-.75-1.42-1.32-.33-.57-.5-1.24-.5-2s.16-1.46.49-2.03c.33-.58.8-1.02,1.41-1.34.61-.31,1.32-.47,2.13-.47,1.22,0,2.17.33,2.85.99.68.66,1.04,1.58,1.07,2.78h-6.58v.08c0,.99.24,1.76.72,2.32.48.56,1.16.84,2.03.84.68,0,1.25-.16,1.71-.49Zm-3.58-5.24c-.46.44-.74,1.07-.84,1.88h5.23c-.11-.82-.39-1.45-.83-1.88-.44-.44-1.03-.66-1.76-.66s-1.35.22-1.81.67Z"/>
        <path d="m545.76,59.66h1.38v1.57c.19-.55.49-.97.9-1.27s.91-.45,1.5-.45c.23,0,.4.02.51.06l-.13.96c-.15-.08-.36-.12-.63-.12-.68,0-1.21.28-1.58.85-.38.57-.57,1.29-.57,2.15v3.57h-1.38v-7.33Z"/>
        <path d="m552.07,66.53c-.63-.4-1.01-.96-1.14-1.67h1.14c.08.52.34.92.78,1.22.44.29,1.03.44,1.76.44.69,0,1.24-.14,1.65-.42s.62-.65.62-1.11c0-.37-.18-.66-.54-.88-.36-.21-.96-.39-1.79-.53s-1.5-.3-2-.47c-.49-.17-.85-.39-1.07-.64-.22-.25-.33-.57-.33-.95,0-.62.3-1.11.89-1.47.59-.36,1.42-.54,2.49-.54s1.88.2,2.52.59c.64.39,1.01.94,1.11,1.65h-1.14c-.09-.51-.35-.91-.78-1.2-.43-.29-.97-.43-1.63-.43s-1.13.11-1.52.34c-.38.22-.58.53-.58.9,0,.23.06.41.19.55.13.14.37.26.71.37.34.11.85.22,1.53.34,1.16.2,1.99.48,2.51.83.52.35.78.83.78,1.44,0,.7-.33,1.24-.98,1.64-.65.39-1.56.59-2.71.59-1.03,0-1.86-.2-2.49-.6Z"/>
        <path d="m565.56,66.65c-.58-.32-1.04-.78-1.36-1.35-.32-.58-.49-1.24-.49-1.97s.15-1.42.46-2c.31-.57.74-1.02,1.31-1.34.56-.32,1.21-.48,1.95-.48.67,0,1.26.13,1.78.4.52.26.92.64,1.21,1.11v-4.25h1.38v10.21h-1.38v-1.33c-.28.48-.67.84-1.16,1.1-.49.25-1.06.38-1.71.38-.75,0-1.41-.16-2-.49Zm3.59-.51c.4-.26.72-.64.94-1.12.22-.48.34-1.04.34-1.67s-.11-1.22-.34-1.71c-.22-.49-.54-.87-.96-1.14-.41-.26-.89-.4-1.43-.4-.8,0-1.43.29-1.91.86-.47.57-.71,1.35-.71,2.33,0,.65.11,1.22.33,1.7s.53.87.93,1.14c.4.27.87.4,1.4.4s.99-.13,1.4-.4Z"/>
        <path d="m573.68,59.73c.26-.21.47-.49.64-.84.16-.35.24-.71.23-1.08-.1.06-.21.09-.33.09-.22,0-.4-.07-.54-.21s-.21-.32-.21-.54c0-.23.07-.42.22-.56.14-.14.34-.22.59-.22.28,0,.5.1.66.31.16.21.24.49.24.86,0,.47-.12.93-.36,1.38-.24.45-.54.78-.91,1l-.22-.18Z"/>
        <path d="m577.43,66.55c-.5-.39-.76-.94-.76-1.66,0-.77.3-1.35.91-1.76.61-.4,1.49-.61,2.66-.61h2.18v-.54c0-.61-.18-1.07-.55-1.39-.37-.32-.9-.48-1.6-.48-.66,0-1.19.15-1.58.46-.4.3-.63.74-.7,1.29h-1.08c.1-.76.45-1.34,1.05-1.75.6-.41,1.4-.61,2.39-.61,1.12,0,1.97.23,2.56.68.59.45.88,1.11.88,1.97v2.42c0,.86.07,1.66.22,2.41h-1.29c-.11-.45-.18-.88-.21-1.29-.6.96-1.56,1.44-2.89,1.44-.97,0-1.7-.19-2.21-.58Zm3.8-.32c.37-.21.67-.5.88-.86.21-.36.32-.76.32-1.2v-1.03h-1.81c-.88,0-1.53.14-1.95.43s-.64.72-.64,1.31c0,.55.16.96.49,1.25s.81.43,1.45.43c.46,0,.87-.11,1.25-.32Z"/>
        <path d="m585.96,59.66h1.38v1.57c.19-.55.49-.97.9-1.27s.91-.45,1.5-.45c.23,0,.4.02.51.06l-.13.96c-.15-.08-.36-.12-.63-.12-.68,0-1.21.28-1.58.85-.38.57-.57,1.29-.57,2.15v3.57h-1.38v-7.33Z"/>
        <path d="m592.37,66.59c-.32-.36-.48-.91-.48-1.66v-4.67h-1.32l.21-.61h1.12l.54-2.06h.82v2.06h2.05l-.19.61h-1.85v4.87c0,.91.34,1.36,1.02,1.36.36,0,.71-.09,1.05-.28v.64c-.42.18-.92.27-1.51.27-.65,0-1.13-.18-1.45-.54Z"/>
        <path d="m606.27,66.02c.46-.33.76-.78.89-1.35h1.12c-.19.77-.62,1.37-1.3,1.8-.68.43-1.51.65-2.48.65-.82,0-1.53-.15-2.15-.46-.61-.31-1.09-.75-1.42-1.32-.33-.57-.5-1.24-.5-2s.16-1.46.49-2.03c.33-.58.8-1.02,1.41-1.34.61-.31,1.32-.47,2.13-.47,1.22,0,2.17.33,2.85.99.68.66,1.04,1.58,1.07,2.78h-6.58v.08c0,.99.24,1.76.72,2.32.48.56,1.16.84,2.03.84.68,0,1.25-.16,1.71-.49Zm-3.58-5.24c-.46.44-.74,1.07-.84,1.88h5.23c-.11-.82-.39-1.45-.83-1.88-.44-.44-1.03-.66-1.76-.66s-1.35.22-1.81.67Z"/>
        <path d="m611.09,66.59c-.32-.36-.48-.91-.48-1.66v-4.67h-1.32l.21-.61h1.12l.54-2.06h.82v2.06h2.05l-.19.61h-1.85v4.87c0,.91.34,1.36,1.02,1.36.36,0,.71-.09,1.05-.28v.64c-.42.18-.92.27-1.51.27-.65,0-1.13-.18-1.45-.54Z"/>
        <path d="m189.48,84.59c-.58-.32-1.04-.78-1.36-1.35-.32-.58-.49-1.24-.49-1.97s.15-1.42.46-2c.31-.57.74-1.02,1.31-1.34.56-.32,1.21-.48,1.95-.48.67,0,1.26.13,1.78.4.52.26.92.64,1.21,1.11v-4.25h1.38v10.21h-1.38v-1.33c-.28.48-.67.84-1.16,1.1-.49.25-1.06.38-1.71.38-.75,0-1.41-.16-2-.49Zm3.59-.51c.4-.26.72-.64.94-1.12.22-.48.34-1.04.34-1.67s-.11-1.22-.34-1.71c-.22-.49-.54-.87-.96-1.14-.41-.26-.89-.4-1.43-.4-.8,0-1.43.29-1.91.86-.47.57-.71,1.35-.71,2.33,0,.65.11,1.22.33,1.7s.53.87.93,1.14c.4.27.87.4,1.4.4s.99-.13,1.4-.4Z"/>
        <path d="m198.45,84.32c-.55-.5-.83-1.2-.83-2.09v-4.63h1.38v4.78c0,.67.18,1.18.53,1.54.35.36.86.54,1.52.54.76,0,1.37-.25,1.83-.74.46-.49.7-1.14.7-1.95v-4.17h1.38v7.33h-1.38v-1.29c-.24.45-.61.8-1.11,1.05-.5.25-1.07.38-1.72.38-.98,0-1.74-.25-2.29-.75Z"/>
        <path d="m212.53,84.59c-.58-.32-1.04-.78-1.36-1.35-.32-.58-.49-1.24-.49-1.97s.15-1.42.46-2c.31-.57.74-1.02,1.31-1.34.56-.32,1.21-.48,1.95-.48.67,0,1.26.13,1.78.4.52.26.92.64,1.21,1.11v-4.25h1.38v10.21h-1.38v-1.33c-.28.48-.67.84-1.16,1.1-.49.25-1.06.38-1.71.38-.75,0-1.41-.16-2-.49Zm3.59-.51c.4-.26.72-.64.94-1.12.22-.48.34-1.04.34-1.67s-.11-1.22-.34-1.71c-.22-.49-.54-.87-.96-1.14-.41-.26-.89-.4-1.43-.4-.8,0-1.43.29-1.91.86-.47.57-.71,1.35-.71,2.33,0,.65.11,1.22.33,1.7s.53.87.93,1.14c.4.27.87.4,1.4.4s.99-.13,1.4-.4Z"/>
        <path d="m226.37,83.96c.46-.33.76-.78.89-1.35h1.12c-.19.77-.62,1.37-1.3,1.8-.68.43-1.51.65-2.48.65-.82,0-1.53-.15-2.15-.46-.61-.31-1.09-.75-1.42-1.32-.33-.57-.5-1.24-.5-2s.16-1.46.49-2.03c.33-.58.8-1.02,1.41-1.34.61-.31,1.32-.47,2.13-.47,1.22,0,2.17.33,2.85.99.68.66,1.04,1.58,1.07,2.78h-6.58v.08c0,.99.24,1.76.72,2.32.48.56,1.16.84,2.03.84.68,0,1.25-.16,1.71-.49Zm-3.58-5.24c-.46.44-.74,1.07-.84,1.88h5.23c-.11-.82-.39-1.45-.83-1.88-.44-.44-1.03-.66-1.76-.66s-1.35.22-1.81.67Z"/>
        <path d="m231.4,84.47c-.63-.4-1.01-.96-1.14-1.67h1.14c.08.52.34.92.78,1.22.44.29,1.03.44,1.76.44.69,0,1.24-.14,1.65-.42s.62-.65.62-1.11c0-.37-.18-.66-.54-.88-.36-.21-.96-.39-1.79-.53s-1.5-.3-2-.47c-.49-.17-.85-.39-1.07-.64-.22-.25-.33-.57-.33-.95,0-.62.3-1.11.89-1.47.59-.36,1.42-.54,2.49-.54s1.88.2,2.52.59c.64.39,1.01.94,1.11,1.65h-1.14c-.09-.51-.35-.91-.78-1.2-.43-.29-.97-.43-1.63-.43s-1.13.11-1.52.34c-.38.22-.58.53-.58.9,0,.23.06.41.19.55.13.14.37.26.71.37.34.11.85.22,1.53.34,1.16.2,1.99.48,2.51.83.52.35.78.83.78,1.44,0,.7-.33,1.24-.98,1.64-.65.39-1.56.59-2.71.59-1.03,0-1.86-.2-2.49-.6Z"/>
        <path d="m239.66,76.43c-.19-.17-.28-.39-.28-.67s.09-.5.28-.67c.19-.17.43-.25.73-.25s.54.08.73.25c.19.17.28.39.28.67s-.09.5-.28.67c-.19.17-.43.25-.73.25s-.54-.08-.73-.25Zm.04,1.17h1.38v7.33h-1.38v-7.33Z"/>
        <path d="m250.21,77.55c-.47,0-.87.06-1.2.19.52.2.92.48,1.2.85.28.37.42.81.42,1.33,0,.72-.29,1.32-.86,1.8-.57.48-1.44.75-2.59.78-.44.02-.81.08-1.11.19-.3.1-.45.23-.45.38,0,.13.1.23.29.29.19.06.44.1.74.1h.64c1.24,0,2.19.17,2.86.52.67.34,1.01.83,1.01,1.47,0,.48-.17.89-.52,1.25-.34.35-.83.63-1.47.82-.63.19-1.37.29-2.21.29s-1.49-.08-2.09-.25c-.59-.16-1.05-.39-1.38-.69s-.49-.63-.49-1.02c0-.42.2-.77.6-1.05.4-.28,1.02-.48,1.85-.59-.46-.06-.8-.18-1.02-.35-.22-.17-.33-.38-.33-.62s.13-.45.4-.64.62-.31,1.06-.36c-.67-.18-1.16-.47-1.49-.87-.32-.4-.49-.89-.49-1.47,0-.75.32-1.34.96-1.79.64-.45,1.48-.67,2.54-.67.46,0,.86.03,1.2.1.27-.25.58-.44.93-.57s.72-.19,1.11-.19.73.04.99.13v.85c-.33-.15-.71-.22-1.14-.22Zm-5.23,7.15c-.59.26-.88.62-.88,1.08s.26.79.79,1.07c.53.27,1.23.41,2.11.41s1.65-.16,2.21-.48c.55-.32.83-.73.83-1.23,0-.42-.24-.73-.71-.94-.47-.21-1.1-.31-1.89-.31-1.05,0-1.86.13-2.45.4Zm3.74-3.3c.37-.32.55-.8.55-1.43s-.18-1.09-.55-1.42c-.37-.33-.9-.49-1.58-.49s-1.2.17-1.57.49c-.37.33-.55.8-.55,1.42s.18,1.1.55,1.43.89.49,1.58.49,1.22-.16,1.58-.49Z"/>
        <path d="m253.13,77.6h1.38v1.29c.24-.44.61-.79,1.11-1.05.5-.26,1.07-.39,1.7-.39.97,0,1.73.25,2.29.75.56.5.84,1.18.84,2.04v4.68h-1.38v-4.83c0-.65-.18-1.15-.54-1.5-.36-.35-.87-.53-1.52-.53-.76,0-1.36.25-1.82.74s-.68,1.14-.68,1.95v4.17h-1.38v-7.33Z"/>
        <path d="m266.09,80.78h5.34v.63h-5.34v-.63Z"/>
        <path d="m284.75,82.2h-6.02l-1.36,2.72h-1.05l5.44-10.61h.81l5.13,10.61h-1.67l-1.27-2.72Zm-.34-.72l-2.57-5.5-2.75,5.5h5.32Z"/>
        <path d="m288.92,84.32c-.55-.5-.83-1.2-.83-2.09v-4.63h1.38v4.78c0,.67.18,1.18.53,1.54.35.36.86.54,1.52.54.76,0,1.37-.25,1.83-.74.46-.49.7-1.14.7-1.95v-4.17h1.38v7.33h-1.38v-1.29c-.24.45-.61.8-1.11,1.05-.5.25-1.07.38-1.72.38-.98,0-1.74-.25-2.29-.75Z"/>
        <path d="m304.21,77.55c-.47,0-.87.06-1.2.19.52.2.92.48,1.2.85.28.37.42.81.42,1.33,0,.72-.29,1.32-.86,1.8-.57.48-1.44.75-2.59.78-.44.02-.81.08-1.11.19-.3.1-.45.23-.45.38,0,.13.1.23.29.29.19.06.44.1.74.1h.64c1.24,0,2.19.17,2.86.52.67.34,1.01.83,1.01,1.47,0,.48-.17.89-.52,1.25-.34.35-.83.63-1.47.82-.63.19-1.37.29-2.21.29s-1.49-.08-2.09-.25c-.59-.16-1.05-.39-1.38-.69s-.49-.63-.49-1.02c0-.42.2-.77.6-1.05.4-.28,1.02-.48,1.85-.59-.46-.06-.8-.18-1.02-.35-.22-.17-.33-.38-.33-.62s.13-.45.4-.64.62-.31,1.06-.36c-.67-.18-1.16-.47-1.49-.87-.32-.4-.49-.89-.49-1.47,0-.75.32-1.34.96-1.79.64-.45,1.48-.67,2.54-.67.46,0,.86.03,1.2.1.27-.25.58-.44.93-.57s.72-.19,1.11-.19.73.04.99.13v.85c-.33-.15-.71-.22-1.14-.22Zm-5.23,7.15c-.59.26-.88.62-.88,1.08s.26.79.79,1.07c.53.27,1.23.41,2.11.41s1.65-.16,2.21-.48c.55-.32.83-.73.83-1.23,0-.42-.24-.73-.71-.94-.47-.21-1.1-.31-1.89-.31-1.05,0-1.86.13-2.45.4Zm3.74-3.3c.37-.32.55-.8.55-1.43s-.18-1.09-.55-1.42c-.37-.33-.9-.49-1.58-.49s-1.2.17-1.57.49c-.37.33-.55.8-.55,1.42s.18,1.1.55,1.43.89.49,1.58.49,1.22-.16,1.58-.49Z"/>
        <path d="m307.78,84.32c-.55-.5-.83-1.2-.83-2.09v-4.63h1.38v4.78c0,.67.18,1.18.53,1.54.35.36.86.54,1.52.54.76,0,1.37-.25,1.83-.74.46-.49.7-1.14.7-1.95v-4.17h1.38v7.33h-1.38v-1.29c-.24.45-.61.8-1.11,1.05-.5.25-1.07.38-1.72.38-.98,0-1.74-.25-2.29-.75Z"/>
        <path d="m317.19,84.47c-.63-.4-1.01-.96-1.14-1.67h1.14c.08.52.34.92.78,1.22.44.29,1.03.44,1.76.44.69,0,1.24-.14,1.65-.42s.62-.65.62-1.11c0-.37-.18-.66-.54-.88-.36-.21-.96-.39-1.79-.53s-1.5-.3-2-.47c-.49-.17-.85-.39-1.07-.64-.22-.25-.33-.57-.33-.95,0-.62.3-1.11.89-1.47.59-.36,1.42-.54,2.49-.54s1.88.2,2.52.59c.64.39,1.01.94,1.11,1.65h-1.14c-.09-.51-.35-.91-.78-1.2-.43-.29-.97-.43-1.63-.43s-1.13.11-1.52.34c-.38.22-.58.53-.58.9,0,.23.06.41.19.55.13.14.37.26.71.37.34.11.85.22,1.53.34,1.16.2,1.99.48,2.51.83.52.35.78.83.78,1.44,0,.7-.33,1.24-.98,1.64-.65.39-1.56.59-2.71.59-1.03,0-1.86-.2-2.49-.6Z"/>
        <path d="m326.11,84.53c-.32-.36-.48-.91-.48-1.66v-4.67h-1.32l.21-.61h1.12l.54-2.06h.82v2.06h2.05l-.19.61h-1.85v4.87c0,.91.34,1.36,1.02,1.36.36,0,.71-.09,1.05-.28v.64c-.42.18-.92.27-1.51.27-.65,0-1.13-.18-1.45-.54Z"/>
        <path d="m336.03,83.96c.46-.33.76-.78.89-1.35h1.12c-.19.77-.62,1.37-1.3,1.8-.68.43-1.51.65-2.48.65-.82,0-1.53-.15-2.15-.46-.61-.31-1.09-.75-1.42-1.32-.33-.57-.5-1.24-.5-2s.16-1.46.49-2.03c.33-.58.8-1.02,1.41-1.34.61-.31,1.32-.47,2.13-.47,1.22,0,2.17.33,2.85.99.68.66,1.04,1.58,1.07,2.78h-6.58v.08c0,.99.24,1.76.72,2.32.48.56,1.16.84,2.03.84.68,0,1.25-.16,1.71-.49Zm-3.58-5.24c-.46.44-.74,1.07-.84,1.88h5.23c-.11-.82-.39-1.45-.83-1.88-.44-.44-1.03-.66-1.76-.66s-1.35.22-1.81.67Z"/>
        <path d="m352.57,84.11c.19.34.39.58.58.7v.12h-1.63c-.17-.19-.33-.43-.47-.72-.14-.29-.3-.66-.47-1.11-.28-.74-.56-1.31-.85-1.71-.29-.4-.64-.67-1.06-.8h-3.15v4.34h-1.55v-10.46h4.32c1.44,0,2.54.25,3.33.75.78.5,1.17,1.27,1.17,2.31,0,1.54-.87,2.51-2.62,2.89.38.19.71.47.99.83.28.36.54.86.79,1.49.23.58.44,1.04.64,1.38Zm-4.27-4.22c1.95,0,2.93-.79,2.93-2.36s-.98-2.35-2.93-2.35h-2.8v4.71h2.8Z"/>
        <path d="m359.89,83.96c.46-.33.76-.78.89-1.35h1.12c-.19.77-.62,1.37-1.3,1.8-.68.43-1.51.65-2.48.65-.82,0-1.53-.15-2.15-.46-.61-.31-1.09-.75-1.42-1.32-.33-.57-.5-1.24-.5-2s.16-1.46.49-2.03c.33-.58.8-1.02,1.41-1.34.61-.31,1.32-.47,2.13-.47,1.22,0,2.17.33,2.85.99.68.66,1.04,1.58,1.07,2.78h-6.58v.08c0,.99.24,1.76.72,2.32.48.56,1.16.84,2.03.84.68,0,1.25-.16,1.71-.49Zm-3.58-5.24c-.46.44-.74,1.07-.84,1.88h5.23c-.11-.82-.39-1.45-.83-1.88-.44-.44-1.03-.66-1.76-.66s-1.35.22-1.81.67Z"/>
        <path d="m363.77,77.6h1.38v1.29c.24-.44.61-.79,1.11-1.05.5-.26,1.07-.39,1.7-.39.97,0,1.73.25,2.29.75.56.5.84,1.18.84,2.04v4.68h-1.38v-4.83c0-.65-.18-1.15-.54-1.5-.36-.35-.87-.53-1.52-.53-.76,0-1.36.25-1.82.74s-.68,1.14-.68,1.95v4.17h-1.38v-7.33Z"/>
        <path d="m374.71,84.6c-.64-.31-1.13-.76-1.48-1.34-.35-.58-.52-1.25-.52-2s.17-1.42.52-2c.35-.58.84-1.02,1.48-1.34.64-.31,1.38-.47,2.23-.47s1.59.16,2.24.47c.64.31,1.14.76,1.49,1.34s.52,1.25.52,2-.17,1.43-.52,2-.84,1.02-1.49,1.34c-.64.31-1.39.47-2.24.47s-1.59-.16-2.23-.47Zm4.32-.99c.51-.57.76-1.35.76-2.35s-.25-1.78-.76-2.35-1.21-.85-2.09-.85-1.58.28-2.09.85c-.5.57-.75,1.35-.75,2.35s.25,1.78.75,2.35c.5.57,1.2.85,2.09.85s1.58-.28,2.09-.85Z"/>
        <path d="m383.25,76.43c-.19-.17-.28-.39-.28-.67s.09-.5.28-.67c.19-.17.43-.25.73-.25s.54.08.73.25c.19.17.28.39.28.67s-.09.5-.28.67c-.19.17-.43.25-.73.25s-.54-.08-.73-.25Zm.04,1.17h1.38v7.33h-1.38v-7.33Z"/>
        <path d="m387.05,77.6h1.38v1.57c.19-.55.49-.97.9-1.27s.91-.45,1.5-.45c.23,0,.4.02.51.06l-.13.96c-.15-.08-.36-.12-.63-.12-.68,0-1.21.28-1.58.85-.38.57-.57,1.29-.57,2.15v3.57h-1.38v-7.33Z"/>
        <path d="m392.39,86.84c.26-.21.47-.49.64-.84.16-.35.24-.72.23-1.08-.1.06-.21.09-.33.09-.22,0-.4-.07-.54-.21s-.21-.32-.21-.54.07-.42.22-.56c.14-.14.34-.22.59-.22.28,0,.5.1.66.31s.24.49.24.86c0,.47-.12.93-.36,1.38-.24.45-.54.78-.91,1l-.22-.18Z"/>
        <path d="m399.67,74.46h3.96c1.44,0,2.55.26,3.33.79.79.53,1.18,1.34,1.18,2.42s-.39,1.88-1.17,2.41-1.89.79-3.35.79h-2.41v4.05h-1.55v-10.46Zm3.99,5.7c1.95,0,2.93-.83,2.93-2.48s-.98-2.5-2.93-2.5h-2.44v4.98h2.44Z"/>
        <path d="m410.09,84.49c-.5-.39-.76-.94-.76-1.66,0-.77.3-1.35.91-1.76.61-.4,1.49-.61,2.66-.61h2.18v-.54c0-.61-.18-1.07-.55-1.39-.37-.32-.9-.48-1.6-.48-.66,0-1.19.15-1.58.46-.4.3-.63.74-.7,1.29h-1.08c.1-.76.45-1.34,1.05-1.75.6-.41,1.4-.61,2.39-.61,1.12,0,1.97.23,2.56.68.59.45.88,1.11.88,1.97v2.42c0,.86.07,1.66.22,2.41h-1.29c-.11-.45-.18-.88-.21-1.29-.6.96-1.56,1.44-2.89,1.44-.97,0-1.7-.19-2.21-.58Zm3.8-.32c.37-.21.67-.5.88-.86.21-.36.32-.76.32-1.2v-1.03h-1.81c-.88,0-1.53.14-1.95.43s-.64.72-.64,1.31c0,.55.16.96.49,1.25s.81.43,1.45.43c.46,0,.87-.11,1.25-.32Z"/>
        <path d="m418.62,77.6h1.38v1.57c.19-.55.49-.97.9-1.27s.91-.45,1.5-.45c.23,0,.4.02.51.06l-.13.96c-.15-.08-.36-.12-.63-.12-.68,0-1.21.28-1.58.85-.38.57-.57,1.29-.57,2.15v3.57h-1.38v-7.33Z"/>
        <path d="m424.38,76.43c-.19-.17-.28-.39-.28-.67s.09-.5.28-.67c.19-.17.43-.25.73-.25s.54.08.73.25c.19.17.28.39.28.67s-.09.5-.28.67c-.19.17-.43.25-.73.25s-.54-.08-.73-.25Zm.04,1.17h1.38v7.33h-1.38v-7.33Z"/>
        <path d="m429.06,84.47c-.63-.4-1.01-.96-1.14-1.67h1.14c.08.52.34.92.78,1.22.44.29,1.03.44,1.76.44.69,0,1.24-.14,1.65-.42s.62-.65.62-1.11c0-.37-.18-.66-.54-.88-.36-.21-.96-.39-1.79-.53s-1.5-.3-2-.47c-.49-.17-.85-.39-1.07-.64-.22-.25-.33-.57-.33-.95,0-.62.3-1.11.89-1.47.59-.36,1.42-.54,2.49-.54s1.88.2,2.52.59c.64.39,1.01.94,1.11,1.65h-1.14c-.09-.51-.35-.91-.78-1.2-.43-.29-.97-.43-1.63-.43s-1.13.11-1.52.34c-.38.22-.58.53-.58.9,0,.23.06.41.19.55.13.14.37.26.71.37.34.11.85.22,1.53.34,1.16.2,1.99.48,2.51.83.52.35.78.83.78,1.44,0,.7-.33,1.24-.98,1.64-.65.39-1.56.59-2.71.59-1.03,0-1.86-.2-2.49-.6Z"/>
        <path d="m436.93,84.84c-.15-.15-.23-.35-.23-.59s.08-.42.24-.58c.16-.15.36-.23.6-.23s.45.08.61.23c.16.15.24.35.24.58s-.08.44-.24.59c-.16.15-.36.23-.61.23s-.45-.08-.61-.23Z"/>
      </g>
      <g>
        <path class="cls-2" d="m6,23.65C11.86,10.39,24.43,4.51,36.7,4.51"/>
        <path class="cls-2" d="m21.35,7.51v32.44l-9.63-.05c-6.26-.03-10.61-6.25-8.48-12.14h0"/>
      </g>
      <g>
        <path class="cls-2" d="m30.06,21.69c0-5.25,4.25-9.5,9.5-9.5s9.5,4.25,9.5,9.5"/>
        <path class="cls-2" d="m49.06,31.06c0,5.25-4.25,9.5-9.5,9.5s-9.5-4.25-9.5-9.5"/>
        <line class="cls-2" x1="30.06" y1="21.69" x2="30.06" y2="31.06"/>
        <line class="cls-2" x1="49.06" y1="21.69" x2="49.06" y2="31.06"/>
      </g>
      <g>
        <path class="cls-2" d="m76.42,31.06c0,5.25-4.25,9.5-9.5,9.5s-9.5-4.25-9.5-9.5"/>
        <line class="cls-2" x1="57.42" y1=".92" x2="57.42" y2="31.06"/>
        <line class="cls-2" x1="76.42" y1=".92" x2="76.42" y2="31.06"/>
      </g>
      <g>
        <path class="cls-2" d="m445.06,31.06c0,5.25-4.25,9.5-9.5,9.5s-9.5-4.25-9.5-9.5"/>
        <line class="cls-2" x1="426.06" y1=".92" x2="426.06" y2="31.06"/>
        <line class="cls-2" x1="445.06" y1=".92" x2="445.06" y2="31.06"/>
      </g>
      <g>
        <g>
          <path class="cls-2" d="m95.87,3.58c5.25,0,9.5,4.7,9.5,10.51,0,5.8-4.25,10.51-9.5,10.51"/>
          <line class="cls-2" x1="95.87" y1="3.58" x2="85.38" y2="3.58"/>
          <line class="cls-2" x1="95.87" y1="24.59" x2="85.38" y2="24.59"/>
        </g>
        <line class="cls-2" x1="90.2" y1="24.59" x2="87.32" y2="24.61"/>
        <path class="cls-2" d="m85.06,42.64l-.02-39.08s2.19.02,4.83.02"/>
        <path class="cls-2" d="m87.32,24.61h0c9.25,0,19.72,6.69,19.72,18.03"/>
      </g>
      <g>
        <g>
          <path class="cls-2" d="m295.92,3.56c5.25,0,9.5,4.7,9.5,10.51s-4.25,10.51-9.5,10.51"/>
          <line class="cls-2" x1="295.92" y1="3.56" x2="285.43" y2="3.56"/>
          <line class="cls-2" x1="295.92" y1="24.58" x2="285.43" y2="24.58"/>
        </g>
        <line class="cls-2" x1="290.25" y1="24.58" x2="287.37" y2="24.59"/>
        <path class="cls-2" d="m285.11,42.63l-.02-39.08s2.19.02,4.83.02"/>
        <path class="cls-2" d="m287.37,24.59h0c9.25,0,19.72,6.69,19.72,18.03"/>
      </g>
      <g>
        <g>
          <path class="cls-2" d="m520.09,3.56c5.25,0,9.5,4.7,9.5,10.51s-4.25,10.51-9.5,10.51"/>
          <line class="cls-2" x1="520.09" y1="3.56" x2="509.61" y2="3.56"/>
          <line class="cls-2" x1="520.09" y1="24.58" x2="509.61" y2="24.58"/>
        </g>
        <line class="cls-2" x1="514.42" y1="24.58" x2="511.54" y2="24.59"/>
        <path class="cls-2" d="m509.28,42.63l-.02-39.08s2.19.02,4.83.02"/>
        <path class="cls-2" d="m511.54,24.59h0c9.25,0,19.72,6.69,19.72,18.03"/>
      </g>
      <g>
        <g>
          <path class="cls-2" d="m238.85,3.56c5.25,0,9.5,4.7,9.5,10.51,0,5.8-4.25,10.51-9.5,10.51"/>
          <line class="cls-2" x1="238.85" y1="3.56" x2="228.36" y2="3.56"/>
          <line class="cls-2" x1="238.85" y1="24.58" x2="228.36" y2="24.58"/>
        </g>
        <line class="cls-2" x1="233.18" y1="24.58" x2="230.3" y2="24.59"/>
        <path class="cls-2" d="m228.04,42.63l-.02-39.08s2.19.02,4.83.02"/>
      </g>
      <polygon points="129.66 42.59 118.16 14.82 118.16 42.59 112.77 42.59 112.77 .92 118.02 .92 129.47 28.61 129.47 .92 134.85 .92 134.85 42.59 129.66 42.59"/>
      <g>
        <polyline class="cls-2" points="160.27 39.93 141.61 39.97 141.61 3.58 160.27 3.54"/>
        <line class="cls-2" x1="141.61" y1="23.15" x2="157.25" y2="23.15"/>
      </g>
      <g>
        <polyline class="cls-2" points="185.83 39.93 167.16 39.97 167.16 3.58 185.83 3.54"/>
        <line class="cls-2" x1="167.16" y1="23.15" x2="182.8" y2="23.15"/>
      </g>
      <g>
        <polyline class="cls-2" points="354.67 39.93 336.01 39.97 336.01 3.58 354.67 3.54"/>
        <line class="cls-2" x1="336.01" y1="23.15" x2="351.65" y2="23.15"/>
      </g>
      <g>
        <polyline class="cls-2" points="502.83 39.95 484.16 39.99 484.16 3.6 502.83 3.56"/>
        <line class="cls-2" x1="484.16" y1="23.17" x2="499.8" y2="23.17"/>
      </g>
      <path class="cls-2" d="m190.75,35.34c3.14,7.8,16.11,7.24,17.73-1.12,1.22-6.29-3.46-9.88-8.68-12.99-3.84-2.28-9.37-5.19-9.04-10.72.6-10.22,15.4-10.18,18.09-1.37"/>
      <path class="cls-2" d="m359.73,35.34c3.14,7.8,16.11,7.24,17.73-1.12,1.22-6.29-3.46-9.88-8.68-12.99-3.84-2.28-9.37-5.19-9.04-10.72.6-10.22,15.4-10.18,18.09-1.37"/>
      <g>
        <path class="cls-2" d="m256.82,12.22c0-5.25,4.25-9.5,9.5-9.5s9.5,4.25,9.5,9.5"/>
        <path class="cls-2" d="m275.83,31.28c0,5.25-4.25,9.5-9.5,9.5s-9.5-4.25-9.5-9.5"/>
        <line class="cls-2" x1="256.82" y1="12.22" x2="256.82" y2="31.28"/>
        <line class="cls-2" x1="275.83" y1="12.22" x2="275.83" y2="31.28"/>
      </g>
      <g>
        <path class="cls-2" d="m398.36,12.22c0-5.25,4.25-9.5,9.5-9.5s9.5,4.25,9.5,9.5"/>
        <path class="cls-2" d="m417.36,31.28c0,5.25-4.25,9.5-9.5,9.5s-9.5-4.25-9.5-9.5"/>
        <line class="cls-2" x1="398.36" y1="12.22" x2="398.36" y2="31.28"/>
        <line class="cls-2" x1="417.36" y1="12.22" x2="417.36" y2="31.28"/>
      </g>
      <g>
        <line class="cls-1" x1="319.1" y1="42.6" x2="319.1" y2="3.57"/>
        <line class="cls-2" x1="307.98" y1="3.61" x2="330.1" y2="3.65"/>
      </g>
      <g>
        <polyline class="cls-2" points="579.18 39.96 560.51 39.99 560.51 3.6 579.18 3.56"/>
        <line class="cls-2" x1="560.51" y1="23.17" x2="576.16" y2="23.17"/>
      </g>
      <g>
        <line class="cls-1" x1="543.61" y1="42.63" x2="543.61" y2="3.59"/>
        <line class="cls-2" x1="532.49" y1="3.63" x2="554.61" y2="3.67"/>
      </g>
      <polygon points="478.65 .86 473.13 .86 464.6 32.37 456.06 .86 450.43 .86 462.15 42.69 467.72 42.69 478.65 .86"/>
      <path class="cls-2" d="m588.77,23.74c-.15,21.98,31.65,21.37,31.64,5.07,0-6.37-6.04-12.68-16.09-11.68-7.68.77-19.74,2.33-20.6-6.14-1.09-10.71,17.35-10.1,17.35-2.24"/>
    </g>
  </g>
</svg>