<?xml version="1.0" encoding="UTF-8"?>
<svg id="Calque_2" data-name="Calque 2" xmlns="http://www.w3.org/2000/svg" viewBox="0 0 139.54 47.53">
  <defs>
    <style>
      .cls-1 {
        stroke-width: 7.13px;
      }

      .cls-1, .cls-2, .cls-3, .cls-4, .cls-5, .cls-6, .cls-7, .cls-8, .cls-9, .cls-10, .cls-11, .cls-12, .cls-13, .cls-14, .cls-15, .cls-16, .cls-17, .cls-18, .cls-19, .cls-20, .cls-21, .cls-22, .cls-23, .cls-24, .cls-25, .cls-26, .cls-27, .cls-28, .cls-29, .cls-30, .cls-31, .cls-32, .cls-33, .cls-34, .cls-35, .cls-36, .cls-37, .cls-38, .cls-39, .cls-40, .cls-41, .cls-42, .cls-43, .cls-44, .cls-45, .cls-46, .cls-47, .cls-48, .cls-49, .cls-50, .cls-51, .cls-52, .cls-53 {
        fill: none;
        stroke: #000;
      }

      .cls-1, .cls-2, .cls-3, .cls-4, .cls-5, .cls-6, .cls-8, .cls-9, .cls-11, .cls-12, .cls-13, .cls-14, .cls-15, .cls-16, .cls-17, .cls-18, .cls-19, .cls-20, .cls-21, .cls-22, .cls-23, .cls-24, .cls-25, .cls-26, .cls-28, .cls-29, .cls-30, .cls-31, .cls-32, .cls-33, .cls-34, .cls-35, .cls-36, .cls-37, .cls-39, .cls-40, .cls-41, .cls-42, .cls-43, .cls-44, .cls-45, .cls-46, .cls-47, .cls-48, .cls-49, .cls-50, .cls-51, .cls-52, .cls-53 {
        stroke-miterlimit: 10;
      }

      .cls-2 {
        stroke-width: 7.3px;
      }

      .cls-3 {
        stroke-width: 7.24px;
      }

      .cls-4 {
        stroke-width: 7.47px;
      }

      .cls-5 {
        stroke-width: 7.18px;
      }

      .cls-6 {
        stroke-width: 3px;
      }

      .cls-7 {
        stroke-width: 6.17px;
      }

      .cls-7, .cls-10, .cls-27 {
        stroke-miterlimit: 10;
      }

      .cls-8 {
        stroke-width: 6px;
      }

      .cls-9 {
        stroke-width: 6.23px;
      }

      .cls-10 {
        stroke-width: 6.06px;
      }

      .cls-11 {
        stroke-width: 7.64px;
      }

      .cls-12 {
        stroke-width: 7.75px;
      }

      .cls-54 {
        fill: #ff8500;
      }

      .cls-55 {
        fill: #e40000;
      }

      .cls-13 {
        stroke-width: 7.81px;
      }

      .cls-14 {
        stroke-width: 8.6px;
      }

      .cls-15 {
        stroke-width: 8.65px;
      }

      .cls-16 {
        stroke-width: 8.54px;
      }

      .cls-17 {
        stroke-width: 6.28px;
      }

      .cls-18 {
        stroke-width: 6.45px;
      }

      .cls-19 {
        stroke-width: 6.62px;
      }

      .cls-20 {
        stroke-width: 6.73px;
      }

      .cls-21 {
        stroke-width: 6.79px;
      }

      .cls-22 {
        stroke-width: 6.96px;
      }

      .cls-23 {
        stroke-width: 7.41px;
      }

      .cls-24 {
        stroke-width: 7.58px;
      }

      .cls-25 {
        stroke-width: 7.35px;
      }

      .cls-26 {
        stroke-width: 7.52px;
      }

      .cls-27 {
        stroke-width: 6.11px;
      }

      .cls-28 {
        stroke-width: 7.69px;
      }

      .cls-29 {
        stroke-width: 8.26px;
      }

      .cls-30 {
        stroke-width: 7.97px;
      }

      .cls-31 {
        stroke-width: 8.43px;
      }

      .cls-32 {
        stroke-width: 7.92px;
      }

      .cls-33 {
        stroke-width: 7.86px;
      }

      .cls-34 {
        stroke-width: 8.37px;
      }

      .cls-35 {
        stroke-width: 8.31px;
      }

      .cls-36 {
        stroke-width: 8.2px;
      }

      .cls-37 {
        stroke-width: 6.39px;
      }

      .cls-38 {
        stroke-miterlimit: 10;
        stroke-width: 6.34px;
      }

      .cls-39 {
        stroke-width: 6.51px;
      }

      .cls-40 {
        stroke-width: 6.56px;
      }

      .cls-41 {
        stroke-width: 6.68px;
      }

      .cls-42 {
        stroke-width: 8.88px;
      }

      .cls-43 {
        stroke-width: 8.76px;
      }

      .cls-44 {
        stroke-width: 8.82px;
      }

      .cls-45 {
        stroke-width: 7.07px;
      }

      .cls-46 {
        stroke-width: 8.71px;
      }

      .cls-47 {
        stroke-width: 8.14px;
      }

      .cls-48 {
        stroke-width: 8.09px;
      }

      .cls-49 {
        stroke-width: 8.03px;
      }

      .cls-50 {
        stroke-width: 8.48px;
      }

      .cls-51 {
        stroke-width: 6.9px;
      }

      .cls-52 {
        stroke-width: 6.85px;
      }

      .cls-53 {
        stroke-width: 7.02px;
      }
    </style>
  </defs>
  <g id="Calque_2-2" data-name="Calque 2">
    <g>
      <g>
        <ellipse class="cls-8" cx="93.92" cy="19.55" rx="5.64" ry="13.06"/>
        <ellipse class="cls-8" cx="68.92" cy="19.55" rx="5.64" ry="13.06"/>
      </g>
      <g>
        <ellipse class="cls-10" cx="94.57" cy="19.63" rx="5.69" ry="13.18"/>
        <ellipse class="cls-10" cx="69.33" cy="19.63" rx="5.69" ry="13.18"/>
      </g>
      <g>
        <ellipse class="cls-27" cx="95.21" cy="19.71" rx="5.74" ry="13.31"/>
        <ellipse class="cls-27" cx="69.74" cy="19.71" rx="5.74" ry="13.31"/>
      </g>
      <g>
        <ellipse class="cls-7" cx="95.86" cy="19.79" rx="5.8" ry="13.43"/>
        <ellipse class="cls-7" cx="70.15" cy="19.79" rx="5.8" ry="13.43"/>
      </g>
      <g>
        <ellipse class="cls-9" cx="96.5" cy="19.88" rx="5.85" ry="13.55"/>
        <ellipse class="cls-9" cx="70.55" cy="19.88" rx="5.85" ry="13.55"/>
      </g>
      <g>
        <ellipse class="cls-17" cx="97.14" cy="19.96" rx="5.9" ry="13.68"/>
        <ellipse class="cls-17" cx="70.96" cy="19.96" rx="5.9" ry="13.68"/>
      </g>
      <g>
        <ellipse class="cls-38" cx="97.79" cy="20.04" rx="5.95" ry="13.8"/>
        <ellipse class="cls-38" cx="71.37" cy="20.04" rx="5.95" ry="13.8"/>
      </g>
      <g>
        <ellipse class="cls-37" cx="98.43" cy="20.13" rx="6.01" ry="13.92"/>
        <ellipse class="cls-37" cx="71.78" cy="20.13" rx="6.01" ry="13.92"/>
      </g>
      <g>
        <ellipse class="cls-18" cx="99.07" cy="20.21" rx="6.06" ry="14.04"/>
        <ellipse class="cls-18" cx="72.19" cy="20.21" rx="6.06" ry="14.04"/>
      </g>
      <g>
        <ellipse class="cls-39" cx="99.72" cy="20.29" rx="6.11" ry="14.17"/>
        <ellipse class="cls-39" cx="72.6" cy="20.29" rx="6.11" ry="14.17"/>
      </g>
      <g>
        <ellipse class="cls-40" cx="100.36" cy="20.37" rx="6.17" ry="14.29"/>
        <ellipse class="cls-40" cx="73.01" cy="20.37" rx="6.17" ry="14.29"/>
      </g>
      <g>
        <ellipse class="cls-19" cx="101.01" cy="20.46" rx="6.22" ry="14.41"/>
        <ellipse class="cls-19" cx="73.42" cy="20.46" rx="6.22" ry="14.41"/>
      </g>
      <g>
        <ellipse class="cls-41" cx="101.65" cy="20.54" rx="6.27" ry="14.53"/>
        <ellipse class="cls-41" cx="73.82" cy="20.54" rx="6.27" ry="14.53"/>
      </g>
      <g>
        <ellipse class="cls-20" cx="102.29" cy="20.62" rx="6.33" ry="14.66"/>
        <ellipse class="cls-20" cx="74.23" cy="20.62" rx="6.33" ry="14.66"/>
      </g>
      <g>
        <ellipse class="cls-21" cx="102.94" cy="20.7" rx="6.38" ry="14.78"/>
        <ellipse class="cls-21" cx="74.64" cy="20.7" rx="6.38" ry="14.78"/>
      </g>
      <g>
        <ellipse class="cls-52" cx="103.58" cy="20.79" rx="6.43" ry="14.9"/>
        <ellipse class="cls-52" cx="75.05" cy="20.79" rx="6.43" ry="14.9"/>
      </g>
      <g>
        <ellipse class="cls-51" cx="104.22" cy="20.87" rx="6.48" ry="15.03"/>
        <ellipse class="cls-51" cx="75.46" cy="20.87" rx="6.48" ry="15.03"/>
      </g>
      <g>
        <ellipse class="cls-22" cx="104.87" cy="20.95" rx="6.54" ry="15.15"/>
        <ellipse class="cls-22" cx="75.87" cy="20.95" rx="6.54" ry="15.15"/>
      </g>
      <g>
        <ellipse class="cls-53" cx="105.51" cy="21.03" rx="6.59" ry="15.27"/>
        <ellipse class="cls-53" cx="76.28" cy="21.03" rx="6.59" ry="15.27"/>
      </g>
      <g>
        <ellipse class="cls-45" cx="106.16" cy="21.12" rx="6.64" ry="15.39"/>
        <ellipse class="cls-45" cx="76.68" cy="21.12" rx="6.64" ry="15.39"/>
      </g>
      <g>
        <ellipse class="cls-1" cx="106.8" cy="21.2" rx="6.7" ry="15.52"/>
        <ellipse class="cls-1" cx="77.09" cy="21.2" rx="6.7" ry="15.52"/>
      </g>
      <g>
        <ellipse class="cls-5" cx="107.44" cy="21.28" rx="6.75" ry="15.64"/>
        <ellipse class="cls-5" cx="77.5" cy="21.28" rx="6.75" ry="15.64"/>
      </g>
      <g>
        <ellipse class="cls-3" cx="108.09" cy="21.37" rx="6.8" ry="15.76"/>
        <ellipse class="cls-3" cx="77.91" cy="21.37" rx="6.8" ry="15.76"/>
      </g>
      <g>
        <ellipse class="cls-2" cx="108.73" cy="21.45" rx="6.86" ry="15.89"/>
        <ellipse class="cls-2" cx="78.32" cy="21.45" rx="6.86" ry="15.89"/>
      </g>
      <g>
        <ellipse class="cls-25" cx="109.37" cy="21.53" rx="6.91" ry="16.01"/>
        <ellipse class="cls-25" cx="78.73" cy="21.53" rx="6.91" ry="16.01"/>
      </g>
      <g>
        <ellipse class="cls-23" cx="110.02" cy="21.61" rx="6.96" ry="16.13"/>
        <ellipse class="cls-23" cx="79.14" cy="21.61" rx="6.96" ry="16.13"/>
      </g>
      <g>
        <ellipse class="cls-4" cx="110.66" cy="21.7" rx="7.01" ry="16.25"/>
        <ellipse class="cls-4" cx="79.55" cy="21.7" rx="7.01" ry="16.25"/>
      </g>
      <g>
        <ellipse class="cls-26" cx="111.31" cy="21.78" rx="7.07" ry="16.38"/>
        <ellipse class="cls-26" cx="79.95" cy="21.78" rx="7.07" ry="16.38"/>
      </g>
      <g>
        <ellipse class="cls-24" cx="111.95" cy="21.86" rx="7.12" ry="16.5"/>
        <ellipse class="cls-24" cx="80.36" cy="21.86" rx="7.12" ry="16.5"/>
      </g>
      <g>
        <ellipse class="cls-11" cx="112.59" cy="21.94" rx="7.17" ry="16.62"/>
        <ellipse class="cls-11" cx="80.77" cy="21.94" rx="7.17" ry="16.62"/>
      </g>
      <g>
        <ellipse class="cls-28" cx="113.24" cy="22.03" rx="7.23" ry="16.75"/>
        <ellipse class="cls-28" cx="81.18" cy="22.03" rx="7.23" ry="16.75"/>
      </g>
      <g>
        <ellipse class="cls-12" cx="113.88" cy="22.11" rx="7.28" ry="16.87"/>
        <ellipse class="cls-12" cx="81.59" cy="22.11" rx="7.28" ry="16.87"/>
      </g>
      <g>
        <ellipse class="cls-13" cx="114.53" cy="22.19" rx="7.33" ry="16.99"/>
        <ellipse class="cls-13" cx="82" cy="22.19" rx="7.33" ry="16.99"/>
      </g>
      <g>
        <ellipse class="cls-33" cx="115.17" cy="22.28" rx="7.39" ry="17.11"/>
        <ellipse class="cls-33" cx="82.41" cy="22.28" rx="7.39" ry="17.11"/>
      </g>
      <g>
        <ellipse class="cls-32" cx="115.81" cy="22.36" rx="7.44" ry="17.24"/>
        <ellipse class="cls-32" cx="82.81" cy="22.36" rx="7.44" ry="17.24"/>
      </g>
      <g>
        <ellipse class="cls-30" cx="116.46" cy="22.44" rx="7.49" ry="17.36"/>
        <ellipse class="cls-30" cx="83.22" cy="22.44" rx="7.49" ry="17.36"/>
      </g>
      <g>
        <ellipse class="cls-49" cx="117.1" cy="22.52" rx="7.54" ry="17.48"/>
        <ellipse class="cls-49" cx="83.63" cy="22.52" rx="7.54" ry="17.48"/>
      </g>
      <g>
        <ellipse class="cls-48" cx="117.74" cy="22.61" rx="7.6" ry="17.61"/>
        <ellipse class="cls-48" cx="84.04" cy="22.61" rx="7.6" ry="17.61"/>
      </g>
      <g>
        <ellipse class="cls-47" cx="118.39" cy="22.69" rx="7.65" ry="17.73"/>
        <ellipse class="cls-47" cx="84.45" cy="22.69" rx="7.65" ry="17.73"/>
      </g>
      <g>
        <ellipse class="cls-36" cx="119.03" cy="22.77" rx="7.7" ry="17.85"/>
        <ellipse class="cls-36" cx="84.86" cy="22.77" rx="7.7" ry="17.85"/>
      </g>
      <g>
        <ellipse class="cls-29" cx="119.68" cy="22.85" rx="7.76" ry="17.97"/>
        <ellipse class="cls-29" cx="85.27" cy="22.85" rx="7.76" ry="17.97"/>
      </g>
      <g>
        <ellipse class="cls-35" cx="120.32" cy="22.94" rx="7.81" ry="18.1"/>
        <ellipse class="cls-35" cx="85.68" cy="22.94" rx="7.81" ry="18.1"/>
      </g>
      <g>
        <ellipse class="cls-34" cx="120.96" cy="23.02" rx="7.86" ry="18.22"/>
        <ellipse class="cls-34" cx="86.08" cy="23.02" rx="7.86" ry="18.22"/>
      </g>
      <g>
        <ellipse class="cls-31" cx="121.61" cy="23.1" rx="7.92" ry="18.34"/>
        <ellipse class="cls-31" cx="86.49" cy="23.1" rx="7.92" ry="18.34"/>
      </g>
      <g>
        <ellipse class="cls-50" cx="122.25" cy="23.18" rx="7.97" ry="18.47"/>
        <ellipse class="cls-50" cx="86.9" cy="23.18" rx="7.97" ry="18.47"/>
      </g>
      <g>
        <ellipse class="cls-16" cx="122.89" cy="23.27" rx="8.02" ry="18.59"/>
        <ellipse class="cls-16" cx="87.31" cy="23.27" rx="8.02" ry="18.59"/>
      </g>
      <g>
        <ellipse class="cls-14" cx="123.54" cy="23.35" rx="8.07" ry="18.71"/>
        <ellipse class="cls-14" cx="87.72" cy="23.35" rx="8.07" ry="18.71"/>
      </g>
      <g>
        <ellipse class="cls-15" cx="124.18" cy="23.43" rx="8.13" ry="18.83"/>
        <ellipse class="cls-15" cx="88.13" cy="23.43" rx="8.13" ry="18.83"/>
      </g>
      <g>
        <ellipse class="cls-46" cx="124.83" cy="23.52" rx="8.18" ry="18.96"/>
        <ellipse class="cls-46" cx="88.54" cy="23.52" rx="8.18" ry="18.96"/>
      </g>
      <g>
        <ellipse class="cls-43" cx="125.47" cy="23.6" rx="8.23" ry="19.08"/>
        <ellipse class="cls-43" cx="88.94" cy="23.6" rx="8.23" ry="19.08"/>
      </g>
      <g>
        <ellipse class="cls-44" cx="126.11" cy="23.68" rx="8.29" ry="19.2"/>
        <ellipse class="cls-44" cx="89.35" cy="23.68" rx="8.29" ry="19.2"/>
      </g>
      <g>
        <ellipse class="cls-42" cx="126.76" cy="23.76" rx="8.34" ry="19.32"/>
        <ellipse class="cls-42" cx="89.76" cy="23.76" rx="8.34" ry="19.32"/>
      </g>
    </g>
    <path class="cls-6" d="m74.56,19.55s-7.21-.57-13.96,15.2c-6.36,14.86-42.5-13.62-56.64-7.33-3.9,1.73-4.59,7.93,8.99,3.27,5.31-1.82,17.67-7.8,32.87-4.45,19.1,4.21,26.46,3.8,26.46,3.8"/>
    <g>
      <g>
        <ellipse class="cls-55" cx="126.76" cy="24.59" rx="8.34" ry="19.32"/>
        <path class="cls-54" d="m133.49,13.15l-13.04,24.04c-1.02-2.71-1.71-6.08-1.94-9.8l13.3-18.18c.64,1.12,1.2,2.45,1.68,3.94Z"/>
        <path class="cls-54" d="m134.89,20.27l-10.46,22.87c-.92-.62-1.78-1.59-2.53-2.86l12.32-24.34c.3,1.36.52,2.81.67,4.33Z"/>
      </g>
      <g>
        <ellipse class="cls-55" cx="89.76" cy="24.59" rx="8.34" ry="19.32"/>
        <path class="cls-54" d="m96.49,13.15l-13.04,24.04c-1.02-2.71-1.71-6.08-1.94-9.8l13.3-18.18c.64,1.12,1.2,2.45,1.68,3.94Z"/>
        <path class="cls-54" d="m97.89,20.27l-10.46,22.87c-.92-.62-1.78-1.59-2.53-2.86l12.32-24.34c.3,1.36.52,2.81.67,4.33Z"/>
      </g>
    </g>
  </g>
</svg>