<?xml version="1.0" encoding="UTF-8"?>
<svg id="Calque_2" data-name="Calque 2" xmlns="http://www.w3.org/2000/svg" viewBox="0 0 270.63 122.78">
  <defs>
    <style>
      .cls-1 {
        fill: #fff;
      }

      .cls-1, .cls-2 {
        stroke: #000;
        stroke-miterlimit: 10;
        stroke-width: 5.38px;
      }

      .cls-2 {
        fill: none;
      }
    </style>
  </defs>
  <g id="Calque_1-2" data-name="Calque 1">
    <g>
      <g>
        <path d="m5.99,49.59h2.46v16.54h-2.46v-16.54Z"/>
        <path d="m12.93,49.59h6.43c3.09,0,5.43.68,7.04,2.03,1.61,1.35,2.41,3.34,2.41,5.95s-.81,4.83-2.42,6.32c-1.61,1.49-3.91,2.23-6.89,2.23h-6.57v-16.54Zm6.9,15.4c2.09,0,3.7-.64,4.83-1.91,1.13-1.28,1.69-3.11,1.69-5.5,0-2.25-.55-3.96-1.65-5.11s-2.72-1.74-4.87-1.74h-4.44v14.27h4.44Z"/>
        <path d="m31.88,49.59h14.01v1.13h-11.55v5.98h10.2v1.11h-10.2v7.18h11.55v1.13h-14.01v-16.54Z"/>
        <path d="m48.29,49.59h2.48l10.06,12.83v-12.83h2.08v16.54h-1.23l-11.31-14.39v14.39h-2.08v-16.54Z"/>
        <path d="m71.87,50.72h-6.99v-1.13h16.42v1.13h-6.97v15.4h-2.46v-15.4Z"/>
        <path d="m84.22,49.59h2.46v16.54h-2.46v-16.54Z"/>
        <path d="m96.6,50.72h-6.99v-1.13h16.42v1.13h-6.97v15.4h-2.46v-15.4Z"/>
        <path d="m107.99,49.59h14.01v1.13h-11.55v5.98h10.2v1.11h-10.2v7.18h11.55v1.13h-14.01v-16.54Zm10.16-5.29c.36-.41.78-.61,1.25-.61.24,0,.42.06.56.18.13.12.2.26.2.44,0,.33-.3.7-.9,1.11l-3.61,2.53h-.83l3.33-3.64Z"/>
        <path d="m129.03,49.59h2.72l6.59,13.96,7.09-13.96h1.61l-8.53,16.77h-1.28l-8.2-16.77Z"/>
        <path d="m149.84,49.59h2.46v16.54h-2.46v-16.54Z"/>
        <path d="m158.65,64.96c-1.37-.93-2.13-2.25-2.27-3.97h2.13c.11,1.45.63,2.52,1.57,3.2.94.68,2.32,1.03,4.15,1.03,1.62,0,2.86-.28,3.72-.85.86-.57,1.29-1.38,1.29-2.43,0-.63-.17-1.16-.5-1.58-.33-.42-.89-.8-1.69-1.13-.8-.33-1.91-.64-3.34-.92-2.28-.44-4-1.01-5.16-1.71-1.16-.7-1.74-1.69-1.74-2.96,0-1.42.66-2.48,1.98-3.2,1.32-.72,3.06-1.08,5.22-1.08s3.89.39,5.11,1.17c1.22.78,1.93,1.86,2.11,3.25h-2.1c-.24-1.15-.79-1.98-1.67-2.5-.87-.52-2.08-.78-3.63-.78s-2.63.25-3.41.73c-.78.49-1.17,1.17-1.17,2.03,0,.52.15.96.45,1.32.3.36.82.69,1.57.99.75.3,1.81.59,3.2.87,1.7.35,3.07.72,4.1,1.13,1.03.41,1.81.94,2.33,1.59.52.65.78,1.48.78,2.49,0,1.48-.67,2.63-2,3.46-1.33.83-3.14,1.24-5.42,1.24s-4.25-.46-5.62-1.39Z"/>
        <path d="m176.64,64.53c-1.22-1.22-1.83-2.98-1.83-5.28v-9.66h2.46v10.21c0,1.76.42,3.11,1.25,4.04.83.93,2.19,1.39,4.06,1.39s3.18-.46,4.03-1.37c.84-.91,1.26-2.27,1.26-4.06v-10.21h2.46v9.66c0,2.3-.61,4.06-1.82,5.28-1.21,1.22-3.19,1.83-5.93,1.83s-4.72-.61-5.94-1.83Z"/>
        <path d="m193.82,49.59h14.01v1.13h-11.55v5.98h10.2v1.11h-10.2v7.18h11.55v1.13h-14.01v-16.54Z"/>
        <path d="m210.24,49.59h2.46v15.4h10.39v1.13h-12.85v-16.54Z"/>
        <path d="m225.26,49.59h2.46v15.4h10.39v1.13h-12.85v-16.54Z"/>
        <path d="m240.29,49.59h14.01v1.13h-11.55v5.98h10.2v1.11h-10.2v7.18h11.55v1.13h-14.01v-16.54Z"/>
        <path d="m262.01,61.98h5.34v.63h-5.34v-.63Z"/>
        <path d="m9.86,82.8c-.96-.94-1.44-2.28-1.44-4.02s.48-3.02,1.43-3.95c.95-.93,2.31-1.39,4.09-1.39,1.45,0,2.62.3,3.53.91.91.61,1.45,1.46,1.61,2.54h-1.35c-.17-.86-.58-1.53-1.24-2.01-.66-.48-1.49-.73-2.48-.73-1.3,0-2.29.4-2.98,1.2-.69.8-1.04,1.94-1.04,3.42s.35,2.68,1.05,3.49c.7.81,1.7,1.22,3.01,1.22,1,0,1.82-.24,2.47-.72.65-.48,1.06-1.15,1.23-2.02h1.35c-.17,1.09-.71,1.93-1.61,2.54-.91.61-2.07.91-3.5.91-1.78,0-3.15-.47-4.11-1.41Z"/>
        <path d="m22.4,83.74c-.64-.31-1.13-.76-1.48-1.34-.35-.58-.52-1.25-.52-2s.17-1.42.52-2c.35-.58.84-1.02,1.48-1.34.64-.31,1.38-.47,2.23-.47s1.59.16,2.24.47c.64.31,1.14.76,1.49,1.34s.52,1.25.52,2-.17,1.43-.52,2-.84,1.02-1.49,1.34c-.64.31-1.39.47-2.24.47s-1.59-.16-2.23-.47Zm4.32-.99c.51-.57.76-1.35.76-2.35s-.25-1.78-.76-2.35-1.21-.85-2.09-.85-1.58.28-2.09.85c-.5.57-.75,1.35-.75,2.35s.25,1.78.75,2.35c.5.57,1.2.85,2.09.85s1.58-.28,2.09-.85Z"/>
        <path d="m30.66,76.74h1.38v1.29c.24-.44.61-.79,1.11-1.05.5-.26,1.07-.39,1.7-.39.97,0,1.73.25,2.29.75.56.5.84,1.18.84,2.04v4.68h-1.38v-4.83c0-.65-.18-1.15-.54-1.5-.36-.35-.87-.53-1.52-.53-.76,0-1.36.25-1.82.74s-.68,1.14-.68,1.95v4.17h-1.38v-7.33Z"/>
        <path d="m41.56,83.75c-.63-.31-1.12-.75-1.46-1.32-.34-.57-.51-1.25-.51-2.03s.17-1.45.51-2.03c.34-.57.82-1.01,1.45-1.32.63-.31,1.37-.46,2.21-.46,1.04,0,1.89.22,2.56.65.67.43,1.09,1.03,1.25,1.8h-1.12c-.14-.57-.45-1.02-.92-1.35-.47-.33-1.04-.49-1.71-.49-.88,0-1.57.29-2.09.86-.51.57-.77,1.35-.77,2.34s.26,1.77.77,2.34c.51.57,1.21.86,2.09.86.66,0,1.23-.16,1.7-.49.48-.33.79-.78.93-1.35h1.12c-.16.77-.58,1.37-1.26,1.8-.68.43-1.52.65-2.54.65-.85,0-1.59-.15-2.22-.46Z"/>
        <path d="m54.9,83.1c.46-.33.76-.78.89-1.35h1.12c-.19.77-.62,1.37-1.3,1.8-.68.43-1.51.65-2.48.65-.82,0-1.53-.15-2.15-.46-.61-.31-1.09-.75-1.42-1.32-.33-.57-.5-1.24-.5-2s.16-1.46.49-2.03c.33-.58.8-1.02,1.41-1.34.61-.31,1.32-.47,2.13-.47,1.22,0,2.17.33,2.85.99.68.66,1.04,1.58,1.07,2.78h-6.58v.08c0,.99.24,1.76.72,2.32.48.56,1.16.84,2.03.84.68,0,1.25-.16,1.71-.49Zm-3.58-5.24c-.46.44-.74,1.07-.84,1.88h5.23c-.11-.82-.39-1.45-.83-1.88-.44-.44-1.03-.66-1.76-.66s-1.35.22-1.81.67Z"/>
        <path d="m58.76,76.74h1.38v1.36c.28-.47.68-.84,1.2-1.11.52-.27,1.11-.4,1.77-.4,1.17,0,2.08.34,2.74,1.01.66.67.99,1.6.99,2.77s-.33,2.13-1,2.82c-.67.68-1.58,1.02-2.74,1.02-.68,0-1.27-.13-1.78-.4-.51-.27-.91-.66-1.2-1.17v4.26h-1.38v-10.17Zm5.44,6.47c.41-.27.72-.66.94-1.15s.33-1.06.33-1.71c0-.98-.24-1.75-.71-2.31-.47-.56-1.11-.84-1.92-.84-.53,0-1,.13-1.41.4-.41.27-.73.65-.96,1.14-.22.49-.34,1.05-.34,1.69,0,.98.24,1.75.72,2.33.48.58,1.13.87,1.94.87.53,0,1-.14,1.41-.41Z"/>
        <path d="m69.57,83.67c-.32-.36-.48-.91-.48-1.66v-4.67h-1.32l.21-.61h1.12l.54-2.06h.82v2.06h2.05l-.19.61h-1.85v4.87c0,.91.34,1.36,1.02,1.36.36,0,.71-.09,1.05-.28v.64c-.42.18-.92.27-1.51.27-.65,0-1.13-.18-1.45-.54Z"/>
        <path d="m74.25,75.57c-.19-.17-.28-.39-.28-.67s.09-.5.28-.67c.19-.17.43-.25.73-.25s.54.08.73.25c.19.17.28.39.28.67s-.09.5-.28.67c-.19.17-.43.25-.73.25s-.54-.08-.73-.25Zm.04,1.17h1.38v7.33h-1.38v-7.33Z"/>
        <path d="m79.78,83.74c-.64-.31-1.13-.76-1.48-1.34-.35-.58-.52-1.25-.52-2s.17-1.42.52-2c.35-.58.84-1.02,1.48-1.34.64-.31,1.38-.47,2.23-.47s1.59.16,2.24.47c.64.31,1.14.76,1.49,1.34s.52,1.25.52,2-.17,1.43-.52,2-.84,1.02-1.49,1.34c-.64.31-1.39.47-2.24.47s-1.59-.16-2.23-.47Zm4.32-.99c.51-.57.76-1.35.76-2.35s-.25-1.78-.76-2.35-1.21-.85-2.09-.85-1.58.28-2.09.85c-.5.57-.75,1.35-.75,2.35s.25,1.78.75,2.35c.5.57,1.2.85,2.09.85s1.58-.28,2.09-.85Z"/>
        <path d="m88.03,76.74h1.38v1.29c.24-.44.61-.79,1.11-1.05.5-.26,1.07-.39,1.7-.39.97,0,1.73.25,2.29.75.56.5.84,1.18.84,2.04v4.68h-1.38v-4.83c0-.65-.18-1.15-.54-1.5-.36-.35-.87-.53-1.52-.53-.76,0-1.36.25-1.82.74s-.68,1.14-.68,1.95v4.17h-1.38v-7.33Z"/>
        <path d="m102.8,83.72c-.58-.32-1.04-.78-1.36-1.35-.32-.58-.49-1.24-.49-1.97s.15-1.42.46-2c.31-.57.74-1.02,1.31-1.34.56-.32,1.21-.48,1.95-.48.67,0,1.26.13,1.78.4.52.26.92.64,1.21,1.11v-4.25h1.38v10.21h-1.38v-1.33c-.28.48-.67.84-1.16,1.1-.49.25-1.06.38-1.71.38-.75,0-1.41-.16-2-.49Zm3.59-.51c.4-.26.72-.64.94-1.12.22-.48.34-1.04.34-1.67s-.11-1.22-.34-1.71c-.22-.49-.54-.87-.96-1.14-.41-.26-.89-.4-1.43-.4-.8,0-1.43.29-1.91.86-.47.57-.71,1.35-.71,2.33,0,.65.11,1.22.33,1.7s.53.87.93,1.14c.4.27.87.4,1.4.4s.99-.13,1.4-.4Z"/>
        <path d="m110.92,76.81c.26-.21.47-.49.64-.84.16-.35.24-.71.23-1.08-.1.06-.21.09-.33.09-.22,0-.4-.07-.54-.21s-.21-.32-.21-.54c0-.23.07-.42.22-.56.14-.14.34-.22.59-.22.28,0,.5.1.66.31.16.21.24.49.24.86,0,.47-.12.93-.36,1.38-.24.45-.54.78-.91,1l-.22-.18Z"/>
        <path d="m114.76,83.45c-.55-.5-.83-1.2-.83-2.09v-4.63h1.38v4.78c0,.67.18,1.18.53,1.54.35.36.86.54,1.52.54.76,0,1.37-.25,1.83-.74.46-.49.7-1.14.7-1.95v-4.17h1.38v7.33h-1.38v-1.29c-.24.45-.61.8-1.11,1.05-.5.25-1.07.38-1.72.38-.98,0-1.74-.25-2.29-.75Z"/>
        <path d="m123.33,76.74h1.38v1.29c.24-.44.61-.79,1.11-1.05.5-.26,1.07-.39,1.7-.39.97,0,1.73.25,2.29.75.56.5.84,1.18.84,2.04v4.68h-1.38v-4.83c0-.65-.18-1.15-.54-1.5-.36-.35-.87-.53-1.52-.53-.76,0-1.36.25-1.82.74s-.68,1.14-.68,1.95v4.17h-1.38v-7.33Z"/>
        <path d="m138.11,83.1c.46-.33.76-.78.89-1.35h1.12c-.19.77-.62,1.37-1.3,1.8-.68.43-1.51.65-2.48.65-.82,0-1.53-.15-2.15-.46-.61-.31-1.09-.75-1.42-1.32-.33-.57-.5-1.24-.5-2s.16-1.46.49-2.03c.33-.58.8-1.02,1.41-1.34.61-.31,1.32-.47,2.13-.47,1.22,0,2.17.33,2.85.99.68.66,1.04,1.58,1.07,2.78h-6.58v.08c0,.99.24,1.76.72,2.32.48.56,1.16.84,2.03.84.68,0,1.25-.16,1.71-.49Zm-3.58-5.24c-.46.44-.74,1.07-.84,1.88h5.23c-.11-.82-.39-1.45-.83-1.88-.44-.44-1.03-.66-1.76-.66s-1.35.22-1.81.67Z"/>
        <path d="m146.25,75.57c-.19-.17-.28-.39-.28-.67s.09-.5.28-.67c.19-.17.43-.25.73-.25s.54.08.73.25c.19.17.28.39.28.67s-.09.5-.28.67c-.19.17-.43.25-.73.25s-.54-.08-.73-.25Zm.04,1.17h1.38v7.33h-1.38v-7.33Z"/>
        <path d="m151.62,83.72c-.58-.32-1.04-.78-1.36-1.35-.32-.58-.49-1.24-.49-1.97s.15-1.42.46-2c.31-.57.74-1.02,1.31-1.34.56-.32,1.21-.48,1.95-.48.67,0,1.26.13,1.78.4.52.26.92.64,1.21,1.11v-4.25h1.38v10.21h-1.38v-1.33c-.28.48-.67.84-1.16,1.1-.49.25-1.06.38-1.71.38-.75,0-1.41-.16-2-.49Zm3.59-.51c.4-.26.72-.64.94-1.12.22-.48.34-1.04.34-1.67s-.11-1.22-.34-1.71c-.22-.49-.54-.87-.96-1.14-.41-.26-.89-.4-1.43-.4-.8,0-1.43.29-1.91.86-.47.57-.71,1.35-.71,2.33,0,.65.11,1.22.33,1.7s.53.87.93,1.14c.4.27.87.4,1.4.4s.99-.13,1.4-.4Z"/>
        <path d="m165.47,83.1c.46-.33.76-.78.89-1.35h1.12c-.19.77-.62,1.37-1.3,1.8-.68.43-1.51.65-2.48.65-.82,0-1.53-.15-2.15-.46-.61-.31-1.09-.75-1.42-1.32-.33-.57-.5-1.24-.5-2s.16-1.46.49-2.03c.33-.58.8-1.02,1.41-1.34.61-.31,1.32-.47,2.13-.47,1.22,0,2.17.33,2.85.99.68.66,1.04,1.58,1.07,2.78h-6.58v.08c0,.99.24,1.76.72,2.32.48.56,1.16.84,2.03.84.68,0,1.25-.16,1.71-.49Zm-3.58-5.24c-.46.44-.74,1.07-.84,1.88h5.23c-.11-.82-.39-1.45-.83-1.88-.44-.44-1.03-.66-1.76-.66s-1.35.22-1.81.67Z"/>
        <path d="m169.35,76.74h1.38v1.29c.24-.44.61-.79,1.11-1.05.5-.26,1.07-.39,1.7-.39.97,0,1.73.25,2.29.75.56.5.84,1.18.84,2.04v4.68h-1.38v-4.83c0-.65-.18-1.15-.54-1.5-.36-.35-.87-.53-1.52-.53-.76,0-1.36.25-1.82.74s-.68,1.14-.68,1.95v4.17h-1.38v-7.33Z"/>
        <path d="m179.54,83.67c-.32-.36-.48-.91-.48-1.66v-4.67h-1.32l.21-.61h1.12l.54-2.06h.82v2.06h2.05l-.19.61h-1.85v4.87c0,.91.34,1.36,1.02,1.36.36,0,.71-.09,1.05-.28v.64c-.42.18-.92.27-1.51.27-.65,0-1.13-.18-1.45-.54Z"/>
        <path d="m184.22,75.57c-.19-.17-.28-.39-.28-.67s.09-.5.28-.67c.19-.17.43-.25.73-.25s.54.08.73.25c.19.17.28.39.28.67s-.09.5-.28.67c-.19.17-.43.25-.73.25s-.54-.08-.73-.25Zm.04,1.17h1.38v7.33h-1.38v-7.33Z"/>
        <path d="m189,83.67c-.32-.36-.48-.91-.48-1.66v-4.67h-1.32l.21-.61h1.12l.54-2.06h.82v2.06h2.05l-.19.61h-1.85v4.87c0,.91.34,1.36,1.02,1.36.36,0,.71-.09,1.05-.28v.64c-.42.18-.92.27-1.51.27-.65,0-1.13-.18-1.45-.54Z"/>
        <path d="m198.92,83.1c.46-.33.76-.78.89-1.35h1.12c-.19.77-.62,1.37-1.3,1.8-.68.43-1.51.65-2.48.65-.82,0-1.53-.15-2.15-.46-.61-.31-1.09-.75-1.42-1.32-.33-.57-.5-1.24-.5-2s.16-1.46.49-2.03c.33-.58.8-1.02,1.41-1.34.61-.31,1.32-.47,2.13-.47,1.22,0,2.17.33,2.85.99.68.66,1.04,1.58,1.07,2.78h-6.58v.08c0,.99.24,1.76.72,2.32.48.56,1.16.84,2.03.84.68,0,1.25-.16,1.71-.49Zm-3.58-5.24c-.46.44-.74,1.07-.84,1.88h5.23c-.11-.82-.39-1.45-.83-1.88-.44-.44-1.03-.66-1.76-.66s-1.35.22-1.81.67Zm3.59-4.48c.23-.26.49-.39.79-.39.15,0,.27.04.35.11.08.08.13.17.13.28,0,.21-.19.44-.57.7l-2.29,1.6h-.52l2.11-2.3Z"/>
        <path d="m205.85,76.74h1.49l3.05,5.91,2.99-5.91h.81l-3.74,7.47h-.64l-3.96-7.47Z"/>
        <path d="m215.66,75.57c-.19-.17-.28-.39-.28-.67s.09-.5.28-.67c.19-.17.43-.25.73-.25s.54.08.73.25c.19.17.28.39.28.67s-.09.5-.28.67c-.19.17-.43.25-.73.25s-.54-.08-.73-.25Zm.04,1.17h1.38v7.33h-1.38v-7.33Z"/>
        <path d="m220.35,83.61c-.63-.4-1.01-.96-1.14-1.67h1.14c.08.52.34.92.78,1.22.44.29,1.03.44,1.76.44.69,0,1.24-.14,1.65-.42s.62-.65.62-1.11c0-.37-.18-.66-.54-.88-.36-.21-.96-.39-1.79-.53s-1.5-.3-2-.47c-.49-.17-.85-.39-1.07-.64-.22-.25-.33-.57-.33-.95,0-.62.3-1.11.89-1.47.59-.36,1.42-.54,2.49-.54s1.88.2,2.52.59c.64.39,1.01.94,1.11,1.65h-1.14c-.09-.51-.35-.91-.78-1.2-.43-.29-.97-.43-1.63-.43s-1.13.11-1.52.34c-.38.22-.58.53-.58.9,0,.23.06.41.19.55.13.14.37.26.71.37.34.11.85.22,1.53.34,1.16.2,1.99.48,2.51.83.52.35.78.83.78,1.44,0,.7-.33,1.24-.98,1.64-.65.39-1.56.59-2.71.59-1.03,0-1.86-.2-2.49-.6Z"/>
        <path d="m228.97,83.45c-.55-.5-.83-1.2-.83-2.09v-4.63h1.38v4.78c0,.67.18,1.18.53,1.54.35.36.86.54,1.52.54.76,0,1.37-.25,1.83-.74.46-.49.7-1.14.7-1.95v-4.17h1.38v7.33h-1.38v-1.29c-.24.45-.61.8-1.11,1.05-.5.25-1.07.38-1.72.38-.98,0-1.74-.25-2.29-.75Z"/>
        <path d="m243.07,83.1c.46-.33.76-.78.89-1.35h1.12c-.19.77-.62,1.37-1.3,1.8-.68.43-1.51.65-2.48.65-.82,0-1.53-.15-2.15-.46-.61-.31-1.09-.75-1.42-1.32-.33-.57-.5-1.24-.5-2s.16-1.46.49-2.03c.33-.58.8-1.02,1.41-1.34.61-.31,1.32-.47,2.13-.47,1.22,0,2.17.33,2.85.99.68.66,1.04,1.58,1.07,2.78h-6.58v.08c0,.99.24,1.76.72,2.32.48.56,1.16.84,2.03.84.68,0,1.25-.16,1.71-.49Zm-3.58-5.24c-.46.44-.74,1.07-.84,1.88h5.23c-.11-.82-.39-1.45-.83-1.88-.44-.44-1.03-.66-1.76-.66s-1.35.22-1.81.67Z"/>
        <path d="m247.34,73.85h1.38v10.21h-1.38v-10.21Z"/>
        <path d="m251.58,73.85h1.38v10.21h-1.38v-10.21Z"/>
        <path d="m260.97,83.1c.46-.33.76-.78.89-1.35h1.12c-.19.77-.62,1.37-1.3,1.8-.68.43-1.51.65-2.48.65-.82,0-1.53-.15-2.15-.46-.61-.31-1.09-.75-1.42-1.32-.33-.57-.5-1.24-.5-2s.16-1.46.49-2.03c.33-.58.8-1.02,1.41-1.34.61-.31,1.32-.47,2.13-.47,1.22,0,2.17.33,2.85.99.68.66,1.04,1.58,1.07,2.78h-6.58v.08c0,.99.24,1.76.72,2.32.48.56,1.16.84,2.03.84.68,0,1.25-.16,1.71-.49Zm-3.58-5.24c-.46.44-.74,1.07-.84,1.88h5.23c-.11-.82-.39-1.45-.83-1.88-.44-.44-1.03-.66-1.76-.66s-1.35.22-1.81.67Z"/>
        <path d="m2.8,94.68h1.38v1.36c.28-.47.68-.84,1.2-1.11.52-.27,1.11-.4,1.77-.4,1.17,0,2.08.34,2.74,1.01.66.67.99,1.6.99,2.77s-.33,2.13-1,2.82c-.67.68-1.58,1.02-2.74,1.02-.68,0-1.27-.13-1.78-.4-.51-.27-.91-.66-1.2-1.17v4.26h-1.38v-10.17Zm5.44,6.47c.41-.27.72-.66.94-1.15s.33-1.06.33-1.71c0-.98-.24-1.75-.71-2.31-.47-.56-1.11-.84-1.92-.84-.53,0-1,.13-1.41.4-.41.27-.73.65-.96,1.14-.22.49-.34,1.05-.34,1.69,0,.98.24,1.75.72,2.33.48.58,1.13.87,1.94.87.53,0,1-.14,1.41-.41Z"/>
        <path d="m14.36,101.68c-.64-.31-1.13-.76-1.48-1.34-.35-.58-.52-1.25-.52-2s.17-1.42.52-2c.35-.58.84-1.02,1.48-1.34.64-.31,1.38-.47,2.23-.47s1.59.16,2.24.47c.64.31,1.14.76,1.49,1.34s.52,1.25.52,2-.17,1.43-.52,2-.84,1.02-1.49,1.34c-.64.31-1.39.47-2.24.47s-1.59-.16-2.23-.47Zm4.32-.99c.51-.57.76-1.35.76-2.35s-.25-1.78-.76-2.35-1.21-.85-2.09-.85-1.58.28-2.09.85c-.5.57-.75,1.35-.75,2.35s.25,1.78.75,2.35c.5.57,1.2.85,2.09.85s1.58-.28,2.09-.85Z"/>
        <path d="m23.26,101.4c-.55-.5-.83-1.2-.83-2.09v-4.63h1.38v4.78c0,.67.18,1.18.53,1.54.35.36.86.54,1.52.54.76,0,1.37-.25,1.83-.74.46-.49.7-1.14.7-1.95v-4.17h1.38v7.33h-1.38v-1.29c-.24.45-.61.8-1.11,1.05-.5.25-1.07.38-1.72.38-.98,0-1.74-.25-2.29-.75Z"/>
        <path d="m31.79,94.68h1.38v1.57c.19-.55.49-.97.9-1.27s.91-.45,1.5-.45c.23,0,.4.02.51.06l-.13.96c-.15-.08-.36-.12-.63-.12-.68,0-1.21.28-1.58.85-.38.57-.57,1.29-.57,2.15v3.57h-1.38v-7.33Z"/>
        <path d="m41.63,91.79h1.38v10.21h-1.38v-10.21Z"/>
        <path d="m51.01,101.04c.46-.33.76-.78.89-1.35h1.12c-.19.77-.62,1.37-1.3,1.8-.68.43-1.51.65-2.48.65-.82,0-1.53-.15-2.15-.46-.61-.31-1.09-.75-1.42-1.32-.33-.57-.5-1.24-.5-2s.16-1.46.49-2.03c.33-.58.8-1.02,1.41-1.34.61-.31,1.32-.47,2.13-.47,1.22,0,2.17.33,2.85.99.68.66,1.04,1.58,1.07,2.78h-6.58v.08c0,.99.24,1.76.72,2.32.48.56,1.16.84,2.03.84.68,0,1.25-.16,1.71-.49Zm-3.58-5.24c-.46.44-.74,1.07-.84,1.88h5.23c-.11-.82-.39-1.45-.83-1.88-.44-.44-1.03-.66-1.76-.66s-1.35.22-1.81.67Z"/>
        <path d="m60.52,101.69c-.63-.31-1.12-.75-1.46-1.32-.34-.57-.51-1.25-.51-2.03s.17-1.45.51-2.03c.34-.57.82-1.01,1.45-1.32.63-.31,1.37-.46,2.21-.46,1.04,0,1.89.22,2.56.65.67.43,1.09,1.03,1.25,1.8h-1.12c-.14-.57-.45-1.02-.92-1.35-.47-.33-1.04-.49-1.71-.49-.88,0-1.57.29-2.09.86-.51.57-.77,1.35-.77,2.34s.26,1.77.77,2.34c.51.57,1.21.86,2.09.86.66,0,1.23-.16,1.7-.49.48-.33.79-.78.93-1.35h1.12c-.16.77-.58,1.37-1.26,1.8-.68.43-1.52.65-2.54.65-.85,0-1.59-.15-2.22-.46Z"/>
        <path d="m68.61,93.51c-.19-.17-.28-.39-.28-.67s.09-.5.28-.67c.19-.17.43-.25.73-.25s.54.08.73.25c.19.17.28.39.28.67s-.09.5-.28.67c-.19.17-.43.25-.73.25s-.54-.08-.73-.25Zm.04,1.17h1.38v7.33h-1.38v-7.33Z"/>
        <path d="m72.46,94.68h1.38v1.29c.24-.44.61-.79,1.11-1.05.5-.26,1.07-.39,1.7-.39.97,0,1.73.25,2.29.75.56.5.84,1.18.84,2.04v4.68h-1.38v-4.83c0-.65-.18-1.15-.54-1.5-.36-.35-.87-.53-1.52-.53-.76,0-1.36.25-1.82.74s-.68,1.14-.68,1.95v4.17h-1.38v-7.33Z"/>
        <path d="m87.23,101.04c.46-.33.76-.78.89-1.35h1.12c-.19.77-.62,1.37-1.3,1.8-.68.43-1.51.65-2.48.65-.82,0-1.53-.15-2.15-.46-.61-.31-1.09-.75-1.42-1.32-.33-.57-.5-1.24-.5-2s.16-1.46.49-2.03c.33-.58.8-1.02,1.41-1.34.61-.31,1.32-.47,2.13-.47,1.22,0,2.17.33,2.85.99.68.66,1.04,1.58,1.07,2.78h-6.58v.08c0,.99.24,1.76.72,2.32.48.56,1.16.84,2.03.84.68,0,1.25-.16,1.71-.49Zm-3.58-5.24c-.46.44-.74,1.07-.84,1.88h5.23c-.11-.82-.39-1.45-.83-1.88-.44-.44-1.03-.66-1.76-.66s-1.35.22-1.81.67Zm3.59-4.48c.23-.26.49-.39.79-.39.15,0,.27.04.35.11.08.08.13.17.13.28,0,.21-.19.44-.57.7l-2.29,1.6h-.52l2.11-2.3Z"/>
        <path d="m91.11,94.68h1.35v1.24c.22-.44.56-.78,1.01-1.02.45-.24.97-.37,1.56-.37.71,0,1.29.15,1.76.45.46.3.79.73.98,1.3.23-.59.58-1.03,1.04-1.32.46-.29,1.02-.43,1.67-.43.96,0,1.69.24,2.2.71s.76,1.15.76,2.03v4.74h-1.38v-4.87c0-.61-.17-1.09-.52-1.45-.34-.36-.81-.54-1.38-.54-.68,0-1.22.28-1.61.84-.4.56-.6,1.34-.6,2.33v3.69h-1.35v-4.23c0-.85-.17-1.5-.52-1.95-.34-.45-.83-.68-1.47-.68s-1.16.24-1.55.73c-.38.48-.58,1.14-.58,1.97v4.17h-1.38v-7.33Z"/>
        <path d="m105.94,101.57c-.5-.39-.76-.94-.76-1.66,0-.77.3-1.35.91-1.76.61-.4,1.49-.61,2.66-.61h2.18v-.54c0-.61-.18-1.07-.55-1.39-.37-.32-.9-.48-1.6-.48-.66,0-1.19.15-1.58.46-.4.3-.63.74-.7,1.29h-1.08c.1-.76.45-1.34,1.05-1.75.6-.41,1.4-.61,2.39-.61,1.12,0,1.97.23,2.56.68.59.45.88,1.11.88,1.97v2.42c0,.86.07,1.66.22,2.41h-1.29c-.11-.45-.18-.88-.21-1.29-.6.96-1.56,1.44-2.89,1.44-.97,0-1.7-.19-2.21-.58Zm3.8-.32c.37-.21.67-.5.88-.86.21-.36.32-.76.32-1.2v-1.03h-1.81c-.88,0-1.53.14-1.95.43s-.64.72-.64,1.31c0,.55.16.96.49,1.25s.81.43,1.45.43c.46,0,.87-.11,1.25-.32Z"/>
        <path d="m124.01,101.04c.46-.33.76-.78.89-1.35h1.12c-.19.77-.62,1.37-1.3,1.8-.68.43-1.51.65-2.48.65-.82,0-1.53-.15-2.15-.46-.61-.31-1.09-.75-1.42-1.32-.33-.57-.5-1.24-.5-2s.16-1.46.49-2.03c.33-.58.8-1.02,1.41-1.34.61-.31,1.32-.47,2.13-.47,1.22,0,2.17.33,2.85.99.68.66,1.04,1.58,1.07,2.78h-6.58v.08c0,.99.24,1.76.72,2.32.48.56,1.16.84,2.03.84.68,0,1.25-.16,1.71-.49Zm-3.58-5.24c-.46.44-.74,1.07-.84,1.88h5.23c-.11-.82-.39-1.45-.83-1.88-.44-.44-1.03-.66-1.76-.66s-1.35.22-1.81.67Z"/>
        <path d="m127.89,94.68h1.38v1.29c.24-.44.61-.79,1.11-1.05.5-.26,1.07-.39,1.7-.39.97,0,1.73.25,2.29.75.56.5.84,1.18.84,2.04v4.68h-1.38v-4.83c0-.65-.18-1.15-.54-1.5-.36-.35-.87-.53-1.52-.53-.76,0-1.36.25-1.82.74s-.68,1.14-.68,1.95v4.17h-1.38v-7.33Z"/>
        <path d="m141.11,94.68h1.38v1.36c.28-.47.68-.84,1.2-1.11.52-.27,1.11-.4,1.77-.4,1.17,0,2.08.34,2.74,1.01.66.67.99,1.6.99,2.77s-.33,2.13-1,2.82c-.67.68-1.58,1.02-2.74,1.02-.68,0-1.27-.13-1.78-.4-.51-.27-.91-.66-1.2-1.17v4.26h-1.38v-10.17Zm5.44,6.47c.41-.27.72-.66.94-1.15s.33-1.06.33-1.71c0-.98-.24-1.75-.71-2.31-.47-.56-1.11-.84-1.92-.84-.53,0-1,.13-1.41.4-.41.27-.73.65-.96,1.14-.22.49-.34,1.05-.34,1.69,0,.98.24,1.75.72,2.33.48.58,1.13.87,1.94.87.53,0,1-.14,1.41-.41Z"/>
        <path d="m151.36,91.79h1.38v10.21h-1.38v-10.21Z"/>
        <path d="m160.74,101.04c.46-.33.76-.78.89-1.35h1.12c-.19.77-.62,1.37-1.3,1.8-.68.43-1.51.65-2.48.65-.82,0-1.53-.15-2.15-.46-.61-.31-1.09-.75-1.42-1.32-.33-.57-.5-1.24-.5-2s.16-1.46.49-2.03c.33-.58.8-1.02,1.41-1.34.61-.31,1.32-.47,2.13-.47,1.22,0,2.17.33,2.85.99.68.66,1.04,1.58,1.07,2.78h-6.58v.08c0,.99.24,1.76.72,2.32.48.56,1.16.84,2.03.84.68,0,1.25-.16,1.71-.49Zm-3.58-5.24c-.46.44-.74,1.07-.84,1.88h5.23c-.11-.82-.39-1.45-.83-1.88-.44-.44-1.03-.66-1.76-.66s-1.35.22-1.81.67Z"/>
        <path d="m164.91,93.51c-.19-.17-.28-.39-.28-.67s.09-.5.28-.67c.19-.17.43-.25.73-.25s.54.08.73.25c.19.17.28.39.28.67s-.09.5-.28.67c-.19.17-.43.25-.73.25s-.54-.08-.73-.25Zm.04,1.17h1.38v7.33h-1.38v-7.33Z"/>
        <path d="m168.75,94.68h1.38v1.29c.24-.44.61-.79,1.11-1.05.5-.26,1.07-.39,1.7-.39.97,0,1.73.25,2.29.75.56.5.84,1.18.84,2.04v4.68h-1.38v-4.83c0-.65-.18-1.15-.54-1.5-.36-.35-.87-.53-1.52-.53-.76,0-1.36.25-1.82.74s-.68,1.14-.68,1.95v4.17h-1.38v-7.33Z"/>
        <path d="m182.54,101.57c-.5-.39-.76-.94-.76-1.66,0-.77.3-1.35.91-1.76.61-.4,1.49-.61,2.66-.61h2.18v-.54c0-.61-.18-1.07-.55-1.39-.37-.32-.9-.48-1.6-.48-.66,0-1.19.15-1.58.46-.4.3-.63.74-.7,1.29h-1.08c.1-.76.45-1.34,1.05-1.75.6-.41,1.4-.61,2.39-.61,1.12,0,1.97.23,2.56.68.59.45.88,1.11.88,1.97v2.42c0,.86.07,1.66.22,2.41h-1.29c-.11-.45-.18-.88-.21-1.29-.6.96-1.56,1.44-2.89,1.44-.97,0-1.7-.19-2.21-.58Zm3.8-.32c.37-.21.67-.5.88-.86.21-.36.32-.76.32-1.2v-1.03h-1.81c-.88,0-1.53.14-1.95.43s-.64.72-.64,1.31c0,.55.16.96.49,1.25s.81.43,1.45.43c.46,0,.87-.11,1.25-.32Z"/>
        <path d="m191.4,93.51c-.19-.17-.28-.39-.28-.67s.09-.5.28-.67c.19-.17.43-.25.73-.25s.54.08.73.25c.19.17.28.39.28.67s-.09.5-.28.67c-.19.17-.43.25-.73.25s-.54-.08-.73-.25Zm.04,1.17h1.38v7.33h-1.38v-7.33Z"/>
        <path d="m195.19,94.68h1.38v1.57c.19-.55.49-.97.9-1.27s.91-.45,1.5-.45c.23,0,.4.02.51.06l-.13.96c-.15-.08-.36-.12-.63-.12-.68,0-1.21.28-1.58.85-.38.57-.57,1.29-.57,2.15v3.57h-1.38v-7.33Z"/>
        <path d="m206.33,101.68c-.64-.31-1.13-.76-1.48-1.34-.35-.58-.52-1.25-.52-2s.17-1.42.52-2c.35-.58.84-1.02,1.48-1.34.64-.31,1.38-.47,2.23-.47s1.59.16,2.24.47c.64.31,1.14.76,1.49,1.34s.52,1.25.52,2-.17,1.43-.52,2-.84,1.02-1.49,1.34c-.64.31-1.39.47-2.24.47s-1.59-.16-2.23-.47Zm4.32-.99c.51-.57.76-1.35.76-2.35s-.25-1.78-.76-2.35-1.21-.85-2.09-.85-1.58.28-2.09.85c-.5.57-.75,1.35-.75,2.35s.25,1.78.75,2.35c.5.57,1.2.85,2.09.85s1.58-.28,2.09-.85Z"/>
        <path d="m214.54,94.68h1.38v1.57c.19-.55.49-.97.9-1.27s.91-.45,1.5-.45c.23,0,.4.02.51.06l-.13.96c-.15-.08-.36-.12-.63-.12-.68,0-1.21.28-1.58.85-.38.57-.57,1.29-.57,2.15v3.57h-1.38v-7.33Z"/>
        <path d="m226.72,94.63c-.47,0-.87.06-1.2.19.52.2.92.48,1.2.85.28.37.42.81.42,1.33,0,.72-.29,1.32-.86,1.8-.57.48-1.44.75-2.59.78-.44.02-.81.08-1.11.19-.3.1-.45.23-.45.38,0,.13.1.23.29.29.19.06.44.1.74.1h.64c1.24,0,2.19.17,2.86.52.67.34,1.01.83,1.01,1.47,0,.48-.17.89-.52,1.25-.34.35-.83.63-1.47.82-.63.19-1.37.29-2.21.29s-1.49-.08-2.09-.25c-.59-.16-1.05-.39-1.38-.69s-.49-.63-.49-1.02c0-.42.2-.77.6-1.05.4-.28,1.02-.48,1.85-.59-.46-.06-.8-.18-1.02-.35-.22-.17-.33-.38-.33-.62s.13-.45.4-.64.62-.31,1.06-.36c-.67-.18-1.16-.47-1.49-.87-.32-.4-.49-.89-.49-1.47,0-.75.32-1.34.96-1.79.64-.45,1.48-.67,2.54-.67.46,0,.86.03,1.2.1.27-.25.58-.44.93-.57s.72-.19,1.11-.19.73.04.99.13v.85c-.33-.15-.71-.22-1.14-.22Zm-5.23,7.15c-.59.26-.88.62-.88,1.08s.26.79.79,1.07c.53.27,1.23.41,2.11.41s1.65-.16,2.21-.48c.55-.32.83-.73.83-1.23,0-.42-.24-.73-.71-.94-.47-.21-1.1-.31-1.89-.31-1.05,0-1.86.13-2.45.4Zm3.74-3.3c.37-.32.55-.8.55-1.43s-.18-1.09-.55-1.42c-.37-.33-.9-.49-1.58-.49s-1.2.17-1.57.49c-.37.33-.55.8-.55,1.42s.18,1.1.55,1.43.89.49,1.58.49,1.22-.16,1.58-.49Z"/>
        <path d="m230.2,101.57c-.5-.39-.76-.94-.76-1.66,0-.77.3-1.35.91-1.76.61-.4,1.49-.61,2.66-.61h2.18v-.54c0-.61-.18-1.07-.55-1.39-.37-.32-.9-.48-1.6-.48-.66,0-1.19.15-1.58.46-.4.3-.63.74-.7,1.29h-1.08c.1-.76.45-1.34,1.05-1.75.6-.41,1.4-.61,2.39-.61,1.12,0,1.97.23,2.56.68.59.45.88,1.11.88,1.97v2.42c0,.86.07,1.66.22,2.41h-1.29c-.11-.45-.18-.88-.21-1.29-.6.96-1.56,1.44-2.89,1.44-.97,0-1.7-.19-2.21-.58Zm3.8-.32c.37-.21.67-.5.88-.86.21-.36.32-.76.32-1.2v-1.03h-1.81c-.88,0-1.53.14-1.95.43s-.64.72-.64,1.31c0,.55.16.96.49,1.25s.81.43,1.45.43c.46,0,.87-.11,1.25-.32Z"/>
        <path d="m238.77,94.68h1.38v1.29c.24-.44.61-.79,1.11-1.05.5-.26,1.07-.39,1.7-.39.97,0,1.73.25,2.29.75.56.5.84,1.18.84,2.04v4.68h-1.38v-4.83c0-.65-.18-1.15-.54-1.5-.36-.35-.87-.53-1.52-.53-.76,0-1.36.25-1.82.74s-.68,1.14-.68,1.95v4.17h-1.38v-7.33Z"/>
        <path d="m248.31,93.51c-.19-.17-.28-.39-.28-.67s.09-.5.28-.67c.19-.17.43-.25.73-.25s.54.08.73.25c.19.17.28.39.28.67s-.09.5-.28.67c-.19.17-.43.25-.73.25s-.54-.08-.73-.25Zm.04,1.17h1.38v7.33h-1.38v-7.33Z"/>
        <path d="m253,101.55c-.63-.4-1.01-.96-1.14-1.67h1.14c.08.52.34.92.78,1.22.44.29,1.03.44,1.76.44.69,0,1.24-.14,1.65-.42s.62-.65.62-1.11c0-.37-.18-.66-.54-.88-.36-.21-.96-.39-1.79-.53s-1.5-.3-2-.47c-.49-.17-.85-.39-1.07-.64-.22-.25-.33-.57-.33-.95,0-.62.3-1.11.89-1.47.59-.36,1.42-.54,2.49-.54s1.88.2,2.52.59c.64.39,1.01.94,1.11,1.65h-1.14c-.09-.51-.35-.91-.78-1.2-.43-.29-.97-.43-1.63-.43s-1.13.11-1.52.34c-.38.22-.58.53-.58.9,0,.23.06.41.19.55.13.14.37.26.71.37.34.11.85.22,1.53.34,1.16.2,1.99.48,2.51.83.52.35.78.83.78,1.44,0,.7-.33,1.24-.98,1.64-.65.39-1.56.59-2.71.59-1.03,0-1.86-.2-2.49-.6Z"/>
        <path d="m266.8,101.04c.46-.33.76-.78.89-1.35h1.12c-.19.77-.62,1.37-1.3,1.8-.68.43-1.51.65-2.48.65-.82,0-1.53-.15-2.15-.46-.61-.31-1.09-.75-1.42-1.32-.33-.57-.5-1.24-.5-2s.16-1.46.49-2.03c.33-.58.8-1.02,1.41-1.34.61-.31,1.32-.47,2.13-.47,1.22,0,2.17.33,2.85.99.68.66,1.04,1.58,1.07,2.78h-6.58v.08c0,.99.24,1.76.72,2.32.48.56,1.16.84,2.03.84.68,0,1.25-.16,1.71-.49Zm-3.58-5.24c-.46.44-.74,1.07-.84,1.88h5.23c-.11-.82-.39-1.45-.83-1.88-.44-.44-1.03-.66-1.76-.66s-1.35.22-1.81.67Zm3.59-4.48c.23-.26.49-.39.79-.39.15,0,.27.04.35.11.08.08.13.17.13.28,0,.21-.19.44-.57.7l-2.29,1.6h-.52l2.11-2.3Z"/>
        <path d="m36.99,119.63c-.63-.31-1.12-.75-1.46-1.32-.34-.57-.51-1.25-.51-2.03s.17-1.45.51-2.03c.34-.57.82-1.01,1.45-1.32.63-.31,1.37-.46,2.21-.46,1.04,0,1.89.22,2.56.65.67.43,1.09,1.03,1.25,1.8h-1.12c-.14-.57-.45-1.02-.92-1.35-.47-.33-1.04-.49-1.71-.49-.88,0-1.57.29-2.09.86-.51.57-.77,1.35-.77,2.34s.26,1.77.77,2.34c.51.57,1.21.86,2.09.86.66,0,1.23-.16,1.7-.49.48-.33.79-.78.93-1.35h1.12c-.16.77-.58,1.37-1.26,1.8-.68.43-1.52.65-2.54.65-.85,0-1.59-.15-2.22-.46Z"/>
        <path d="m44.79,109.73h1.38v4.29c.26-.49.65-.87,1.16-1.14.51-.27,1.09-.41,1.74-.41.96,0,1.7.24,2.24.71.53.47.8,1.13.8,1.98v4.78h-1.38v-4.92c0-.62-.17-1.1-.51-1.43-.34-.34-.82-.51-1.45-.51-.79,0-1.42.26-1.89.78-.47.52-.71,1.2-.71,2.05v4.04h-1.38v-10.21Z"/>
        <path d="m54.59,119.51c-.5-.39-.76-.94-.76-1.66,0-.77.3-1.35.91-1.76.61-.4,1.49-.61,2.66-.61h2.18v-.54c0-.61-.18-1.07-.55-1.39-.37-.32-.9-.48-1.6-.48-.66,0-1.19.15-1.58.46-.4.3-.63.74-.7,1.29h-1.08c.1-.76.45-1.34,1.05-1.75.6-.41,1.4-.61,2.39-.61,1.12,0,1.97.23,2.56.68.59.45.88,1.11.88,1.97v2.42c0,.86.07,1.66.22,2.41h-1.29c-.11-.45-.18-.88-.21-1.29-.6.96-1.56,1.44-2.89,1.44-.97,0-1.7-.19-2.21-.58Zm3.8-.32c.37-.21.67-.5.88-.86.21-.36.32-.76.32-1.2v-1.03h-1.81c-.88,0-1.53.14-1.95.43s-.64.72-.64,1.31c0,.55.16.96.49,1.25s.81.43,1.45.43c.46,0,.87-.11,1.25-.32Z"/>
        <path d="m69.56,118.52c-.29.51-.69.9-1.2,1.17-.51.27-1.1.4-1.78.4-1.16,0-2.07-.34-2.74-1.02-.67-.68-1-1.62-1-2.82s.33-2.1.99-2.77c.66-.67,1.58-1.01,2.74-1.01.66,0,1.25.13,1.76.4.52.27.92.64,1.21,1.11v-1.36h1.38v10.17h-1.38v-4.26Zm-.73.1c.48-.58.73-1.36.73-2.32,0-.64-.11-1.2-.34-1.69-.22-.49-.54-.87-.96-1.14-.41-.27-.88-.4-1.41-.4-.81,0-1.45.28-1.92.84-.47.56-.71,1.33-.71,2.31,0,.65.11,1.22.33,1.71s.53.88.94,1.15.88.41,1.41.41c.81,0,1.45-.29,1.94-.88Z"/>
        <path d="m73.67,119.34c-.55-.5-.83-1.2-.83-2.09v-4.63h1.38v4.78c0,.67.18,1.18.53,1.54.35.36.86.54,1.52.54.76,0,1.37-.25,1.83-.74.46-.49.7-1.14.7-1.95v-4.17h1.38v7.33h-1.38v-1.29c-.24.45-.61.8-1.11,1.05-.5.25-1.07.38-1.72.38-.98,0-1.74-.25-2.29-.75Z"/>
        <path d="m87.76,118.98c.46-.33.76-.78.89-1.35h1.12c-.19.77-.62,1.37-1.3,1.8-.68.43-1.51.65-2.48.65-.82,0-1.53-.15-2.15-.46-.61-.31-1.09-.75-1.42-1.32-.33-.57-.5-1.24-.5-2s.16-1.46.49-2.03c.33-.58.8-1.02,1.41-1.34.61-.31,1.32-.47,2.13-.47,1.22,0,2.17.33,2.85.99.68.66,1.04,1.58,1.07,2.78h-6.58v.08c0,.99.24,1.76.72,2.32.48.56,1.16.84,2.03.84.68,0,1.25-.16,1.71-.49Zm-3.58-5.24c-.46.44-.74,1.07-.84,1.88h5.23c-.11-.82-.39-1.45-.83-1.88-.44-.44-1.03-.66-1.76-.66s-1.35.22-1.81.67Z"/>
        <path d="m96.18,119.51c-.5-.39-.76-.94-.76-1.66,0-.77.3-1.35.91-1.76.61-.4,1.49-.61,2.66-.61h2.18v-.54c0-.61-.18-1.07-.55-1.39-.37-.32-.9-.48-1.6-.48-.66,0-1.19.15-1.58.46-.4.3-.63.74-.7,1.29h-1.08c.1-.76.45-1.34,1.05-1.75.6-.41,1.4-.61,2.39-.61,1.12,0,1.97.23,2.56.68.59.45.88,1.11.88,1.97v2.42c0,.86.07,1.66.22,2.41h-1.29c-.11-.45-.18-.88-.21-1.29-.6.96-1.56,1.44-2.89,1.44-.97,0-1.7-.19-2.21-.58Zm3.8-.32c.37-.21.67-.5.88-.86.21-.36.32-.76.32-1.2v-1.03h-1.81c-.88,0-1.53.14-1.95.43s-.64.72-.64,1.31c0,.55.16.96.49,1.25s.81.43,1.45.43c.46,0,.87-.11,1.25-.32Z"/>
        <path d="m104.76,112.62h1.38v1.29c.24-.44.61-.79,1.11-1.05.5-.26,1.07-.39,1.7-.39.97,0,1.73.25,2.29.75.56.5.84,1.18.84,2.04v4.68h-1.38v-4.83c0-.65-.18-1.15-.54-1.5-.36-.35-.87-.53-1.52-.53-.76,0-1.36.25-1.82.74s-.68,1.14-.68,1.95v4.17h-1.38v-7.33Z"/>
        <path d="m114.01,112.62h1.38v1.29c.24-.44.61-.79,1.11-1.05.5-.26,1.07-.39,1.7-.39.97,0,1.73.25,2.29.75.56.5.84,1.18.84,2.04v4.68h-1.38v-4.83c0-.65-.18-1.15-.54-1.5-.36-.35-.87-.53-1.52-.53-.76,0-1.36.25-1.82.74s-.68,1.14-.68,1.95v4.17h-1.38v-7.33Z"/>
        <path d="m128.79,118.98c.46-.33.76-.78.89-1.35h1.12c-.19.77-.62,1.37-1.3,1.8-.68.43-1.51.65-2.48.65-.82,0-1.53-.15-2.15-.46-.61-.31-1.09-.75-1.42-1.32-.33-.57-.5-1.24-.5-2s.16-1.46.49-2.03c.33-.58.8-1.02,1.41-1.34.61-.31,1.32-.47,2.13-.47,1.22,0,2.17.33,2.85.99.68.66,1.04,1.58,1.07,2.78h-6.58v.08c0,.99.24,1.76.72,2.32.48.56,1.16.84,2.03.84.68,0,1.25-.16,1.71-.49Zm-3.58-5.24c-.46.44-.74,1.07-.84,1.88h5.23c-.11-.82-.39-1.45-.83-1.88-.44-.44-1.03-.66-1.76-.66s-1.35.22-1.81.67Zm3.59-4.48c.23-.26.49-.39.79-.39.15,0,.27.04.35.11.08.08.13.17.13.28,0,.21-.19.44-.57.7l-2.29,1.6h-.52l2.11-2.3Z"/>
        <path d="m138.19,118.98c.46-.33.76-.78.89-1.35h1.12c-.19.77-.62,1.37-1.3,1.8-.68.43-1.51.65-2.48.65-.82,0-1.53-.15-2.15-.46-.61-.31-1.09-.75-1.42-1.32-.33-.57-.5-1.24-.5-2s.16-1.46.49-2.03c.33-.58.8-1.02,1.41-1.34.61-.31,1.32-.47,2.13-.47,1.22,0,2.17.33,2.85.99.68.66,1.04,1.58,1.07,2.78h-6.58v.08c0,.99.24,1.76.72,2.32.48.56,1.16.84,2.03.84.68,0,1.25-.16,1.71-.49Zm-3.58-5.24c-.46.44-.74,1.07-.84,1.88h5.23c-.11-.82-.39-1.45-.83-1.88-.44-.44-1.03-.66-1.76-.66s-1.35.22-1.81.67Z"/>
        <path d="m143.21,119.49c-.63-.4-1.01-.96-1.14-1.67h1.14c.08.52.34.92.78,1.22.44.29,1.03.44,1.76.44.69,0,1.24-.14,1.65-.42s.62-.65.62-1.11c0-.37-.18-.66-.54-.88-.36-.21-.96-.39-1.79-.53s-1.5-.3-2-.47c-.49-.17-.85-.39-1.07-.64-.22-.25-.33-.57-.33-.95,0-.62.3-1.11.89-1.47.59-.36,1.42-.54,2.49-.54s1.88.2,2.52.59c.64.39,1.01.94,1.11,1.65h-1.14c-.09-.51-.35-.91-.78-1.2-.43-.29-.97-.43-1.63-.43s-1.13.11-1.52.34c-.38.22-.58.53-.58.9,0,.23.06.41.19.55.13.14.37.26.71.37.34.11.85.22,1.53.34,1.16.2,1.99.48,2.51.83.52.35.78.83.78,1.44,0,.7-.33,1.24-.98,1.64-.65.39-1.56.59-2.71.59-1.03,0-1.86-.2-2.49-.6Z"/>
        <path d="m155.15,112.62h1.38v1.36c.28-.47.68-.84,1.2-1.11.52-.27,1.11-.4,1.77-.4,1.17,0,2.08.34,2.74,1.01.66.67.99,1.6.99,2.77s-.33,2.13-1,2.82c-.67.68-1.58,1.02-2.74,1.02-.68,0-1.27-.13-1.78-.4-.51-.27-.91-.66-1.2-1.17v4.26h-1.38v-10.17Zm5.44,6.47c.41-.27.72-.66.94-1.15s.33-1.06.33-1.71c0-.98-.24-1.75-.71-2.31-.47-.56-1.11-.84-1.92-.84-.53,0-1,.13-1.41.4-.41.27-.73.65-.96,1.14-.22.49-.34,1.05-.34,1.69,0,.98.24,1.75.72,2.33.48.58,1.13.87,1.94.87.53,0,1-.14,1.41-.41Z"/>
        <path d="m165.58,119.51c-.5-.39-.76-.94-.76-1.66,0-.77.3-1.35.91-1.76.61-.4,1.49-.61,2.66-.61h2.18v-.54c0-.61-.18-1.07-.55-1.39-.37-.32-.9-.48-1.6-.48-.66,0-1.19.15-1.58.46-.4.3-.63.74-.7,1.29h-1.08c.1-.76.45-1.34,1.05-1.75.6-.41,1.4-.61,2.39-.61,1.12,0,1.97.23,2.56.68.59.45.88,1.11.88,1.97v2.42c0,.86.07,1.66.22,2.41h-1.29c-.11-.45-.18-.88-.21-1.29-.6.96-1.56,1.44-2.89,1.44-.97,0-1.7-.19-2.21-.58Zm3.8-.32c.37-.21.67-.5.88-.86.21-.36.32-.76.32-1.2v-1.03h-1.81c-.88,0-1.53.14-1.95.43s-.64.72-.64,1.31c0,.55.16.96.49,1.25s.81.43,1.45.43c.46,0,.87-.11,1.25-.32Z"/>
        <path d="m174.11,112.62h1.38v1.57c.19-.55.49-.97.9-1.27s.91-.45,1.5-.45c.23,0,.4.02.51.06l-.13.96c-.15-.08-.36-.12-.63-.12-.68,0-1.21.28-1.58.85-.38.57-.57,1.29-.57,2.15v3.57h-1.38v-7.33Z"/>
        <path d="m183.94,109.73h1.38v10.21h-1.38v-10.21Z"/>
        <path d="m193.33,118.98c.46-.33.76-.78.89-1.35h1.12c-.19.77-.62,1.37-1.3,1.8-.68.43-1.51.65-2.48.65-.82,0-1.53-.15-2.15-.46-.61-.31-1.09-.75-1.42-1.32-.33-.57-.5-1.24-.5-2s.16-1.46.49-2.03c.33-.58.8-1.02,1.41-1.34.61-.31,1.32-.47,2.13-.47,1.22,0,2.17.33,2.85.99.68.66,1.04,1.58,1.07,2.78h-6.58v.08c0,.99.24,1.76.72,2.32.48.56,1.16.84,2.03.84.68,0,1.25-.16,1.71-.49Zm-3.58-5.24c-.46.44-.74,1.07-.84,1.88h5.23c-.11-.82-.39-1.45-.83-1.88-.44-.44-1.03-.66-1.76-.66s-1.35.22-1.81.67Z"/>
        <path d="m201.17,112.62h1.38v1.36c.28-.47.68-.84,1.2-1.11.52-.27,1.11-.4,1.77-.4,1.17,0,2.08.34,2.74,1.01.66.67.99,1.6.99,2.77s-.33,2.13-1,2.82c-.67.68-1.58,1.02-2.74,1.02-.68,0-1.27-.13-1.78-.4-.51-.27-.91-.66-1.2-1.17v4.26h-1.38v-10.17Zm5.44,6.47c.41-.27.72-.66.94-1.15s.33-1.06.33-1.71c0-.98-.24-1.75-.71-2.31-.47-.56-1.11-.84-1.92-.84-.53,0-1,.13-1.41.4-.41.27-.73.65-.96,1.14-.22.49-.34,1.05-.34,1.69,0,.98.24,1.75.72,2.33.48.58,1.13.87,1.94.87.53,0,1-.14,1.41-.41Z"/>
        <path d="m211.59,119.51c-.5-.39-.76-.94-.76-1.66,0-.77.3-1.35.91-1.76.61-.4,1.49-.61,2.66-.61h2.18v-.54c0-.61-.18-1.07-.55-1.39-.37-.32-.9-.48-1.6-.48-.66,0-1.19.15-1.58.46-.4.3-.63.74-.7,1.29h-1.08c.1-.76.45-1.34,1.05-1.75.6-.41,1.4-.61,2.39-.61,1.12,0,1.97.23,2.56.68.59.45.88,1.11.88,1.97v2.42c0,.86.07,1.66.22,2.41h-1.29c-.11-.45-.18-.88-.21-1.29-.6.96-1.56,1.44-2.89,1.44-.97,0-1.7-.19-2.21-.58Zm3.8-.32c.37-.21.67-.5.88-.86.21-.36.32-.76.32-1.2v-1.03h-1.81c-.88,0-1.53.14-1.95.43s-.64.72-.64,1.31c0,.55.16.96.49,1.25s.81.43,1.45.43c.46,0,.87-.11,1.25-.32Z"/>
        <path d="m220.12,112.62h1.38v1.57c.19-.55.49-.97.9-1.27s.91-.45,1.5-.45c.23,0,.4.02.51.06l-.13.96c-.15-.08-.36-.12-.63-.12-.68,0-1.21.28-1.58.85-.38.57-.57,1.29-.57,2.15v3.57h-1.38v-7.33Z"/>
        <path d="m227.25,119.63c-.63-.31-1.12-.75-1.46-1.32-.34-.57-.51-1.25-.51-2.03s.17-1.45.51-2.03c.34-.57.82-1.01,1.45-1.32.63-.31,1.37-.46,2.21-.46,1.04,0,1.89.22,2.56.65.67.43,1.09,1.03,1.25,1.8h-1.12c-.14-.57-.45-1.02-.92-1.35-.47-.33-1.04-.49-1.71-.49-.88,0-1.57.29-2.09.86-.51.57-.77,1.35-.77,2.34s.26,1.77.77,2.34c.51.57,1.21.86,2.09.86.66,0,1.23-.16,1.7-.49.48-.33.79-.78.93-1.35h1.12c-.16.77-.58,1.37-1.26,1.8-.68.43-1.52.65-2.54.65-.85,0-1.59-.15-2.22-.46Z"/>
        <path d="m234.95,119.86c-.15-.15-.23-.35-.23-.59s.08-.42.24-.58c.16-.15.36-.23.6-.23s.45.08.61.23c.16.15.24.35.24.58s-.08.44-.24.59c-.16.15-.36.23-.61.23s-.45-.08-.61-.23Z"/>
      </g>
      <g>
        <polygon points="62.05 41.85 56.52 41.85 47.99 10.34 41.8 32.36 36.16 32.36 45.55 .02 51.11 .02 62.05 41.85"/>
        <line class="cls-2" x1="41.13" y1="25.35" x2="54.86" y2="25.35"/>
      </g>
      <polygon points="97.67 .18 92.15 .18 83.62 31.69 75.08 .18 69.45 .18 81.17 42.01 86.74 42.01 97.67 .18"/>
      <path class="cls-2" d="m37.6,2.73C18.9,2.94,2.69,13.63,2.69,39.13l39.09-.03"/>
      <g>
        <line class="cls-2" x1="102.78" y1="8.98" x2="102.78" y2="41.97"/>
        <line class="cls-2" x1="102.78" y1="5.65" x2="102.78" y2=".22"/>
      </g>
      <polyline class="cls-2" points="112.39 .03 112.39 39.1 130.17 39.09"/>
      <polyline class="cls-2" points="135.68 .03 135.68 39.1 153.46 39.09"/>
      <g>
        <polyline class="cls-2" points="177.62 39.1 158.95 39.13 158.95 2.74 177.62 2.7"/>
        <line class="cls-2" x1="158.95" y1="22.31" x2="174.6" y2="22.31"/>
      </g>
      <g>
        <line class="cls-1" x1="191.51" y1="41.83" x2="191.51" y2="2.8"/>
        <line class="cls-2" x1="180.39" y1="2.84" x2="202.51" y2="2.87"/>
      </g>
      <g>
        <line class="cls-1" x1="216.59" y1="41.83" x2="216.59" y2="2.8"/>
        <line class="cls-2" x1="205.48" y1="2.84" x2="227.6" y2="2.87"/>
      </g>
      <g>
        <polyline class="cls-2" points="270.62 39.04 233.29 39.13 233.29 2.74 243.61 2.69"/>
        <line class="cls-2" x1="233.29" y1="22.31" x2="251.96" y2="22.31"/>
      </g>
    </g>
  </g>
</svg>