<?xml version="1.0" encoding="UTF-8"?>
<svg id="Calque_2" data-name="Calque 2" xmlns="http://www.w3.org/2000/svg" viewBox="0 0 975.33 436.51">
  <defs>
    <style>
      .cls-1 {
        stroke-width: 6px;
      }

      .cls-1, .cls-2 {
        fill: none;
        stroke: #000;
        stroke-miterlimit: 10;
      }

      .cls-3, .cls-4 {
        font-size: 79px;
      }

      .cls-5 {
        font-size: 50px;
      }

      .cls-6 {
        letter-spacing: -.1em;
      }

      .cls-4 {
        letter-spacing: -.1em;
      }

      .cls-7 {
        letter-spacing: .02em;
      }

      .cls-8 {
        font-family: Fahkwang-Regular, Fahkwang;
      }

      .cls-2 {
        stroke-width: 18px;
      }
    </style>
  </defs>
  <g id="Calque_1-2" data-name="Calque 1">
    <g>
      <path class="cls-2" d="m430.73,153.69s-68.28.99-68.28-60.86c0-61.85,67.29-60.86,67.29-60.86"/>
      <path class="cls-2" d="m704.01,154.1s-68.28.99-68.28-60.86c0-61.85,67.29-60.86,67.29-60.86"/>
      <rect class="cls-1" x="3" y="3" width="969.33" height="402.47" rx="156.42" ry="156.42"/>
      <text class="cls-8" transform="translate(17.65 244.02)"><tspan class="cls-3" x="0" y="0">ENCRES VÉGÉ</tspan><tspan class="cls-4" x="607.19" y="0">T</tspan><tspan class="cls-3" x="655.61" y="0">ALES </tspan><tspan class="cls-5" x="903.67" y="0">- </tspan><tspan class="cls-5"><tspan x="19.14" y="60">Création d’un jeu de société inspiré </tspan></tspan><tspan class="cls-5"><tspan x="163.21" y="120">du jeu d</tspan><tspan class="cls-7" x="363.46" y="120">e</tspan><tspan x="395.91" y="120">s 7 </tspan><tspan class="cls-6" x="486.76" y="120">F</tspan><tspan x="514.56" y="120">AMILLES.</tspan></tspan></text>
      <path class="cls-2" d="m154.76,32.12c-45.52,0-116.75,48.93-116.75,121.72,0,0,78.34,8.73,80.26-49.9,0,0,2.36-30.98-31.91-44.26"/>
      <polygon points="283.48 23.04 264.99 23.04 236.47 128.42 207.92 23.04 189.07 23.04 228.29 162.93 246.9 162.93 283.48 23.04"/>
      <g>
        <polygon points="357.28 162.93 338.8 162.93 310.28 57.56 281.72 162.93 262.88 162.93 302.1 23.04 320.71 23.04 357.28 162.93"/>
        <line class="cls-2" x1="287.32" y1="107.77" x2="333.24" y2="107.77"/>
      </g>
      <polygon points="533.08 163.16 514.6 163.16 486.07 57.78 457.52 163.16 438.68 163.16 477.89 23.26 496.5 23.26 533.08 163.16"/>
      <line class="cls-2" x1="463.11" y1="107.99" x2="509.03" y2="107.99"/>
      <polygon points="598.02 162.87 559.55 70.01 559.55 162.87 541.55 162.87 541.55 23.26 558.91 23.09 597.38 116.13 597.38 23.26 615.38 23.26 615.38 162.87 598.02 162.87"/>
      <g>
        <polyline class="cls-2" points="809.91 153.64 725.6 153.77 725.6 32.06 788.03 31.93"/>
        <line class="cls-2" x1="725.6" y1="97.52" x2="777.92" y2="97.52"/>
      </g>
      <path class="cls-2" d="m821.64,99.49c-.51,73.53,99.19,70.97,99.19,16.46,0-21.3-19.82-41.56-53.44-38.2-25.68,2.57-59.74,7.43-62.61-20.88-3.64-35.83,58.03-33.79,58.03-7.48"/>
    </g>
  </g>
</svg>