<?xml version="1.0" encoding="UTF-8"?>
<svg id="Calque_2" data-name="Calque 2" xmlns="http://www.w3.org/2000/svg" viewBox="0 0 962.02 468.5">
  <defs>
    <style>
      .cls-1 {
        stroke-width: 6px;
      }

      .cls-1, .cls-2 {
        fill: none;
        stroke: #000;
        stroke-miterlimit: 10;
      }

      .cls-3 {
        letter-spacing: -.04em;
      }

      .cls-4 {
        font-size: 79px;
      }

      .cls-5 {
        font-size: 50px;
      }

      .cls-6 {
        font-family: Fahkwang-Regular, Fahkwang;
      }

      .cls-2 {
        stroke-width: 18px;
      }
    </style>
  </defs>
  <g id="Calque_1-2" data-name="Calque 1">
    <g>
      <rect class="cls-1" x="3" y="3" width="956.02" height="462.5" rx="156.42" ry="156.42"/>
      <text class="cls-6" transform="translate(111.54 244.02)"><tspan class="cls-4" x="0" y="0">AFTER EFFECTS </tspan><tspan class="cls-5" x="715.89" y="0">- </tspan><tspan class="cls-5"><tspan x="-51.97" y="60">Réalisation d’une animation a</tspan><tspan class="cls-3" x="685.02" y="60">y</tspan><tspan x="711.57" y="60">ant </tspan></tspan><tspan class="cls-5"><tspan x="-56.47" y="120">pour support le projet d’édition du </tspan></tspan><tspan class="cls-5"><tspan x="282.62" y="180">MNHN.</tspan></tspan></text>
      <path d="m187.27,121.92c-6.39,24.88-20.02,37.78-20.6,38.31l-2.59,2.41h-56.58v-16.34c-5.09,3.93-11.53,7.41-19.64,10.12-18.46,6.18-39.25,6.28-50.41,6.33l-10.29.05v-9.05c0-35.23,15.72-68.91,44.26-94.82,24.39-22.14,55.62-35.9,81.49-35.9v18c-21.26,0-48.5,12.26-69.39,31.23-22.23,20.18-35.48,45.6-37.94,72.39,10.43-.26,24.44-1.24,36.56-5.3,17.3-5.79,25.36-15.68,25.36-31.12h18v36.41h31.06c3.4-4.16,10.01-13.67,13.55-28.3,4.58-18.91,2.61-40.45-5.66-63.42h18.99c6.78,21.22,9.94,45.2,3.83,69Z"/>
      <g>
        <path class="cls-2" d="m211.08,60.88c0-17.55,14.23-31.77,31.77-31.77s31.77,14.23,31.77,31.77"/>
        <path class="cls-2" d="m274.62,124.62c0,17.55-14.23,31.77-31.77,31.77s-31.77-14.23-31.77-31.77"/>
        <line class="cls-2" x1="211.08" y1="60.88" x2="211.08" y2="124.62"/>
        <line class="cls-2" x1="274.62" y1="60.88" x2="274.62" y2="124.62"/>
      </g>
      <g>
        <path class="cls-2" d="m691.4,60.88c0-17.55,14.23-31.77,31.77-31.77s31.77,14.23,31.77,31.77"/>
        <path class="cls-2" d="m754.94,124.62c0,17.55-14.23,31.77-31.77,31.77s-31.77-14.23-31.77-31.77"/>
        <line class="cls-2" x1="691.4" y1="60.88" x2="691.4" y2="124.62"/>
        <line class="cls-2" x1="754.94" y1="60.88" x2="754.94" y2="124.62"/>
      </g>
      <g>
        <g>
          <path class="cls-2" d="m341.43,31.93c17.55,0,31.77,15.73,31.77,35.14,0,19.41-14.23,35.14-31.77,35.14"/>
          <line class="cls-2" x1="341.43" y1="31.93" x2="306.35" y2="31.93"/>
          <line class="cls-2" x1="341.43" y1="102.21" x2="306.35" y2="102.21"/>
        </g>
        <path class="cls-2" d="m322.46,102.21l-9.63.05"/>
        <path class="cls-2" d="m305.28,162.58l-.06-130.71s7.32.06,16.16.06"/>
        <path class="cls-2" d="m312.83,102.26h0c30.95,0,65.95,22.36,65.95,60.31"/>
      </g>
      <line class="cls-2" x1="407.26" y1="162.58" x2="407.2" y2="23.09"/>
      <path class="cls-2" d="m414.81,102.26h0c30.95,0,65.95,22.36,65.95,60.31"/>
      <polyline points="488.99 23.09 437.88 104.29 422.65 94.7 467.72 23.09"/>
      <path class="cls-2" d="m505.22,138.13c10.49,26.07,53.87,24.21,59.28-3.73,4.07-21.04-11.58-33.06-29.04-43.43-12.84-7.63-31.33-17.34-30.25-35.84,2-34.17,51.52-34.05,60.49-4.6"/>
      <g>
        <line class="cls-2" x1="603.43" y1="103.11" x2="656.98" y2="103.11"/>
        <line class="cls-2" x1="595.87" y1="163.43" x2="595.81" y2="23.67"/>
        <line class="cls-2" x1="659.8" y1="163.43" x2="659.75" y2="23.67"/>
      </g>
      <path class="cls-2" d="m778.08,31.93c65.91-2.99,109.29,31.76,126.98,70.28h-116.98"/>
      <path class="cls-2" d="m804.19,102.21l-9.63.05"/>
      <line class="cls-2" x1="787.01" y1="162.58" x2="786.95" y2="31.87"/>
    </g>
  </g>
</svg>