<?xml version="1.0" encoding="UTF-8"?>
<svg id="Calque_2" data-name="Calque 2" xmlns="http://www.w3.org/2000/svg" viewBox="0 0 962.02 468.5">
  <defs>
    <style>
      .cls-1 {
        letter-spacing: -.04em;
      }

      .cls-2 {
        fill: #1d1d1b;
      }

      .cls-3 {
        fill: #fff;
      }

      .cls-3, .cls-4, .cls-5 {
        stroke-miterlimit: 10;
      }

      .cls-3, .cls-4, .cls-5, .cls-6 {
        stroke: #000;
      }

      .cls-3, .cls-5, .cls-6 {
        stroke-width: 18px;
      }

      .cls-7 {
        font-size: 79px;
      }

      .cls-8 {
        font-size: 50px;
      }

      .cls-9 {
        letter-spacing: .02em;
      }

      .cls-10 {
        letter-spacing: .02em;
      }

      .cls-11 {
        font-family: Fahkwang-Regular, Fahkwang;
      }

      .cls-4 {
        fill: #22dd65;
        stroke-width: 6px;
      }

      .cls-5, .cls-6 {
        fill: none;
      }

      .cls-6 {
        stroke-linejoin: bevel;
      }
    </style>
  </defs>
  <g id="Calque_1-2" data-name="Calque 1">
    <rect class="cls-4" x="3" y="3" width="956.02" height="462.5" rx="156.42" ry="156.42"/>
    <g>
      <line class="cls-3" x1="529.32" y1="162.47" x2="529.32" y2="31.93"/>
      <line class="cls-5" x1="492.15" y1="32.06" x2="566.13" y2="32.18"/>
    </g>
    <text class="cls-11" transform="translate(22.41 244.02)"><tspan class="cls-7" x="0" y="0">MNHN </tspan><tspan class="cls-8" x="279.11" y="0">- Conception de l’identité </tspan><tspan class="cls-8"><tspan x="14.78" y="60">visuelle de kits collectionnabl</tspan><tspan class="cls-10" x="764.07" y="60">e</tspan><tspan x="796.52" y="60">s ce </tspan></tspan><tspan class="cls-8"><tspan x="16.78" y="120">concentrant chacun sur une </tspan><tspan class="cls-1" x="733.47" y="120">f</tspan><tspan x="748.52" y="120">amille </tspan></tspan><tspan class="cls-8"><tspan x="322.88" y="180">d’in</tspan><tspan class="cls-10" x="410.57" y="180">s</tspan><tspan x="441.07" y="180">ect</tspan><tspan class="cls-9" x="522.02" y="180">e</tspan><tspan x="554.47" y="180">s.</tspan></tspan></text>
    <g>
      <path class="cls-5" d="m152.91,31.93c-45.52,0-116.75,54.33-116.75,121.72h116.75"/>
      <polyline class="cls-5" points="143.91 162.46 143.91 108.23 126.61 108.23"/>
    </g>
    <g>
      <path class="cls-5" d="m288.73,31.93c-84.9.13-77.07,70.94-77.07,121.72h77.07"/>
      <polyline class="cls-5" points="282.79 162.46 282.79 108.23 265.78 108.23"/>
    </g>
    <g>
      <line class="cls-5" x1="178.05" y1="52.13" x2="178.05" y2="162.46"/>
      <line class="cls-5" x1="178.05" y1="41" x2="178.05" y2="22.85"/>
    </g>
    <g>
      <line class="cls-5" x1="586.69" y1="52.13" x2="586.69" y2="162.46"/>
      <line class="cls-5" x1="586.69" y1="41" x2="586.69" y2="22.85"/>
    </g>
    <polygon class="cls-2" points="350.85 22.68 350.84 22.69 350.84 22.68 350.85 22.68"/>
    <polygon points="463.25 162.46 424.77 69.59 424.77 162.46 406.77 162.46 406.77 22.85 424.13 22.68 462.6 115.72 462.6 22.85 480.6 22.85 480.6 162.46 463.25 162.46"/>
    <path class="cls-5" d="m617.79,138.34c10.49,26.07,53.87,24.21,59.28-3.73,4.07-21.04-11.58-33.06-29.04-43.43-12.84-7.63-31.33-17.34-30.25-35.84,2-34.17,51.52-34.05,60.49-4.6"/>
    <polyline class="cls-6" points="708.91 162.79 708.91 22.85 740.68 108.23 772.45 22.85 772.45 162.79"/>
    <g>
      <polyline class="cls-5" points="930.78 153.13 805.91 153.45 805.91 31.75 840.41 31.57"/>
      <line class="cls-5" x1="805.91" y1="97.2" x2="868.34" y2="97.2"/>
    </g>
    <polygon points="396.63 162.46 378.15 162.46 349.63 57.09 321.07 162.46 302.23 162.46 341.45 22.57 360.06 22.57 396.63 162.46"/>
    <line class="cls-5" x1="326.67" y1="107.3" x2="372.58" y2="107.3"/>
  </g>
</svg>