<?xml version="1.0" encoding="UTF-8"?>
<svg id="Calque_2" data-name="Calque 2" xmlns="http://www.w3.org/2000/svg" viewBox="0 0 2145.02 348.51">
  <defs>
    <style>
      .cls-1 {
        letter-spacing: -.04em;
      }

      .cls-2 {
        stroke-width: 6px;
      }

      .cls-2, .cls-3, .cls-4 {
        stroke: #000;
        stroke-miterlimit: 10;
      }

      .cls-2, .cls-4 {
        fill: none;
      }

      .cls-3 {
        fill: #fff;
      }

      .cls-3, .cls-4 {
        stroke-width: 18px;
      }

      .cls-5, .cls-6, .cls-7 {
        font-size: 50px;
      }

      .cls-5, .cls-8 {
        letter-spacing: .02em;
      }

      .cls-9 {
        font-size: 79px;
      }

      .cls-10 {
        font-family: Fahkwang-Regular, Fahkwang;
      }

      .cls-7 {
        letter-spacing: -.08em;
      }
    </style>
  </defs>
  <g id="Calque_1-2" data-name="Calque 1">
    <g>
      <rect class="cls-2" x="3" y="3" width="2139.02" height="342.51" rx="156.42" ry="156.42"/>
      <text class="cls-10" transform="translate(63.48 244.03)"><tspan class="cls-9" x="0" y="0">AFFICHE </tspan><tspan class="cls-6" x="394.84" y="0">- Création d’une affiche pour l’École et </tspan><tspan class="cls-7" x="1369.93" y="0">L</tspan><tspan class="cls-6" x="1397.73" y="0">ycée d</tspan><tspan class="cls-5" x="1567.08" y="0">e</tspan><tspan class="cls-6" x="1599.53" y="0">s Métiers d’art et </tspan><tspan class="cls-6"><tspan x="586.44" y="60">du d</tspan><tspan class="cls-8" x="696.49" y="60">e</tspan><tspan x="728.94" y="60">sign - </tspan><tspan class="cls-1" x="885.04" y="60">A</tspan><tspan x="921.99" y="60">uguste Renoir, Paris.</tspan></tspan></text>
      <g>
        <path class="cls-4" d="m44.92,99.12C64.51,54.75,110.29,31.93,147.59,31.93"/>
        <path class="cls-4" d="m96.25,45.14v108.5l-32.22-.16c-20.94-.1-35.47-20.9-28.36-40.6h0"/>
      </g>
      <g>
        <path class="cls-4" d="m125.36,92.55c0-17.55,14.23-31.77,31.77-31.77s31.77,14.23,31.77,31.77"/>
        <path class="cls-4" d="m188.91,123.91c0,17.55-14.23,31.77-31.77,31.77s-31.77-14.23-31.77-31.77"/>
        <line class="cls-4" x1="125.36" y1="92.55" x2="125.36" y2="123.91"/>
        <line class="cls-4" x1="188.91" y1="92.55" x2="188.91" y2="123.91"/>
      </g>
      <g>
        <path class="cls-4" d="m280.43,123.91c0,17.55-14.23,31.77-31.77,31.77s-31.77-14.23-31.77-31.77"/>
        <line class="cls-4" x1="216.88" y1="23.09" x2="216.88" y2="123.91"/>
        <line class="cls-4" x1="280.43" y1="23.09" x2="280.43" y2="123.91"/>
      </g>
      <g>
        <path class="cls-4" d="m1513.31,123.91c0,17.55-14.23,31.77-31.77,31.77s-31.77-14.23-31.77-31.77"/>
        <line class="cls-4" x1="1449.76" y1="23.09" x2="1449.76" y2="123.91"/>
        <line class="cls-4" x1="1513.31" y1="23.09" x2="1513.31" y2="123.91"/>
      </g>
      <g>
        <g>
          <path class="cls-4" d="m345.48,31.98c17.55,0,31.77,15.73,31.77,35.14,0,19.41-14.23,35.14-31.77,35.14"/>
          <line class="cls-4" x1="345.48" y1="31.98" x2="310.4" y2="31.98"/>
          <line class="cls-4" x1="345.48" y1="102.27" x2="310.4" y2="102.27"/>
        </g>
        <path class="cls-4" d="m326.51,102.27l-9.63.05"/>
        <path class="cls-4" d="m309.33,162.63l-.06-130.71s7.32.06,16.16.06"/>
        <path class="cls-4" d="m316.88,102.32h0c30.95,0,65.95,22.36,65.95,60.31"/>
      </g>
      <g>
        <g>
          <path class="cls-4" d="m1014.53,31.92c17.55,0,31.77,15.73,31.77,35.14,0,19.41-14.23,35.14-31.77,35.14"/>
          <line class="cls-4" x1="1014.53" y1="31.92" x2="979.45" y2="31.92"/>
          <line class="cls-4" x1="1014.53" y1="102.21" x2="979.45" y2="102.21"/>
        </g>
        <path class="cls-4" d="m995.56,102.21l-9.63.05"/>
        <path class="cls-4" d="m978.38,162.57l-.06-130.71s7.32.06,16.16.06"/>
        <path class="cls-4" d="m985.93,102.26h0c30.95,0,65.95,22.36,65.95,60.31"/>
      </g>
      <g>
        <g>
          <path class="cls-4" d="m1764.27,31.92c17.55,0,31.77,15.73,31.77,35.14,0,19.41-14.23,35.14-31.77,35.14"/>
          <line class="cls-4" x1="1764.27" y1="31.92" x2="1729.19" y2="31.92"/>
          <line class="cls-4" x1="1764.27" y1="102.21" x2="1729.19" y2="102.21"/>
        </g>
        <path class="cls-4" d="m1745.3,102.21l-9.63.05"/>
        <path class="cls-4" d="m1728.12,162.57l-.06-130.71s7.32.06,16.16.06"/>
        <path class="cls-4" d="m1735.67,102.26h0c30.95,0,65.95,22.36,65.95,60.31"/>
      </g>
      <g>
        <g>
          <path class="cls-4" d="m823.67,31.92c17.55,0,31.77,15.73,31.77,35.14,0,19.41-14.23,35.14-31.77,35.14"/>
          <line class="cls-4" x1="823.67" y1="31.92" x2="788.59" y2="31.92"/>
          <line class="cls-4" x1="823.67" y1="102.21" x2="788.59" y2="102.21"/>
        </g>
        <path class="cls-4" d="m804.7,102.21l-9.63.05"/>
        <path class="cls-4" d="m787.52,162.57l-.06-130.71s7.32.06,16.16.06"/>
      </g>
      <polygon points="458.49 162.45 420.01 69.58 420.01 162.45 402.01 162.45 402.01 23.09 419.54 23.09 457.84 115.7 457.84 23.09 475.84 23.09 475.84 162.45 458.49 162.45"/>
      <g>
        <polyline class="cls-4" points="560.87 153.56 498.44 153.69 498.44 31.98 560.87 31.84"/>
        <line class="cls-4" x1="498.44" y1="97.43" x2="550.76" y2="97.43"/>
      </g>
      <g>
        <polyline class="cls-4" points="646.33 153.56 583.9 153.69 583.9 31.98 646.33 31.84"/>
        <line class="cls-4" x1="583.9" y1="97.43" x2="636.22" y2="97.43"/>
      </g>
      <g>
        <polyline class="cls-4" points="1211.03 153.56 1148.59 153.69 1148.59 31.98 1211.03 31.84"/>
        <line class="cls-4" x1="1148.59" y1="97.43" x2="1200.91" y2="97.43"/>
      </g>
      <g>
        <polyline class="cls-4" points="1706.52 153.63 1644.09 153.75 1644.09 32.05 1706.52 31.91"/>
        <line class="cls-4" x1="1644.09" y1="97.5" x2="1696.41" y2="97.5"/>
      </g>
      <path class="cls-4" d="m662.81,138.2c10.49,26.07,53.87,24.21,59.28-3.73,4.07-21.04-11.58-33.06-29.04-43.43-12.84-7.63-31.33-17.34-30.25-35.84,2-34.17,51.52-34.05,60.49-4.6"/>
      <path class="cls-4" d="m1227.94,138.2c10.49,26.07,53.87,24.21,59.28-3.73,4.07-21.04-11.58-33.06-29.04-43.43-12.84-7.63-31.33-17.34-30.25-35.84,2-34.17,51.52-34.05,60.49-4.6"/>
      <g>
        <path class="cls-4" d="m883.78,60.9c0-17.55,14.23-31.77,31.77-31.77s31.77,14.23,31.77,31.77"/>
        <path class="cls-4" d="m947.33,124.63c0,17.55-14.23,31.77-31.77,31.77s-31.77-14.23-31.77-31.77"/>
        <line class="cls-4" x1="883.78" y1="60.9" x2="883.78" y2="124.63"/>
        <line class="cls-4" x1="947.33" y1="60.9" x2="947.33" y2="124.63"/>
      </g>
      <g>
        <path class="cls-4" d="m1357.14,60.9c0-17.55,14.23-31.77,31.77-31.77s31.77,14.23,31.77,31.77"/>
        <path class="cls-4" d="m1420.69,124.63c0,17.55-14.23,31.77-31.77,31.77s-31.77-14.23-31.77-31.77"/>
        <line class="cls-4" x1="1357.14" y1="60.9" x2="1357.14" y2="124.63"/>
        <line class="cls-4" x1="1420.69" y1="60.9" x2="1420.69" y2="124.63"/>
      </g>
      <g>
        <line class="cls-3" x1="1092.05" y1="162.49" x2="1092.05" y2="31.95"/>
        <line class="cls-4" x1="1054.88" y1="32.08" x2="1128.86" y2="32.21"/>
      </g>
      <g>
        <polyline class="cls-4" points="1961.88 153.65 1899.45 153.77 1899.45 32.07 1961.88 31.93"/>
        <line class="cls-4" x1="1899.45" y1="97.52" x2="1951.77" y2="97.52"/>
      </g>
      <g>
        <line class="cls-3" x1="1842.91" y1="162.57" x2="1842.91" y2="32.03"/>
        <line class="cls-4" x1="1805.74" y1="32.16" x2="1879.71" y2="32.29"/>
      </g>
      <polygon points="1625.67 22.88 1607.19 22.88 1578.66 128.26 1550.11 22.88 1531.27 22.88 1570.49 162.78 1589.1 162.78 1625.67 22.88"/>
      <path class="cls-4" d="m1993.94,99.42c-.51,73.53,99.19,70.97,99.19,16.46,0-21.3-19.82-41.56-53.44-38.2-25.68,2.57-59.74,7.43-62.61-20.88-3.64-35.83,58.03-33.79,58.03-7.48"/>
    </g>
  </g>
</svg>