<?xml version="1.0" encoding="UTF-8"?>
<svg id="Calque_2" data-name="Calque 2" xmlns="http://www.w3.org/2000/svg" viewBox="0 0 1161.54 436.51">
  <defs>
    <style>
      .cls-1 {
        letter-spacing: -.08em;
      }

      .cls-2 {
        letter-spacing: -.06em;
      }

      .cls-3 {
        font-size: 79px;
      }

      .cls-4 {
        font-size: 50px;
      }

      .cls-5 {
        fill: #ffd6ae;
        stroke-width: 6px;
      }

      .cls-5, .cls-6 {
        stroke: #000;
        stroke-miterlimit: 10;
      }

      .cls-7 {
        font-family: Fahkwang-Regular, Fahkwang;
      }

      .cls-6 {
        fill: none;
        stroke-width: 18px;
      }
    </style>
  </defs>
  <g id="Calque_1-2" data-name="Calque 1">
    <rect class="cls-5" x="3" y="3" width="1155.54" height="402.54" rx="156.42" ry="156.42"/>
    <text class="cls-7" transform="translate(167.07 244.02)"><tspan class="cls-3" x="0" y="0">VISIBLE MENDING </tspan><tspan class="cls-4" x="785.25" y="0">- </tspan><tspan class="cls-4"><tspan x="-117.99" y="60">Conception d’une identité visuelle pour le </tspan></tspan><tspan class="cls-4"><tspan x="72.51" y="120">créateur </tspan><tspan class="cls-2" x="295.9" y="120">T</tspan><tspan x="328.55" y="120">om </tspan><tspan class="cls-1" x="422.8" y="120">V</tspan><tspan x="457.3" y="120">an Deijnen.</tspan></tspan></text>
    <g>
      <path class="cls-6" d="m152.91,31.93c-37.3,0-83.08,22.82-102.67,67.19"/>
      <line class="cls-6" x1="101.58" y1="45.14" x2="101.58" y2="162.57"/>
    </g>
    <g>
      <path class="cls-6" d="m144.05,93.29c0-17.55,14.23-31.77,31.77-31.77s31.77,14.23,31.77,31.77"/>
      <path class="cls-6" d="m207.6,124.65c0,17.55-14.23,31.77-31.77,31.77s-31.77-14.23-31.77-31.77"/>
      <line class="cls-6" x1="144.05" y1="93.29" x2="144.05" y2="124.65"/>
      <line class="cls-6" x1="207.6" y1="93.29" x2="207.6" y2="124.65"/>
    </g>
    <polygon points="312.35 162.85 294.35 162.85 294.35 72.89 280.01 111.43 263.14 111.43 248.8 72.9 248.8 162.85 230.8 162.85 230.8 23.09 249.41 23.09 271.58 82.48 293.74 23.09 312.35 23.09 312.35 162.85"/>
    <g>
      <polyline class="cls-6" points="450.86 162.22 450.86 31.93 510.34 31.96"/>
      <line class="cls-6" x1="450.86" y1="102.17" x2="504.42" y2="102.17"/>
    </g>
    <g>
      <path class="cls-6" d="m649.46,61.28c0-17.55,14.23-31.77,31.77-31.77s31.77,14.23,31.77,31.77"/>
      <path class="cls-6" d="m713.01,125.02c0,17.55-14.23,31.77-31.77,31.77s-31.77-14.23-31.77-31.77"/>
      <line class="cls-6" x1="649.46" y1="61.28" x2="649.46" y2="125.02"/>
      <line class="cls-6" x1="713.01" y1="61.28" x2="713.01" y2="125.02"/>
    </g>
    <g>
      <path class="cls-6" d="m357.66,61.28c0-17.55,14.23-31.77,31.77-31.77s31.77,14.23,31.77,31.77"/>
      <path class="cls-6" d="m421.21,125.02c0,17.55-14.23,31.77-31.77,31.77s-31.77-14.23-31.77-31.77"/>
      <line class="cls-6" x1="357.66" y1="61.28" x2="357.66" y2="125.02"/>
      <line class="cls-6" x1="421.21" y1="61.28" x2="421.21" y2="125.02"/>
    </g>
    <g>
      <line class="cls-6" x1="564.31" y1="102.72" x2="617.87" y2="102.72"/>
      <line class="cls-6" x1="556.76" y1="163.03" x2="556.7" y2="23.27"/>
      <line class="cls-6" x1="620.69" y1="163.03" x2="620.64" y2="23.27"/>
    </g>
    <polyline class="cls-6" points="743.14 23.27 743.14 153.95 790.54 153.92"/>
    <polyline class="cls-6" points="811.68 23.28 811.68 153.96 859.08 153.93"/>
    <polygon points="926.41 163.54 907.93 163.54 892.99 108.37 879.4 58.16 865.8 108.37 860.77 126.91 859.98 129.82 842.27 129.83 841.45 129.83 842.27 126.92 871.22 23.65 889.83 23.65 926.41 163.54"/>
    <line class="cls-6" x1="858.44" y1="108.37" x2="904.36" y2="108.37"/>
    <polygon points="992.23 162.86 953.76 69.99 953.76 162.86 935.76 162.86 935.76 23.25 953.12 23.07 991.59 116.12 991.59 23.65 1009.59 23.65 1009.59 162.86 992.23 162.86"/>
    <path class="cls-6" d="m1031.35,154.37l95.15.08c0-57.46-51.79-105.43-95.28-118.32l.13,118.24Z"/>
  </g>
</svg>